<svg version="1.1" id="Layer_1" xmlns="http://www.w3.org/2000/svg" x="0" y="0" viewBox="0 0 658.3 192.9" xml:space="preserve"><style>.st1{fill:#7aefe1}.st2{fill:none}.st4{fill:#fff}</style><path fill="#00d1bf" d="M.2 0h658.3v192.9H.2z"/><path class="st1" d="M-19.1 318.8C0 270.6 75.6 208.8 96.5 192.7c1.2 1.6 2.9 2.7 4.8 3.4-1.7 2.7-4.1 5.9-6.6 7 .8.5 2.1.3 3.9-.6-1.8 1.7-4.5 4.9-6.9 5.9 1.3.2 2.6 0 3.7-.6-2.1 2.1-4.6 3.9-7.3 5.2.8.3 2.6 0 3.8-.2-1.6 1.9-2.7 2.2-4.5 3.2 1 .1 2 0 3-.3-2 1.8-5.3 4-7.6 4.5 1.4.8 3 1 4.5.7-3.5 3.4-7.8 5.5-12.3 5.2 2.6 2.4 7 1.9 10.7.3-1.1 1.9-5.2 4.7-8.4 5.7 2.9-.1 5.7-.9 8.2-2.4-2.1 2.3-4.7 4.2-7.6 5.3 1 .5 3.9-.2 5.1-.7-1.8 1.4-3.7 2.7-5.7 3.7 2.8.5 7.7-2.8 10.5-6.4-.9 3.6-4.1 6.8-5.7 8.6 3.1-1.6 5.6-4.2 7-7.4-.7 4-2.5 7.7-5.1 10.7 12.8-12.4 18.5-27.5 21-38.4 1.4-.4 2.7-1.2 3.7-2.2-.2 3-2.3 4.8-4.6 7.1 3.2-1 6.3-2.8 7.5-4.4-1.2 3.3-5.7 7.9-9.2 10.3 4-1.2 7.7-3.3 10.8-6.1-.6 3.5-4 7.9-6.9 10.5 4-1.3 7.3-4.2 10.6-7.8-1.2 4.5-5.1 8.6-8.1 10.7 2.4-.4 4.6-1.7 6-3.7-.3 2.5-2.3 5.6-4.6 6.5 1.7.1 3.3-.5 4.5-1.6-.8 2-3 6.5-4.7 7.9 1.7-.5 3.3-1.6 4.4-3-1.8 4-4.7 7.5-8.4 9.9 1.3-.6 4.1-1.4 6-3.1-1.4 3.1-4.4 4.8-6.4 6.2 5.9-1.3 10.7-4.5 12.9-7.3-.3 2.1-2.3 3.4-3.8 5.4 5.2-1.8 7.7-6 9-13.1.9 3.5 1 7.1.5 10.7 3.2-3.8 2-11.5 1.6-15.7 0-.4-.1-.8-.1-1.3 1.3-1 2.5-2.3 3.4-3.7.1 1.4-.9 4.9-2.8 7.5 3.2-2.5 5.3-6.2 5.6-10.2.3 2.2 1.2 5 .8 7.9 1.6-3.2 2.2-6.8 1.7-10.4.8 1.5 2.4 4.1 1.8 5.9 3.2-4.3.8-8.5.3-11 2.4 1 3.4 3.2 4.4 5.3.5-2.8-.5-5.6-2.6-7.4 1.5.3 2.9.9 4.3 1.5-1.1-1.6-3.7-2.9-5.7-4.9 1.2-.2 2.8.3 4.7.7 3.2 4.9 3.9 11 .8 14.3 2.4-.8 4.1-3 4.4-5.5.9 1.2 1.3 2.6 1.1 4.1 1-.6 1-3.1.3-4.6 3.3 2.1 3.5 7.2 1.3 10 3-1.5 4.4-5 3.1-8.1 1.9 2.1 2.8 5 2.5 7.8 1.1-.9 2.1-3.8 1.4-6.4 1.7 2.3 2.8 4.2 2.9 6.5.8-2.6.4-5.4-2.9-10 1.9.3 4.7 4.7 5.1 6.5-.1-3.4-.6-8.3-7.7-15.9 2.5.9 6.1 4.2 7.9 7.4-.8-4.4-3.9-8.2-9.3-12.5 2.5-.4 5.5 2 8.1 3.7-7-6.9-13.1-10.5-22.4-11.5 2.7-1.1 5.3-.2 7.7.4-2.3-1.1-7-2.2-12.2-2.9.1-1.1-.3-2.3-1.2-3-.7-.6 3.7.8 4.7 2.8.4-1.1.1-2.3-.9-3 1.7.4 2.2 1.6 3.1 2.8 0-1.7-.8-3.3-2.1-4.3 2.6.6 4 3 5 5 .4-2.3-.5-4-1.4-5.8 2.1.6 3.9 2 4.9 3.9-.1-2.7-.7-4.6-2.7-6 2.1-.2 3.8.6 4.1 3.2 1.9-1.3 1.2-3.1 1.9-4.2 1.4 2.7.3 4.1-.6 5.6 2.2-.7 5.3-3.1 5.9-6.2.9 1.5.4 4-.8 5.7 3.3-1.6 1.9-4.7 3-3.8 1.7 1.4 2.9 3.3 3.4 5.4.9-1.3-.5-4.9-2.1-5.8 2.3.6 4.5 1.5 6.6 2.7-1.4-1.5-2.9-2.8-4.5-4 2.9.2 6.2 0 9.8.7-3.3-1.5-6.8-2.2-10.4-2.3 1-.3 3.1-1.5 5-1.5-2.5-1.4-5-.9-7-1 2-1.7 5.3-1.6 7.7-2.1-3.6-.7-10.1-.5-17 2 .8-.5 6.1-3.7 9.7-4.5-6.8-.3-22.5 5.1-26.2 6.8-2.2 1-7.1 2.7-12 4.6 2.6-1.9 5.4-3.7 8.3-5.3.8-.7 3.2.6 4.2.5-.7-.5-1.3-1.1-1.7-1.8 1-.5 3.6 0 5.4.1-1.6-1.2-2.8-1.8-3.1-3.6 1.6-.5 4.2.1 6.3 1.4-.3-1-1.7-2.8-2.1-4.5-.2-.7 4.7 1.3 6.5 2.2-.4-.9-1-1.8-1.7-2.6 1.4.4 2.7.9 4 1.3-.3-.9-1.7-2.5-1.5-3.4 2.2.6 4.2 1.7 6.3 2.3-1.5-1.6-3.8-4.2-4.4-6.4 2.1 1.2 4.4 2.1 6.8 2.4-1-.7-1.4-1.9-1.2-2.3 1.4 0 2.8 1 4 1.4-.1-.3-1-2.4-1.2-2.7 1.8.6 3.6 1.4 5.2 2.5-1.3-1.8-2.8-3.5-4.6-4.8 2.7.8 5.2 1.9 7.6 3.4-.8-1.7-2.5-3.2-5.1-4.4 4.4-.4 8.8-.2 13.2.4-1-.3-6-3.3-10.4-2.9.6-.7 1.4-1.2 2.3-1.3-3.3-.6-6.7-.4-9.8.7.5-.9 2.6-1.8 4.5-2.6-3.2.1-6.5.5-13.6 5.2 1.1-.9 1.9-2.9 5-5.1-6.6 2-9.9 8.3-12.2 9.8-4.6 3.1-9 6.6-13.2 10.3 9.1-12.5 10.9-21.8 11.1-27.2.2-4.3 1.1-12-2.7-15.8.9 3.5.9 7.2.1 10.8-1.8-7.1-4.9-11.3-10.9-13 1.8 2 4.2 3.2 4.7 5.4-2.7-2.8-8.3-5.9-15.1-7.2 2.3 1.4 5.8 3.1 7.6 6.2-2.2-1.7-5.5-2.5-6.9-3.1 4.2 2.3 7.7 5.7 10.1 9.9-1.4-1.4-3.2-2.5-5.1-3 1.9 1.4 4.8 5.9 5.8 7.9-1.5-1.1-3.3-1.7-5.2-1.5 2.8 1.2 4.8 3.6 5.6 6.5-1.8-2.1-4.3-3.4-7.1-3.7 3.5 2.1 8.2 6.2 9.8 10.7-3.9-3.6-7.9-6.5-12.5-7.7 3.4 2.5 7.6 6.9 8.5 10.4-2.9-2.2-6.2-4-9.7-5.2-.1-.8-.3-1.5-.4-2.1-1.8-7.4.2-11.2-2.3-16.4-.6 2.5-.9 5-1.8 6.2-1-3.4-1.1-6.9-2.1-9.2.1 1.8-.1 3.6-.5 5.4-.8-3.4-3-6.4-6-8.1 1.6 2.6 3.3 5.2 3.1 8.3-2.3-2.4-5.2-8-11-8.1 2 .7 3.8 4.3 4.9 6.2-4.3-4.3-7.9-5.3-10.9-6.3 3 1.8 5.3 4.8 7.4 6.8-2.4-1.6-7.7-4.1-12.6-2.4 3.1.2 6.1 1.2 8.6 3-3.2-.4-5.9.4-7 1.3 1.4.4 2.6 1 3 2.1-2.3 1.9-5.9 2.1-5.4 2.1 3.8.7 7.8.1 11.4-.5-2.1 1.5-4.4 2.8-6.8 3.7 2.9.2 4.2.3 6.7-.6-1.4 1.2-2.9 2.4-3.5 3.6 4.5-2.8 7.3.2 10.6-1.1-.9.9-1.9 1.7-3 2.3 1.9-.3 3.7-1.2 5.5.1-1.4 2.1-4.2 3-6 3.4 2.6.4 5.2.9 7.8 1.7-1.2.6-4.3 1.1-5.5 1.6 1.3.1 2.6.3 3.9.7-.3.4-2.7.6-2.9 1 2.3.6 3.2 1.6 4.8 2.6-.5.7-3 .8-2.2 1.1 1.4.6 2.6 2.5 3.1 2.7 2.6.8.5 1.7-1.3 2.9-4.8-8.8-12.4-18.5-23.9-23.9 3.1 2 5.4 5 6.7 8.4-1.8-2.5-4.6-4-7.6-4.1 1.8 1.1 5.2 2.7 6.7 5.9-3.2-2.2-8.1-3.2-10.4-1.4 1.9 0 3.9.3 5.7 1-1.2 0-3.8.7-4.6 1.7 2.7-.3 5.3.3 7.6 1.7-2.6-.2-5.3.3-7.6 1.5 2.9-.5 7.1.4 8.4 1.7-1.3 0-2.5.3-3.7.7-.9-.5-1.8-.9-2.7-1.3-4.5-1.8-9.1-3.2-13.8-4.3-5.5-1.2-11.8 1.8-16.8 1 3.4 1.7 7.2 1.2 11.1 1.3-5.2 1.7-14.1 4.6-19 5.3 6.3 1.9 14.6-2 20.5-2.7-2.7 2.2-5.4 3.5-11.7 6.2 4.6-.3 8.3-2.2 10.3-2.8-1 1.6-2.6 2.8-4.4 3.3 4.3.1 8.7-2.8 11.5-4.9-2 3.4-5 6.1-8.6 7.7 5.9-1 9.4-5.6 12.4-6.2-1.2 1.8-5.2 5.2-7.8 6.9 2.9-.9 6.1-1.8 9.3-4.2-1 1.4-2.3 2.7-3.8 3.6 2 0 6.4-1.5 7.8-3.1-1.3 2.1-4.2 2.8-6.7 5.9 3.2-1.9 6.9-2.8 10.7-2.8-1.7 1.1-3.4 2.3-4.9 3.6 2.4-.5 4.7-1.4 6.9-2.6-.3 1.1-1 2.1-1.8 2.9-7.1-.7-13.6 0-17.7-1.3.5.4 3.2 1.8 3.9 2.2-8.3-.2-27.9 9.4-32.4 21.3 2.3-2.9 4.3-6.4 8.2-7.8-1 1.1-1.5 2.5-1.4 3.9 1.1-2.1 6-6.2 7.5-6.1-.7 1.1-2.2 2.6-2 3.5 2.2-2.7 6.3-5.8 6-3.3 1.8-2 4.4-4.6 6.7-5.8-1.3 1.1-2.2 2.8-2.4 4.5 1.1-2.2 6.4-4.3 7.8-5.3-1.4 2.7-1.1 3.6-1.9 5.9-2.6-.2-5.2.4-7.6 1.5 3.7-.5 5.6.5 6.9.4-8.2 1.2-10.9 3.1-13.4 5.2 1.9-.7 4.1-1.4 5-1.1-2.9 1.1-5.6 3.5-7.8 6 .7-.6 1.6-.8 2.5-.6-3.4 2.6-5.3 8.1-5.9 9 2.8-3.4 6.1-6.5 9.6-9.1-1.1 2-1.5 4.3-1.1 6.6.9-2.7 2.1-5.2 3.6-7.6-.5 2.2-.7 4.5-.4 6.7.5-1.9 1.3-3.6 2.3-5.3.1.3.7 2.4.8 2.7.6-1 1.1-2.7 2.1-3.7.6.7.8 1.6.5 2.5 1.6-1.8 2.9-4 3.6-6.3.9 2.1.8 5.5.7 7.7 1.2-1.9 2-4 3.3-5.9.7.5.7 2.7 1 3.5.8-1.2 1.4-2.5 2.2-3.6.1 1 .1 2.7.4 3 .9-1.9 3.2-6.6 3.5-6 .7 1.5.8 3.8 1.2 4.8.8-2.4 2.3-4.5 3.8-5.3.9 1.5.4 2.8-.1 4.7 1.3-1.3 2.9-3.4 4-3.7.2.8.1 1.7-.1 2.5.8-.6 1.8-3.1 2.8-3.2s6.1-1.7 11.5-1.7v.6c-6.5 2.9-16.3 6.2-22.3 9-3.8 1.8-7.8 3.3-11.9 4.4-3.6.9-7.7 2.4-12.2 3.1 2.7.8 4.9.8 7.4 1.6-3.5 2.3-5.4 2.7-8.8 4.2 2.9.6 6.8-.5 9.2-1.3-3.8 2.7-7.2 6.6-7.8 10.2 3-3.8 6.4-7.2 10.3-10.1-2.5 3.9-4.2 6.6-3.9 10.4.5-2.4 2.4-4.9 3.8-6.5-.4 2.3-.8 4.9-1.5 7.6 2-2.5 3.3-6.3 4.1-9.4-.4 2.1-.5 4.2-.3 6.3-33.4 28.8-75.5 77.2-89.3 98.7-1.2 2.5 9.6 6.5 10 4.8zm152-133.5c-1.1-.2-2.3-.3-3.5-.4-.2-.5-.4-1-.7-1.5 1.5.2 3.3.5 4.2 1.9zm-5.5-.6c-.6 0-1.2-.1-1.8-.1-.2-.2-.3-.4-.5-.6.7.2 1.5.4 2.3.7zm-4.1-.3h-.9c.2-.2.4-.3.6-.2s.2.1.3.2zm-16.7 12.1c.1 0 .2 0 .3-.1 0 2-.4 4-1.2 5.8.4-1.9.7-3.8.9-5.7zm-5.4-32.2c.7.4 1.5.6 2.3.7-.1.6-.8.9-1.2 1.3-.4-.7-.7-1.3-1.1-2zm2.1 4.2c.1.1.2.2.2.4.3.6.5 1.2.7 1.8-.2-.8-.5-1.5-.9-2.2zm-5.3 5.8l-.2-.2c.2.1.3.2.5.2H98zm-13.4-13.1l-.3-.2c.1.1.3.1.3.2zm29.4 33.1h.2l-.1.2-.1-.2zm1.1 1.6c1.3-.6 2.2-.8 1.5.8 0 .6.1 1.2.3 1.8-.6-.8-1.2-1.7-1.8-2.6zm2.4 3.8c.4-.4.9-.7 1.4-.9 0 .9-.1 1.9-.2 2.8-.4-.7-.8-1.3-1.2-1.9zm1.7 2.8c.4-.4.8-.8 1.3-1l-.9 1.8c-.1-.3-.2-.6-.4-.8zm.7 1.3c1.1-1 2.2-1.9 3.4-2.7-.7 1.6-1.4 3.2-2.3 4.7-.4-.6-.7-1.3-1.1-2zm1.4 2.7c1.4-1.1 3-1.9 4.8-2.2-.1 1.8-1.8 2.8-3.2 4.1 1.1-.6 2.3-1.1 3.5-1.4-1.6 1.1-2.2 2.6-3.2 4.1-.5-1.5-1.2-3-1.9-4.6zm2.7 6.7l.1-.1-.1.1zm.6 1.8c.7-.3 1.3-.6 2-.9-.6.6-1.2 1.1-1.7 1.7-.2-.2-.3-.5-.3-.8zm-12.4-48.2c.1-1.9.1-3.8.1-5.6 3.5 5.3 1.9 6.1-.1 5.6zm.1-6.9c0-1.4-.1-2.7-.1-4 2.3 1.8 4.1 3.5 4.5 6.1-1.3-1-2.8-1.7-4.4-2.1zm-.1-4.6c-.1-1.6-.2-3-.4-4.2 3.4 2.5 6.8 5.8 8 8.3-1.4-1.5-4.4-3.1-7.6-4.1zm-15.5 22.6c-1.8-1.7-3.9-3.1-6.1-4.2 2.4.9 4.5 2.3 6.1 4.2zm-10-5.9c-.6-.2-1.3-.4-1.9-.6 1.1 0 2.3-.2 3.4-.5-.4.5-.9.9-1.5 1.1zm-5.6-1.5c-.8-.1-1.5-.3-2.3-.4.9-.3 1.8-.6 2.6-1-.1.4-.2.9-.3 1.4zm6.7 24.1c-.9.5-1.7 1.1-2.6 1.7.9-1.4 2-2.6 3.2-3.7-.1.7-.3 1.4-.6 2zm-4.9 3.3c-.5.3-.9.7-1.4 1 .4-.8.9-1.6 1.4-2.4v1.4zm-7.4 5.4c-.3.2-.6.5-.9.7.2-.4.5-.8.8-1.3 0 .2.1.4.1.6zm-4.9 3.8l-.4.3c.1-.3.2-.7.2-1 .1.2.2.5.2.7zm-2.1 1.7c-.3.3-.7.5-1 .8.2-1.1.3-2.3.3-3.4.4.8.6 1.7.7 2.6zm-3.4 2.8c-.5.4-1 .9-1.6 1.3.2-1.6.6-3.2 1.2-4.7.3 1.1.4 2.3.4 3.4zm-2.4 2c-.5.4-1 .9-1.6 1.3.3-2.1.8-4.2 1.4-6.2 0 1.6 0 3.3.2 4.9zm66.3-20.7c3.5 1.4 6.7 3.3 9.6 5.7.3.3.7.6 1 .9-2.2-1.3-4.9-2.1-7.8-4.7-.9-.7-1.8-1.3-2.8-1.9zm-45.6-11.8h-2.3c.8-.1 1.6-.1 2.3 0zm-7.2.3c-.5 0-1 .1-1.5.1.3-.2.6-.4 1-.5.2-.1.4.1.5.4zm-4.2.4l-.7.1c.2-.2.5-.4.7-.6v.5zm-2.5.2l-1 .1c.5-.4 1-.9 1.4-1.2-.1.4-.3.7-.4 1.1zm-3.1.4c-1.5 0-3.8-.5-6.5-.6 2.1-2.2 5.8-4.3 7.1-3.6s.3 2.5-.6 4.2z"/><path class="st1" d="M-37.2 326.2C2.9 263.6 8.9 123.7 10.2 85.9c-2.9-.1 1 3.6-1.3 1.9C7.3 92 1.6 93 2.5 96.9c-1.3-.5-2.1-2.2-2.6-5.1-.4 3.5-1.9 9.3-1.1 13-1.4-1.2-2.2-3-2.4-4.8-.7 4.2-.7 8.6 0 12.8-1-.7-2.2-3-3-4.6-.9 3.5-.3 5 0 7.9-.9-1.1-1.6-2.4-2.1-3.8-.5 3.8-.2 9.5 1.2 12.7-2-1-3.6-2.6-4.6-4.6-1.1 7 .1 13.7 4.2 18.7-5-1-8.1-6.6-9.3-12.2-1.2 2.9-1.1 10.1.4 14.5-2.3-3.5-3.7-7.5-4.1-11.6-.9 4.8-1.1 8.9.2 13.2-1.5-.7-3.1-4.7-3.4-6.6-.2 3.3 0 6.6.5 9.8-2.9-2.8-3.2-11.3-1.4-17.5-3.5 4-4.5 10.4-5.3 13.9-.8-5 .2-10.1 2.8-14.4-2.5 2.1-6.5 7.9-8.3 14.9 3.8-25.4 16.6-44.6 27.2-56.6-.6-2-.8-4.1-.5-6.1-3.4 2.8-3.7 6.6-4.4 11.3-1.5-4.6-2-9.6-1.1-12.5-2.8 4.1-4.4 13.2-4.4 19.3-2.2-5.5-2.5-12.1-1.9-17.6-3.6 3.7-5.9 11.4-6.4 16.9-1.8-5.7-1.2-12.1.2-18.9-4.3 5.1-5.7 13.1-5.8 18.4-1.7-3.1-1.9-6.9-.7-10.2-2.7 2.4-4.6 7.4-3.8 10.8-1.5-1.9-2.2-4.2-1.9-6.6-1.6 2.5-5 9-5.3 12-.8-1.8-.8-5.2-.2-7.6-2.3 4-5 11.2-4.6 18.1-.3-2-1.8-6-1.3-9.6-2.4 4.2-2 9.2-1.9 12.6-3.4-8-3.8-16.2-2.3-21.2-2.3 2.1-2.1 5.6-3.1 9-2.3-7.6.5-14 7.7-21.4-4.8 1.9-9.2 4.8-12.9 8.5 1.7-7 11.7-11.9 17-15 .5-.3 1.1-.6 1.6-.9.1-2.4.6-4.8 1.5-7-1.7 1.1-5 5.1-6.4 9.5 0-7.5 4.6-12.9 7.2-15.1-2.9 1.5-6.8 2.8-9.9 5.7 2.1-3.4 4.6-7.5 10.7-10.6-2.4.4-6.8.6-8.4 2.8 2.3-7.4 9.3-8 12.6-9.6-3.2-1.9-6.5-1.3-9.8-.7 2.8-2.9 6.9-4.1 10.8-3.2-1.6-1.5-3.4-2.8-5.4-3.8 2.8 0 6.5 1.8 10.5 2.6-.8-1.6-2.7-3.1-4.7-4.9-8.4.4-16.1 4.7-17.3 11.1-1.4-3.7.7-8.4 2.7-9.8-2.4.1-4.2.6-5.7 2.1-.1-1.8 2.8-3.7 5.1-4.2-5.2-2-11.4 1.9-12.7 6.9-.8-4.8 2.2-9.3 6.9-10.5-4.1-.7-8.3 1.1-11.2 3.6.1-2.1 2.7-5.6 6.2-7-4.1-.1-7.3.2-10.1 2.1 2.3-3.1 5.9-5 14.1-5.1-2-2-9.5-1.6-11.8-.5 4-2.7 10.3-6.2 25-4.3-3.2-2.2-9.9-3.6-15.3-3 5.7-2.7 12.8-2.3 22.4.4-1.6-3.2-6.9-4.8-11.1-6.4 13.9 2.3 23.3 6.5 32.1 16.5-.9-4-4.1-6.3-6.9-8.7 3.3 1.8 8.4 6.4 13.6 11.8 1.2-1.1 2.9-1.5 4.5-1.1 1.4.3-4.1-3.6-7.2-3.1.9-1.4 2.7-2 4.3-1.4-1.9-1.6-3.8-1.2-5.8-1.2.9-.8 4.5-2.1 6.8-1.2-2.8-2.6-6.8-2.2-10.1-1.6 2.4-2.4 5.1-2.8 8-3.3-2.5-1.9-5.6-2.8-8.7-2.5 3.2-2.2 5.9-3 9.2-1.9-1.5-2.6-3.9-3.9-7.2-2.1-.1-3.3 2.5-4 3.3-5.7-4.4.6-5.1 3-6 5.3-1-3.1-.8-8.8 2.3-12-2.5.3-5.1 2.9-6 5.7-.9-5.1 3.8-6.2 2-6.6-3-.8-6.2-.6-9.1.5.7-2.1 6.1-3.5 8.5-2.4-2.7-2.1-5.5-3.9-8.6-5.4 2.8.4 5.7 1.1 8.4 1.9-2.7-3.2-5.2-7.2-9-10.8 4.5 2.6 8.3 6.1 11.4 10.3-.5-1.5-.9-4.8-2.4-7.1 3.7 1.7 5.2 5.1 7 7.3.3-3.7-2.6-7.5-4-10.7C-14.4-9-9.2-1.3-6.4 9c-.1-1.3-.8-10.3-2.9-15 6 7.7 12.9 30.5 14 36.2.6 3.3 2.8 10.6 4.7 17.8.3-6.9-.9-13-.8-14.2.1-1.5-3.4-3.2-4.1-4.5 1.2.4 2.4.5 3.6.4-.3-1.6-3-4.1-4.7-6.2 2.7.9 4.5 1.8 6.8.7-.8-2.3-3.6-4.8-7-6.2 1.4-.4 4.7-.4 7.1-1.3 1-.4-5.4-4.4-8-5.8.5-.3 2.9-.2 4.4-.2-1.6-1.3-3.3-2.3-4.8-3.6 1.3-.7 4.3-.5 5.2-1.5-2.5-2-5.5-3.4-8-5.4 3.2.4 8.1 1 11.3-.2-3.2-1.3-6.1-3.4-8.5-6 1.2.5 2.6.4 3.7-.4C4.4-7.9 2-8.8.6-9.8c.5-.2 3.6-.8 4.1-.9-2-1.7-4.7-2.7-7.2-4 3.2 0 6.4.4 9.5 1.4-3.1-2.5-6.6-4.5-10.3-6.1 3.3-.4 6.6.5 9.3 2.3-3.2-5.5-7.1-10.5-11.6-15 1.2 1 8.9 4.3 12.1 9.6.3-1.3.2-2.6-.5-3.8 3.3 3.5 6.3 7.6 7.4 12 .5-1.4-.2-4.6-.9-7.5 2.6 3.8 4.8 8 5.3 20.1.1-2 1.9-4.6 1.8-10.1 3.2 9.4-1.4 18.5-1.3 22.4.1 8-.2 16-.9 24 7-21.1 16.3-30.9 22.4-35.7 4.8-3.8 13-11.4 20.7-10-4.9 2.2-9.4 4.9-12.7 8.9C57.6-6 65.1-6 72.1-.3c-3.9-.4-7.4-2.1-10.3-.9 5.6.8 13.8 4.8 21 11.6-3.5-1.5-8.5-4.2-13.5-3.7 3.9 1.1 7.4 4.3 9.4 5.5-6.2-2.9-13.1-4.1-20-3.5 2.8.4 5.5 1.6 7.7 3.5-3.2-1.1-10.9-.6-14-.1 2.6.8 4.8 2.5 6.2 4.8-3.3-2.3-9-2.5-12.2-1 4 .5 6.8 1.8 10.2 5.1-5.4-2.3-14-4.4-20.6-2.4 7.5 1.5 14.1 3.8 19.5 8.1-5.8-1.9-14.4-3-19.3-1.1 5.1 1.6 9.9 4 14.2 7 1.1-.5 2-1 2.8-1.3 10.1-4.1 12.9-9.6 21-11-2.4 2.8-5.1 5.2-5.7 7.3 4.8-1.7 9-4.5 12.6-5.2-2.2 1.4-4.1 3.1-5.8 5.1 4.6-2 10.5-1.9 14.5.2-4.4.3-8.8.6-12.3 3.3 4.7.7 13.7-.6 18.6 6-2.5-1.8-8.2-.8-11.4-.5 8.6 1.4 12.8 4.7 16.5 7.5-4.7-2-10.1-2.2-14.1-2.9 3.9 1.4 11.2 5.5 13.3 12.8-3-3.9-8.2-6.9-10.7-7.5 3.1 3.4 4.6 7.2 4.3 9.3-1.7-1.3-3.3-2.1-4.9-1.8-.3 4.2 2.5 8.7 2.1 8.1-4-3.8-6.6-9.1-9-13.6-.1 3.7.4 7.4 1.4 11-2.7-3.2-3.9-4.7-4.9-8.3-.2 2.6-.4 5.4-1.3 7.1-.4-7.6-6.4-8.4-7.5-13.3-.3 1.8-.3 3.6-.2 5.4C68.4 47.8 68 45 65 44c-1.2 3.4 0 7.4 1.1 9.9-2.7-2.7-5.5-5.3-8.5-7.7.4 1.9 2.4 5.9 2.7 7.8-1.2-1.5-2.6-2.8-4.1-3.9-.2.7 1.6 3.6 1.3 4.3-2.6-2.2-4.6-2.4-7-3.3-.3 1.2 1.6 4.2.5 3.5-1.9-1.1-5.1-.8-5.8-1.4-3-2.4-2.4.8-2.3 4 14.3-2.3 32-1.6 47.9 7.4-4.9-1.9-10.2-2.1-15.3-.8 6.2.3 8.7 2.8 11.1 5.4-2.8-1.2-7.5-3.8-12.6-2.9 5.2 1.8 10.5 6.8 10.2 10.9-1.6-2.2-3.6-4.2-5.9-5.8 1 1.4 2.4 5 1.9 6.7-1.9-3.6-4.7-5.7-8.3-7.5 2.4 2.9 4 6.4 4.6 10.1-1.8-3.8-6.3-7.9-9-8.4 1 1.5 1.8 3.1 2.3 4.8 1.3.6 2.6 1.3 3.7 2.1 5.9 3.7 11.4 7.9 16.6 12.5 6 5.4 7.8 15.2 12.9 20.4-4.9-2.5-7.4-7.5-10.8-11.9 2.4 7.5 6.4 20.2 9.8 26.6-7.5-5.7-9.9-18.7-14-26.2-.3 5 .4 9.2 2.6 18.9-3.5-5.6-4.4-11.5-5.3-14.3-1 2.5-1 5.3-.2 7.9-3.7-4.9-3.9-12.4-3.9-17.5-2.3 5.1-2.9 10.9-1.8 16.4-3.8-7.7-1.4-15.6-3.2-19.7-1.1 2.9-1.7 10.4-1.5 14.8-1.4-4.1-3.1-8.6-2.9-14.4-.8 2.4-1.2 4.9-1 7.4-1.7-2.3-3.6-8.6-2.9-11.7-1.4 3.3.3 7.3-1.3 12.8-.1-3.1-2-10-5.7-14.9.2 2.9.2 5.8-.2 8.7-1.3-2.9-2.9-8.6-2.7-10.2-1 1.4-1.7 3.1-2.1 4.8 6.8 7.7 11.3 15.8 16.3 19.6-1-.3-4.8-2.2-5.8-2.7 7.2 9.5 12.4 40.4 2.2 55.6 1.5-5.1 3.9-10.3 2.2-16.1-.5 2-1.7 3.8-3.4 4.9 1.5-3 2.3-12.2.9-13.8-.7 1.8-1.2 4.7-2.4 5.3 1.3-4.9 1.5-12.2-1.2-9.7.8-3.8 1.6-9 1.1-12.7-.5 3.6-1.5 4.6-3.3 6.6 1.7-3.2-.3-11-.4-13.5-2 3.9-3.3 4.3-5.3 7.1 2.3 3 3.9 6.4 4.6 10.1-2.5-4.7-5.2-6.1-6.3-7.7 5.4 10.6 5.5 15.3 5.1 20-.8-2.8-1.8-5.9-2.9-6.8 1.2 4.3.6 9.4-.5 14.1 0-1.3-.5-2.5-1.4-3.5-.2 6.2-5 13-5.6 14.4 1.6-6.1 2.5-12.5 2.6-18.8-1.9 3.6-4.3 5.7-6.8 6.7 2.4-3.2 4.4-6.7 5.9-10.5-2.2 2.3-4.7 4.4-7.4 6.1 1.6-2.4 3.4-4.6 4.2-7.1-.4.2-3.4 1.3-3.9 1.4.7-1.6 2.3-3.6 2.6-5.5-1.3-.1-2.6.5-3.4 1.5.8-3.4 2.2-6.7 4.3-9.5-3.2.7-7.1 3.7-9.5 5.6 1.1-3 3-5.7 4.2-8.7-1.2-.4-3.7 1.4-4.9 1.8.7-1.9 1.7-3.7 2.4-5.6-1.2.9-2.4 1.6-3.8 2.1 1.5-2.6 5-9.3 4-9.1-2.4.4-5.1 2.2-6.6 2.6 2.2-3 3.4-6.5 3-8.9-2.5.2-3.6 1.9-5.4 4.1.4-2.7 1.5-6.2 1-7.8-1.1.5-2 1.3-2.8 2.2 0-1.5 2.2-4.7 1.4-5.9s-3.1-8.5-7.7-14.8c-.2.2-.4.4-.7.5 2.1 10 6.4 24.3 8.1 33.5 1.1 6 2.7 11.8 4.8 17.5 2 4.9 3.7 11 6.6 16.8-3.2-2.5-5-5.1-8.1-7.2.3 6 1.4 8.6 2.5 13.8-3.1-3-5.1-8.4-6.2-11.8.1 6.7-1.7 13.9-5.3 17.6 1.9-6.7 3-13.6 3.2-20.5-2.4 6.2-4.2 10.4-8.8 13.3 2.3-2.6 3.8-6.9 4.4-9.8-2.3 2.3-5 5.1-7.7 8.1 1.2-4.5 4.6-9.1 7.5-12.6-2.1 2.2-4.6 4.1-7.2 5.6-5.7 63-26.8 152.6-40.3 186.6-1.2 3.3-14.9-6-13.2-7.9zM-8.6 37.4l3.4 3.7c1-.3 2-.3 2.3-.5-1.6-1.4-3.4-3.3-5.7-3.2zm5.3 5.9c.6.7 1.1 1.3 1.6 2 .4 0 .7 0 1.1.1-.8-.6-1.7-1.4-2.7-2.1zm3.7 4.6c.3.3.5.7.8 1 .1-.3 0-.7-.3-.9-.2 0-.3 0-.5-.1zM.3 77.4c-.1-.1-.1-.3-.2-.4-2.3 1.7-4.2 3.8-5.7 6.2 1.9-2 3.9-4 5.9-5.8zm41.9-20.6c-1-.5-1.9-1.2-2.7-2.1-.6.6-.4 1.7-.5 2.5 1.1-.1 2.2-.3 3.2-.4zm-6.6 1.1c-.2 0-.5 0-.7.1-.9.2-1.9.4-2.8.7 1.2-.3 2.3-.6 3.5-.8zm-2.3 11h.4c-.2-.1-.5-.3-.7-.4.1.2.2.3.3.4zm26.5 4.8l.5.1-.6-.3.1.2zm-63.2-6.6c-.1-.1-.1-.2-.2-.3l-.1.3h.3zm-2.8 0c-.4-2-.8-3.2-2.1-1-.2.4-1.3.7-2.3 1.2 1.4-.1 2.9-.2 4.4-.2zm-6.4.2c.1-.8.1-1.5-.1-2.3-1.1.8-2.1 1.6-3 2.6l3.1-.3zm-4.7.5c.1-.8.2-1.6.1-2.4-.5.8-1 1.7-1.4 2.6.4-.1.9-.2 1.3-.2zm-2.1.2c.1-2.1.4-4.7.3-6.1-1.3 2.1-2.5 4.3-3.5 6.6 1-.2 2.1-.3 3.2-.5zm-4.3.7c.1-2.6-.4-5.1-1.5-7.4-2 1.6-1.7 4.4-2.1 7.1-.2-1.8-.6-3.6-1.3-5.3.1 2.8-1.2 4.7-2.1 7.1 2.3-.6 4.7-1.1 7-1.5zm-10.1 2.4l-.1-.2.1.2zm-2.6.9c-.2-1.1-.4-2.1-.6-3-.2 1.1-.4 2.3-.6 3.5.4-.2.8-.4 1.2-.5zm66.5-26c2.1-1.7 4.3-3.3 6.4-4.8-9 .4-8.6 3.1-6.4 4.8zm8-5.8c1.6-1.1 3.2-2.2 4.7-3.2-4-1.1-7.5-1.9-10.8-.1 2.2.7 4.3 1.8 6.1 3.3zm5.5-3.7c1.9-1.2 3.7-2.3 5.3-3.1-5.7-1.9-12.4-3.1-16.3-2.4 2.8.4 7.1 2.6 11 5.5zm-13.4 37c3.5.8 6.9 2 10.1 3.6-3-2.1-6.5-3.3-10.1-3.6zm15.2 6.7c.8.5 1.6 1.1 2.3 1.7-.9-1.4-1.7-2.8-2.3-4.3-.2.9-.2 1.7 0 2.6zm6.5 5.2l2.4 2.4c-.5-1.3-.8-2.6-.9-3.9-.5.5-1.1 1-1.5 1.5zM18.1 97.8c.1 1.5.1 2.9.2 4.4.9-2.2 1.4-4.5 1.6-6.8l-1.8 2.4zm.3 8.5v2.5c.6-1.2 1.2-2.4 1.6-3.7-.3.2-.9.7-1.6 1.2zm-.1 13.1v1.6c.3-.6.6-1.3.8-2-.3.1-.5.3-.8.4zm-.3 8.8v.8c.3-.4.6-.7.9-1.1l-.9.3zm-.2 3.9c0 .6-.1 1.2-.1 1.9 1.1-1.2 2.3-2.3 3.7-3.2-1.2.3-2.4.7-3.6 1.3zm-.5 6.3c-.1 1-.1 1.9-.2 2.9 1.7-1.6 3.2-3.4 4.5-5.3-1.2.6-2.7 1.4-4.3 2.4zm-.3 4.5c-.1 1-.2 2-.3 2.9 2.2-2.1 4.2-4.4 6-6.8-1.8 1.5-3.7 2.8-5.7 3.9zm-31.3-94.7c-4.5-3-9.5-5.1-14.7-6.4-.6-.1-1.3-.2-1.9-.3 3.3 1.5 6.6 3.9 12 5.2 1.6.4 3.1.9 4.6 1.5zm51.9 43.4c.6.9 1.3 1.8 1.9 2.7-.5-.9-1.2-1.9-1.9-2.7zm5.7 8.7c.4.6.8 1.3 1.2 1.9 0-.5-.1-1.1-.3-1.6-.1-.3-.4-.5-.7-.4-.1 0-.1.1-.2.1zm3.1 5.2l.5.8c.1-.5.1-.9.1-1.4l-.6.6zm1.7 3.1l.7 1.3c.1-1 .2-1.9.3-2.6-.3.4-.6.8-1 1.3zm2.2 3.9c1.3 1.8 3.8 4 6.1 7 .8-4.3.2-10.3-1.8-11.3-1.6-.8-3.2 1.8-4.3 4.3z"/><path id="SVGID" class="st2" d="M2.2 71h658.3v40.8H2.2z"/><path class="st4" d="M274.9 81.8c0 1.3-.9 2.4-2.2 2.4-1.3 0-2.2-1-2.2-2.4s.9-2.4 2.3-2.4c1.2 0 2.1 1 2.1 2.4zm-4.1 23.7l.5-18.1h2.6l.6 18.1h-3.7zm31-20.6c0 8.8-5.4 13.5-11.9 13.5-6.8 0-11.5-5.2-11.5-13 0-8.1 5.1-13.5 11.9-13.5 7 .1 11.5 5.4 11.5 13zm-19.9.4c0 5.5 3 10.4 8.2 10.4 5.2 0 8.2-4.8 8.2-10.6 0-5.1-2.7-10.4-8.2-10.4-5.5 0-8.2 5-8.2 10.6zm25 12.7V82.1h-2.6v-2.5h2.6v-.9c0-2.6.6-4.9 2.1-6.4 1.3-1.2 2.9-1.7 4.5-1.7 1.2 0 2.2.3 2.8.5l-.5 2.6c-.5-.2-1.2-.4-2.1-.4-2.8 0-3.6 2.5-3.6 5.3v1h4.4v2.5h-4.4V98h-3.2zm12.1-8.6c.1 4.5 3 6.4 6.3 6.4 2.4 0 3.8-.4 5.1-.9l.6 2.4c-1.2.5-3.2 1.1-6.1 1.1-5.7 0-9-3.7-9-9.3s3.3-9.9 8.6-9.9c6 0 7.6 5.3 7.6 8.7 0 .7-.1 1.2-.1 1.6h-13zm9.8-2.4c0-2.1-.9-5.4-4.6-5.4-3.4 0-4.9 3.1-5.1 5.4h9.7zm7.4-1.7c0-2.2 0-4-.2-5.7h2.9l.1 3.6h.2c.8-2.5 2.8-4 5.1-4 .4 0 .6 0 .9.1v3.2c-.3-.1-.7-.1-1.1-.1-2.4 0-4 1.8-4.5 4.3-.1.5-.2 1-.2 1.6V98h-3.3V85.3zm17.4-11v5.3h4.8v2.5h-4.8V92c0 2.3.6 3.6 2.5 3.6.9 0 1.5-.1 1.9-.2l.2 2.5c-.6.3-1.7.5-3 .5-1.6 0-2.8-.5-3.6-1.4-.9-1-1.3-2.6-1.3-4.8v-10h-2.8v-2.5h2.8v-4.4l3.3-1zM372.3 98l-.3-2.3h-.1c-1 1.4-3 2.7-5.6 2.7-3.7 0-5.6-2.6-5.6-5.3 0-4.4 4-6.9 11.1-6.8v-.4c0-1.5-.4-4.3-4.2-4.3-1.7 0-3.5.5-4.8 1.4l-.8-2.2c1.5-1 3.7-1.6 6-1.6 5.6 0 7 3.8 7 7.5v6.9c0 1.6.1 3.2.3 4.4h-3zm-.5-9.4c-3.6-.1-7.8.6-7.8 4.1 0 2.2 1.4 3.2 3.2 3.2 2.4 0 3.9-1.5 4.4-3.1.1-.3.2-.7.2-1.1v-3.1zm8.2 6c1 .6 2.7 1.3 4.4 1.3 2.4 0 3.6-1.2 3.6-2.7 0-1.6-1-2.5-3.4-3.4-3.3-1.2-4.9-3-4.9-5.2 0-3 2.4-5.4 6.3-5.4 1.9 0 3.5.5 4.5 1.1l-.8 2.4c-.7-.5-2.1-1.1-3.8-1.1-2 0-3.1 1.1-3.1 2.5 0 1.5 1.1 2.2 3.5 3.1 3.2 1.2 4.8 2.8 4.8 5.5 0 3.2-2.5 5.5-6.9 5.5-2 0-3.9-.5-5.2-1.3l1-2.3zm14.8 1.4c0-1.4 1-2.4 2.2-2.4 1.4 0 2.2 1 2.2 2.4 0 1.3-.9 2.4-2.2 2.4-1.2 0-2.2-1-2.2-2.4zm1-5.4l-.5-18.2h3.6l-.5 18.2h-2.6z"/><path class="st2" d="M-1.2 112.9h659.5v27.8H-1.2z"/><path class="st4" d="M190.6 121H186l-1.6 4h-.9l4.6-11.5h.5l4.5 11.5h-.9l-1.6-4zm-4.3-.7h4.1l-1.6-4.1c-.1-.3-.3-.8-.5-1.3-.1.5-.3 1-.5 1.4l-1.5 4zm11.9 4.9c-1.3 0-2.3-.5-2.9-1.5h-.1v5.2h-.8v-12.3h.7l.1 1.2c.6-.9 1.5-1.4 2.8-1.4 1.1 0 2 .4 2.6 1.1s.9 1.8.9 3.3c0 1.4-.3 2.5-.9 3.2s-1.3 1.2-2.4 1.2zm0-.7c.9 0 1.5-.3 2-1s.7-1.5.7-2.7c0-2.5-.9-3.7-2.7-3.7-1 0-1.7.3-2.2.8-.5.5-.7 1.4-.7 2.7v.3c0 1.3.2 2.3.7 2.8s1.1.8 2.2.8zm9.2-8.1c.4 0 .7 0 1.2.1l-.1.7c-.4-.1-.7-.1-1.1-.1-.7 0-1.3.3-1.8.9-.5.6-.7 1.4-.7 2.3v4.7h-.8v-8.5h.7l.1 1.5h.1c.3-.6.7-1.1 1.1-1.3.3-.2.7-.3 1.3-.3zm9.9 4.4c0 1.4-.3 2.5-1 3.2s-1.6 1.2-2.8 1.2c-.7 0-1.4-.2-2-.5-.6-.4-1-.9-1.3-1.5-.3-.7-.5-1.4-.5-2.3 0-1.4.3-2.5 1-3.2s1.6-1.2 2.8-1.2c1.2 0 2.1.4 2.7 1.2s1.1 1.7 1.1 3.1zm-6.7 0c0 1.2.3 2.1.8 2.7.5.7 1.2 1 2.2 1s1.7-.3 2.2-1c.5-.7.8-1.6.8-2.7 0-1.2-.3-2.1-.8-2.7-.5-.6-1.2-1-2.2-1s-1.7.3-2.2 1-.8 1.5-.8 2.7zm10.9 4.2l-3.3-8.5h.8l2.2 5.8c.3.7.5 1.4.7 1.9.2-.7.4-1.4.7-2l2.2-5.8h.8l-3.3 8.5h-.8zm8.9.2c-1.2 0-2.2-.4-2.9-1.1-.7-.8-1-1.8-1-3.2 0-1.4.3-2.4 1-3.3.7-.8 1.6-1.2 2.7-1.2 1 0 1.8.3 2.4 1s.9 1.6.9 2.8v.6h-6.1c0 1.2.3 2.1.8 2.7.5.6 1.3.9 2.3.9.5 0 .9 0 1.3-.1s.8-.2 1.4-.4v.7c-.5.2-.9.4-1.3.4s-1 .2-1.5.2zm-.2-8.1c-.8 0-1.5.3-2 .8s-.8 1.3-.9 2.3h5.3c0-1-.2-1.8-.6-2.3-.4-.6-1-.8-1.8-.8zm9 8.1c-1.2 0-2.2-.4-2.9-1.1s-1-1.8-1-3.2c0-1.4.4-2.5 1.1-3.3.7-.8 1.7-1.2 2.9-1.2.7 0 1.4.1 2.1.4l-.2.7c-.7-.2-1.4-.4-1.9-.4-1 0-1.8.3-2.4 1-.5.6-.8 1.6-.8 2.8 0 1.1.3 2 .8 2.7.5.6 1.3 1 2.3 1 .8 0 1.5-.1 2.1-.4v.7c-.5.2-1.2.3-2.1.3zm10.1-.2v-5.5c0-.9-.2-1.5-.5-1.9s-.9-.6-1.7-.6c-1 0-1.8.3-2.2.8-.5.5-.7 1.3-.7 2.5v4.7h-.8v-12.2h.8v5h.1c.3-.5.7-.9 1.2-1.1s1.1-.3 1.8-.3c1.9 0 2.9 1 2.9 3.1v5.6h-.9zm8.7 0l-.2-1.3h-.1c-.4.5-.9.9-1.3 1.2-.5.2-1 .3-1.6.3-.8 0-1.5-.2-1.9-.6-.5-.4-.7-1-.7-1.8s.3-1.5 1-1.9c.7-.5 1.7-.7 3-.7h1.6v-.6c0-.8-.2-1.4-.5-1.8s-.9-.6-1.6-.6c-.8 0-1.6.2-2.4.7l-.3-.9c.9-.4 1.9-.7 2.8-.7.9 0 1.6.2 2.1.7s.7 1.2.7 2.3v5.6h-.6zm-3.1-.5c.9 0 1.6-.3 2.1-.8s.8-1.2.8-2.2v-.8l-1.5.1c-1.2.1-2 .2-2.6.6s-.8.8-.8 1.5c0 .5.2.9.5 1.2.4.2.9.4 1.5.4zm16.5.5v-5.5c0-.9-.2-1.5-.5-1.9s-.9-.6-1.7-.6c-1 0-1.8.3-2.2.8-.5.5-.7 1.3-.7 2.5v4.7h-.8v-8.5h.7l.1 1.2c.6-.9 1.5-1.3 2.9-1.3 1.9 0 2.9 1 2.9 3.1v5.6h-.7zm4.2-8.5v5.5c0 .9.2 1.5.5 1.9s.9.6 1.7.6c1 0 1.8-.3 2.2-.8s.7-1.3.7-2.5v-4.7h.8v8.5h-.7l-.1-1.2c-.6.9-1.5 1.3-2.9 1.3-1.9 0-2.9-1-2.9-3.1v-5.5h.7zm12.2 8.7c-1.2 0-2.2-.4-2.9-1.1-.7-.8-1-1.8-1-3.2 0-1.4.3-2.4 1-3.3.7-.8 1.6-1.2 2.7-1.2 1 0 1.8.3 2.4 1s.9 1.6.9 2.8v.6h-6.1c0 1.2.3 2.1.8 2.7.5.6 1.3.9 2.3.9.5 0 .9 0 1.3-.1s.8-.2 1.4-.4v.7c-.5.2-.9.4-1.3.4s-1 .2-1.5.2zm-.3-8.1c-.8 0-1.5.3-2 .8s-.8 1.3-.9 2.3h5.3c0-1-.2-1.8-.6-2.3-.4-.6-1-.8-1.8-.8zm10.9 5.7c0 .8-.3 1.3-.9 1.8s-1.4.6-2.5.6-2-.2-2.7-.5v-.8c.9.4 1.8.6 2.7.6.8 0 1.5-.1 1.9-.4.4-.3.7-.6.7-1.1 0-.4-.2-.8-.5-1.1-.3-.3-.9-.6-1.7-.9-.8-.3-1.4-.6-1.8-.8s-.6-.5-.8-.8c-.2-.3-.3-.6-.3-1 0-.6.3-1.1.8-1.5.5-.4 1.3-.6 2.2-.6.9 0 1.8.2 2.6.5l-.3.7c-.8-.3-1.6-.5-2.3-.5-.7 0-1.2.1-1.6.3s-.6.5-.6 1c0 .4.2.8.5 1.1.3.3.9.6 1.8.9.8.3 1.3.5 1.7.7.3.2.6.5.8.8.2.3.3.6.3 1zm4.4 1.7c.5 0 .9 0 1.3-.1v.6c-.4.1-.8.2-1.3.2-.8 0-1.3-.2-1.7-.6-.4-.4-.5-1-.5-1.9v-5.5h-1.3v-.5l1.3-.4.4-1.9h.4v2.1h2.5v.7h-2.5v5.4c0 .7.1 1.1.3 1.4.3.3.6.5 1.1.5zm6.5-8.1c.4 0 .7 0 1.2.1l-.1.7c-.4-.1-.7-.1-1.1-.1-.7 0-1.3.3-1.8.9-.5.6-.7 1.4-.7 2.3v4.7h-.8v-8.5h.7l.1 1.5h.1c.3-.6.7-1.1 1.1-1.3.2-.2.7-.3 1.3-.3zm9.9 4.4c0 1.4-.3 2.5-1 3.2s-1.6 1.2-2.8 1.2c-.7 0-1.4-.2-2-.5-.6-.4-1-.9-1.3-1.5-.3-.7-.5-1.4-.5-2.3 0-1.4.3-2.5 1-3.2s1.6-1.2 2.8-1.2c1.2 0 2.1.4 2.7 1.2s1.1 1.7 1.1 3.1zm-6.7 0c0 1.2.3 2.1.8 2.7.5.7 1.2 1 2.2 1s1.7-.3 2.2-1c.5-.7.8-1.6.8-2.7 0-1.2-.3-2.1-.8-2.7-.5-.6-1.2-1-2.2-1s-1.7.3-2.2 1-.8 1.5-.8 2.7zm14.3 2c0 .8-.3 1.3-.9 1.8s-1.4.6-2.5.6-2-.2-2.7-.5v-.8c.9.4 1.8.6 2.7.6.8 0 1.5-.1 1.9-.4.4-.3.7-.6.7-1.1 0-.4-.2-.8-.5-1.1-.3-.3-.9-.6-1.7-.9-.8-.3-1.4-.6-1.8-.8s-.6-.5-.8-.8c-.2-.3-.3-.6-.3-1 0-.6.3-1.1.8-1.5.5-.4 1.3-.6 2.2-.6.9 0 1.8.2 2.6.5l-.3.7c-.8-.3-1.6-.5-2.3-.5-.7 0-1.2.1-1.6.3s-.6.5-.6 1c0 .4.2.8.5 1.1.3.3.9.6 1.8.9.8.3 1.3.5 1.7.7.3.2.6.5.8.8.2.3.3.6.3 1zm9.4-6.4c.6 0 1.1.1 1.6.3.4.2.8.6 1.2 1.1v-5h.8V125h-.5l-.2-1.3h-.1c-.6 1-1.6 1.5-2.8 1.5-1.2 0-2.1-.4-2.7-1.1-.6-.7-.9-1.8-.9-3.2 0-1.5.3-2.6.9-3.4.7-.7 1.6-1.1 2.7-1.1zm0 .7c-.9 0-1.6.3-2.1 1s-.7 1.6-.7 2.8c0 2.4.9 3.6 2.8 3.6 1 0 1.7-.3 2.1-.8.4-.6.7-1.5.7-2.8v-.1c0-1.3-.2-2.3-.7-2.8-.4-.6-1.1-.9-2.1-.9zm9.9 8.1c-1.2 0-2.2-.4-2.9-1.1-.7-.8-1-1.8-1-3.2 0-1.4.3-2.4 1-3.3.7-.8 1.6-1.2 2.7-1.2 1 0 1.8.3 2.4 1s.9 1.6.9 2.8v.6H343c0 1.2.3 2.1.8 2.7.5.6 1.3.9 2.3.9.5 0 .9 0 1.3-.1s.8-.2 1.4-.4v.7c-.5.2-.9.4-1.3.4s-.9.2-1.4.2zm-.2-8.1c-.8 0-1.5.3-2 .8s-.8 1.3-.9 2.3h5.3c0-1-.2-1.8-.6-2.3-.5-.6-1.1-.8-1.8-.8zm10.8 5.7c0 .8-.3 1.3-.9 1.8s-1.4.6-2.5.6-2-.2-2.7-.5v-.8c.9.4 1.8.6 2.7.6.8 0 1.5-.1 1.9-.4.4-.3.7-.6.7-1.1 0-.4-.2-.8-.5-1.1-.3-.3-.9-.6-1.7-.9-.8-.3-1.4-.6-1.8-.8s-.6-.5-.8-.8c-.2-.3-.3-.6-.3-1 0-.6.3-1.1.8-1.5.5-.4 1.3-.6 2.2-.6.9 0 1.8.2 2.6.5l-.3.7c-.8-.3-1.6-.5-2.3-.5-.7 0-1.2.1-1.6.3s-.6.5-.6 1c0 .4.2.8.5 1.1.3.3.9.6 1.8.9.8.3 1.3.5 1.7.7.3.2.6.5.8.8.2.3.3.6.3 1zm5.6 2.4c-1.2 0-2.2-.4-2.9-1.1s-1-1.8-1-3.2c0-1.4.4-2.5 1.1-3.3.7-.8 1.7-1.2 2.9-1.2.7 0 1.4.1 2.1.4l-.2.7c-.7-.2-1.4-.4-1.9-.4-1 0-1.8.3-2.4 1-.5.6-.8 1.6-.8 2.8 0 1.1.3 2 .8 2.7.5.6 1.3 1 2.3 1 .8 0 1.5-.1 2.1-.4v.7c-.5.2-1.2.3-2.1.3zm4.9-8.7v5.5c0 .9.2 1.5.5 1.9s.9.6 1.7.6c1 0 1.8-.3 2.2-.8s.7-1.3.7-2.5v-4.7h.8v8.5h-.7l-.1-1.2c-.6.9-1.5 1.3-2.9 1.3-1.9 0-2.9-1-2.9-3.1v-5.5h.7zm12.2 8.7c-1.2 0-2.2-.4-2.9-1.1-.7-.8-1-1.8-1-3.2 0-1.4.3-2.4 1-3.3.7-.8 1.6-1.2 2.7-1.2 1 0 1.8.3 2.4 1s.9 1.6.9 2.8v.6h-6.1c0 1.2.3 2.1.8 2.7.5.6 1.3.9 2.3.9.5 0 .9 0 1.3-.1s.8-.2 1.4-.4v.7c-.5.2-.9.4-1.3.4s-1 .2-1.5.2zm-.3-8.1c-.8 0-1.5.3-2 .8s-.8 1.3-.9 2.3h5.3c0-1-.2-1.8-.6-2.3-.4-.6-1-.8-1.8-.8zm7.9 7.4c.5 0 .9 0 1.3-.1v.6c-.4.1-.8.2-1.3.2-.8 0-1.3-.2-1.7-.6-.4-.4-.5-1-.5-1.9v-5.5h-1.3v-.5l1.3-.4.4-1.9h.4v2.1h2.5v.7h-2.5v5.4c0 .7.1 1.1.3 1.4.2.3.6.5 1.1.5zm10.1-3.7c0 1.4-.3 2.5-1 3.2s-1.6 1.2-2.8 1.2c-.7 0-1.4-.2-2-.5-.6-.4-1-.9-1.3-1.5-.3-.7-.5-1.4-.5-2.3 0-1.4.3-2.5 1-3.2s1.6-1.2 2.8-1.2c1.2 0 2.1.4 2.7 1.2s1.1 1.7 1.1 3.1zm-6.7 0c0 1.2.3 2.1.8 2.7.5.7 1.2 1 2.2 1s1.7-.3 2.2-1c.5-.7.8-1.6.8-2.7 0-1.2-.3-2.1-.8-2.7-.5-.6-1.2-1-2.2-1s-1.7.3-2.2 1-.8 1.5-.8 2.7zm14.3 2c0 .8-.3 1.3-.9 1.8s-1.4.6-2.5.6-2-.2-2.7-.5v-.8c.9.4 1.8.6 2.7.6.8 0 1.5-.1 1.9-.4.4-.3.7-.6.7-1.1 0-.4-.2-.8-.5-1.1-.3-.3-.9-.6-1.7-.9-.8-.3-1.4-.6-1.8-.8s-.6-.5-.8-.8c-.2-.3-.3-.6-.3-1 0-.6.3-1.1.8-1.5.5-.4 1.3-.6 2.2-.6.9 0 1.8.2 2.6.5l-.3.7c-.8-.3-1.6-.5-2.3-.5-.7 0-1.2.1-1.6.3s-.6.5-.6 1c0 .4.2.8.5 1.1.3.3.9.6 1.8.9.8.3 1.3.5 1.7.7.3.2.6.5.8.8.2.3.3.6.3 1zm9.5-6.4c.6 0 1.1.1 1.6.3.4.2.8.6 1.2 1.1v-5h.8V125h-.5l-.2-1.3h-.1c-.6 1-1.6 1.5-2.8 1.5-1.2 0-2.1-.4-2.7-1.1-.6-.7-.9-1.8-.9-3.2 0-1.5.3-2.6.9-3.4.6-.7 1.5-1.1 2.7-1.1zm0 .7c-.9 0-1.6.3-2.1 1s-.7 1.6-.7 2.8c0 2.4.9 3.6 2.8 3.6 1 0 1.7-.3 2.1-.8.4-.6.7-1.5.7-2.8v-.1c0-1.3-.2-2.3-.7-2.8-.4-.6-1.1-.9-2.1-.9zm9.8 8.1c-1.2 0-2.2-.4-2.9-1.1-.7-.8-1-1.8-1-3.2 0-1.4.3-2.4 1-3.3.7-.8 1.6-1.2 2.7-1.2 1 0 1.8.3 2.4 1s.9 1.6.9 2.8v.6H421c0 1.2.3 2.1.8 2.7.5.6 1.3.9 2.3.9.5 0 .9 0 1.3-.1s.8-.2 1.4-.4v.7c-.5.2-.9.4-1.3.4s-1 .2-1.5.2zm-.2-8.1c-.8 0-1.5.3-2 .8s-.8 1.3-.9 2.3h5.3c0-1-.2-1.8-.6-2.3-.5-.6-1.1-.8-1.8-.8zm11.6 7.9l-3.3-8.5h.8l2.2 5.8c.3.7.5 1.4.7 1.9.2-.7.4-1.4.7-2l2.2-5.8h.8l-3.3 8.5h-.8zm8.9.2c-1.2 0-2.2-.4-2.9-1.1-.7-.8-1-1.8-1-3.2 0-1.4.3-2.4 1-3.3.7-.8 1.6-1.2 2.7-1.2 1 0 1.8.3 2.4 1s.9 1.6.9 2.8v.6h-6.1c0 1.2.3 2.1.8 2.7.5.6 1.3.9 2.3.9.5 0 .9 0 1.3-.1s.8-.2 1.4-.4v.7c-.5.2-.9.4-1.3.4s-1 .2-1.5.2zm-.2-8.1c-.8 0-1.5.3-2 .8s-.8 1.3-.9 2.3h5.3c0-1-.2-1.8-.6-2.3-.5-.6-1.1-.8-1.8-.8zm8.9-.7c.4 0 .7 0 1.2.1l-.1.7c-.4-.1-.7-.1-1.1-.1-.7 0-1.3.3-1.8.9-.5.6-.7 1.4-.7 2.3v4.7h-.8v-8.5h.7l.1 1.5h.1c.3-.6.7-1.1 1.1-1.3.2-.2.7-.3 1.3-.3zm8 8.6l-.2-1.3h-.1c-.4.5-.9.9-1.3 1.2-.5.2-1 .3-1.6.3-.8 0-1.5-.2-1.9-.6-.5-.4-.7-1-.7-1.8s.3-1.5 1-1.9c.7-.5 1.7-.7 3-.7h1.6v-.6c0-.8-.2-1.4-.5-1.8s-.9-.6-1.6-.6c-.8 0-1.6.2-2.4.7l-.3-.7c.9-.4 1.9-.7 2.8-.7.9 0 1.6.2 2.1.7s.7 1.2.7 2.3v5.6h-.6zm-3.1-.5c.9 0 1.6-.3 2.1-.8s.8-1.2.8-2.2v-.8l-1.5.1c-1.2.1-2 .2-2.6.6s-.8.8-.8 1.5c0 .5.2.9.5 1.2.4.2.9.4 1.5.4zm12.4.5v-5.5c0-.9-.2-1.5-.5-1.9s-.9-.6-1.7-.6c-1 0-1.8.3-2.2.8-.5.5-.7 1.3-.7 2.5v4.7h-.8v-8.5h.7l.1 1.2c.6-.9 1.5-1.3 2.9-1.3 1.9 0 2.9 1 2.9 3.1v5.6h-.7zm10.5-4.2c0 1.4-.3 2.5-1 3.2s-1.6 1.2-2.8 1.2c-.7 0-1.4-.2-2-.5s-1-.9-1.3-1.5-.5-1.4-.5-2.3c0-1.4.3-2.5 1-3.2s1.6-1.2 2.8-1.2c1.2 0 2.1.4 2.7 1.2s1.1 1.7 1.1 3.1zm-6.7 0c0 1.2.3 2.1.8 2.7s1.2 1 2.2 1 1.7-.3 2.2-1 .8-1.6.8-2.7c0-1.2-.3-2.1-.8-2.7s-1.2-1-2.2-1-1.7.3-2.2 1-.8 1.5-.8 2.7z"/><path class="st1" d="M662.6-122.6C643.5-74.4 567.9-12.6 547 3.5c-1.2-1.6-2.9-2.7-4.8-3.4 1.7-2.7 4.1-5.9 6.6-7-.8-.5-2.1-.3-3.9.6 1.8-1.7 4.5-4.9 6.9-5.9-1.3-.2-2.6 0-3.7.6 2.1-2.1 4.6-3.9 7.3-5.2-.8-.3-2.6 0-3.8.2 1.6-1.9 2.7-2.2 4.5-3.2-1-.1-2 0-3 .3 2-1.8 5.3-4 7.6-4.5-1.4-.8-3-1-4.5-.7 3.5-3.4 7.8-5.5 12.3-5.2-2.6-2.4-7-1.9-10.7-.3 1.1-1.9 5.2-4.7 8.4-5.7-2.9.1-5.7.9-8.2 2.4 2.1-2.3 4.7-4.2 7.6-5.3-1-.5-3.9.2-5.1.7 1.8-1.4 3.7-2.7 5.7-3.7-2.8-.5-7.7 2.8-10.5 6.4.9-3.6 4.1-6.8 5.7-8.6-3.1 1.6-5.6 4.2-7 7.4.7-4 2.5-7.7 5.1-10.7-12.8 12.4-18.5 27.5-21 38.4-1.4.4-2.7 1.2-3.7 2.2.2-3 2.3-4.8 4.6-7.1-3.2 1-6.3 2.8-7.5 4.4 1.2-3.3 5.7-7.9 9.2-10.3-4 1.2-7.7 3.3-10.8 6.1.6-3.5 4-7.9 6.9-10.5-4 1.3-7.3 4.2-10.6 7.8 1.2-4.5 5.1-8.6 8.1-10.7-2.4.4-4.6 1.7-6 3.7.3-2.5 2.3-5.6 4.6-6.5-1.7-.1-3.3.5-4.5 1.6.8-2 3-6.5 4.7-7.9-1.7.5-3.3 1.6-4.4 3 1.8-4 4.7-7.5 8.4-9.9-1.3.6-4.1 1.4-6 3.1 1.4-3.1 4.4-4.8 6.4-6.2-5.9 1.3-10.7 4.5-12.9 7.3.3-2.1 2.3-3.4 3.8-5.4-5.2 1.8-7.7 6-9 13.1-.9-3.5-1-7.1-.5-10.7-3.2 3.8-2 11.5-1.6 15.7 0 .4.1.8.1 1.3-1.3 1-2.5 2.3-3.4 3.7-.1-1.4.9-4.9 2.8-7.5-3.2 2.5-5.3 6.2-5.6 10.2-.3-2.2-1.2-5-.8-7.9-1.6 3.2-2.2 6.8-1.7 10.4-.8-1.5-2.4-4.1-1.8-5.9-3.2 4.3-.8 8.5-.3 11-2.4-1-3.4-3.2-4.4-5.3-.5 2.8.5 5.6 2.6 7.4-1.5-.3-2.9-.9-4.3-1.5 1.1 1.6 3.7 2.9 5.7 4.9-1.2.2-2.8-.3-4.7-.7-3.2-4.9-3.9-11-.8-14.3-2.4.8-4.1 3-4.4 5.5-.9-1.2-1.3-2.6-1.1-4.1-1 .6-1 3.1-.3 4.6-3.3-2.1-3.5-7.2-1.3-10-3 1.5-4.4 5-3.1 8.1-1.9-2.1-2.8-5-2.5-7.8-1.1.9-2.1 3.8-1.4 6.4-1.7-2.3-2.8-4.2-2.9-6.5-.8 2.6-.4 5.4 2.9 10-1.9-.3-4.7-4.7-5.1-6.5.1 3.4.6 8.3 7.7 15.9-2.5-.9-6.1-4.2-7.9-7.4.8 4.4 3.9 8.2 9.3 12.5-2.5.4-5.5-2-8.1-3.7 7 6.9 13.1 10.5 22.4 11.5-2.7 1.1-5.3.2-7.7-.4 2.3 1.1 7 2.2 12.2 2.9-.1 1.1.3 2.3 1.2 3 .7.6-3.7-.8-4.7-2.8-.4 1.1-.1 2.3.9 3-1.7-.4-2.2-1.6-3.1-2.8 0 1.7.8 3.3 2.1 4.3-2.6-.6-4-3-5-5-.4 2.3.5 4 1.4 5.8-2.1-.6-3.9-2-4.9-3.9.1 2.7.7 4.6 2.7 6-2.1.2-3.8-.6-4.1-3.2-1.9 1.3-1.2 3.1-1.9 4.2-1.4-2.7-.3-4.1.6-5.6-2.2.7-5.3 3.1-5.9 6.2-.9-1.5-.4-4 .8-5.7-3.3 1.6-1.9 4.7-3 3.8-1.7-1.4-2.9-3.3-3.4-5.4-.9 1.3.5 4.9 2.1 5.8-2.3-.6-4.5-1.5-6.6-2.7 1.4 1.5 2.9 2.8 4.5 4-2.9-.2-6.2 0-9.8-.7 3.3 1.5 6.8 2.2 10.4 2.3-1 .3-3.1 1.5-5 1.5 2.5 1.4 5 .9 7 1-2 1.7-5.3 1.6-7.7 2.1 3.6.7 10.1.5 17-2-.8.5-6.1 3.7-9.7 4.5 6.8.3 22.5-5.1 26.2-6.8 2.2-1 7.1-2.7 12-4.6a78.1 78.1 0 01-8.3 5.3c-.8.7-3.2-.6-4.2-.5.7.5 1.3 1.1 1.7 1.8-1 .5-3.6 0-5.4-.1 1.6 1.2 2.8 1.8 3.1 3.6-1.6.5-4.2-.1-6.3-1.4.3 1 1.7 2.8 2.1 4.5.2.7-4.7-1.3-6.5-2.2.4.9 1 1.8 1.7 2.6-1.4-.4-2.7-.9-4-1.3.3.9 1.7 2.5 1.5 3.4-2.2-.6-4.2-1.7-6.3-2.3 1.5 1.6 3.8 4.2 4.4 6.4-2.1-1.2-4.4-2.1-6.8-2.4 1 .7 1.4 1.9 1.2 2.3-1.4 0-2.8-1-4-1.4.1.3 1 2.4 1.2 2.7-1.8-.6-3.6-1.4-5.2-2.5 1.3 1.8 2.8 3.5 4.6 4.8-2.7-.8-5.2-1.9-7.6-3.4.8 1.7 2.5 3.2 5.1 4.4-4.4.4-8.8.2-13.2-.4 1 .3 6 3.3 10.4 2.9-.6.7-1.4 1.2-2.3 1.3 3.3.6 6.7.4 9.8-.7-.5.9-2.6 1.8-4.5 2.6 3.2-.1 6.5-.5 13.6-5.2-1.1.9-1.9 2.9-5 5.1 6.6-2 9.9-8.3 12.2-9.8 4.6-3.1 9-6.6 13.2-10.3C511 39.3 509.2 48.6 509 54c-.2 4.3-1.1 12 2.7 15.8-.9-3.5-.9-7.2-.1-10.8 1.8 7.1 4.9 11.3 10.9 13-1.8-2-4.2-3.2-4.7-5.4 2.7 2.8 8.3 5.9 15.1 7.2-2.3-1.4-5.8-3.1-7.6-6.2 2.2 1.7 5.5 2.5 6.9 3.1-4.2-2.3-7.7-5.7-10.1-9.9 1.4 1.4 3.2 2.5 5.1 3-1.9-1.4-4.8-5.9-5.8-7.9 1.5 1.1 3.3 1.7 5.2 1.5-2.8-1.2-4.8-3.6-5.6-6.5 1.8 2.1 4.3 3.4 7.1 3.7-3.5-2.1-8.2-6.2-9.8-10.7 3.9 3.6 7.9 6.5 12.5 7.7-3.4-2.5-7.6-6.9-8.5-10.4 2.9 2.2 6.2 4 9.7 5.2.1.8.3 1.5.4 2.1 1.8 7.4-.2 11.2 2.3 16.4.6-2.5.9-5 1.8-6.2 1 3.4 1.1 6.9 2.1 9.2-.1-1.8.1-3.6.5-5.4.8 3.4 3 6.4 6 8.1-1.6-2.6-3.3-5.2-3.1-8.3 2.3 2.4 5.2 8 11 8.1-2-.7-3.8-4.3-4.9-6.2 4.3 4.3 7.9 5.3 10.9 6.3-3-1.8-5.3-4.8-7.4-6.8 2.4 1.6 7.7 4.1 12.6 2.4-3.1-.2-6.1-1.2-8.6-3 3.2.4 5.9-.4 7-1.3-1.4-.4-2.6-1-3-2.1 2.3-1.9 5.9-2.1 5.4-2.1-3.8-.7-7.8-.1-11.4.5 2.1-1.5 4.4-2.8 6.8-3.7-2.9-.2-4.2-.3-6.7.6 1.4-1.2 2.9-2.4 3.5-3.6-4.5 2.8-7.3-.2-10.6 1.1.9-.9 1.9-1.7 3-2.3-1.9.3-3.7 1.2-5.5-.1 1.4-2.1 4.2-3 6-3.4-2.6-.4-5.2-.9-7.8-1.7 1.2-.6 4.3-1.1 5.5-1.6-1.3-.1-2.6-.3-3.9-.7.3-.4 2.7-.6 2.9-1-2.3-.6-3.2-1.6-4.8-2.6.5-.7 3-.8 2.2-1.1-1.4-.6-2.6-2.5-3.1-2.7-2.6-.8-.5-1.7 1.3-2.9 4.8 8.8 12.4 18.5 23.9 23.9-3.1-2-5.4-5-6.7-8.4 1.8 2.5 4.6 4 7.6 4.1-1.8-1.1-5.2-2.7-6.7-5.9 3.2 2.2 8.1 3.2 10.4 1.4-1.9 0-3.9-.3-5.7-1 1.2 0 3.8-.7 4.6-1.7-2.7.3-5.3-.3-7.6-1.7 2.6.2 5.3-.3 7.6-1.5-2.9.5-7.1-.4-8.4-1.7 1.3 0 2.5-.3 3.7-.7.9.5 1.8.9 2.7 1.3 4.5 1.8 9.1 3.2 13.8 4.3 5.5 1.2 11.8-1.8 16.8-1-3.4-1.7-7.2-1.2-11.1-1.3 5.2-1.7 14.1-4.6 19-5.3-6.3-1.9-14.6 2-20.5 2.7 2.7-2.2 5.4-3.5 11.7-6.2-4.6.3-8.3 2.2-10.3 2.8 1-1.6 2.6-2.8 4.4-3.3-4.3-.1-8.7 2.8-11.5 4.9 2-3.4 5-6.1 8.6-7.7-5.9 1-9.4 5.6-12.4 6.2 1.2-1.8 5.2-5.2 7.8-6.9-2.9.9-6.1 1.8-9.3 4.2 1-1.4 2.3-2.7 3.8-3.6-2 0-6.4 1.5-7.8 3.1 1.3-2.1 4.2-2.8 6.7-5.9-3.2 1.9-6.9 2.8-10.7 2.8 1.7-1.1 3.4-2.3 4.9-3.6-2.4.5-4.7 1.4-6.9 2.6.3-1.1 1-2.1 1.8-2.9 7.1.7 13.6 0 17.7 1.3-.5-.4-3.2-1.8-3.9-2.2 8.3.2 27.9-9.4 32.4-21.3-2.3 2.9-4.3 6.4-8.2 7.8 1-1.1 1.5-2.5 1.4-3.9-1.1 2.1-6 6.2-7.5 6.1.7-1.1 2.2-2.6 2-3.5-2.2 2.7-6.3 5.8-6 3.3-1.8 2-4.4 4.6-6.7 5.8 1.3-1.1 2.2-2.8 2.4-4.5-1.1 2.2-6.4 4.3-7.8 5.3 1.4-2.7 1.1-3.6 1.9-5.9 2.6.2 5.2-.4 7.6-1.5-3.7.5-5.6-.5-6.9-.4 8.2-1.2 10.9-3.1 13.4-5.2-1.9.7-4.1 1.4-5 1.1 2.9-1.1 5.6-3.5 7.8-6-.7.6-1.6.8-2.5.6 3.4-2.6 5.3-8.1 5.9-9-2.8 3.4-6.1 6.5-9.6 9.1 1.1-2 1.5-4.3 1.1-6.6-.9 2.7-2.1 5.2-3.6 7.6.5-2.2.7-4.5.4-6.7-.5 1.9-1.3 3.6-2.3 5.3-.1-.3-.7-2.4-.8-2.7-.6 1-1.1 2.7-2.1 3.7-.6-.7-.8-1.6-.5-2.5-1.6 1.8-2.9 4-3.6 6.3-.9-2.1-.8-5.5-.7-7.7-1.2 1.9-2 4-3.3 5.9-.7-.5-.7-2.7-1-3.5-.8 1.2-1.4 2.5-2.2 3.6-.1-1-.1-2.7-.4-3-.9 1.9-3.2 6.6-3.5 6-.7-1.5-.8-3.8-1.2-4.8-.8 2.4-2.3 4.5-3.8 5.3-.9-1.5-.4-2.8.1-4.7-1.3 1.3-2.9 3.4-4 3.7-.2-.8-.1-1.7.1-2.5-.8.6-1.8 3.1-2.8 3.2s-6.1 1.7-11.5 1.7v-.6c6.5-2.9 16.3-6.2 22.3-9 3.8-1.8 7.8-3.3 11.9-4.4 3.6-.9 7.7-2.4 12.2-3.1-2.7-.8-4.9-.8-7.4-1.6 3.5-2.3 5.4-2.7 8.8-4.2-2.9-.6-6.8.5-9.2 1.3 3.8-2.7 7.2-6.6 7.8-10.2-3 3.8-6.4 7.2-10.3 10.1 2.5-3.9 4.2-6.6 3.9-10.4-.5 2.4-2.4 4.9-3.8 6.5.4-2.3.8-4.9 1.5-7.6-2 2.5-3.3 6.3-4.1 9.4.4-2.1.5-4.2.3-6.3 33.4-28.8 75.5-77.2 89.3-98.7 1.2-2.5-9.6-6.5-10-4.8zm-152 133.5c1.1.2 2.3.3 3.5.4.2.5.4 1 .7 1.5-1.5-.2-3.3-.5-4.2-1.9zm5.5.6c.6 0 1.2.1 1.8.1.2.2.3.4.5.6-.7-.2-1.5-.4-2.3-.7zm4.1.3h.9c-.2.2-.4.3-.6.2s-.2-.1-.3-.2zM536.9-.3c-.1 0-.2 0-.3.1 0-2 .4-4 1.2-5.8-.4 1.9-.7 3.8-.9 5.7zm5.4 32.2c-.7-.4-1.5-.6-2.3-.7.1-.6.8-.9 1.2-1.3.4.7.7 1.3 1.1 2zm-2.1-4.2c-.1-.1-.2-.2-.2-.4-.3-.6-.5-1.2-.7-1.8.2.8.5 1.5.9 2.2zm5.3-5.8l.2.2c-.2-.1-.3-.2-.5-.2h.3zM558.9 35l.3.2c-.1-.1-.3-.1-.3-.2zM529.5 1.9h-.2l.1-.2.1.2zM528.4.3c-1.3.6-2.2.8-1.5-.8 0-.6-.1-1.2-.3-1.8.6.8 1.2 1.7 1.8 2.6zM526-3.5c-.4.4-.9.7-1.4.9 0-.9.1-1.9.2-2.8.4.7.8 1.3 1.2 1.9zm-1.7-2.8c-.4.4-.8.8-1.3 1l.9-1.8c.1.3.2.6.4.8zm-.7-1.3c-1.1 1-2.2 1.9-3.4 2.7.7-1.6 1.4-3.2 2.3-4.7.4.6.7 1.3 1.1 2zm-1.4-2.7c-1.4 1.1-3 1.9-4.8 2.2.1-1.8 1.8-2.8 3.2-4.1-1.1.6-2.3 1.1-3.5 1.4 1.6-1.1 2.2-2.6 3.2-4.1.5 1.5 1.2 3 1.9 4.6zm-2.7-6.7l-.1.1.1-.1zm-.6-1.8c-.7.3-1.3.6-2 .9.6-.6 1.2-1.1 1.7-1.7.2.2.3.5.3.8zm12.4 48.2c-.1 1.9-.1 3.8-.1 5.6-3.5-5.3-1.9-6.1.1-5.6zm-.1 6.9c0 1.4.1 2.7.1 4-2.3-1.8-4.1-3.5-4.5-6.1 1.3 1 2.8 1.7 4.4 2.1zm.1 4.6c.1 1.6.2 3 .4 4.2-3.4-2.5-6.8-5.8-8-8.3 1.4 1.5 4.4 3.1 7.6 4.1zm15.5-22.6c1.8 1.7 3.9 3.1 6.1 4.2-2.4-.9-4.5-2.3-6.1-4.2zm10 5.9c.6.2 1.3.4 1.9.6-1.1 0-2.3.2-3.4.5.4-.5.9-.9 1.5-1.1zm5.6 1.5c.8.1 1.5.3 2.3.4-.9.3-1.8.6-2.6 1 .1-.4.2-.9.3-1.4zm-6.7-24.1c.9-.5 1.7-1.1 2.6-1.7-.9 1.4-2 2.6-3.2 3.7.1-.7.3-1.4.6-2zm4.9-3.3c.5-.3.9-.7 1.4-1-.4.8-.9 1.6-1.4 2.4v-1.4zm7.4-5.4c.3-.2.6-.5.9-.7-.2.4-.5.8-.8 1.3 0-.2-.1-.4-.1-.6zm4.9-3.8l.4-.3c-.1.3-.2.7-.2 1-.1-.2-.2-.5-.2-.7zm2.1-1.7c.3-.3.7-.5 1-.8-.2 1.1-.3 2.3-.3 3.4-.4-.8-.6-1.7-.7-2.6zm3.4-2.8c.5-.4 1-.9 1.6-1.3-.2 1.6-.6 3.2-1.2 4.7-.3-1.1-.4-2.3-.4-3.4zm2.4-2c.5-.4 1-.9 1.6-1.3-.3 2.1-.8 4.2-1.4 6.2 0-1.6 0-3.3-.2-4.9zM514.5 3.3c-3.5-1.4-6.7-3.3-9.6-5.7-.3-.3-.7-.6-1-.9 2.2 1.3 4.9 2.1 7.8 4.7.9.7 1.8 1.3 2.8 1.9zm45.6 11.8h2.3c-.8.1-1.6.1-2.3 0zm7.2-.3c.5 0 1-.1 1.5-.1-.3.2-.6.4-1 .5-.2.1-.4-.1-.5-.4zm4.2-.4l.7-.1c-.2.2-.5.4-.7.6v-.5zm2.5-.2l1-.1c-.5.4-1 .9-1.4 1.2.1-.4.3-.7.4-1.1zm3.1-.4c1.5 0 3.8.5 6.5.6-2.1 2.2-5.8 4.3-7.1 3.6s-.3-2.5.6-4.2z"/><path class="st1" d="M680.7-130c-40.1 62.6-49 202.4-50.3 240.2 2.9.1 5.7 1 8 2.7 1.6-4.2 3.5-9.7 2.6-13.6 1.3.5 2.1 2.2 2.6 5.1.4-3.5 1.9-9.3 1.1-13 1.4 1.2 2.2 3 2.4 4.8.7-4.2.7-8.6 0-12.8 1 .7 2.2 3 3 4.6.9-3.5.3-5 0-7.9.9 1.1 1.6 2.4 2.1 3.8.5-3.8.2-9.5-1.2-12.7 2 1 3.6 2.6 4.6 4.6 1.1-7-.1-13.7-4.2-18.7 5 1 8.1 6.6 9.3 12.2 1.2-2.9 1.1-10.1-.4-14.5 2.3 3.5 3.7 7.5 4.1 11.6.9-4.8 1.1-8.9-.2-13.2 1.5.7 3.1 4.7 3.4 6.6.2-3.3 0-6.6-.5-9.8 2.9 2.8 3.2 11.3 1.4 17.5 3.5-4 4.5-10.4 5.3-13.9.8 5-.2 10.1-2.8 14.4 2.5-2.1 6.5-7.9 8.3-14.9-3.8 25.4-16.6 44.6-27.2 56.6.6 2 .8 4.1.5 6.1 3.4-2.8 3.7-6.6 4.4-11.3 1.5 4.6 2 9.6 1.1 12.5 2.8-4.1 4.4-13.2 4.4-19.3 2.2 5.5 2.5 12.1 1.9 17.6 3.6-3.7 5.9-11.4 6.4-16.9 1.8 5.7 1.2 12.1-.2 18.9 4.3-5.1 5.7-13.1 5.8-18.4 1.7 3.1 1.9 6.9.7 10.2 2.7-2.4 4.6-7.4 3.8-10.8 1.5 1.9 2.2 4.2 1.9 6.6 1.6-2.5 5-9 5.3-12 .8 1.8.8 5.2.2 7.6 2.3-4 5-11.2 4.6-18.1.3 2 1.8 6 1.3 9.6 2.4-4.2 2-9.2 1.9-12.6 3.4 8 3.8 16.2 2.3 21.2 2.3-2.1 2.1-5.6 3.1-9 2.3 7.6-.5 14-7.7 21.4 4.8-1.9 9.2-4.8 12.9-8.5-1.7 7-11.7 11.9-17 15-.5.3-1.1.6-1.6.9-.1 2.4-.6 4.8-1.5 7 1.7-1.1 5-5.1 6.4-9.5 0 7.5-4.6 12.9-7.2 15.1 2.9-1.5 6.8-2.8 9.9-5.7-2.1 3.4-4.6 7.5-10.7 10.6 2.4-.4 6.8-.6 8.4-2.8-2.3 7.4-9.3 8-12.6 9.6 3.2 1.9 6.5 1.3 9.8.7-2.8 2.9-6.9 4.1-10.8 3.2 1.6 1.5 3.4 2.8 5.4 3.8-2.8 0-6.5-1.8-10.5-2.6.8 1.6 2.7 3.1 4.7 4.9 8.4-.4 16.1-4.7 17.3-11.1 1.4 3.7-.7 8.4-2.7 9.8 2.4-.1 4.2-.6 5.7-2.1.1 1.8-2.8 3.7-5.1 4.2 5.2 2 11.4-1.9 12.7-6.9.8 4.8-2.2 9.3-6.9 10.5 4.1.7 8.3-1.1 11.2-3.6-.1 2.1-2.7 5.6-6.2 7 4.1.1 7.3-.2 10.1-2.1-2.3 3.1-5.9 5-14.1 5.1 2 2 9.5 1.6 11.8.5-4 2.7-10.3 6.2-25 4.3 3.2 2.2 9.9 3.6 15.3 3-5.7 2.7-12.8 2.3-22.4-.4 1.6 3.2 6.9 4.8 11.1 6.4-13.9-2.3-23.3-6.5-32.1-16.5.9 4 4.1 6.3 6.9 8.7-3.3-1.8-8.4-6.4-13.6-11.8-1.2 1.1-2.9 1.5-4.5 1.1-1.4-.3 4.1 3.6 7.2 3.1-.9 1.4-2.7 2-4.3 1.4 1.9 1.6 3.8 1.2 5.8 1.2-.9.8-4.5 2.1-6.8 1.2 2.8 2.6 6.8 2.2 10.1 1.6-2.4 2.4-5.1 2.8-8 3.3 2.5 1.9 5.6 2.8 8.7 2.5-3.2 2.2-5.9 3-9.2 1.9 1.5 2.6 3.9 3.9 7.2 2.1.1 3.3-2.5 4-3.3 5.7 4.4-.6 5.1-3 6-5.3 1 3.1.8 8.8-2.3 12 2.5-.3 5.1-2.9 6-5.7.9 5.1-3.8 6.2-2 6.6 3 .8 6.2.6 9.1-.5-.7 2.1-6.1 3.5-8.5 2.4 2.7 2.1 5.5 3.9 8.6 5.4-2.8-.4-5.7-1.1-8.4-1.9 2.7 3.2 5.2 7.2 9 10.8-4.5-2.6-8.3-6.1-11.4-10.3.5 1.5.9 4.8 2.4 7.1-3.7-1.7-5.2-5.1-7-7.3-.3 3.7 2.6 7.5 4 10.7-3.9-3.6-9.1-11.3-11.9-21.6.1 1.3.8 10.3 2.9 15-6-7.7-12.9-30.5-14-36.2-.6-3.3-2.8-10.6-4.7-17.8-.3 6.9.9 13 .8 14.2-.1 1.5 3.4 3.2 4.1 4.5-1.2-.4-2.4-.5-3.6-.4.3 1.6 3 4.1 4.7 6.2-2.7-.9-4.5-1.8-6.8-.7.8 2.3 3.6 4.8 7 6.2-1.4.4-4.7.4-7.1 1.3-1 .4 5.4 4.4 8 5.8-.5.3-2.9.2-4.4.2 1.6 1.3 3.3 2.3 4.8 3.6-1.3.7-4.3.5-5.2 1.5 2.5 2 5.5 3.4 8 5.4-3.2-.4-8.1-1-11.3.2 3.2 1.3 6.1 3.4 8.5 6-1.2-.5-2.6-.4-3.7.4 1.2 1.5 3.6 2.4 5 3.4-.5.2-3.6.8-4.1.9 2 1.7 4.7 2.7 7.2 4-3.2 0-6.4-.4-9.5-1.4 3.1 2.5 6.6 4.5 10.3 6.1-3.3.4-6.6-.5-9.3-2.3 3.2 5.5 7.1 10.5 11.6 15-1.2-1-8.9-4.3-12.1-9.6-.3 1.3-.2 2.6.5 3.8-3.3-3.5-6.3-7.6-7.4-12-.5 1.4.2 4.6.9 7.5-2.6-3.8-4.8-8-5.3-20.1-.1 2-1.9 4.6-1.8 10.1-3.2-9.4 1.4-18.5 1.3-22.4-.1-8 .2-16 .9-24-7 21.1-16.3 30.9-22.4 35.7-4.8 3.8-13 11.4-20.7 10 4.9-2.2 9.4-4.9 12.7-8.9-9.8 3.8-17.3 3.8-24.3-1.9 3.9.4 7.4 2.1 10.3.9-5.6-.8-13.8-4.8-21-11.6 3.5 1.5 8.5 4.2 13.5 3.7-3.9-1.1-7.4-4.3-9.4-5.5 6.2 2.9 13.1 4.1 20 3.5-2.8-.4-5.5-1.6-7.7-3.5 3.2 1.1 10.9.6 14 .1-2.6-.8-4.8-2.5-6.2-4.8 3.3 2.3 9 2.5 12.2 1-4-.5-6.8-1.8-10.2-5.1 5.4 2.3 14 4.4 20.6 2.4-7.5-1.5-14.1-3.8-19.5-8.1 5.8 1.9 14.4 3 19.3 1.1-5.1-1.6-9.9-4-14.2-7-1.1.5-2 1-2.8 1.3-10.1 4.1-12.9 9.6-21 11 2.4-2.8 5.1-5.2 5.7-7.3-4.8 1.7-9 4.5-12.6 5.2 2.2-1.4 4.1-3.1 5.8-5.1-4.6 2-10.5 1.9-14.5-.2 4.4-.3 8.8-.6 12.3-3.3-4.7-.7-13.7.6-18.6-6 2.5 1.8 8.2.8 11.4.5-8.6-1.4-12.8-4.7-16.5-7.5 4.7 2 10.1 2.2 14.1 2.9-3.9-1.4-11.2-5.5-13.3-12.8 3 3.9 8.2 6.9 10.7 7.5-3.1-3.4-4.6-7.2-4.3-9.3 1.7 1.3 3.3 2.1 4.9 1.8.3-4.2-2.5-8.7-2.1-8.1 4 3.8 6.6 9.1 9 13.6.1-3.7-.4-7.4-1.4-11 2.7 3.2 3.9 4.7 4.9 8.3.2-2.6.4-5.4 1.3-7.1.4 7.6 6.4 8.4 7.5 13.3.3-1.8.3-3.6.2-5.4 1.3 2.5 1.7 5.3 4.7 6.3 1.2-3.4 0-7.4-1.1-9.9 2.7 2.7 5.5 5.3 8.5 7.7-.4-1.9-2.4-5.9-2.7-7.8 1.2 1.5 2.6 2.8 4.1 3.9.2-.7-1.6-3.6-1.3-4.3 2.6 2.2 4.6 2.4 7 3.3.3-1.2-1.6-4.2-.5-3.5 1.9 1.1 5.1.8 5.8 1.4 3 2.4 2.4-.8 2.3-4-14.3 2.3-32 1.6-47.9-7.4 4.9 1.9 10.2 2.1 15.3.8-6.2-.3-8.7-2.8-11.1-5.4 2.8 1.2 7.5 3.8 12.6 2.9-5.2-1.8-10.5-6.8-10.2-10.9 1.6 2.2 3.6 4.2 5.9 5.8-1-1.4-2.4-5-1.9-6.7 1.9 3.6 4.7 5.7 8.3 7.5-2.4-2.9-4-6.4-4.6-10.1 1.8 3.8 6.3 7.9 9 8.4-1-1.5-1.8-3.1-2.3-4.8-1.3-.6-2.6-1.3-3.7-2.1-5.9-3.7-11.4-7.9-16.6-12.5-6-5.4-7.8-15.2-12.9-20.4 4.9 2.5 7.4 7.5 10.8 11.9-2.4-7.5-6.4-20.2-9.8-26.6 7.5 5.7 9.9 18.7 14 26.2.3-5-.4-9.2-2.6-18.9 3.5 5.6 4.4 11.5 5.3 14.3 1-2.5 1-5.3.2-7.9 3.7 4.9 3.9 12.4 3.9 17.5 2.3-5.1 2.9-10.9 1.8-16.4 3.8 7.7 1.4 15.6 3.2 19.7 1.1-2.9 1.7-10.4 1.5-14.8 1.4 4.1 3.1 8.6 2.9 14.4.8-2.4 1.2-4.9 1-7.4 1.7 2.3 3.6 8.6 2.9 11.7 1.4-3.3-.3-7.3 1.3-12.8.1 3.1 2 10 5.7 14.9-.2-2.9-.2-5.8.2-8.7 1.3 2.9 2.9 8.6 2.7 10.2 1-1.4 1.7-3.1 2.1-4.8-6.8-7.7-11.3-15.8-16.3-19.6 1 .3 4.8 2.2 5.8 2.7-7.2-9.5-12.4-40.4-2.2-55.6-1.5 5.1-3.9 10.3-2.2 16.1.5-2 1.7-3.8 3.4-4.9-1.5 3-2.3 12.2-.9 13.8.7-1.8 1.2-4.7 2.4-5.3-1.3 4.9-1.5 12.2 1.2 9.7-.8 3.8-1.6 9-1.1 12.7.5-3.6 1.5-4.6 3.3-6.6-1.7 3.2.3 11 .4 13.5 2-3.9 3.3-4.3 5.3-7.1-2.3-3-3.9-6.4-4.6-10.1 2.5 4.7 5.2 6.1 6.3 7.7-5.4-10.6-5.5-15.3-5.1-20 .8 2.8 1.8 5.9 2.9 6.8-1.2-4.3-.6-9.4.5-14.1 0 1.3.5 2.5 1.4 3.5.2-6.2 5-13 5.6-14.4-1.6 6.1-2.5 12.5-2.6 18.8 1.9-3.6 4.3-5.7 6.8-6.7-2.4 3.2-4.4 6.7-5.9 10.5 2.2-2.3 4.7-4.4 7.4-6.1-1.6 2.4-3.4 4.6-4.2 7.1.4-.2 3.4-1.3 3.9-1.4-.7 1.6-2.3 3.6-2.6 5.5 1.3.1 2.6-.5 3.4-1.5-.8 3.4-2.2 6.7-4.3 9.5 3.2-.7 7.1-3.7 9.5-5.6-1.1 3-3 5.7-4.2 8.7 1.2.4 3.7-1.4 4.9-1.8-.7 1.9-1.7 3.7-2.4 5.6 1.2-.9 2.4-1.6 3.8-2.1-1.5 2.6-5 9.3-4 9.1 2.4-.4 5.1-2.2 6.6-2.6-2.2 3-3.4 6.5-3 8.9 2.5-.2 3.6-1.9 5.4-4.1-.4 2.7-1.5 6.2-1 7.8 1.1-.5 2-1.3 2.8-2.2 0 1.5-2.2 4.7-1.4 5.9.8 1.2 3.1 8.5 7.7 14.8.2-.2.4-.4.7-.5-2.1-10-6.4-24.3-8.1-33.5-1.1-6-2.7-11.8-4.8-17.5-2-4.9-3.7-11-6.6-16.8 3.2 2.5 5 5.1 8.1 7.2-.3-6-1.4-8.6-2.5-13.8 3.1 3 5.1 8.4 6.2 11.8-.1-6.7 1.7-13.9 5.3-17.6-1.9 6.7-3 13.6-3.2 20.5 2.4-6.2 4.2-10.4 8.8-13.3-2.3 2.6-3.8 6.9-4.4 9.8 2.3-2.3 5-5.1 7.7-8.1-1.2 4.5-4.6 9.1-7.5 12.6 2.1-2.2 4.6-4.1 7.2-5.6 5.7-63 26.8-152.6 40.3-186.6 1.2-3.3 14.9 6 13.2 7.9zm-28.6 288.8l-3.4-3.7c-1 .3-2 .3-2.3.5 1.6 1.4 3.4 3.3 5.7 3.2zm-5.3-5.9c-.6-.7-1.1-1.3-1.6-2-.4 0-.7 0-1.1-.1.8.6 1.7 1.4 2.7 2.1zm-3.7-4.6c-.3-.3-.5-.7-.8-1-.1.3 0 .7.3.9.2 0 .3 0 .5.1zm.1-29.5c.1.1.1.3.2.4 2.3-1.7 4.2-3.8 5.7-6.2-1.9 2-3.9 4-5.9 5.8zm-41.9 20.6c1 .5 1.9 1.2 2.7 2.1.6-.6.4-1.7.5-2.5-1.1.1-2.2.3-3.2.4zm6.6-1.1c.2 0 .5 0 .7-.1.9-.2 1.9-.4 2.8-.7-1.2.3-2.3.6-3.5.8zm2.3-11h-.4c.2.1.5.3.7.4-.1-.2-.2-.3-.3-.4zm-26.5-4.8l-.5-.1.6.3-.1-.2zm63.2 6.6c.1.1.1.2.2.3l.1-.3h-.3zm2.8 0c.4 2 .8 3.2 2.1 1 .2-.4 1.3-.7 2.3-1.2-1.4.1-2.9.2-4.4.2zm6.4-.2c-.1.8-.1 1.5.1 2.3 1.1-.8 2.1-1.6 3-2.6l-3.1.3zm4.7-.5c-.1.8-.2 1.6-.1 2.4.5-.8 1-1.7 1.4-2.6-.4.1-.9.2-1.3.2zm2.1-.2c-.1 2.1-.4 4.7-.3 6.1 1.3-2.1 2.5-4.3 3.5-6.6-1 .2-2.1.3-3.2.5zm4.3-.7c-.1 2.6.4 5.1 1.5 7.4 2-1.6 1.7-4.4 2.1-7.1.2 1.8.6 3.6 1.3 5.3-.1-2.8 1.2-4.7 2.1-7.1-2.3.6-4.7 1.1-7 1.5zm10.1-2.4l.1.2-.1-.2zm2.6-.9c.2 1.1.4 2.1.6 3 .2-1.1.4-2.3.6-3.5-.4.2-.8.4-1.2.5zm-66.5 26c-2.1 1.7-4.3 3.3-6.4 4.8 9-.4 8.6-3.1 6.4-4.8zm-8 5.8c-1.6 1.1-3.2 2.2-4.7 3.2 4 1.1 7.5 1.9 10.8.1-2.2-.7-4.3-1.8-6.1-3.3zm-5.5 3.7c-1.9 1.2-3.7 2.3-5.3 3.1 5.7 1.9 12.4 3.1 16.3 2.4-2.8-.4-7.1-2.6-11-5.5zm13.4-37c-3.5-.8-6.9-2-10.1-3.6 3 2.1 6.5 3.3 10.1 3.6zm-15.2-6.7c-.8-.5-1.6-1.1-2.3-1.7.9 1.4 1.7 2.8 2.3 4.3.2-.9.2-1.7 0-2.6zm-6.5-5.2l-2.4-2.4c.5 1.3.8 2.6.9 3.9.5-.5 1.1-1 1.5-1.5zm33.8-12.4c-.1-1.5-.1-2.9-.2-4.4-.9 2.2-1.4 4.5-1.6 6.8l1.8-2.4zm-.3-8.5v-2.5c-.6 1.2-1.2 2.4-1.6 3.7.3-.2.9-.7 1.6-1.2zm.1-13.1v-1.6c-.3.6-.6 1.3-.8 2 .3-.1.5-.3.8-.4zm.3-8.8v-.8c-.3.4-.6.7-.9 1.1l.9-.3zm.2-3.9c0-.6.1-1.2.1-1.9-1.1 1.2-2.3 2.3-3.7 3.2 1.2-.3 2.4-.7 3.6-1.3zm.5-6.3c.1-1 .1-1.9.2-2.9-1.7 1.6-3.2 3.4-4.5 5.3 1.2-.6 2.7-1.4 4.3-2.4zm.3-4.5c.1-1 .2-2 .3-2.9-2.2 2.1-4.2 4.4-6 6.8 1.8-1.5 3.7-2.8 5.7-3.9zm31.3 94.7c4.5 3 9.5 5.1 14.7 6.4.6.1 1.3.2 1.9.3-3.3-1.5-6.6-3.9-12-5.2-1.6-.4-3.1-.9-4.6-1.5zm-51.9-43.4c-.6-.9-1.3-1.8-1.9-2.7.5.9 1.2 1.9 1.9 2.7zm-5.7-8.7c-.4-.6-.8-1.3-1.2-1.9 0 .5.1 1.1.3 1.6.1.3.4.5.7.4.1 0 .1-.1.2-.1zm-3.1-5.2l-.5-.8c-.1.5-.1.9-.1 1.4l.6-.6zm-1.7-3.1l-.7-1.3c-.1 1-.2 1.9-.3 2.6.3-.4.6-.8 1-1.3zm-2.2-3.9c-1.3-1.8-3.8-4-6.1-7-.8 4.3-.2 10.3 1.8 11.3 1.6.8 3.2-1.8 4.3-4.3z"/></svg>