<?xml version="1.0" encoding="utf-8"?>
<!-- Generator: Adobe Illustrator 24.0.2, SVG Export Plug-In . SVG Version: 6.00 Build 0)  -->
<svg version="1.1" id="Layer_1" xmlns="http://www.w3.org/2000/svg" xmlns:xlink="http://www.w3.org/1999/xlink" x="0px" y="0px"
	 viewBox="0 0 658.3 192.9" style="enable-background:new 0 0 658.3 192.9;" xml:space="preserve">
<style type="text/css">
	.st0{fill:#00D1BF;}
	.st1{fill:#7AEFE1;}
	.st2{fill:none;}
	.st3{enable-background:new    ;}
	.st4{fill:#FFFFFF;}
</style>
<title>bgBanner31</title>
<rect x="0.2" class="st0" width="658.3" height="192.9"/>
<path class="st1" d="M-19.1,318.8C0,270.6,75.6,208.8,96.5,192.7c1.2,1.6,2.9,2.7,4.8,3.4c-1.7,2.7-4.1,5.9-6.6,7
	c0.8,0.5,2.1,0.3,3.9-0.6c-1.8,1.7-4.5,4.9-6.9,5.9c1.3,0.2,2.6,0,3.7-0.6c-2.1,2.1-4.6,3.9-7.3,5.2c0.8,0.3,2.6,0,3.8-0.2
	c-1.6,1.9-2.7,2.2-4.5,3.2c1,0.1,2,0,3-0.3c-2,1.8-5.3,4-7.6,4.5c1.4,0.8,3,1,4.5,0.7c-3.5,3.4-7.8,5.5-12.3,5.2
	c2.6,2.4,7,1.9,10.7,0.3c-1.1,1.9-5.2,4.7-8.4,5.7c2.9-0.1,5.7-0.9,8.2-2.4c-2.1,2.3-4.7,4.2-7.6,5.3c1,0.5,3.9-0.2,5.1-0.7
	c-1.8,1.4-3.7,2.7-5.7,3.7c2.8,0.5,7.7-2.8,10.5-6.4c-0.9,3.6-4.1,6.8-5.7,8.6c3.1-1.6,5.6-4.2,7-7.4c-0.7,4-2.5,7.7-5.1,10.7
	c12.8-12.4,18.5-27.5,21-38.4c1.4-0.4,2.7-1.2,3.7-2.2c-0.2,3-2.3,4.8-4.6,7.1c3.2-1,6.3-2.8,7.5-4.4c-1.2,3.3-5.7,7.9-9.2,10.3
	c4-1.2,7.7-3.3,10.8-6.1c-0.6,3.5-4,7.9-6.9,10.5c4-1.3,7.3-4.2,10.6-7.8c-1.2,4.5-5.1,8.6-8.1,10.7c2.4-0.4,4.6-1.7,6-3.7
	c-0.3,2.5-2.3,5.6-4.6,6.5c1.7,0.1,3.3-0.5,4.5-1.6c-0.8,2-3,6.5-4.7,7.9c1.7-0.5,3.3-1.6,4.4-3c-1.8,4-4.7,7.5-8.4,9.9
	c1.3-0.6,4.1-1.4,6-3.1c-1.4,3.1-4.4,4.8-6.4,6.2c5.9-1.3,10.7-4.5,12.9-7.3c-0.3,2.1-2.3,3.4-3.8,5.4c5.2-1.8,7.7-6,9-13.1
	c0.9,3.5,1,7.1,0.5,10.7c3.2-3.8,2-11.5,1.6-15.7c0-0.4-0.1-0.8-0.1-1.3c1.3-1,2.5-2.3,3.4-3.7c0.1,1.4-0.9,4.9-2.8,7.5
	c3.2-2.5,5.3-6.2,5.6-10.2c0.3,2.2,1.2,5,0.8,7.9c1.6-3.2,2.2-6.8,1.7-10.4c0.8,1.5,2.4,4.1,1.8,5.9c3.2-4.3,0.8-8.5,0.3-11
	c2.4,1,3.4,3.2,4.4,5.3c0.5-2.8-0.5-5.6-2.6-7.4c1.5,0.3,2.9,0.9,4.3,1.5c-1.1-1.6-3.7-2.9-5.7-4.9c1.2-0.2,2.8,0.3,4.7,0.7
	c3.2,4.9,3.9,11,0.8,14.3c2.4-0.8,4.1-3,4.4-5.5c0.9,1.2,1.3,2.6,1.1,4.1c1-0.6,1-3.1,0.3-4.6c3.3,2.1,3.5,7.2,1.3,10
	c3-1.5,4.4-5,3.1-8.1c1.9,2.1,2.8,5,2.5,7.8c1.1-0.9,2.1-3.8,1.4-6.4c1.7,2.3,2.8,4.2,2.9,6.5c0.8-2.6,0.4-5.4-2.9-10
	c1.9,0.3,4.7,4.7,5.1,6.5c-0.1-3.4-0.6-8.3-7.7-15.9c2.5,0.9,6.1,4.2,7.9,7.4c-0.8-4.4-3.9-8.2-9.3-12.5c2.5-0.4,5.5,2,8.1,3.7
	c-7-6.9-13.1-10.5-22.4-11.5c2.7-1.1,5.3-0.2,7.7,0.4c-2.3-1.1-7-2.2-12.2-2.9c0.1-1.1-0.3-2.3-1.2-3c-0.7-0.6,3.7,0.8,4.7,2.8
	c0.4-1.1,0.1-2.3-0.9-3c1.7,0.4,2.2,1.6,3.1,2.8c0-1.7-0.8-3.3-2.1-4.3c2.6,0.6,4,3,5,5c0.4-2.3-0.5-4-1.4-5.8
	c2.1,0.6,3.9,2,4.9,3.9c-0.1-2.7-0.7-4.6-2.7-6c2.1-0.2,3.8,0.6,4.1,3.2c1.9-1.3,1.2-3.1,1.9-4.2c1.4,2.7,0.3,4.1-0.6,5.6
	c2.2-0.7,5.3-3.1,5.9-6.2c0.9,1.5,0.4,4-0.8,5.7c3.3-1.6,1.9-4.7,3-3.8c1.7,1.4,2.9,3.3,3.4,5.4c0.9-1.3-0.5-4.9-2.1-5.8
	c2.3,0.6,4.5,1.5,6.6,2.7c-1.4-1.5-2.9-2.8-4.5-4c2.9,0.2,6.2,0,9.8,0.7c-3.3-1.5-6.8-2.2-10.4-2.3c1-0.3,3.1-1.5,5-1.5
	c-2.5-1.4-5-0.9-7-1c2-1.7,5.3-1.6,7.7-2.1c-3.6-0.7-10.1-0.5-17,2c0.8-0.5,6.1-3.7,9.7-4.5c-6.8-0.3-22.5,5.1-26.2,6.8
	c-2.2,1-7.1,2.7-12,4.6c2.6-1.9,5.4-3.7,8.3-5.3c0.8-0.7,3.2,0.6,4.2,0.5c-0.7-0.5-1.3-1.1-1.7-1.8c1-0.5,3.6,0,5.4,0.1
	c-1.6-1.2-2.8-1.8-3.1-3.6c1.6-0.5,4.2,0.1,6.3,1.4c-0.3-1-1.7-2.8-2.1-4.5c-0.2-0.7,4.7,1.3,6.5,2.2c-0.4-0.9-1-1.8-1.7-2.6
	c1.4,0.4,2.7,0.9,4,1.3c-0.3-0.9-1.7-2.5-1.5-3.4c2.2,0.6,4.2,1.7,6.3,2.3c-1.5-1.6-3.8-4.2-4.4-6.4c2.1,1.2,4.4,2.1,6.8,2.4
	c-1-0.7-1.4-1.9-1.2-2.3c1.4,0,2.8,1,4,1.4c-0.1-0.3-1-2.4-1.2-2.7c1.8,0.6,3.6,1.4,5.2,2.5c-1.3-1.8-2.8-3.5-4.6-4.8
	c2.7,0.8,5.2,1.9,7.6,3.4c-0.8-1.7-2.5-3.2-5.1-4.4c4.4-0.4,8.8-0.2,13.2,0.4c-1-0.3-6-3.3-10.4-2.9c0.6-0.7,1.4-1.2,2.3-1.3
	c-3.3-0.6-6.7-0.4-9.8,0.7c0.5-0.9,2.6-1.8,4.5-2.6c-3.2,0.1-6.5,0.5-13.6,5.2c1.1-0.9,1.9-2.9,5-5.1c-6.6,2-9.9,8.3-12.2,9.8
	c-4.6,3.1-9,6.6-13.2,10.3c9.1-12.5,10.9-21.8,11.1-27.2c0.2-4.3,1.1-12-2.7-15.8c0.9,3.5,0.9,7.2,0.1,10.8
	c-1.8-7.1-4.9-11.3-10.9-13c1.8,2,4.2,3.2,4.7,5.4c-2.7-2.8-8.3-5.9-15.1-7.2c2.3,1.4,5.8,3.1,7.6,6.2c-2.2-1.7-5.5-2.5-6.9-3.1
	c4.2,2.3,7.7,5.7,10.1,9.9c-1.4-1.4-3.2-2.5-5.1-3c1.9,1.4,4.8,5.9,5.8,7.9c-1.5-1.1-3.3-1.7-5.2-1.5c2.8,1.2,4.8,3.6,5.6,6.5
	c-1.8-2.1-4.3-3.4-7.1-3.7c3.5,2.1,8.2,6.2,9.8,10.7c-3.9-3.6-7.9-6.5-12.5-7.7c3.4,2.5,7.6,6.9,8.5,10.4c-2.9-2.2-6.2-4-9.7-5.2
	c-0.1-0.8-0.3-1.5-0.4-2.1c-1.8-7.4,0.2-11.2-2.3-16.4c-0.6,2.5-0.9,5-1.8,6.2c-1-3.4-1.1-6.9-2.1-9.2c0.1,1.8-0.1,3.6-0.5,5.4
	c-0.8-3.4-3-6.4-6-8.1c1.6,2.6,3.3,5.2,3.1,8.3c-2.3-2.4-5.2-8-11-8.1c2,0.7,3.8,4.3,4.9,6.2c-4.3-4.3-7.9-5.3-10.9-6.3
	c3,1.8,5.3,4.8,7.4,6.8c-2.4-1.6-7.7-4.1-12.6-2.4c3.1,0.2,6.1,1.2,8.6,3c-3.2-0.4-5.9,0.4-7,1.3c1.4,0.4,2.6,1,3,2.1
	c-2.3,1.9-5.9,2.1-5.4,2.1c3.8,0.7,7.8,0.1,11.4-0.5c-2.1,1.5-4.4,2.8-6.8,3.7c2.9,0.2,4.2,0.3,6.7-0.6c-1.4,1.2-2.9,2.4-3.5,3.6
	c4.5-2.8,7.3,0.2,10.6-1.1c-0.9,0.9-1.9,1.7-3,2.3c1.9-0.3,3.7-1.2,5.5,0.1c-1.4,2.1-4.2,3-6,3.4c2.6,0.4,5.2,0.9,7.8,1.7
	c-1.2,0.6-4.3,1.1-5.5,1.6c1.3,0.1,2.6,0.3,3.9,0.7c-0.3,0.4-2.7,0.6-2.9,1c2.3,0.6,3.2,1.6,4.8,2.6c-0.5,0.7-3,0.8-2.2,1.1
	c1.4,0.6,2.6,2.5,3.1,2.7c2.6,0.8,0.5,1.7-1.3,2.9c-4.8-8.8-12.4-18.5-23.9-23.9c3.1,2,5.4,5,6.7,8.4c-1.8-2.5-4.6-4-7.6-4.1
	c1.8,1.1,5.2,2.7,6.7,5.9c-3.2-2.2-8.1-3.2-10.4-1.4c1.9,0,3.9,0.3,5.7,1c-1.2,0-3.8,0.7-4.6,1.7c2.7-0.3,5.3,0.3,7.6,1.7
	c-2.6-0.2-5.3,0.3-7.6,1.5c2.9-0.5,7.1,0.4,8.4,1.7c-1.3,0-2.5,0.3-3.7,0.7c-0.9-0.5-1.8-0.9-2.7-1.3c-4.5-1.8-9.1-3.2-13.8-4.3
	c-5.5-1.2-11.8,1.8-16.8,1c3.4,1.7,7.2,1.2,11.1,1.3c-5.2,1.7-14.1,4.6-19,5.3c6.3,1.9,14.6-2,20.5-2.7c-2.7,2.2-5.4,3.5-11.7,6.2
	c4.6-0.3,8.3-2.2,10.3-2.8c-1,1.6-2.6,2.8-4.4,3.3c4.3,0.1,8.7-2.8,11.5-4.9c-2,3.4-5,6.1-8.6,7.7c5.9-1,9.4-5.6,12.4-6.2
	c-1.2,1.8-5.2,5.2-7.8,6.9c2.9-0.9,6.1-1.8,9.3-4.2c-1,1.4-2.3,2.7-3.8,3.6c2,0,6.4-1.5,7.8-3.1c-1.3,2.1-4.2,2.8-6.7,5.9
	c3.2-1.9,6.9-2.8,10.7-2.8c-1.7,1.1-3.4,2.3-4.9,3.6c2.4-0.5,4.7-1.4,6.9-2.6c-0.3,1.1-1,2.1-1.8,2.9c-7.1-0.7-13.6,0-17.7-1.3
	c0.5,0.4,3.2,1.8,3.9,2.2c-8.3-0.2-27.9,9.4-32.4,21.3c2.3-2.9,4.3-6.4,8.2-7.8c-1,1.1-1.5,2.5-1.4,3.9c1.1-2.1,6-6.2,7.5-6.1
	c-0.7,1.1-2.2,2.6-2,3.5c2.2-2.7,6.3-5.8,6-3.3c1.8-2,4.4-4.6,6.7-5.8c-1.3,1.1-2.2,2.8-2.4,4.5c1.1-2.2,6.4-4.3,7.8-5.3
	c-1.4,2.7-1.1,3.6-1.9,5.9c-2.6-0.2-5.2,0.4-7.6,1.5c3.7-0.5,5.6,0.5,6.9,0.4c-8.2,1.2-10.9,3.1-13.4,5.2c1.9-0.7,4.1-1.4,5-1.1
	c-2.9,1.1-5.6,3.5-7.8,6c0.7-0.6,1.6-0.8,2.5-0.6c-3.4,2.6-5.3,8.1-5.9,9c2.8-3.4,6.1-6.5,9.6-9.1c-1.1,2-1.5,4.3-1.1,6.6
	c0.9-2.7,2.1-5.2,3.6-7.6c-0.5,2.2-0.7,4.5-0.4,6.7c0.5-1.9,1.3-3.6,2.3-5.3c0.1,0.3,0.7,2.4,0.8,2.7c0.6-1,1.1-2.7,2.1-3.7
	c0.6,0.7,0.8,1.6,0.5,2.5c1.6-1.8,2.9-4,3.6-6.3c0.9,2.1,0.8,5.5,0.7,7.7c1.2-1.9,2-4,3.3-5.9c0.7,0.5,0.7,2.7,1,3.5
	c0.8-1.2,1.4-2.5,2.2-3.6c0.1,1,0.1,2.7,0.4,3c0.9-1.9,3.2-6.6,3.5-6c0.7,1.5,0.8,3.8,1.2,4.8c0.8-2.4,2.3-4.5,3.8-5.3
	c0.9,1.5,0.4,2.8-0.1,4.7c1.3-1.3,2.9-3.4,4-3.7c0.2,0.8,0.1,1.7-0.1,2.5c0.8-0.6,1.8-3.1,2.8-3.2s6.1-1.7,11.5-1.7v0.6
	c-6.5,2.9-16.3,6.2-22.3,9c-3.8,1.8-7.8,3.3-11.9,4.4c-3.6,0.9-7.7,2.4-12.2,3.1c2.7,0.8,4.9,0.8,7.4,1.6c-3.5,2.3-5.4,2.7-8.8,4.2
	c2.9,0.6,6.8-0.5,9.2-1.3c-3.8,2.7-7.2,6.6-7.8,10.2c3-3.8,6.4-7.2,10.3-10.1c-2.5,3.9-4.2,6.6-3.9,10.4c0.5-2.4,2.4-4.9,3.8-6.5
	c-0.4,2.3-0.8,4.9-1.5,7.6c2-2.5,3.3-6.3,4.1-9.4c-0.4,2.1-0.5,4.2-0.3,6.3c-33.4,28.8-75.5,77.2-89.3,98.7
	C-30.3,316.5-19.5,320.5-19.1,318.8L-19.1,318.8z M132.9,185.3c-1.1-0.2-2.3-0.3-3.5-0.4c-0.2-0.5-0.4-1-0.7-1.5
	C130.2,183.6,132,183.9,132.9,185.3z M127.4,184.7c-0.6,0-1.2-0.1-1.8-0.1c-0.2-0.2-0.3-0.4-0.5-0.6
	C125.8,184.2,126.6,184.4,127.4,184.7L127.4,184.7z M123.3,184.4h-0.9c0.2-0.2,0.4-0.3,0.6-0.2S123.2,184.3,123.3,184.4z
	 M106.6,196.5c0.1,0,0.2,0,0.3-0.1c0,2-0.4,4-1.2,5.8C106.1,200.3,106.4,198.4,106.6,196.5z M101.2,164.3c0.7,0.4,1.5,0.6,2.3,0.7
	c-0.1,0.6-0.8,0.9-1.2,1.3C101.9,165.6,101.6,165,101.2,164.3z M103.3,168.5c0.1,0.1,0.2,0.2,0.2,0.4c0.3,0.6,0.5,1.2,0.7,1.8
	C104,169.9,103.7,169.2,103.3,168.5z M98,174.3l-0.2-0.2c0.2,0.1,0.3,0.2,0.5,0.2H98z M84.6,161.2l-0.3-0.2
	C84.4,161.1,84.6,161.1,84.6,161.2z M114,194.3h0.2l-0.1,0.2L114,194.3z M115.1,195.9c1.3-0.6,2.2-0.8,1.5,0.8
	c0,0.6,0.1,1.2,0.3,1.8C116.3,197.7,115.7,196.8,115.1,195.9z M117.5,199.7c0.4-0.4,0.9-0.7,1.4-0.9c0,0.9-0.1,1.9-0.2,2.8
	C118.3,200.9,117.9,200.3,117.5,199.7L117.5,199.7z M119.2,202.5c0.4-0.4,0.8-0.8,1.3-1c-0.3,0.6-0.6,1.2-0.9,1.8
	C119.5,203,119.4,202.7,119.2,202.5z M119.9,203.8c1.1-1,2.2-1.9,3.4-2.7c-0.7,1.6-1.4,3.2-2.3,4.7
	C120.6,205.2,120.3,204.5,119.9,203.8z M121.3,206.5c1.4-1.1,3-1.9,4.8-2.2c-0.1,1.8-1.8,2.8-3.2,4.1c1.1-0.6,2.3-1.1,3.5-1.4
	c-1.6,1.1-2.2,2.6-3.2,4.1C122.7,209.6,122,208.1,121.3,206.5L121.3,206.5z M124,213.2l0.1-0.1L124,213.2z M124.6,215
	c0.7-0.3,1.3-0.6,2-0.9c-0.6,0.6-1.2,1.1-1.7,1.7C124.7,215.6,124.6,215.3,124.6,215z M112.2,166.8c0.1-1.9,0.1-3.8,0.1-5.6
	C115.8,166.5,114.2,167.3,112.2,166.8z M112.3,159.9c0-1.4-0.1-2.7-0.1-4c2.3,1.8,4.1,3.5,4.5,6.1
	C115.4,161,113.9,160.3,112.3,159.9z M112.2,155.3c-0.1-1.6-0.2-3-0.4-4.2c3.4,2.5,6.8,5.8,8,8.3
	C118.4,157.9,115.4,156.3,112.2,155.3z M96.7,177.9c-1.8-1.7-3.9-3.1-6.1-4.2C93,174.6,95.1,176,96.7,177.9z M86.7,172
	c-0.6-0.2-1.3-0.4-1.9-0.6c1.1,0,2.3-0.2,3.4-0.5C87.8,171.4,87.3,171.8,86.7,172z M81.1,170.5c-0.8-0.1-1.5-0.3-2.3-0.4
	c0.9-0.3,1.8-0.6,2.6-1C81.3,169.5,81.2,170,81.1,170.5z M87.8,194.6c-0.9,0.5-1.7,1.1-2.6,1.7c0.9-1.4,2-2.6,3.2-3.7
	C88.3,193.3,88.1,194,87.8,194.6z M82.9,197.9c-0.5,0.3-0.9,0.7-1.4,1c0.4-0.8,0.9-1.6,1.4-2.4V197.9z M75.5,203.3
	c-0.3,0.2-0.6,0.5-0.9,0.7c0.2-0.4,0.5-0.8,0.8-1.3C75.4,202.9,75.5,203.1,75.5,203.3z M70.6,207.1l-0.4,0.3c0.1-0.3,0.2-0.7,0.2-1
	C70.5,206.6,70.6,206.9,70.6,207.1z M68.5,208.8c-0.3,0.3-0.7,0.5-1,0.8c0.2-1.1,0.3-2.3,0.3-3.4C68.2,207,68.4,207.9,68.5,208.8
	L68.5,208.8z M65.1,211.6c-0.5,0.4-1,0.9-1.6,1.3c0.2-1.6,0.6-3.2,1.2-4.7C65,209.3,65.1,210.5,65.1,211.6z M62.7,213.6
	c-0.5,0.4-1,0.9-1.6,1.3c0.3-2.1,0.8-4.2,1.4-6.2C62.5,210.3,62.5,212,62.7,213.6z M129,192.9c3.5,1.4,6.7,3.3,9.6,5.7
	c0.3,0.3,0.7,0.6,1,0.9c-2.2-1.3-4.9-2.1-7.8-4.7C130.9,194.1,130,193.5,129,192.9z M83.4,181.1h-2.3C81.9,181,82.7,181,83.4,181.1z
	 M76.2,181.4c-0.5,0-1,0.1-1.5,0.1c0.3-0.2,0.6-0.4,1-0.5C75.9,180.9,76.1,181.1,76.2,181.4z M72,181.8l-0.7,0.1
	c0.2-0.2,0.5-0.4,0.7-0.6V181.8z M69.5,182l-1,0.1c0.5-0.4,1-0.9,1.4-1.2C69.8,181.3,69.6,181.6,69.5,182L69.5,182z M66.4,182.4
	c-1.5,0-3.8-0.5-6.5-0.6c2.1-2.2,5.8-4.3,7.1-3.6S67.3,180.7,66.4,182.4L66.4,182.4z"/>
<path class="st1" d="M-37.2,326.2C2.9,263.6,8.9,123.7,10.2,85.9c-2.9-0.1,1,3.6-1.3,1.9C7.3,92,1.6,93,2.5,96.9
	c-1.3-0.5-2.1-2.2-2.6-5.1c-0.4,3.5-1.9,9.3-1.1,13c-1.4-1.2-2.2-3-2.4-4.8c-0.7,4.2-0.7,8.6,0,12.8c-1-0.7-2.2-3-3-4.6
	c-0.9,3.5-0.3,5,0,7.9c-0.9-1.1-1.6-2.4-2.1-3.8c-0.5,3.8-0.2,9.5,1.2,12.7c-2-1-3.6-2.6-4.6-4.6c-1.1,7,0.1,13.7,4.2,18.7
	c-5-1-8.1-6.6-9.3-12.2c-1.2,2.9-1.1,10.1,0.4,14.5c-2.3-3.5-3.7-7.5-4.1-11.6c-0.9,4.8-1.1,8.9,0.2,13.2c-1.5-0.7-3.1-4.7-3.4-6.6
	c-0.2,3.3,0,6.6,0.5,9.8c-2.9-2.8-3.2-11.3-1.4-17.5c-3.5,4-4.5,10.4-5.3,13.9c-0.8-5,0.2-10.1,2.8-14.4c-2.5,2.1-6.5,7.9-8.3,14.9
	c3.8-25.4,16.6-44.6,27.2-56.6c-0.6-2-0.8-4.1-0.5-6.1c-3.4,2.8-3.7,6.6-4.4,11.3c-1.5-4.6-2-9.6-1.1-12.5
	c-2.8,4.1-4.4,13.2-4.4,19.3c-2.2-5.5-2.5-12.1-1.9-17.6c-3.6,3.7-5.9,11.4-6.4,16.9c-1.8-5.7-1.2-12.1,0.2-18.9
	c-4.3,5.1-5.7,13.1-5.8,18.4c-1.7-3.1-1.9-6.9-0.7-10.2c-2.7,2.4-4.6,7.4-3.8,10.8c-1.5-1.9-2.2-4.2-1.9-6.6c-1.6,2.5-5,9-5.3,12
	c-0.8-1.8-0.8-5.2-0.2-7.6c-2.3,4-5,11.2-4.6,18.1c-0.3-2-1.8-6-1.3-9.6c-2.4,4.2-2,9.2-1.9,12.6c-3.4-8-3.8-16.2-2.3-21.2
	c-2.3,2.1-2.1,5.6-3.1,9c-2.3-7.6,0.5-14,7.7-21.4c-4.8,1.9-9.2,4.8-12.9,8.5c1.7-7,11.7-11.9,17-15c0.5-0.3,1.1-0.6,1.6-0.9
	c0.1-2.4,0.6-4.8,1.5-7c-1.7,1.1-5,5.1-6.4,9.5c0-7.5,4.6-12.9,7.2-15.1c-2.9,1.5-6.8,2.8-9.9,5.7c2.1-3.4,4.6-7.5,10.7-10.6
	c-2.4,0.4-6.8,0.6-8.4,2.8c2.3-7.4,9.3-8,12.6-9.6c-3.2-1.9-6.5-1.3-9.8-0.7c2.8-2.9,6.9-4.1,10.8-3.2c-1.6-1.5-3.4-2.8-5.4-3.8
	c2.8,0,6.5,1.8,10.5,2.6c-0.8-1.6-2.7-3.1-4.7-4.9c-8.4,0.4-16.1,4.7-17.3,11.1c-1.4-3.7,0.7-8.4,2.7-9.8c-2.4,0.1-4.2,0.6-5.7,2.1
	c-0.1-1.8,2.8-3.7,5.1-4.2c-5.2-2-11.4,1.9-12.7,6.9c-0.8-4.8,2.2-9.3,6.9-10.5c-4.1-0.7-8.3,1.1-11.2,3.6c0.1-2.1,2.7-5.6,6.2-7
	c-4.1-0.1-7.3,0.2-10.1,2.1c2.3-3.1,5.9-5,14.1-5.1c-2-2-9.5-1.6-11.8-0.5c4-2.7,10.3-6.2,25-4.3c-3.2-2.2-9.9-3.6-15.3-3
	c5.7-2.7,12.8-2.3,22.4,0.4c-1.6-3.2-6.9-4.8-11.1-6.4c13.9,2.3,23.3,6.5,32.1,16.5c-0.9-4-4.1-6.3-6.9-8.7
	c3.3,1.8,8.4,6.4,13.6,11.8c1.2-1.1,2.9-1.5,4.5-1.1c1.4,0.3-4.1-3.6-7.2-3.1c0.9-1.4,2.7-2,4.3-1.4c-1.9-1.6-3.8-1.2-5.8-1.2
	c0.9-0.8,4.5-2.1,6.8-1.2c-2.8-2.6-6.8-2.2-10.1-1.6c2.4-2.4,5.1-2.8,8-3.3c-2.5-1.9-5.6-2.8-8.7-2.5c3.2-2.2,5.9-3,9.2-1.9
	c-1.5-2.6-3.9-3.9-7.2-2.1c-0.1-3.3,2.5-4,3.3-5.7c-4.4,0.6-5.1,3-6,5.3c-1-3.1-0.8-8.8,2.3-12c-2.5,0.3-5.1,2.9-6,5.7
	c-0.9-5.1,3.8-6.2,2-6.6c-3-0.8-6.2-0.6-9.1,0.5c0.7-2.1,6.1-3.5,8.5-2.4c-2.7-2.1-5.5-3.9-8.6-5.4c2.8,0.4,5.7,1.1,8.4,1.9
	c-2.7-3.2-5.2-7.2-9-10.8c4.5,2.6,8.3,6.1,11.4,10.3c-0.5-1.5-0.9-4.8-2.4-7.1c3.7,1.7,5.2,5.1,7,7.3c0.3-3.7-2.6-7.5-4-10.7
	C-14.4-9-9.2-1.3-6.4,9C-6.5,7.7-7.2-1.3-9.3-6c6,7.7,12.9,30.5,14,36.2C5.3,33.5,7.5,40.8,9.4,48c0.3-6.9-0.9-13-0.8-14.2
	c0.1-1.5-3.4-3.2-4.1-4.5c1.2,0.4,2.4,0.5,3.6,0.4c-0.3-1.6-3-4.1-4.7-6.2c2.7,0.9,4.5,1.8,6.8,0.7c-0.8-2.3-3.6-4.8-7-6.2
	c1.4-0.4,4.7-0.4,7.1-1.3c1-0.4-5.4-4.4-8-5.8c0.5-0.3,2.9-0.2,4.4-0.2C5.1,9.4,3.4,8.4,1.9,7.1c1.3-0.7,4.3-0.5,5.2-1.5
	c-2.5-2-5.5-3.4-8-5.4c3.2,0.4,8.1,1,11.3-0.2C7.2-1.3,4.3-3.4,1.9-6c1.2,0.5,2.6,0.4,3.7-0.4C4.4-7.9,2-8.8,0.6-9.8
	c0.5-0.2,3.6-0.8,4.1-0.9c-2-1.7-4.7-2.7-7.2-4c3.2,0,6.4,0.4,9.5,1.4c-3.1-2.5-6.6-4.5-10.3-6.1C0-19.8,3.3-18.9,6-17.1
	c-3.2-5.5-7.1-10.5-11.6-15c1.2,1,8.9,4.3,12.1,9.6c0.3-1.3,0.2-2.6-0.5-3.8c3.3,3.5,6.3,7.6,7.4,12c0.5-1.4-0.2-4.6-0.9-7.5
	c2.6,3.8,4.8,8,5.3,20.1c0.1-2,1.9-4.6,1.8-10.1c3.2,9.4-1.4,18.5-1.3,22.4c0.1,8-0.2,16-0.9,24c7-21.1,16.3-30.9,22.4-35.7
	c4.8-3.8,13-11.4,20.7-10c-4.9,2.2-9.4,4.9-12.7,8.9C57.6-6,65.1-6,72.1-0.3c-3.9-0.4-7.4-2.1-10.3-0.9c5.6,0.8,13.8,4.8,21,11.6
	c-3.5-1.5-8.5-4.2-13.5-3.7c3.9,1.1,7.4,4.3,9.4,5.5c-6.2-2.9-13.1-4.1-20-3.5c2.8,0.4,5.5,1.6,7.7,3.5c-3.2-1.1-10.9-0.6-14-0.1
	c2.6,0.8,4.8,2.5,6.2,4.8c-3.3-2.3-9-2.5-12.2-1c4,0.5,6.8,1.8,10.2,5.1c-5.4-2.3-14-4.4-20.6-2.4c7.5,1.5,14.1,3.8,19.5,8.1
	c-5.8-1.9-14.4-3-19.3-1.1c5.1,1.6,9.9,4,14.2,7c1.1-0.5,2-1,2.8-1.3c10.1-4.1,12.9-9.6,21-11c-2.4,2.8-5.1,5.2-5.7,7.3
	c4.8-1.7,9-4.5,12.6-5.2c-2.2,1.4-4.1,3.1-5.8,5.1c4.6-2,10.5-1.9,14.5,0.2C85.4,28,81,28.3,77.5,31c4.7,0.7,13.7-0.6,18.6,6
	c-2.5-1.8-8.2-0.8-11.4-0.5c8.6,1.4,12.8,4.7,16.5,7.5c-4.7-2-10.1-2.2-14.1-2.9c3.9,1.4,11.2,5.5,13.3,12.8
	c-3-3.9-8.2-6.9-10.7-7.5c3.1,3.4,4.6,7.2,4.3,9.3c-1.7-1.3-3.3-2.1-4.9-1.8c-0.3,4.2,2.5,8.7,2.1,8.1c-4-3.8-6.6-9.1-9-13.6
	c-0.1,3.7,0.4,7.4,1.4,11c-2.7-3.2-3.9-4.7-4.9-8.3c-0.2,2.6-0.4,5.4-1.3,7.1c-0.4-7.6-6.4-8.4-7.5-13.3c-0.3,1.8-0.3,3.6-0.2,5.4
	C68.4,47.8,68,45,65,44c-1.2,3.4,0,7.4,1.1,9.9c-2.7-2.7-5.5-5.3-8.5-7.7c0.4,1.9,2.4,5.9,2.7,7.8c-1.2-1.5-2.6-2.8-4.1-3.9
	c-0.2,0.7,1.6,3.6,1.3,4.3c-2.6-2.2-4.6-2.4-7-3.3c-0.3,1.2,1.6,4.2,0.5,3.5c-1.9-1.1-5.1-0.8-5.8-1.4c-3-2.4-2.4,0.8-2.3,4
	c14.3-2.3,32-1.6,47.9,7.4c-4.9-1.9-10.2-2.1-15.3-0.8c6.2,0.3,8.7,2.8,11.1,5.4c-2.8-1.2-7.5-3.8-12.6-2.9
	c5.2,1.8,10.5,6.8,10.2,10.9c-1.6-2.2-3.6-4.2-5.9-5.8c1,1.4,2.4,5,1.9,6.7c-1.9-3.6-4.7-5.7-8.3-7.5c2.4,2.9,4,6.4,4.6,10.1
	c-1.8-3.8-6.3-7.9-9-8.4c1,1.5,1.8,3.1,2.3,4.8c1.3,0.6,2.6,1.3,3.7,2.1c5.9,3.7,11.4,7.9,16.6,12.5c6,5.4,7.8,15.2,12.9,20.4
	c-4.9-2.5-7.4-7.5-10.8-11.9c2.4,7.5,6.4,20.2,9.8,26.6c-7.5-5.7-9.9-18.7-14-26.2c-0.3,5,0.4,9.2,2.6,18.9
	c-3.5-5.6-4.4-11.5-5.3-14.3c-1,2.5-1,5.3-0.2,7.9c-3.7-4.9-3.9-12.4-3.9-17.5c-2.3,5.1-2.9,10.9-1.8,16.4
	c-3.8-7.7-1.4-15.6-3.2-19.7c-1.1,2.9-1.7,10.4-1.5,14.8c-1.4-4.1-3.1-8.6-2.9-14.4c-0.8,2.4-1.2,4.9-1,7.4
	c-1.7-2.3-3.6-8.6-2.9-11.7c-1.4,3.3,0.3,7.3-1.3,12.8c-0.1-3.1-2-10-5.7-14.9c0.2,2.9,0.2,5.8-0.2,8.7c-1.3-2.9-2.9-8.6-2.7-10.2
	c-1,1.4-1.7,3.1-2.1,4.8c6.8,7.7,11.3,15.8,16.3,19.6c-1-0.3-4.8-2.2-5.8-2.7c7.2,9.5,12.4,40.4,2.2,55.6c1.5-5.1,3.9-10.3,2.2-16.1
	c-0.5,2-1.7,3.8-3.4,4.9c1.5-3,2.3-12.2,0.9-13.8c-0.7,1.8-1.2,4.7-2.4,5.3c1.3-4.9,1.5-12.2-1.2-9.7c0.8-3.8,1.6-9,1.1-12.7
	c-0.5,3.6-1.5,4.6-3.3,6.6c1.7-3.2-0.3-11-0.4-13.5c-2,3.9-3.3,4.3-5.3,7.1c2.3,3,3.9,6.4,4.6,10.1c-2.5-4.7-5.2-6.1-6.3-7.7
	c5.4,10.6,5.5,15.3,5.1,20c-0.8-2.8-1.8-5.9-2.9-6.8c1.2,4.3,0.6,9.4-0.5,14.1c0-1.3-0.5-2.5-1.4-3.5c-0.2,6.2-5,13-5.6,14.4
	c1.6-6.1,2.5-12.5,2.6-18.8c-1.9,3.6-4.3,5.7-6.8,6.7c2.4-3.2,4.4-6.7,5.9-10.5c-2.2,2.3-4.7,4.4-7.4,6.1c1.6-2.4,3.4-4.6,4.2-7.1
	c-0.4,0.2-3.4,1.3-3.9,1.4c0.7-1.6,2.3-3.6,2.6-5.5c-1.3-0.1-2.6,0.5-3.4,1.5c0.8-3.4,2.2-6.7,4.3-9.5c-3.2,0.7-7.1,3.7-9.5,5.6
	c1.1-3,3-5.7,4.2-8.7c-1.2-0.4-3.7,1.4-4.9,1.8c0.7-1.9,1.7-3.7,2.4-5.6c-1.2,0.9-2.4,1.6-3.8,2.1c1.5-2.6,5-9.3,4-9.1
	c-2.4,0.4-5.1,2.2-6.6,2.6c2.2-3,3.4-6.5,3-8.9c-2.5,0.2-3.6,1.9-5.4,4.1c0.4-2.7,1.5-6.2,1-7.8c-1.1,0.5-2,1.3-2.8,2.2
	c0-1.5,2.2-4.7,1.4-5.9s-3.1-8.5-7.7-14.8c-0.2,0.2-0.4,0.4-0.7,0.5c2.1,10,6.4,24.3,8.1,33.5c1.1,6,2.7,11.8,4.8,17.5
	c2,4.9,3.7,11,6.6,16.8c-3.2-2.5-5-5.1-8.1-7.2c0.3,6,1.4,8.6,2.5,13.8c-3.1-3-5.1-8.4-6.2-11.8c0.1,6.7-1.7,13.9-5.3,17.6
	c1.9-6.7,3-13.6,3.2-20.5c-2.4,6.2-4.2,10.4-8.8,13.3c2.3-2.6,3.8-6.9,4.4-9.8c-2.3,2.3-5,5.1-7.7,8.1c1.2-4.5,4.6-9.1,7.5-12.6
	c-2.1,2.2-4.6,4.1-7.2,5.6c-5.7,63-26.8,152.6-40.3,186.6C-25.2,337.4-38.9,328.1-37.2,326.2L-37.2,326.2z M-8.6,37.4l3.4,3.7
	c1-0.3,2-0.3,2.3-0.5C-4.5,39.2-6.3,37.3-8.6,37.4z M-3.3,43.3c0.6,0.7,1.1,1.3,1.6,2c0.4,0,0.7,0,1.1,0.1
	C-1.4,44.8-2.3,44-3.3,43.3z M0.4,47.9c0.3,0.3,0.5,0.7,0.8,1c0.1-0.3,0-0.7-0.3-0.9C0.7,48,0.6,48,0.4,47.9z M0.3,77.4
	c-0.1-0.1-0.1-0.3-0.2-0.4c-2.3,1.7-4.2,3.8-5.7,6.2C-3.7,81.2-1.7,79.2,0.3,77.4z M42.2,56.8c-1-0.5-1.9-1.2-2.7-2.1
	c-0.6,0.6-0.4,1.7-0.5,2.5C40.1,57.1,41.2,56.9,42.2,56.8z M35.6,57.9c-0.2,0-0.5,0-0.7,0.1c-0.9,0.2-1.9,0.4-2.8,0.7
	C33.3,58.4,34.4,58.1,35.6,57.9z M33.3,68.9h0.4c-0.2-0.1-0.5-0.3-0.7-0.4C33.1,68.7,33.2,68.8,33.3,68.9z M59.8,73.7l0.5,0.1
	l-0.6-0.3C59.7,73.5,59.8,73.7,59.8,73.7z M-3.4,67.1c-0.1-0.1-0.1-0.2-0.2-0.3l-0.1,0.3H-3.4z M-6.2,67.1c-0.4-2-0.8-3.2-2.1-1
	c-0.2,0.4-1.3,0.7-2.3,1.2C-9.2,67.2-7.7,67.1-6.2,67.1z M-12.6,67.3c0.1-0.8,0.1-1.5-0.1-2.3c-1.1,0.8-2.1,1.6-3,2.6L-12.6,67.3z
	 M-17.3,67.8c0.1-0.8,0.2-1.6,0.1-2.4c-0.5,0.8-1,1.7-1.4,2.6C-18.2,67.9-17.7,67.8-17.3,67.8z M-19.4,68c0.1-2.1,0.4-4.7,0.3-6.1
	c-1.3,2.1-2.5,4.3-3.5,6.6C-21.6,68.3-20.5,68.2-19.4,68z M-23.7,68.7c0.1-2.6-0.4-5.1-1.5-7.4c-2,1.6-1.7,4.4-2.1,7.1
	c-0.2-1.8-0.6-3.6-1.3-5.3c0.1,2.8-1.2,4.7-2.1,7.1C-28.4,69.6-26,69.1-23.7,68.7z M-33.8,71.1l-0.1-0.2L-33.8,71.1z M-36.4,72
	c-0.2-1.1-0.4-2.1-0.6-3c-0.2,1.1-0.4,2.3-0.6,3.5C-37.2,72.3-36.8,72.1-36.4,72z M30.1,46c2.1-1.7,4.3-3.3,6.4-4.8
	C27.5,41.6,27.9,44.3,30.1,46z M38.1,40.2c1.6-1.1,3.2-2.2,4.7-3.2c-4-1.1-7.5-1.9-10.8-0.1C34.2,37.6,36.3,38.7,38.1,40.2z
	 M43.6,36.5c1.9-1.2,3.7-2.3,5.3-3.1c-5.7-1.9-12.4-3.1-16.3-2.4C35.4,31.4,39.7,33.6,43.6,36.5z M30.2,73.5c3.5,0.8,6.9,2,10.1,3.6
	C37.3,75,33.8,73.8,30.2,73.5z M45.4,80.2c0.8,0.5,1.6,1.1,2.3,1.7c-0.9-1.4-1.7-2.8-2.3-4.3C45.2,78.5,45.2,79.3,45.4,80.2z
	 M51.9,85.4l2.4,2.4c-0.5-1.3-0.8-2.6-0.9-3.9C52.9,84.4,52.3,84.9,51.9,85.4z M18.1,97.8c0.1,1.5,0.1,2.9,0.2,4.4
	c0.9-2.2,1.4-4.5,1.6-6.8C19.3,96.2,18.7,97,18.1,97.8z M18.4,106.3v2.5c0.6-1.2,1.2-2.4,1.6-3.7C19.7,105.3,19.1,105.8,18.4,106.3z
	 M18.3,119.4v1.6c0.3-0.6,0.6-1.3,0.8-2C18.8,119.1,18.6,119.3,18.3,119.4z M18,128.2v0.8c0.3-0.4,0.6-0.7,0.9-1.1L18,128.2z
	 M17.8,132.1c0,0.6-0.1,1.2-0.1,1.9c1.1-1.2,2.3-2.3,3.7-3.2C20.2,131.1,19,131.5,17.8,132.1z M17.3,138.4c-0.1,1-0.1,1.9-0.2,2.9
	c1.7-1.6,3.2-3.4,4.5-5.3C20.4,136.6,18.9,137.4,17.3,138.4L17.3,138.4z M17,142.9c-0.1,1-0.2,2-0.3,2.9c2.2-2.1,4.2-4.4,6-6.8
	C20.9,140.5,19,141.8,17,142.9L17,142.9z M-14.3,48.2c-4.5-3-9.5-5.1-14.7-6.4c-0.6-0.1-1.3-0.2-1.9-0.3c3.3,1.5,6.6,3.9,12,5.2
	C-17.3,47.1-15.8,47.6-14.3,48.2z M37.6,91.6c0.6,0.9,1.3,1.8,1.9,2.7C39,93.4,38.3,92.4,37.6,91.6z M43.3,100.3
	c0.4,0.6,0.8,1.3,1.2,1.9c0-0.5-0.1-1.1-0.3-1.6c-0.1-0.3-0.4-0.5-0.7-0.4C43.4,100.2,43.4,100.3,43.3,100.3z M46.4,105.5l0.5,0.8
	c0.1-0.5,0.1-0.9,0.1-1.4L46.4,105.5z M48.1,108.6l0.7,1.3c0.1-1,0.2-1.9,0.3-2.6C48.8,107.7,48.5,108.1,48.1,108.6z M50.3,112.5
	c1.3,1.8,3.8,4,6.1,7c0.8-4.3,0.2-10.3-1.8-11.3C53,107.4,51.4,110,50.3,112.5z"/>
<rect id="SVGID" x="2.2" y="71" class="st2" width="658.3" height="40.8"/>
<g class="st3">
	<path class="st4" d="M274.9,81.8c0,1.3-0.9,2.4-2.2,2.4c-1.3,0-2.2-1-2.2-2.4c0-1.4,0.9-2.4,2.3-2.4
		C274,79.4,274.9,80.4,274.9,81.8z M270.8,105.5l0.5-18.1h2.6l0.6,18.1H270.8z"/>
	<path class="st4" d="M301.8,84.9c0,8.8-5.4,13.5-11.9,13.5c-6.8,0-11.5-5.2-11.5-13c0-8.1,5.1-13.5,11.9-13.5
		C297.3,72,301.8,77.3,301.8,84.9z M281.9,85.3c0,5.5,3,10.4,8.2,10.4c5.2,0,8.2-4.8,8.2-10.6c0-5.1-2.7-10.4-8.2-10.4
		C284.6,74.7,281.9,79.7,281.9,85.3z"/>
	<path class="st4" d="M306.9,98V82.1h-2.6v-2.5h2.6v-0.9c0-2.6,0.6-4.9,2.1-6.4c1.3-1.2,2.9-1.7,4.5-1.7c1.2,0,2.2,0.3,2.8,0.5
		l-0.5,2.6c-0.5-0.2-1.2-0.4-2.1-0.4c-2.8,0-3.6,2.5-3.6,5.3v1h4.4v2.5h-4.4V98H306.9z"/>
	<path class="st4" d="M319,89.4c0.1,4.5,3,6.4,6.3,6.4c2.4,0,3.8-0.4,5.1-0.9l0.6,2.4c-1.2,0.5-3.2,1.1-6.1,1.1c-5.7,0-9-3.7-9-9.3
		s3.3-9.9,8.6-9.9c6,0,7.6,5.3,7.6,8.7c0,0.7-0.1,1.2-0.1,1.6H319z M328.8,87c0-2.1-0.9-5.4-4.6-5.4c-3.4,0-4.9,3.1-5.1,5.4H328.8z"
		/>
	<path class="st4" d="M336.2,85.3c0-2.2,0-4-0.2-5.7h2.9l0.1,3.6h0.2c0.8-2.5,2.8-4,5.1-4c0.4,0,0.6,0,0.9,0.1v3.2
		c-0.3-0.1-0.7-0.1-1.1-0.1c-2.4,0-4,1.8-4.5,4.3c-0.1,0.5-0.2,1-0.2,1.6V98h-3.3V85.3z"/>
	<path class="st4" d="M353.6,74.3v5.3h4.8v2.5h-4.8v9.9c0,2.3,0.6,3.6,2.5,3.6c0.9,0,1.5-0.1,1.9-0.2l0.2,2.5
		c-0.6,0.3-1.7,0.5-3,0.5c-1.6,0-2.8-0.5-3.6-1.4c-0.9-1-1.3-2.6-1.3-4.8v-10h-2.8v-2.5h2.8v-4.4L353.6,74.3z"/>
	<path class="st4" d="M372.3,98l-0.3-2.3h-0.1c-1,1.4-3,2.7-5.6,2.7c-3.7,0-5.6-2.6-5.6-5.3c0-4.4,4-6.9,11.1-6.8v-0.4
		c0-1.5-0.4-4.3-4.2-4.3c-1.7,0-3.5,0.5-4.8,1.4l-0.8-2.2c1.5-1,3.7-1.6,6-1.6c5.6,0,7,3.8,7,7.5v6.9c0,1.6,0.1,3.2,0.3,4.4H372.3z
		 M371.8,88.6c-3.6-0.1-7.8,0.6-7.8,4.1c0,2.2,1.4,3.2,3.2,3.2c2.4,0,3.9-1.5,4.4-3.1c0.1-0.3,0.2-0.7,0.2-1.1V88.6z"/>
	<path class="st4" d="M380,94.6c1,0.6,2.7,1.3,4.4,1.3c2.4,0,3.6-1.2,3.6-2.7c0-1.6-1-2.5-3.4-3.4c-3.3-1.2-4.9-3-4.9-5.2
		c0-3,2.4-5.4,6.3-5.4c1.9,0,3.5,0.5,4.5,1.1l-0.8,2.4c-0.7-0.5-2.1-1.1-3.8-1.1c-2,0-3.1,1.1-3.1,2.5c0,1.5,1.1,2.2,3.5,3.1
		c3.2,1.2,4.8,2.8,4.8,5.5c0,3.2-2.5,5.5-6.9,5.5c-2,0-3.9-0.5-5.2-1.3L380,94.6z"/>
	<path class="st4" d="M394.8,96c0-1.4,1-2.4,2.2-2.4c1.4,0,2.2,1,2.2,2.4c0,1.3-0.9,2.4-2.2,2.4C395.8,98.4,394.8,97.4,394.8,96z
		 M395.8,90.6l-0.5-18.2h3.6l-0.5,18.2H395.8z"/>
</g>
<rect x="-1.2" y="112.9" class="st2" width="659.5" height="27.8"/>
<path class="st4" d="M190.6,121H186l-1.6,4h-0.9l4.6-11.5h0.5l4.5,11.5h-0.9L190.6,121z M186.3,120.3h4.1l-1.6-4.1
	c-0.1-0.3-0.3-0.8-0.5-1.3c-0.1,0.5-0.3,1-0.5,1.4L186.3,120.3z"/>
<path class="st4" d="M198.2,125.2c-1.3,0-2.3-0.5-2.9-1.5h-0.1l0,0.7c0,0.4,0,0.8,0,1.3v3.2h-0.8v-12.3h0.7l0.1,1.2h0
	c0.6-0.9,1.5-1.4,2.8-1.4c1.1,0,2,0.4,2.6,1.1s0.9,1.8,0.9,3.3c0,1.4-0.3,2.5-0.9,3.2S199.3,125.2,198.2,125.2z M198.2,124.5
	c0.9,0,1.5-0.3,2-1s0.7-1.5,0.7-2.7c0-2.5-0.9-3.7-2.7-3.7c-1,0-1.7,0.3-2.2,0.8c-0.5,0.5-0.7,1.4-0.7,2.7v0.3
	c0,1.3,0.2,2.3,0.7,2.8S197.1,124.5,198.2,124.5z"/>
<path class="st4" d="M207.4,116.4c0.4,0,0.7,0,1.2,0.1l-0.1,0.7c-0.4-0.1-0.7-0.1-1.1-0.1c-0.7,0-1.3,0.3-1.8,0.9
	c-0.5,0.6-0.7,1.4-0.7,2.3v4.7h-0.8v-8.5h0.7l0.1,1.5h0.1c0.3-0.6,0.7-1.1,1.1-1.3C206.4,116.5,206.8,116.4,207.4,116.4z"/>
<path class="st4" d="M217.3,120.8c0,1.4-0.3,2.5-1,3.2s-1.6,1.2-2.8,1.2c-0.7,0-1.4-0.2-2-0.5c-0.6-0.4-1-0.9-1.3-1.5
	c-0.3-0.7-0.5-1.4-0.5-2.3c0-1.4,0.3-2.5,1-3.2s1.6-1.2,2.8-1.2c1.2,0,2.1,0.4,2.7,1.2S217.3,119.4,217.3,120.8z M210.6,120.8
	c0,1.2,0.3,2.1,0.8,2.7c0.5,0.7,1.2,1,2.2,1s1.7-0.3,2.2-1c0.5-0.7,0.8-1.6,0.8-2.7c0-1.2-0.3-2.1-0.8-2.7c-0.5-0.6-1.2-1-2.2-1
	s-1.7,0.3-2.2,1S210.6,119.6,210.6,120.8z"/>
<path class="st4" d="M221.5,125l-3.3-8.5h0.8l2.2,5.8c0.3,0.7,0.5,1.4,0.7,1.9h0c0.2-0.7,0.4-1.4,0.7-2l2.2-5.8h0.8l-3.3,8.5H221.5z
	"/>
<path class="st4" d="M230.4,125.2c-1.2,0-2.2-0.4-2.9-1.1c-0.7-0.8-1-1.8-1-3.2c0-1.4,0.3-2.4,1-3.3c0.7-0.8,1.6-1.2,2.7-1.2
	c1,0,1.8,0.3,2.4,1s0.9,1.6,0.9,2.8v0.6h-6.1c0,1.2,0.3,2.1,0.8,2.7c0.5,0.6,1.3,0.9,2.3,0.9c0.5,0,0.9,0,1.3-0.1s0.8-0.2,1.4-0.4
	v0.7c-0.5,0.2-0.9,0.4-1.3,0.4S230.9,125.2,230.4,125.2z M230.2,117.1c-0.8,0-1.5,0.3-2,0.8c-0.5,0.5-0.8,1.3-0.9,2.3h5.3
	c0-1-0.2-1.8-0.6-2.3C231.6,117.3,231,117.1,230.2,117.1z"/>
<path class="st4" d="M239.2,125.2c-1.2,0-2.2-0.4-2.9-1.1s-1-1.8-1-3.2c0-1.4,0.4-2.5,1.1-3.3c0.7-0.8,1.7-1.2,2.9-1.2
	c0.7,0,1.4,0.1,2.1,0.4l-0.2,0.7c-0.7-0.2-1.4-0.4-1.9-0.4c-1,0-1.8,0.3-2.4,1c-0.5,0.6-0.8,1.6-0.8,2.8c0,1.1,0.3,2,0.8,2.7
	c0.5,0.6,1.3,1,2.3,1c0.8,0,1.5-0.1,2.1-0.4v0.7C240.8,125.1,240.1,125.2,239.2,125.2z"/>
<path class="st4" d="M249.3,125v-5.5c0-0.9-0.2-1.5-0.5-1.9s-0.9-0.6-1.7-0.6c-1,0-1.8,0.3-2.2,0.8c-0.5,0.5-0.7,1.3-0.7,2.5v4.7
	h-0.8v-12.2h0.8v3.9l0,1.1h0.1c0.3-0.5,0.7-0.9,1.2-1.1s1.1-0.3,1.8-0.3c1.9,0,2.9,1,2.9,3.1v5.6H249.3z"/>
<path class="st4" d="M258,125l-0.2-1.3h-0.1c-0.4,0.5-0.9,0.9-1.3,1.2c-0.5,0.2-1,0.3-1.6,0.3c-0.8,0-1.5-0.2-1.9-0.6
	c-0.5-0.4-0.7-1-0.7-1.8c0-0.8,0.3-1.5,1-1.9c0.7-0.5,1.7-0.7,3-0.7l1.6,0v-0.6c0-0.8-0.2-1.4-0.5-1.8s-0.9-0.6-1.6-0.6
	c-0.8,0-1.6,0.2-2.4,0.7L253,117c0.9-0.4,1.9-0.7,2.8-0.7c0.9,0,1.6,0.2,2.1,0.7s0.7,1.2,0.7,2.3v5.6H258z M254.9,124.5
	c0.9,0,1.6-0.3,2.1-0.8s0.8-1.2,0.8-2.2v-0.8l-1.5,0.1c-1.2,0.1-2,0.2-2.6,0.6s-0.8,0.8-0.8,1.5c0,0.5,0.2,0.9,0.5,1.2
	C253.8,124.3,254.3,124.5,254.9,124.5z"/>
<path class="st4" d="M271.4,125v-5.5c0-0.9-0.2-1.5-0.5-1.9s-0.9-0.6-1.7-0.6c-1,0-1.8,0.3-2.2,0.8c-0.5,0.5-0.7,1.3-0.7,2.5v4.7
	h-0.8v-8.5h0.7l0.1,1.2h0c0.6-0.9,1.5-1.3,2.9-1.3c1.9,0,2.9,1,2.9,3.1v5.6H271.4z"/>
<path class="st4" d="M275.6,116.5v5.5c0,0.9,0.2,1.5,0.5,1.9s0.9,0.6,1.7,0.6c1,0,1.8-0.3,2.2-0.8s0.7-1.3,0.7-2.5v-4.7h0.8v8.5
	h-0.7l-0.1-1.2h0c-0.6,0.9-1.5,1.3-2.9,1.3c-1.9,0-2.9-1-2.9-3.1v-5.5H275.6z"/>
<path class="st4" d="M287.8,125.2c-1.2,0-2.2-0.4-2.9-1.1c-0.7-0.8-1-1.8-1-3.2c0-1.4,0.3-2.4,1-3.3c0.7-0.8,1.6-1.2,2.7-1.2
	c1,0,1.8,0.3,2.4,1s0.9,1.6,0.9,2.8v0.6h-6.1c0,1.2,0.3,2.1,0.8,2.7c0.5,0.6,1.3,0.9,2.3,0.9c0.5,0,0.9,0,1.3-0.1s0.8-0.2,1.4-0.4
	v0.7c-0.5,0.2-0.9,0.4-1.3,0.4S288.3,125.2,287.8,125.2z M287.5,117.1c-0.8,0-1.5,0.3-2,0.8c-0.5,0.5-0.8,1.3-0.9,2.3h5.3
	c0-1-0.2-1.8-0.6-2.3C288.9,117.3,288.3,117.1,287.5,117.1z"/>
<path class="st4" d="M298.4,122.8c0,0.8-0.3,1.3-0.9,1.8s-1.4,0.6-2.5,0.6c-1.1,0-2-0.2-2.7-0.5v-0.8c0.9,0.4,1.8,0.6,2.7,0.6
	c0.8,0,1.5-0.1,1.9-0.4c0.4-0.3,0.7-0.6,0.7-1.1c0-0.4-0.2-0.8-0.5-1.1c-0.3-0.3-0.9-0.6-1.7-0.9c-0.8-0.3-1.4-0.6-1.8-0.8
	s-0.6-0.5-0.8-0.8c-0.2-0.3-0.3-0.6-0.3-1c0-0.6,0.3-1.1,0.8-1.5c0.5-0.4,1.3-0.6,2.2-0.6c0.9,0,1.8,0.2,2.6,0.5l-0.3,0.7
	c-0.8-0.3-1.6-0.5-2.3-0.5c-0.7,0-1.2,0.1-1.6,0.3s-0.6,0.5-0.6,1c0,0.4,0.2,0.8,0.5,1.1c0.3,0.3,0.9,0.6,1.8,0.9
	c0.8,0.3,1.3,0.5,1.7,0.7c0.3,0.2,0.6,0.5,0.8,0.8C298.3,122.1,298.4,122.4,298.4,122.8z"/>
<path class="st4" d="M302.8,124.5c0.5,0,0.9,0,1.3-0.1v0.6c-0.4,0.1-0.8,0.2-1.3,0.2c-0.8,0-1.3-0.2-1.7-0.6c-0.4-0.4-0.5-1-0.5-1.9
	v-5.5h-1.3v-0.5l1.3-0.4l0.4-1.9h0.4v2.1h2.5v0.7h-2.5v5.4c0,0.7,0.1,1.1,0.3,1.4C302,124.3,302.3,124.5,302.8,124.5z"/>
<path class="st4" d="M309.3,116.4c0.4,0,0.7,0,1.2,0.1l-0.1,0.7c-0.4-0.1-0.7-0.1-1.1-0.1c-0.7,0-1.3,0.3-1.8,0.9
	c-0.5,0.6-0.7,1.4-0.7,2.3v4.7h-0.8v-8.5h0.7l0.1,1.5h0.1c0.3-0.6,0.7-1.1,1.1-1.3C308.2,116.5,308.7,116.4,309.3,116.4z"/>
<path class="st4" d="M319.2,120.8c0,1.4-0.3,2.5-1,3.2s-1.6,1.2-2.8,1.2c-0.7,0-1.4-0.2-2-0.5c-0.6-0.4-1-0.9-1.3-1.5
	c-0.3-0.7-0.5-1.4-0.5-2.3c0-1.4,0.3-2.5,1-3.2s1.6-1.2,2.8-1.2c1.2,0,2.1,0.4,2.7,1.2S319.2,119.4,319.2,120.8z M312.5,120.8
	c0,1.2,0.3,2.1,0.8,2.7c0.5,0.7,1.2,1,2.2,1s1.7-0.3,2.2-1c0.5-0.7,0.8-1.6,0.8-2.7c0-1.2-0.3-2.1-0.8-2.7c-0.5-0.6-1.2-1-2.2-1
	s-1.7,0.3-2.2,1S312.5,119.6,312.5,120.8z"/>
<path class="st4" d="M326.8,122.8c0,0.8-0.3,1.3-0.9,1.8s-1.4,0.6-2.5,0.6c-1.1,0-2-0.2-2.7-0.5v-0.8c0.9,0.4,1.8,0.6,2.7,0.6
	c0.8,0,1.5-0.1,1.9-0.4c0.4-0.3,0.7-0.6,0.7-1.1c0-0.4-0.2-0.8-0.5-1.1c-0.3-0.3-0.9-0.6-1.7-0.9c-0.8-0.3-1.4-0.6-1.8-0.8
	s-0.6-0.5-0.8-0.8c-0.2-0.3-0.3-0.6-0.3-1c0-0.6,0.3-1.1,0.8-1.5c0.5-0.4,1.3-0.6,2.2-0.6c0.9,0,1.8,0.2,2.6,0.5l-0.3,0.7
	c-0.8-0.3-1.6-0.5-2.3-0.5c-0.7,0-1.2,0.1-1.6,0.3s-0.6,0.5-0.6,1c0,0.4,0.2,0.8,0.5,1.1c0.3,0.3,0.9,0.6,1.8,0.9
	c0.8,0.3,1.3,0.5,1.7,0.7c0.3,0.2,0.6,0.5,0.8,0.8C326.7,122.1,326.8,122.4,326.8,122.8z"/>
<path class="st4" d="M336.2,116.4c0.6,0,1.1,0.1,1.6,0.3c0.4,0.2,0.8,0.6,1.2,1.1h0c0-0.7,0-1.3,0-1.9v-3.1h0.8V125h-0.5l-0.2-1.3
	H339c-0.6,1-1.6,1.5-2.8,1.5c-1.2,0-2.1-0.4-2.7-1.1c-0.6-0.7-0.9-1.8-0.9-3.2c0-1.5,0.3-2.6,0.9-3.4
	C334.2,116.8,335.1,116.4,336.2,116.4z M336.2,117.1c-0.9,0-1.6,0.3-2.1,1c-0.5,0.7-0.7,1.6-0.7,2.8c0,2.4,0.9,3.6,2.8,3.6
	c1,0,1.7-0.3,2.1-0.8c0.4-0.6,0.7-1.5,0.7-2.8v-0.1c0-1.3-0.2-2.3-0.7-2.8C337.9,117.4,337.2,117.1,336.2,117.1z"/>
<path class="st4" d="M346.1,125.2c-1.2,0-2.2-0.4-2.9-1.1c-0.7-0.8-1-1.8-1-3.2c0-1.4,0.3-2.4,1-3.3c0.7-0.8,1.6-1.2,2.7-1.2
	c1,0,1.8,0.3,2.4,1s0.9,1.6,0.9,2.8v0.6H343c0,1.2,0.3,2.1,0.8,2.7c0.5,0.6,1.3,0.9,2.3,0.9c0.5,0,0.9,0,1.3-0.1s0.8-0.2,1.4-0.4
	v0.7c-0.5,0.2-0.9,0.4-1.3,0.4S346.6,125.2,346.1,125.2z M345.9,117.1c-0.8,0-1.5,0.3-2,0.8c-0.5,0.5-0.8,1.3-0.9,2.3h5.3
	c0-1-0.2-1.8-0.6-2.3C347.2,117.3,346.6,117.1,345.9,117.1z"/>
<path class="st4" d="M356.7,122.8c0,0.8-0.3,1.3-0.9,1.8s-1.4,0.6-2.5,0.6c-1.1,0-2-0.2-2.7-0.5v-0.8c0.9,0.4,1.8,0.6,2.7,0.6
	c0.8,0,1.5-0.1,1.9-0.4c0.4-0.3,0.7-0.6,0.7-1.1c0-0.4-0.2-0.8-0.5-1.1c-0.3-0.3-0.9-0.6-1.7-0.9c-0.8-0.3-1.4-0.6-1.8-0.8
	s-0.6-0.5-0.8-0.8c-0.2-0.3-0.3-0.6-0.3-1c0-0.6,0.3-1.1,0.8-1.5c0.5-0.4,1.3-0.6,2.2-0.6c0.9,0,1.8,0.2,2.6,0.5l-0.3,0.7
	c-0.8-0.3-1.6-0.5-2.3-0.5c-0.7,0-1.2,0.1-1.6,0.3s-0.6,0.5-0.6,1c0,0.4,0.2,0.8,0.5,1.1c0.3,0.3,0.9,0.6,1.8,0.9
	c0.8,0.3,1.3,0.5,1.7,0.7c0.3,0.2,0.6,0.5,0.8,0.8C356.6,122.1,356.7,122.4,356.7,122.8z"/>
<path class="st4" d="M362.3,125.2c-1.2,0-2.2-0.4-2.9-1.1s-1-1.8-1-3.2c0-1.4,0.4-2.5,1.1-3.3c0.7-0.8,1.7-1.2,2.9-1.2
	c0.7,0,1.4,0.1,2.1,0.4l-0.2,0.7c-0.7-0.2-1.4-0.4-1.9-0.4c-1,0-1.8,0.3-2.4,1c-0.5,0.6-0.8,1.6-0.8,2.8c0,1.1,0.3,2,0.8,2.7
	c0.5,0.6,1.3,1,2.3,1c0.8,0,1.5-0.1,2.1-0.4v0.7C363.9,125.1,363.2,125.2,362.3,125.2z"/>
<path class="st4" d="M367.2,116.5v5.5c0,0.9,0.2,1.5,0.5,1.9s0.9,0.6,1.7,0.6c1,0,1.8-0.3,2.2-0.8s0.7-1.3,0.7-2.5v-4.7h0.8v8.5
	h-0.7l-0.1-1.2h0c-0.6,0.9-1.5,1.3-2.9,1.3c-1.9,0-2.9-1-2.9-3.1v-5.5H367.2z"/>
<path class="st4" d="M379.4,125.2c-1.2,0-2.2-0.4-2.9-1.1c-0.7-0.8-1-1.8-1-3.2c0-1.4,0.3-2.4,1-3.3c0.7-0.8,1.6-1.2,2.7-1.2
	c1,0,1.8,0.3,2.4,1s0.9,1.6,0.9,2.8v0.6h-6.1c0,1.2,0.3,2.1,0.8,2.7c0.5,0.6,1.3,0.9,2.3,0.9c0.5,0,0.9,0,1.3-0.1s0.8-0.2,1.4-0.4
	v0.7c-0.5,0.2-0.9,0.4-1.3,0.4S379.9,125.2,379.4,125.2z M379.1,117.1c-0.8,0-1.5,0.3-2,0.8c-0.5,0.5-0.8,1.3-0.9,2.3h5.3
	c0-1-0.2-1.8-0.6-2.3C380.5,117.3,379.9,117.1,379.1,117.1z"/>
<path class="st4" d="M387,124.5c0.5,0,0.9,0,1.3-0.1v0.6c-0.4,0.1-0.8,0.2-1.3,0.2c-0.8,0-1.3-0.2-1.7-0.6c-0.4-0.4-0.5-1-0.5-1.9
	v-5.5h-1.3v-0.5l1.3-0.4l0.4-1.9h0.4v2.1h2.5v0.7h-2.5v5.4c0,0.7,0.1,1.1,0.3,1.4C386.1,124.3,386.5,124.5,387,124.5z"/>
<path class="st4" d="M397.1,120.8c0,1.4-0.3,2.5-1,3.2s-1.6,1.2-2.8,1.2c-0.7,0-1.4-0.2-2-0.5c-0.6-0.4-1-0.9-1.3-1.5
	c-0.3-0.7-0.5-1.4-0.5-2.3c0-1.4,0.3-2.5,1-3.2s1.6-1.2,2.8-1.2c1.2,0,2.1,0.4,2.7,1.2S397.1,119.4,397.1,120.8z M390.4,120.8
	c0,1.2,0.3,2.1,0.8,2.7c0.5,0.7,1.2,1,2.2,1s1.7-0.3,2.2-1c0.5-0.7,0.8-1.6,0.8-2.7c0-1.2-0.3-2.1-0.8-2.7c-0.5-0.6-1.2-1-2.2-1
	s-1.7,0.3-2.2,1S390.4,119.6,390.4,120.8z"/>
<path class="st4" d="M404.7,122.8c0,0.8-0.3,1.3-0.9,1.8s-1.4,0.6-2.5,0.6c-1.1,0-2-0.2-2.7-0.5v-0.8c0.9,0.4,1.8,0.6,2.7,0.6
	c0.8,0,1.5-0.1,1.9-0.4c0.4-0.3,0.7-0.6,0.7-1.1c0-0.4-0.2-0.8-0.5-1.1c-0.3-0.3-0.9-0.6-1.7-0.9c-0.8-0.3-1.4-0.6-1.8-0.8
	s-0.6-0.5-0.8-0.8c-0.2-0.3-0.3-0.6-0.3-1c0-0.6,0.3-1.1,0.8-1.5c0.5-0.4,1.3-0.6,2.2-0.6c0.9,0,1.8,0.2,2.6,0.5l-0.3,0.7
	c-0.8-0.3-1.6-0.5-2.3-0.5c-0.7,0-1.2,0.1-1.6,0.3s-0.6,0.5-0.6,1c0,0.4,0.2,0.8,0.5,1.1c0.3,0.3,0.9,0.6,1.8,0.9
	c0.8,0.3,1.3,0.5,1.7,0.7c0.3,0.2,0.6,0.5,0.8,0.8C404.6,122.1,404.7,122.4,404.7,122.8z"/>
<path class="st4" d="M414.2,116.4c0.6,0,1.1,0.1,1.6,0.3c0.4,0.2,0.8,0.6,1.2,1.1h0c0-0.7,0-1.3,0-1.9v-3.1h0.8V125h-0.5l-0.2-1.3
	H417c-0.6,1-1.6,1.5-2.8,1.5c-1.2,0-2.1-0.4-2.7-1.1c-0.6-0.7-0.9-1.8-0.9-3.2c0-1.5,0.3-2.6,0.9-3.4
	C412.1,116.8,413,116.4,414.2,116.4z M414.2,117.1c-0.9,0-1.6,0.3-2.1,1c-0.5,0.7-0.7,1.6-0.7,2.8c0,2.4,0.9,3.6,2.8,3.6
	c1,0,1.7-0.3,2.1-0.8c0.4-0.6,0.7-1.5,0.7-2.8v-0.1c0-1.3-0.2-2.3-0.7-2.8C415.9,117.4,415.2,117.1,414.2,117.1z"/>
<path class="st4" d="M424,125.2c-1.2,0-2.2-0.4-2.9-1.1c-0.7-0.8-1-1.8-1-3.2c0-1.4,0.3-2.4,1-3.3c0.7-0.8,1.6-1.2,2.7-1.2
	c1,0,1.8,0.3,2.4,1s0.9,1.6,0.9,2.8v0.6h-6.1c0,1.2,0.3,2.1,0.8,2.7c0.5,0.6,1.3,0.9,2.3,0.9c0.5,0,0.9,0,1.3-0.1s0.8-0.2,1.4-0.4
	v0.7c-0.5,0.2-0.9,0.4-1.3,0.4S424.5,125.2,424,125.2z M423.8,117.1c-0.8,0-1.5,0.3-2,0.8c-0.5,0.5-0.8,1.3-0.9,2.3h5.3
	c0-1-0.2-1.8-0.6-2.3C425.1,117.3,424.5,117.1,423.8,117.1z"/>
<path class="st4" d="M435.4,125l-3.3-8.5h0.8l2.2,5.8c0.3,0.7,0.5,1.4,0.7,1.9h0c0.2-0.7,0.4-1.4,0.7-2l2.2-5.8h0.8l-3.3,8.5H435.4z
	"/>
<path class="st4" d="M444.3,125.2c-1.2,0-2.2-0.4-2.9-1.1c-0.7-0.8-1-1.8-1-3.2c0-1.4,0.3-2.4,1-3.3c0.7-0.8,1.6-1.2,2.7-1.2
	c1,0,1.8,0.3,2.4,1s0.9,1.6,0.9,2.8v0.6h-6.1c0,1.2,0.3,2.1,0.8,2.7c0.5,0.6,1.3,0.9,2.3,0.9c0.5,0,0.9,0,1.3-0.1s0.8-0.2,1.4-0.4
	v0.7c-0.5,0.2-0.9,0.4-1.3,0.4S444.8,125.2,444.3,125.2z M444.1,117.1c-0.8,0-1.5,0.3-2,0.8c-0.5,0.5-0.8,1.3-0.9,2.3h5.3
	c0-1-0.2-1.8-0.6-2.3C445.4,117.3,444.8,117.1,444.1,117.1z"/>
<path class="st4" d="M453,116.4c0.4,0,0.7,0,1.2,0.1l-0.1,0.7c-0.4-0.1-0.7-0.1-1.1-0.1c-0.7,0-1.3,0.3-1.8,0.9
	c-0.5,0.6-0.7,1.4-0.7,2.3v4.7h-0.8v-8.5h0.7l0.1,1.5h0.1c0.3-0.6,0.7-1.1,1.1-1.3C451.9,116.5,452.4,116.4,453,116.4z"/>
<path class="st4" d="M461,125l-0.2-1.3h-0.1c-0.4,0.5-0.9,0.9-1.3,1.2c-0.5,0.2-1,0.3-1.6,0.3c-0.8,0-1.5-0.2-1.9-0.6
	c-0.5-0.4-0.7-1-0.7-1.8c0-0.8,0.3-1.5,1-1.9c0.7-0.5,1.7-0.7,3-0.7l1.6,0v-0.6c0-0.8-0.2-1.4-0.5-1.8s-0.9-0.6-1.6-0.6
	c-0.8,0-1.6,0.2-2.4,0.7l-0.3-0.7c0.9-0.4,1.9-0.7,2.8-0.7c0.9,0,1.6,0.2,2.1,0.7s0.7,1.2,0.7,2.3v5.6H461z M457.9,124.5
	c0.9,0,1.6-0.3,2.1-0.8s0.8-1.2,0.8-2.2v-0.8l-1.5,0.1c-1.2,0.1-2,0.2-2.6,0.6s-0.8,0.8-0.8,1.5c0,0.5,0.2,0.9,0.5,1.2
	C456.8,124.3,457.3,124.5,457.9,124.5z"/>
<path class="st4" d="M470.3,125v-5.5c0-0.9-0.2-1.5-0.5-1.9s-0.9-0.6-1.7-0.6c-1,0-1.8,0.3-2.2,0.8c-0.5,0.5-0.7,1.3-0.7,2.5v4.7
	h-0.8v-8.5h0.7l0.1,1.2h0c0.6-0.9,1.5-1.3,2.9-1.3c1.9,0,2.9,1,2.9,3.1v5.6H470.3z"/>
<path class="st4" d="M480.8,120.8c0,1.4-0.3,2.5-1,3.2s-1.6,1.2-2.8,1.2c-0.7,0-1.4-0.2-2-0.5s-1-0.9-1.3-1.5s-0.5-1.4-0.5-2.3
	c0-1.4,0.3-2.5,1-3.2s1.6-1.2,2.8-1.2c1.2,0,2.1,0.4,2.7,1.2S480.8,119.4,480.8,120.8z M474.1,120.8c0,1.2,0.3,2.1,0.8,2.7
	s1.2,1,2.2,1s1.7-0.3,2.2-1s0.8-1.6,0.8-2.7c0-1.2-0.3-2.1-0.8-2.7s-1.2-1-2.2-1s-1.7,0.3-2.2,1S474.1,119.6,474.1,120.8z"/>
<path class="st1" d="M662.6-122.6C643.5-74.4,567.9-12.6,547,3.5c-1.2-1.6-2.9-2.7-4.8-3.4c1.7-2.7,4.1-5.9,6.6-7
	c-0.8-0.5-2.1-0.3-3.9,0.6c1.8-1.7,4.5-4.9,6.9-5.9c-1.3-0.2-2.6,0-3.7,0.6c2.1-2.1,4.6-3.9,7.3-5.2c-0.8-0.3-2.6,0-3.8,0.2
	c1.6-1.9,2.7-2.2,4.5-3.2c-1-0.1-2,0-3,0.3c2-1.8,5.3-4,7.6-4.5c-1.4-0.8-3-1-4.5-0.7c3.5-3.4,7.8-5.5,12.3-5.2
	c-2.6-2.4-7-1.9-10.7-0.3c1.1-1.9,5.2-4.7,8.4-5.7c-2.9,0.1-5.7,0.9-8.2,2.4c2.1-2.3,4.7-4.2,7.6-5.3c-1-0.5-3.9,0.2-5.1,0.7
	c1.8-1.4,3.7-2.7,5.7-3.7c-2.8-0.5-7.7,2.8-10.5,6.4c0.9-3.6,4.1-6.8,5.7-8.6c-3.1,1.6-5.6,4.2-7,7.4c0.7-4,2.5-7.7,5.1-10.7
	c-12.8,12.4-18.5,27.5-21,38.4c-1.4,0.4-2.7,1.2-3.7,2.2c0.2-3,2.3-4.8,4.6-7.1c-3.2,1-6.3,2.8-7.5,4.4c1.2-3.3,5.7-7.9,9.2-10.3
	c-4,1.2-7.7,3.3-10.8,6.1c0.6-3.5,4-7.9,6.9-10.5c-4,1.3-7.3,4.2-10.6,7.8c1.2-4.5,5.1-8.6,8.1-10.7c-2.4,0.4-4.6,1.7-6,3.7
	c0.3-2.5,2.3-5.6,4.6-6.5c-1.7-0.1-3.3,0.5-4.5,1.6c0.8-2,3-6.5,4.7-7.9c-1.7,0.5-3.3,1.6-4.4,3c1.8-4,4.7-7.5,8.4-9.9
	c-1.3,0.6-4.1,1.4-6,3.1c1.4-3.1,4.4-4.8,6.4-6.2c-5.9,1.3-10.7,4.5-12.9,7.3c0.3-2.1,2.3-3.4,3.8-5.4c-5.2,1.8-7.7,6-9,13.1
	c-0.9-3.5-1-7.1-0.5-10.7c-3.2,3.8-2,11.5-1.6,15.7c0,0.4,0.1,0.8,0.1,1.3c-1.3,1-2.5,2.3-3.4,3.7c-0.1-1.4,0.9-4.9,2.8-7.5
	c-3.2,2.5-5.3,6.2-5.6,10.2c-0.3-2.2-1.2-5-0.8-7.9c-1.6,3.2-2.2,6.8-1.7,10.4c-0.8-1.5-2.4-4.1-1.8-5.9c-3.2,4.3-0.8,8.5-0.3,11
	c-2.4-1-3.4-3.2-4.4-5.3c-0.5,2.8,0.5,5.6,2.6,7.4c-1.5-0.3-2.9-0.9-4.3-1.5c1.1,1.6,3.7,2.9,5.7,4.9c-1.2,0.2-2.8-0.3-4.7-0.7
	c-3.2-4.9-3.9-11-0.8-14.3c-2.4,0.8-4.1,3-4.4,5.5c-0.9-1.2-1.3-2.6-1.1-4.1c-1,0.6-1,3.1-0.3,4.6c-3.3-2.1-3.5-7.2-1.3-10
	c-3,1.5-4.4,5-3.1,8.1c-1.9-2.1-2.8-5-2.5-7.8c-1.1,0.9-2.1,3.8-1.4,6.4c-1.7-2.3-2.8-4.2-2.9-6.5c-0.8,2.6-0.4,5.4,2.9,10
	c-1.9-0.3-4.7-4.7-5.1-6.5c0.1,3.4,0.6,8.3,7.7,15.9c-2.5-0.9-6.1-4.2-7.9-7.4c0.8,4.4,3.9,8.2,9.3,12.5c-2.5,0.4-5.5-2-8.1-3.7
	c7,6.9,13.1,10.5,22.4,11.5c-2.7,1.1-5.3,0.2-7.7-0.4c2.3,1.1,7,2.2,12.2,2.9c-0.1,1.1,0.3,2.3,1.2,3c0.7,0.6-3.7-0.8-4.7-2.8
	c-0.4,1.1-0.1,2.3,0.9,3c-1.7-0.4-2.2-1.6-3.1-2.8c0,1.7,0.8,3.3,2.1,4.3c-2.6-0.6-4-3-5-5c-0.4,2.3,0.5,4,1.4,5.8
	c-2.1-0.6-3.9-2-4.9-3.9c0.1,2.7,0.7,4.6,2.7,6c-2.1,0.2-3.8-0.6-4.1-3.2c-1.9,1.3-1.2,3.1-1.9,4.2c-1.4-2.7-0.3-4.1,0.6-5.6
	c-2.2,0.7-5.3,3.1-5.9,6.2c-0.9-1.5-0.4-4,0.8-5.7c-3.3,1.6-1.9,4.7-3,3.8c-1.7-1.4-2.9-3.3-3.4-5.4c-0.9,1.3,0.5,4.9,2.1,5.8
	c-2.3-0.6-4.5-1.5-6.6-2.7c1.4,1.5,2.9,2.8,4.5,4c-2.9-0.2-6.2,0-9.8-0.7c3.3,1.5,6.8,2.2,10.4,2.3c-1,0.3-3.1,1.5-5,1.5
	c2.5,1.4,5,0.9,7,1c-2,1.7-5.3,1.6-7.7,2.1c3.6,0.7,10.1,0.5,17-2c-0.8,0.5-6.1,3.7-9.7,4.5c6.8,0.3,22.5-5.1,26.2-6.8
	c2.2-1,7.1-2.7,12-4.6c-2.6,1.9-5.4,3.7-8.3,5.3c-0.8,0.7-3.2-0.6-4.2-0.5c0.7,0.5,1.3,1.1,1.7,1.8c-1,0.5-3.6,0-5.4-0.1
	c1.6,1.2,2.8,1.8,3.1,3.6c-1.6,0.5-4.2-0.1-6.3-1.4c0.3,1,1.7,2.8,2.1,4.5c0.2,0.7-4.7-1.3-6.5-2.2c0.4,0.9,1,1.8,1.7,2.6
	c-1.4-0.4-2.7-0.9-4-1.3c0.3,0.9,1.7,2.5,1.5,3.4c-2.2-0.6-4.2-1.7-6.3-2.3c1.5,1.6,3.8,4.2,4.4,6.4c-2.1-1.2-4.4-2.1-6.8-2.4
	c1,0.7,1.4,1.9,1.2,2.3c-1.4,0-2.8-1-4-1.4c0.1,0.3,1,2.4,1.2,2.7c-1.8-0.6-3.6-1.4-5.2-2.5c1.3,1.8,2.8,3.5,4.6,4.8
	c-2.7-0.8-5.2-1.9-7.6-3.4c0.8,1.7,2.5,3.2,5.1,4.4c-4.4,0.4-8.8,0.2-13.2-0.4c1,0.3,6,3.3,10.4,2.9c-0.6,0.7-1.4,1.2-2.3,1.3
	c3.3,0.6,6.7,0.4,9.8-0.7c-0.5,0.9-2.6,1.8-4.5,2.6c3.2-0.1,6.5-0.5,13.6-5.2c-1.1,0.9-1.9,2.9-5,5.1c6.6-2,9.9-8.3,12.2-9.8
	c4.6-3.1,9-6.6,13.2-10.3C511,39.3,509.2,48.6,509,54c-0.2,4.3-1.1,12,2.7,15.8c-0.9-3.5-0.9-7.2-0.1-10.8c1.8,7.1,4.9,11.3,10.9,13
	c-1.8-2-4.2-3.2-4.7-5.4c2.7,2.8,8.3,5.9,15.1,7.2c-2.3-1.4-5.8-3.1-7.6-6.2c2.2,1.7,5.5,2.5,6.9,3.1c-4.2-2.3-7.7-5.7-10.1-9.9
	c1.4,1.4,3.2,2.5,5.1,3c-1.9-1.4-4.8-5.9-5.8-7.9c1.5,1.1,3.3,1.7,5.2,1.5c-2.8-1.2-4.8-3.6-5.6-6.5c1.8,2.1,4.3,3.4,7.1,3.7
	c-3.5-2.1-8.2-6.2-9.8-10.7c3.9,3.6,7.9,6.5,12.5,7.7c-3.4-2.5-7.6-6.9-8.5-10.4c2.9,2.2,6.2,4,9.7,5.2c0.1,0.8,0.3,1.5,0.4,2.1
	c1.8,7.4-0.2,11.2,2.3,16.4c0.6-2.5,0.9-5,1.8-6.2c1,3.4,1.1,6.9,2.1,9.2c-0.1-1.8,0.1-3.6,0.5-5.4c0.8,3.4,3,6.4,6,8.1
	c-1.6-2.6-3.3-5.2-3.1-8.3c2.3,2.4,5.2,8,11,8.1c-2-0.7-3.8-4.3-4.9-6.2c4.3,4.3,7.9,5.3,10.9,6.3c-3-1.8-5.3-4.8-7.4-6.8
	c2.4,1.6,7.7,4.1,12.6,2.4c-3.1-0.2-6.1-1.2-8.6-3c3.2,0.4,5.9-0.4,7-1.3c-1.4-0.4-2.6-1-3-2.1c2.3-1.9,5.9-2.1,5.4-2.1
	c-3.8-0.7-7.8-0.1-11.4,0.5c2.1-1.5,4.4-2.8,6.8-3.7c-2.9-0.2-4.2-0.3-6.7,0.6c1.4-1.2,2.9-2.4,3.5-3.6c-4.5,2.8-7.3-0.2-10.6,1.1
	c0.9-0.9,1.9-1.7,3-2.3c-1.9,0.3-3.7,1.2-5.5-0.1c1.4-2.1,4.2-3,6-3.4c-2.6-0.4-5.2-0.9-7.8-1.7c1.2-0.6,4.3-1.1,5.5-1.6
	c-1.3-0.1-2.6-0.3-3.9-0.7c0.3-0.4,2.7-0.6,2.9-1c-2.3-0.6-3.2-1.6-4.8-2.6c0.5-0.7,3-0.8,2.2-1.1c-1.4-0.6-2.6-2.5-3.1-2.7
	c-2.6-0.8-0.5-1.7,1.3-2.9c4.8,8.8,12.4,18.5,23.9,23.9c-3.1-2-5.4-5-6.7-8.4c1.8,2.5,4.6,4,7.6,4.1c-1.8-1.1-5.2-2.7-6.7-5.9
	c3.2,2.2,8.1,3.2,10.4,1.4c-1.9,0-3.9-0.3-5.7-1c1.2,0,3.8-0.7,4.6-1.7c-2.7,0.3-5.3-0.3-7.6-1.7c2.6,0.2,5.3-0.3,7.6-1.5
	c-2.9,0.5-7.1-0.4-8.4-1.7c1.3,0,2.5-0.3,3.7-0.7c0.9,0.5,1.8,0.9,2.7,1.3c4.5,1.8,9.1,3.2,13.8,4.3c5.5,1.2,11.8-1.8,16.8-1
	c-3.4-1.7-7.2-1.2-11.1-1.3c5.2-1.7,14.1-4.6,19-5.3c-6.3-1.9-14.6,2-20.5,2.7c2.7-2.2,5.4-3.5,11.7-6.2c-4.6,0.3-8.3,2.2-10.3,2.8
	c1-1.6,2.6-2.8,4.4-3.3c-4.3-0.1-8.7,2.8-11.5,4.9c2-3.4,5-6.1,8.6-7.7c-5.9,1-9.4,5.6-12.4,6.2c1.2-1.8,5.2-5.2,7.8-6.9
	c-2.9,0.9-6.1,1.8-9.3,4.2c1-1.4,2.3-2.7,3.8-3.6c-2,0-6.4,1.5-7.8,3.1c1.3-2.1,4.2-2.8,6.7-5.9c-3.2,1.9-6.9,2.8-10.7,2.8
	c1.7-1.1,3.4-2.3,4.9-3.6c-2.4,0.5-4.7,1.4-6.9,2.6c0.3-1.1,1-2.1,1.8-2.9c7.1,0.7,13.6,0,17.7,1.3c-0.5-0.4-3.2-1.8-3.9-2.2
	c8.3,0.2,27.9-9.4,32.4-21.3c-2.3,2.9-4.3,6.4-8.2,7.8c1-1.1,1.5-2.5,1.4-3.9c-1.1,2.1-6,6.2-7.5,6.1c0.7-1.1,2.2-2.6,2-3.5
	c-2.2,2.7-6.3,5.8-6,3.3c-1.8,2-4.4,4.6-6.7,5.8c1.3-1.1,2.2-2.8,2.4-4.5c-1.1,2.2-6.4,4.3-7.8,5.3c1.4-2.7,1.1-3.6,1.9-5.9
	c2.6,0.2,5.2-0.4,7.6-1.5c-3.7,0.5-5.6-0.5-6.9-0.4c8.2-1.2,10.9-3.1,13.4-5.2c-1.9,0.7-4.1,1.4-5,1.1c2.9-1.1,5.6-3.5,7.8-6
	c-0.7,0.6-1.6,0.8-2.5,0.6c3.4-2.6,5.3-8.1,5.9-9c-2.8,3.4-6.1,6.5-9.6,9.1c1.1-2,1.5-4.3,1.1-6.6c-0.9,2.7-2.1,5.2-3.6,7.6
	c0.5-2.2,0.7-4.5,0.4-6.7c-0.5,1.9-1.3,3.6-2.3,5.3c-0.1-0.3-0.7-2.4-0.8-2.7c-0.6,1-1.1,2.7-2.1,3.7c-0.6-0.7-0.8-1.6-0.5-2.5
	c-1.6,1.8-2.9,4-3.6,6.3c-0.9-2.1-0.8-5.5-0.7-7.7c-1.2,1.9-2,4-3.3,5.9c-0.7-0.5-0.7-2.7-1-3.5c-0.8,1.2-1.4,2.5-2.2,3.6
	c-0.1-1-0.1-2.7-0.4-3c-0.9,1.9-3.2,6.6-3.5,6c-0.7-1.5-0.8-3.8-1.2-4.8c-0.8,2.4-2.3,4.5-3.8,5.3c-0.9-1.5-0.4-2.8,0.1-4.7
	c-1.3,1.3-2.9,3.4-4,3.7c-0.2-0.8-0.1-1.7,0.1-2.5c-0.8,0.6-1.8,3.1-2.8,3.2s-6.1,1.7-11.5,1.7v-0.6c6.5-2.9,16.3-6.2,22.3-9
	c3.8-1.8,7.8-3.3,11.9-4.4c3.6-0.9,7.7-2.4,12.2-3.1c-2.7-0.8-4.9-0.8-7.4-1.6c3.5-2.3,5.4-2.7,8.8-4.2c-2.9-0.6-6.8,0.5-9.2,1.3
	c3.8-2.7,7.2-6.6,7.8-10.2c-3,3.8-6.4,7.2-10.3,10.1c2.5-3.9,4.2-6.6,3.9-10.4c-0.5,2.4-2.4,4.9-3.8,6.5c0.4-2.3,0.8-4.9,1.5-7.6
	c-2,2.5-3.3,6.3-4.1,9.4c0.4-2.1,0.5-4.2,0.3-6.3c33.4-28.8,75.5-77.2,89.3-98.7C673.8-120.3,663-124.3,662.6-122.6L662.6-122.6z
	 M510.6,10.9c1.1,0.2,2.3,0.3,3.5,0.4c0.2,0.5,0.4,1,0.7,1.5C513.3,12.6,511.5,12.3,510.6,10.9z M516.1,11.5c0.6,0,1.2,0.1,1.8,0.1
	c0.2,0.2,0.3,0.4,0.5,0.6C517.7,12,516.9,11.8,516.1,11.5L516.1,11.5z M520.2,11.8h0.9c-0.2,0.2-0.4,0.3-0.6,0.2
	S520.3,11.9,520.2,11.8z M536.9-0.3c-0.1,0-0.2,0-0.3,0.1c0-2,0.4-4,1.2-5.8C537.4-4.1,537.1-2.2,536.9-0.3z M542.3,31.9
	c-0.7-0.4-1.5-0.6-2.3-0.7c0.1-0.6,0.8-0.9,1.2-1.3C541.6,30.6,541.9,31.2,542.3,31.9z M540.2,27.7c-0.1-0.1-0.2-0.2-0.2-0.4
	c-0.3-0.6-0.5-1.2-0.7-1.8C539.5,26.3,539.8,27,540.2,27.7z M545.5,21.9l0.2,0.2c-0.2-0.1-0.3-0.2-0.5-0.2H545.5z M558.9,35l0.3,0.2
	C559.1,35.1,558.9,35.1,558.9,35z M529.5,1.9h-0.2l0.1-0.2L529.5,1.9z M528.4,0.3c-1.3,0.6-2.2,0.8-1.5-0.8c0-0.6-0.1-1.2-0.3-1.8
	C527.2-1.5,527.8-0.6,528.4,0.3z M526-3.5c-0.4,0.4-0.9,0.7-1.4,0.9c0-0.9,0.1-1.9,0.2-2.8C525.2-4.7,525.6-4.1,526-3.5L526-3.5z
	 M524.3-6.3c-0.4,0.4-0.8,0.8-1.3,1c0.3-0.6,0.6-1.2,0.9-1.8C524-6.8,524.1-6.5,524.3-6.3z M523.6-7.6c-1.1,1-2.2,1.9-3.4,2.7
	c0.7-1.6,1.4-3.2,2.3-4.7C522.9-9,523.2-8.3,523.6-7.6z M522.2-10.3c-1.4,1.1-3,1.9-4.8,2.2c0.1-1.8,1.8-2.8,3.2-4.1
	c-1.1,0.6-2.3,1.1-3.5,1.4c1.6-1.1,2.2-2.6,3.2-4.1C520.8-13.4,521.5-11.9,522.2-10.3L522.2-10.3z M519.5-17l-0.1,0.1L519.5-17z
	 M518.9-18.8c-0.7,0.3-1.3,0.6-2,0.9c0.6-0.6,1.2-1.1,1.7-1.7C518.8-19.4,518.9-19.1,518.9-18.8z M531.3,29.4
	c-0.1,1.9-0.1,3.8-0.1,5.6C527.7,29.7,529.3,28.9,531.3,29.4z M531.2,36.3c0,1.4,0.1,2.7,0.1,4c-2.3-1.8-4.1-3.5-4.5-6.1
	C528.1,35.2,529.6,35.9,531.2,36.3z M531.3,40.9c0.1,1.6,0.2,3,0.4,4.2c-3.4-2.5-6.8-5.8-8-8.3C525.1,38.3,528.1,39.9,531.3,40.9z
	 M546.8,18.3c1.8,1.7,3.9,3.1,6.1,4.2C550.5,21.6,548.4,20.2,546.8,18.3z M556.8,24.2c0.6,0.2,1.3,0.4,1.9,0.6
	c-1.1,0-2.3,0.2-3.4,0.5C555.7,24.8,556.2,24.4,556.8,24.2z M562.4,25.7c0.8,0.1,1.5,0.3,2.3,0.4c-0.9,0.3-1.8,0.6-2.6,1
	C562.2,26.7,562.3,26.2,562.4,25.7z M555.7,1.6c0.9-0.5,1.7-1.1,2.6-1.7c-0.9,1.4-2,2.6-3.2,3.7C555.2,2.9,555.4,2.2,555.7,1.6z
	 M560.6-1.7c0.5-0.3,0.9-0.7,1.4-1c-0.4,0.8-0.9,1.6-1.4,2.4V-1.7z M568-7.1c0.3-0.2,0.6-0.5,0.9-0.7c-0.2,0.4-0.5,0.8-0.8,1.3
	C568.1-6.7,568-6.9,568-7.1z M572.9-10.9l0.4-0.3c-0.1,0.3-0.2,0.7-0.2,1C573-10.4,572.9-10.7,572.9-10.9z M575-12.6
	c0.3-0.3,0.7-0.5,1-0.8c-0.2,1.1-0.3,2.3-0.3,3.4C575.3-10.8,575.1-11.7,575-12.6L575-12.6z M578.4-15.4c0.5-0.4,1-0.9,1.6-1.3
	c-0.2,1.6-0.6,3.2-1.2,4.7C578.5-13.1,578.4-14.3,578.4-15.4z M580.8-17.4c0.5-0.4,1-0.9,1.6-1.3c-0.3,2.1-0.8,4.2-1.4,6.2
	C581-14.1,581-15.8,580.8-17.4z M514.5,3.3c-3.5-1.4-6.7-3.3-9.6-5.7c-0.3-0.3-0.7-0.6-1-0.9c2.2,1.3,4.9,2.1,7.8,4.7
	C512.6,2.1,513.5,2.7,514.5,3.3z M560.1,15.1h2.3C561.6,15.2,560.8,15.2,560.1,15.1z M567.3,14.8c0.5,0,1-0.1,1.5-0.1
	c-0.3,0.2-0.6,0.4-1,0.5C567.6,15.3,567.4,15.1,567.3,14.8z M571.5,14.4l0.7-0.1c-0.2,0.2-0.5,0.4-0.7,0.6V14.4z M574,14.2l1-0.1
	c-0.5,0.4-1,0.9-1.4,1.2C573.7,14.9,573.9,14.6,574,14.2L574,14.2z M577.1,13.8c1.5,0,3.8,0.5,6.5,0.6c-2.1,2.2-5.8,4.3-7.1,3.6
	S576.2,15.5,577.1,13.8L577.1,13.8z"/>
<path class="st1" d="M680.7-130c-40.1,62.6-49,202.4-50.3,240.2c2.9,0.1,5.7,1,8,2.7c1.6-4.2,3.5-9.7,2.6-13.6
	c1.3,0.5,2.1,2.2,2.6,5.1c0.4-3.5,1.9-9.3,1.1-13c1.4,1.2,2.2,3,2.4,4.8c0.7-4.2,0.7-8.6,0-12.8c1,0.7,2.2,3,3,4.6
	c0.9-3.5,0.3-5,0-7.9c0.9,1.1,1.6,2.4,2.1,3.8c0.5-3.8,0.2-9.5-1.2-12.7c2,1,3.6,2.6,4.6,4.6c1.1-7-0.1-13.7-4.2-18.7
	c5,1,8.1,6.6,9.3,12.2c1.2-2.9,1.1-10.1-0.4-14.5c2.3,3.5,3.7,7.5,4.1,11.6c0.9-4.8,1.1-8.9-0.2-13.2c1.5,0.7,3.1,4.7,3.4,6.6
	c0.2-3.3,0-6.6-0.5-9.8c2.9,2.8,3.2,11.3,1.4,17.5c3.5-4,4.5-10.4,5.3-13.9c0.8,5-0.2,10.1-2.8,14.4c2.5-2.1,6.5-7.9,8.3-14.9
	c-3.8,25.4-16.6,44.6-27.2,56.6c0.6,2,0.8,4.1,0.5,6.1c3.4-2.8,3.7-6.6,4.4-11.3c1.5,4.6,2,9.6,1.1,12.5c2.8-4.1,4.4-13.2,4.4-19.3
	c2.2,5.5,2.5,12.1,1.9,17.6c3.6-3.7,5.9-11.4,6.4-16.9c1.8,5.7,1.2,12.1-0.2,18.9c4.3-5.1,5.7-13.1,5.8-18.4
	c1.7,3.1,1.9,6.9,0.7,10.2c2.7-2.4,4.6-7.4,3.8-10.8c1.5,1.9,2.2,4.2,1.9,6.6c1.6-2.5,5-9,5.3-12c0.8,1.8,0.8,5.2,0.2,7.6
	c2.3-4,5-11.2,4.6-18.1c0.3,2,1.8,6,1.3,9.6c2.4-4.2,2-9.2,1.9-12.6c3.4,8,3.8,16.2,2.3,21.2c2.3-2.1,2.1-5.6,3.1-9
	c2.3,7.6-0.5,14-7.7,21.4c4.8-1.9,9.2-4.8,12.9-8.5c-1.7,7-11.7,11.9-17,15c-0.5,0.3-1.1,0.6-1.6,0.9c-0.1,2.4-0.6,4.8-1.5,7
	c1.7-1.1,5-5.1,6.4-9.5c0,7.5-4.6,12.9-7.2,15.1c2.9-1.5,6.8-2.8,9.9-5.7c-2.1,3.4-4.6,7.5-10.7,10.6c2.4-0.4,6.8-0.6,8.4-2.8
	c-2.3,7.4-9.3,8-12.6,9.6c3.2,1.9,6.5,1.3,9.8,0.7c-2.8,2.9-6.9,4.1-10.8,3.2c1.6,1.5,3.4,2.8,5.4,3.8c-2.8,0-6.5-1.8-10.5-2.6
	c0.8,1.6,2.7,3.1,4.7,4.9c8.4-0.4,16.1-4.7,17.3-11.1c1.4,3.7-0.7,8.4-2.7,9.8c2.4-0.1,4.2-0.6,5.7-2.1c0.1,1.8-2.8,3.7-5.1,4.2
	c5.2,2,11.4-1.9,12.7-6.9c0.8,4.8-2.2,9.3-6.9,10.5c4.1,0.7,8.3-1.1,11.2-3.6c-0.1,2.1-2.7,5.6-6.2,7c4.1,0.1,7.3-0.2,10.1-2.1
	c-2.3,3.1-5.9,5-14.1,5.1c2,2,9.5,1.6,11.8,0.5c-4,2.7-10.3,6.2-25,4.3c3.2,2.2,9.9,3.6,15.3,3c-5.7,2.7-12.8,2.3-22.4-0.4
	c1.6,3.2,6.9,4.8,11.1,6.4c-13.9-2.3-23.3-6.5-32.1-16.5c0.9,4,4.1,6.3,6.9,8.7c-3.3-1.8-8.4-6.4-13.6-11.8
	c-1.2,1.1-2.9,1.5-4.5,1.1c-1.4-0.3,4.1,3.6,7.2,3.1c-0.9,1.4-2.7,2-4.3,1.4c1.9,1.6,3.8,1.2,5.8,1.2c-0.9,0.8-4.5,2.1-6.8,1.2
	c2.8,2.6,6.8,2.2,10.1,1.6c-2.4,2.4-5.1,2.8-8,3.3c2.5,1.9,5.6,2.8,8.7,2.5c-3.2,2.2-5.9,3-9.2,1.9c1.5,2.6,3.9,3.9,7.2,2.1
	c0.1,3.3-2.5,4-3.3,5.7c4.4-0.6,5.1-3,6-5.3c1,3.1,0.8,8.8-2.3,12c2.5-0.3,5.1-2.9,6-5.7c0.9,5.1-3.8,6.2-2,6.6
	c3,0.8,6.2,0.6,9.1-0.5c-0.7,2.1-6.1,3.5-8.5,2.4c2.7,2.1,5.5,3.9,8.6,5.4c-2.8-0.4-5.7-1.1-8.4-1.9c2.7,3.2,5.2,7.2,9,10.8
	c-4.5-2.6-8.3-6.1-11.4-10.3c0.5,1.5,0.9,4.8,2.4,7.1c-3.7-1.7-5.2-5.1-7-7.3c-0.3,3.7,2.6,7.5,4,10.7c-3.9-3.6-9.1-11.3-11.9-21.6
	c0.1,1.3,0.8,10.3,2.9,15c-6-7.7-12.9-30.5-14-36.2c-0.6-3.3-2.8-10.6-4.7-17.8c-0.3,6.9,0.9,13,0.8,14.2c-0.1,1.5,3.4,3.2,4.1,4.5
	c-1.2-0.4-2.4-0.5-3.6-0.4c0.3,1.6,3,4.1,4.7,6.2c-2.7-0.9-4.5-1.8-6.8-0.7c0.8,2.3,3.6,4.8,7,6.2c-1.4,0.4-4.7,0.4-7.1,1.3
	c-1,0.4,5.4,4.4,8,5.8c-0.5,0.3-2.9,0.2-4.4,0.2c1.6,1.3,3.3,2.3,4.8,3.6c-1.3,0.7-4.3,0.5-5.2,1.5c2.5,2,5.5,3.4,8,5.4
	c-3.2-0.4-8.1-1-11.3,0.2c3.2,1.3,6.1,3.4,8.5,6c-1.2-0.5-2.6-0.4-3.7,0.4c1.2,1.5,3.6,2.4,5,3.4c-0.5,0.2-3.6,0.8-4.1,0.9
	c2,1.7,4.7,2.7,7.2,4c-3.2,0-6.4-0.4-9.5-1.4c3.1,2.5,6.6,4.5,10.3,6.1c-3.3,0.4-6.6-0.5-9.3-2.3c3.2,5.5,7.1,10.5,11.6,15
	c-1.2-1-8.9-4.3-12.1-9.6c-0.3,1.3-0.2,2.6,0.5,3.8c-3.3-3.5-6.3-7.6-7.4-12c-0.5,1.4,0.2,4.6,0.9,7.5c-2.6-3.8-4.8-8-5.3-20.1
	c-0.1,2-1.9,4.6-1.8,10.1c-3.2-9.4,1.4-18.5,1.3-22.4c-0.1-8,0.2-16,0.9-24c-7,21.1-16.3,30.9-22.4,35.7c-4.8,3.8-13,11.4-20.7,10
	c4.9-2.2,9.4-4.9,12.7-8.9c-9.8,3.8-17.3,3.8-24.3-1.9c3.9,0.4,7.4,2.1,10.3,0.9c-5.6-0.8-13.8-4.8-21-11.6
	c3.5,1.5,8.5,4.2,13.5,3.7c-3.9-1.1-7.4-4.3-9.4-5.5c6.2,2.9,13.1,4.1,20,3.5c-2.8-0.4-5.5-1.6-7.7-3.5c3.2,1.1,10.9,0.6,14,0.1
	c-2.6-0.8-4.8-2.5-6.2-4.8c3.3,2.3,9,2.5,12.2,1c-4-0.5-6.8-1.8-10.2-5.1c5.4,2.3,14,4.4,20.6,2.4c-7.5-1.5-14.1-3.8-19.5-8.1
	c5.8,1.9,14.4,3,19.3,1.1c-5.1-1.6-9.9-4-14.2-7c-1.1,0.5-2,1-2.8,1.3c-10.1,4.1-12.9,9.6-21,11c2.4-2.8,5.1-5.2,5.7-7.3
	c-4.8,1.7-9,4.5-12.6,5.2c2.2-1.4,4.1-3.1,5.8-5.1c-4.6,2-10.5,1.9-14.5-0.2c4.4-0.3,8.8-0.6,12.3-3.3c-4.7-0.7-13.7,0.6-18.6-6
	c2.5,1.8,8.2,0.8,11.4,0.5c-8.6-1.4-12.8-4.7-16.5-7.5c4.7,2,10.1,2.2,14.1,2.9c-3.9-1.4-11.2-5.5-13.3-12.8c3,3.9,8.2,6.9,10.7,7.5
	c-3.1-3.4-4.6-7.2-4.3-9.3c1.7,1.3,3.3,2.1,4.9,1.8c0.3-4.2-2.5-8.7-2.1-8.1c4,3.8,6.6,9.1,9,13.6c0.1-3.7-0.4-7.4-1.4-11
	c2.7,3.2,3.9,4.7,4.9,8.3c0.2-2.6,0.4-5.4,1.3-7.1c0.4,7.6,6.4,8.4,7.5,13.3c0.3-1.8,0.3-3.6,0.2-5.4c1.3,2.5,1.7,5.3,4.7,6.3
	c1.2-3.4,0-7.4-1.1-9.9c2.7,2.7,5.5,5.3,8.5,7.7c-0.4-1.9-2.4-5.9-2.7-7.8c1.2,1.5,2.6,2.8,4.1,3.9c0.2-0.7-1.6-3.6-1.3-4.3
	c2.6,2.2,4.6,2.4,7,3.3c0.3-1.2-1.6-4.2-0.5-3.5c1.9,1.1,5.1,0.8,5.8,1.4c3,2.4,2.4-0.8,2.3-4c-14.3,2.3-32,1.6-47.9-7.4
	c4.9,1.9,10.2,2.1,15.3,0.8c-6.2-0.3-8.7-2.8-11.1-5.4c2.8,1.2,7.5,3.8,12.6,2.9c-5.2-1.8-10.5-6.8-10.2-10.9
	c1.6,2.2,3.6,4.2,5.9,5.8c-1-1.4-2.4-5-1.9-6.7c1.9,3.6,4.7,5.7,8.3,7.5c-2.4-2.9-4-6.4-4.6-10.1c1.8,3.8,6.3,7.9,9,8.4
	c-1-1.5-1.8-3.1-2.3-4.8c-1.3-0.6-2.6-1.3-3.7-2.1c-5.9-3.7-11.4-7.9-16.6-12.5c-6-5.4-7.8-15.2-12.9-20.4
	c4.9,2.5,7.4,7.5,10.8,11.9c-2.4-7.5-6.4-20.2-9.8-26.6c7.5,5.7,9.9,18.7,14,26.2c0.3-5-0.4-9.2-2.6-18.9c3.5,5.6,4.4,11.5,5.3,14.3
	c1-2.5,1-5.3,0.2-7.9c3.7,4.9,3.9,12.4,3.9,17.5c2.3-5.1,2.9-10.9,1.8-16.4c3.8,7.7,1.4,15.6,3.2,19.7c1.1-2.9,1.7-10.4,1.5-14.8
	c1.4,4.1,3.1,8.6,2.9,14.4c0.8-2.4,1.2-4.9,1-7.4c1.7,2.3,3.6,8.6,2.9,11.7c1.4-3.3-0.3-7.3,1.3-12.8c0.1,3.1,2,10,5.7,14.9
	c-0.2-2.9-0.2-5.8,0.2-8.7c1.3,2.9,2.9,8.6,2.7,10.2c1-1.4,1.7-3.1,2.1-4.8c-6.8-7.7-11.3-15.8-16.3-19.6c1,0.3,4.8,2.2,5.8,2.7
	c-7.2-9.5-12.4-40.4-2.2-55.6c-1.5,5.1-3.9,10.3-2.2,16.1c0.5-2,1.7-3.8,3.4-4.9c-1.5,3-2.3,12.2-0.9,13.8c0.7-1.8,1.2-4.7,2.4-5.3
	c-1.3,4.9-1.5,12.2,1.2,9.7c-0.8,3.8-1.6,9-1.1,12.7c0.5-3.6,1.5-4.6,3.3-6.6c-1.7,3.2,0.3,11,0.4,13.5c2-3.9,3.3-4.3,5.3-7.1
	c-2.3-3-3.9-6.4-4.6-10.1c2.5,4.7,5.2,6.1,6.3,7.7c-5.4-10.6-5.5-15.3-5.1-20c0.8,2.8,1.8,5.9,2.9,6.8c-1.2-4.3-0.6-9.4,0.5-14.1
	c0,1.3,0.5,2.5,1.4,3.5c0.2-6.2,5-13,5.6-14.4c-1.6,6.1-2.5,12.5-2.6,18.8c1.9-3.6,4.3-5.7,6.8-6.7c-2.4,3.2-4.4,6.7-5.9,10.5
	c2.2-2.3,4.7-4.4,7.4-6.1c-1.6,2.4-3.4,4.6-4.2,7.1c0.4-0.2,3.4-1.3,3.9-1.4c-0.7,1.6-2.3,3.6-2.6,5.5c1.3,0.1,2.6-0.5,3.4-1.5
	c-0.8,3.4-2.2,6.7-4.3,9.5c3.2-0.7,7.1-3.7,9.5-5.6c-1.1,3-3,5.7-4.2,8.7c1.2,0.4,3.7-1.4,4.9-1.8c-0.7,1.9-1.7,3.7-2.4,5.6
	c1.2-0.9,2.4-1.6,3.8-2.1c-1.5,2.6-5,9.3-4,9.1c2.4-0.4,5.1-2.2,6.6-2.6c-2.2,3-3.4,6.5-3,8.9c2.5-0.2,3.6-1.9,5.4-4.1
	c-0.4,2.7-1.5,6.2-1,7.8c1.1-0.5,2-1.3,2.8-2.2c0,1.5-2.2,4.7-1.4,5.9c0.8,1.2,3.1,8.5,7.7,14.8c0.2-0.2,0.4-0.4,0.7-0.5
	c-2.1-10-6.4-24.3-8.1-33.5c-1.1-6-2.7-11.8-4.8-17.5c-2-4.9-3.7-11-6.6-16.8c3.2,2.5,5,5.1,8.1,7.2c-0.3-6-1.4-8.6-2.5-13.8
	c3.1,3,5.1,8.4,6.2,11.8c-0.1-6.7,1.7-13.9,5.3-17.6c-1.9,6.7-3,13.6-3.2,20.5c2.4-6.2,4.2-10.4,8.8-13.3c-2.3,2.6-3.8,6.9-4.4,9.8
	c2.3-2.3,5-5.1,7.7-8.1c-1.2,4.5-4.6,9.1-7.5,12.6c2.1-2.2,4.6-4.1,7.2-5.6c5.7-63,26.8-152.6,40.3-186.6
	C668.7-141.2,682.4-131.9,680.7-130L680.7-130z M652.1,158.8l-3.4-3.7c-1,0.3-2,0.3-2.3,0.5C648,157,649.8,158.9,652.1,158.8z
	 M646.8,152.9c-0.6-0.7-1.1-1.3-1.6-2c-0.4,0-0.7,0-1.1-0.1C644.9,151.4,645.8,152.2,646.8,152.9z M643.1,148.3
	c-0.3-0.3-0.5-0.7-0.8-1c-0.1,0.3,0,0.7,0.3,0.9C642.8,148.2,642.9,148.2,643.1,148.3z M643.2,118.8c0.1,0.1,0.1,0.3,0.2,0.4
	c2.3-1.7,4.2-3.8,5.7-6.2C647.2,115,645.2,117,643.2,118.8z M601.3,139.4c1,0.5,1.9,1.2,2.7,2.1c0.6-0.6,0.4-1.7,0.5-2.5
	C603.4,139.1,602.3,139.3,601.3,139.4z M607.9,138.3c0.2,0,0.5,0,0.7-0.1c0.9-0.2,1.9-0.4,2.8-0.7
	C610.2,137.8,609.1,138.1,607.9,138.3z M610.2,127.3h-0.4c0.2,0.1,0.5,0.3,0.7,0.4C610.4,127.5,610.3,127.4,610.2,127.3z
	 M583.7,122.5l-0.5-0.1l0.6,0.3C583.8,122.7,583.7,122.5,583.7,122.5z M646.9,129.1c0.1,0.1,0.1,0.2,0.2,0.3l0.1-0.3H646.9z
	 M649.7,129.1c0.4,2,0.8,3.2,2.1,1c0.2-0.4,1.3-0.7,2.3-1.2C652.7,129,651.2,129.1,649.7,129.1z M656.1,128.9
	c-0.1,0.8-0.1,1.5,0.1,2.3c1.1-0.8,2.1-1.6,3-2.6L656.1,128.9z M660.8,128.4c-0.1,0.8-0.2,1.6-0.1,2.4c0.5-0.8,1-1.7,1.4-2.6
	C661.7,128.3,661.2,128.4,660.8,128.4z M662.9,128.2c-0.1,2.1-0.4,4.7-0.3,6.1c1.3-2.1,2.5-4.3,3.5-6.6
	C665.1,127.9,664,128,662.9,128.2z M667.2,127.5c-0.1,2.6,0.4,5.1,1.5,7.4c2-1.6,1.7-4.4,2.1-7.1c0.2,1.8,0.6,3.6,1.3,5.3
	c-0.1-2.8,1.2-4.7,2.1-7.1C671.9,126.6,669.5,127.1,667.2,127.5z M677.3,125.1l0.1,0.2L677.3,125.1z M679.9,124.2
	c0.2,1.1,0.4,2.1,0.6,3c0.2-1.1,0.4-2.3,0.6-3.5C680.7,123.9,680.3,124.1,679.9,124.2z M613.4,150.2c-2.1,1.7-4.3,3.3-6.4,4.8
	C616,154.6,615.6,151.9,613.4,150.2z M605.4,156c-1.6,1.1-3.2,2.2-4.7,3.2c4,1.1,7.5,1.9,10.8,0.1
	C609.3,158.6,607.2,157.5,605.4,156z M599.9,159.7c-1.9,1.2-3.7,2.3-5.3,3.1c5.7,1.9,12.4,3.1,16.3,2.4
	C608.1,164.8,603.8,162.6,599.9,159.7z M613.3,122.7c-3.5-0.8-6.9-2-10.1-3.6C606.2,121.2,609.7,122.4,613.3,122.7z M598.1,116
	c-0.8-0.5-1.6-1.1-2.3-1.7c0.9,1.4,1.7,2.8,2.3,4.3C598.3,117.7,598.3,116.9,598.1,116z M591.6,110.8l-2.4-2.4
	c0.5,1.3,0.8,2.6,0.9,3.9C590.6,111.8,591.2,111.3,591.6,110.8z M625.4,98.4c-0.1-1.5-0.1-2.9-0.2-4.4c-0.9,2.2-1.4,4.5-1.6,6.8
	C624.2,100,624.8,99.2,625.4,98.4z M625.1,89.9v-2.5c-0.6,1.2-1.2,2.4-1.6,3.7C623.8,90.9,624.4,90.4,625.1,89.9z M625.2,76.8v-1.6
	c-0.3,0.6-0.6,1.3-0.8,2C624.7,77.1,624.9,76.9,625.2,76.8z M625.5,68v-0.8c-0.3,0.4-0.6,0.7-0.9,1.1L625.5,68z M625.7,64.1
	c0-0.6,0.1-1.2,0.1-1.9c-1.1,1.2-2.3,2.3-3.7,3.2C623.3,65.1,624.5,64.7,625.7,64.1z M626.2,57.8c0.1-1,0.1-1.9,0.2-2.9
	c-1.7,1.6-3.2,3.4-4.5,5.3C623.1,59.6,624.6,58.8,626.2,57.8L626.2,57.8z M626.5,53.3c0.1-1,0.2-2,0.3-2.9c-2.2,2.1-4.2,4.4-6,6.8
	C622.6,55.7,624.5,54.4,626.5,53.3L626.5,53.3z M657.8,148c4.5,3,9.5,5.1,14.7,6.4c0.6,0.1,1.3,0.2,1.9,0.3c-3.3-1.5-6.6-3.9-12-5.2
	C660.8,149.1,659.3,148.6,657.8,148z M605.9,104.6c-0.6-0.9-1.3-1.8-1.9-2.7C604.5,102.8,605.2,103.8,605.9,104.6z M600.2,95.9
	c-0.4-0.6-0.8-1.3-1.2-1.9c0,0.5,0.1,1.1,0.3,1.6c0.1,0.3,0.4,0.5,0.7,0.4C600.1,96,600.1,95.9,600.2,95.9z M597.1,90.7l-0.5-0.8
	c-0.1,0.5-0.1,0.9-0.1,1.4L597.1,90.7z M595.4,87.6l-0.7-1.3c-0.1,1-0.2,1.9-0.3,2.6C594.7,88.5,595,88.1,595.4,87.6z M593.2,83.7
	c-1.3-1.8-3.8-4-6.1-7c-0.8,4.3-0.2,10.3,1.8,11.3C590.5,88.8,592.1,86.2,593.2,83.7z"/>
</svg>
