<?xml version="1.0" encoding="utf-8"?>
<!-- Generator: Adobe Illustrator 24.0.2, SVG Export Plug-In . SVG Version: 6.00 Build 0)  -->
<svg version="1.1" id="Layer_1" xmlns="http://www.w3.org/2000/svg" xmlns:xlink="http://www.w3.org/1999/xlink" x="0px" y="0px"
	 viewBox="0 0 658.3 192.9" style="enable-background:new 0 0 658.3 192.9;" xml:space="preserve">
<style type="text/css">
	.st0{fill:none;}
	.st1{fill:#FF5D75;}
	.st2{fill:#FF6C83;}
	.st3{fill:#FF99AA;}
	.st4{enable-background:new    ;}
	.st5{fill:#FFFFFF;}
</style>
<title>bgBanner1</title>
<rect class="st0" width="658.3" height="192.9"/>
<rect class="st1" width="658.3" height="192.9"/>
<path class="st2" d="M29,491.7c-32.3-105,10.4-307.9,23.4-362.4c4.1,1,8.5,0.7,12.5-0.7c0.7,6.7,1.1,15.3-1.7,20.4
	c2-0.2,3.8-2.4,5.7-6.2c-0.8,5.1-0.9,14.1-3.5,18.9c2.5-1.2,4.4-3.3,5.3-5.9c-0.5,5.6-3,14.4-5.1,18.3c1.7-0.5,4.3-3.4,6.1-5.4
	c-0.1,5.3-1.6,7.3-3.2,11.3c1.8-1.2,3.3-2.8,4.5-4.5c-0.8,5.6-3.4,13.6-6.7,17.6c2.1-0.1,6-1.9,8.4-4.8c-1.3,10.3-5.5,19.6-13.3,25
	c7.5,0.6,14.2-6.2,18-13.8c0.6,4.6-2.4,14.8-6.3,20.6c4.7-4,8.2-9.2,10.4-14.9c-0.6,7.2-1.9,13.1-5.5,18.8c2.4-0.5,6.2-5.4,7.5-8.1
	c-1,4.7-2.5,9.3-4.5,13.8c5.3-2.8,9-14.9,8.9-24.5c3.4,7.1,2.3,16.6,2,21.9c2.2-5.8,4.1-11.5,1.8-21.6c2.7,4,6.2,13.9,5.9,24.6
	c4.7-37.7-5.9-70.2-16.3-91.5c1.6-2.6,2.7-5.4,3.2-8.5c3.7,5.3,2.7,10.9,1.7,17.8c4-5.9,6.6-12.9,6.5-17.4
	c2.4,6.9,1.1,20.5-1.4,29.3c5.3-6.9,8.4-16.3,9.8-24.4c3.6,6.6,3.9,18.5,2.5,26.6c4.8-7.4,6.5-16.7,7.2-27.1c4.1,9,2.9,21,0.9,28.5
	c3.6-3.9,5.4-9,5-14.2c2.9,4.5,3.6,12.4,1.1,16.9c3.3-2.3,4.5-5,5.4-8.7c1.4,4.2,3.6,14.8,2.8,19.3c1.8-2.3,3.2-7.1,3.3-10.8
	c1.7,6.7,2.6,17.9-0.7,27.6c1.3-2.7,4.9-7.8,5.7-13.1c1.7,6.9-0.9,13.9-2.3,18.8c8-10.1,11.8-21.6,11.7-29.3
	c2.4,3.9,0.8,8.8,0.9,14.1c6.3-9.9,4.9-20.1-2.6-33.6c6.2,4.4,11,10.5,15.1,17.2c0.3-10.6-12-21.6-18.3-28.2c-0.6-0.6-1.3-1.3-2-2
	c0.8-3.5,1-7.1,0.6-10.6c2,2.2,5.1,9.3,5.3,16.1c2.9-10.7-1.4-20.3-4.3-24.4c3.5,3.3,8.6,6.7,11.9,12.1c-1.7-5.7-3.6-12.5-11.1-19.4
	c3.3,1.5,9.5,3.5,10.9,7.3c-0.3-11.4-10-15-14.2-18.7c5.3-1.5,9.8,0.8,14.3,2.9c-2.4-5.2-8.2-8.6-14.1-8.8c2.5-1.5,6.3-2.5,9.2-3.2
	c-3.9-1.1-10,0.1-16-0.5c1.7-2,5-3.4,8.6-5.1c11.9,3.9,21.2,13.1,20.4,22.7c3.4-4.7,2.3-12.2,0-15c3.4,1.1,5.7,2.5,7.3,5.2
	c0.9-2.4-2.6-6.4-5.6-8c8.3-0.8,15.5,7.3,15.4,14.8c3.6-7.8-0.6-14.7-5.6-17.7c6.1,0.7,11.3,4.9,14.6,9.7c0.6-3-1.7-9.1-6.1-12.4
	c5.8,1.5,10.3,3.2,13.6,6.9c-2.1-5.3-6.5-9.5-18.1-12.8c3.6-2,14.1,1.5,17.1,3.9c-4.7-5.4-12.1-13-34-16.1c5.4-1.8,15.6-1.1,23,1.7
	c-7.1-6.2-17.3-8.4-32.1-8.2c3.5-4,11.8-4.1,18.3-4.7c-20.7-2.1-35.8,0.1-52.4,10.9c2.9-5.3,8.4-7.4,13.3-9.7
	c-5.4,1.3-14.6,5.7-24.1,11.4c-1.3-2.1-3.6-3.3-6-3.4c-2.1,0,7.2-3.6,11.4-1.6c-1.3-3-3-3.6-5.5-3.8c3.4-1.6,5.8-0.2,8.8,0.5
	c-1-1.5-5.6-4.8-9.3-4.4c5.1-2.5,10.5-0.4,15,1.7c-2.5-4.3-6.2-6.1-10.1-7.8c4.3-1.8,9.1-1.9,13.4-0.1c-3.8-4.3-7.2-6.7-12.4-6.3
	c3.2-3,7.1-4.1,11.1-0.2c1.5-4.7-2-6.7-2.4-9.4c6,2.6,6,6.3,6.4,10c2.7-4,4.6-12.1,1.5-18c3.4,1.3,6.1,6.1,6.3,10.5
	c3.3-7-3-10.3-0.2-10.3c4.6,0,9.1,1.6,12.8,4.4c-0.2-3.3-7.3-7.4-11.2-6.8c4.6-2,9.5-3.4,14.4-4.3c-4.2-0.6-8.5-0.8-12.7-0.7
	c5.1-3.5,10.3-8.2,17.1-11.8c-6.8,1.5-14.8,5.9-20.3,10.1c1.3-1.9,3.1-6.5,6.3-9.2c-5.9,1-9.5,5.2-12.8,7.6c1-5.4,6.7-9.7,10-13.6
	c-7,3.7-17.4,12.5-25.5,26c0.7-1.8,5.2-14.4,10.1-20.2c-11.6,8.6-30.4,38.3-34.3,46c-2.3,4.5-8.2,14-13.7,23.5
	c2.2-9.9,6.4-18.2,6.7-19.9c0.4-2.3,6.1-3.2,7.6-4.8c-1.8,0.1-3.6-0.1-5.3-0.8c1.1-2.2,6-4.7,9.2-7c-4.3,0.2-7.1,0.8-9.9-1.8
	c2.1-2.9,7-5.4,12.4-6.1c-1.8-1.2-6.6-2.4-9.6-4.6c-1.3-0.9,9.4-4.1,13.7-5.1c-0.6-0.6-4.1-1.5-6.2-2c2.7-1.2,5.7-2,8.3-3.2
	c-1.7-1-6.1-1.8-7-3.6c4.4-1.9,9.2-2.7,13.5-4.5c-4.6-0.8-11.8-1.9-15.9-4.7c5.1-0.6,10.1-2.4,14.4-5.2c-2.7,0.2-4.8-1.4-5.1-2.2
	c2.3-1.7,6-2,8.4-2.9c-0.6-0.4-4.8-2.6-5.5-2.9c3.5-1.7,7.7-2,11.9-2.8c-4.6-1.3-9.3-1.9-14.1-1.8c5.5-2.3,11.3-3.8,17.2-4.5
	c-3.6-1.7-8.4-2.1-14.2-0.5c6.8-6.5,14.4-12.1,22.5-16.9c-2.1,0.9-14.3,2.6-21,9c0-1.9,0.8-3.8,2.2-5.2c-6,3.6-12,8.3-15.2,14.2
	c-0.3-2.2,2-6.5,4.1-10.3C90.9-19.6,86-14.4,80.5,2.6c0.6-2.9-0.8-7.4,1.5-15.1c-8.3,12.2-5.3,27-7,32.5
	c-3.4,11.4-6.2,22.9-8.2,34.7C65.1,21.8,55.7,4.1,49-5.1c-5.4-7.3-14.1-21.4-25.5-22.5C29.6-22.5,34.9-16.9,38-9.9
	c-12.5-9.4-23.1-12.2-35.4-7c5.6,0.8,11.3-0.3,14.9,2.7C9.3-15.3-4-12.9-16.9-6c5.6-0.8,13.7-2.6,20.7,0.1c-5.9,0-12.3,3.2-15.6,4.1
	C-0.5-4,11.3-1.5,18.1,1.1C14.1,0.6,8.6,1.4,5.7,3c5.1-0.3,15.8,3.4,20,5.3c-4.1,0.5-7.4,1.4-10.7,4.4c5.6-2,13.8-0.1,17.9,3.4
	c-6-0.9-10.5-0.2-16.6,3.3c8.6-1.1,21.7-0.7,30.3,4.7c-11.3-0.8-21.7-0.2-31,3.8c9-0.4,21.7,1.4,27.9,6c-7.8,0.3-15.6,1.8-23,4.4
	c-1.3-1.2-2.5-2.2-3.5-3C4.2,25.5,2.4,16.5-8.6,11.4c2.2,5,5.2,9.4,5.2,12.6c-6.2-4.4-11.1-10-15.8-12.4c2.2,2.9,5.1,6.4,6.3,9.5
	c-5.9-4.6-14.2-6.9-20.8-5.4c6.1,2.2,12.3,4.3,16.2,9.5c-6.9-0.9-19.3-6.2-28.9,1.1c4.3-1.5,12,2.1,16.4,3.8
	c-12.9-1.4-20.2,1.7-26.5,4.1c7.5-1,15.2,0.9,21.3,1.5c-6.1,0.5-18.1,3.5-24,12.9c5.8-4.3,14.5-6.6,18.2-6.5
	c-5.8,3.7-9.4,8.5-9.9,11.6c2.9-1.1,5.6-1.7,7.7-0.6c-1.2,6.1-7,11.4-6.2,10.6c7.2-3.9,13-10.3,18.2-15.9
	c-1.4,5.3-3.5,10.4-6.4,15.1c5.1-3.5,7.4-5.1,10.2-9.9c-0.7,3.8-1.5,7.8-0.9,10.6c3.6-10.6,12.4-9.4,16-15.9
	c-0.3,2.7-0.9,5.3-1.9,7.8c2.8-3,4.6-6.8,9.2-7.2C-4.6,53.7-8,59-10.5,62c4.1-2.2,9.6-5.5,15.2-7.6C3.4,57-1,61.9-2.2,64.4
	c2.3-1.6,4.8-2.9,7.3-4c0,1.1-3.7,4.5-3.5,5.6c4.6-2.1,7.5-1.6,11.4-2c0,1.8-4,5.3-2.1,4.7c3.1-0.9,7.6,0.8,8.8,0.3
	c5.3-2,3.2,2.2,1.7,6.7c-19.6-8.2-45-14.1-71.3-7.6c9-1,18.2,2.3,22.1,5c-9-2-13.6,0.5-18,3.4c4.4-0.6,12.3-2.4,19.1,0.8
	c-8.2,0.6-17.6,5.5-18.9,11.6c3.3-2.5,6.9-4.6,10.8-6c-2,1.6-5.4,6.2-5.3,8.9c4.1-4.5,8.9-6.2,14.9-7.4c-5.8,3.6-8.9,9-10.5,12.6
	c4.1-4.7,12.2-8.8,16.2-8.4c-2,1.7-3.7,3.8-5.1,6c-2.1,0.4-4.1,0.9-6.2,1.5c-9.8,3-19.4,6.7-28.6,11.3
	c-10.6,5.3-17.1,18.5-26.5,23.9c7.9-1.7,13.6-7.7,20.1-12.6c-6.4,9.7-17.2,26.3-24.5,34.1c13-5.2,21.5-22.7,30.3-31.9
	c-1.6,7.2-4.2,12.9-11.1,25.9c7.2-6.7,10.8-14.7,13.3-18.3c0.3,4-0.7,8-2.8,11.4c7.2-5.4,10.6-16.2,12.5-23.4
	c1.7,8.6-0.8,18.5-3.9,24.1c8.4-9.5,8.1-21.7,12.4-26.8c0.5,4.5-1.6,15.5-3.7,21.7c3.6-5.3,7.8-11.1,9.8-19.4
	c0.2,3.7-0.3,7.4-1.5,10.9c3.4-2.7,8.5-10.9,8.7-15.5c0.6,5.2-3.3,10.3-3.3,18.7c1.4-4.3,6.8-13.5,13.9-18.9
	c-1.4,4.6-2.7,8-3.2,12.5c3-3.6,7.5-11.1,7.9-13.4c0.9,2.3,1.2,4.8,0.9,7.3c-12.7,8.3-22.4,18.1-31,21.4c3.1-0.4,6.3-0.9,9.3-1.6
	C-45.7,148-65.4,190-56.9,215.8c-0.1-7.8-1.4-16.2,3.3-23.8c-0.1,3,0.9,6,2.9,8.3c-1-4.9,1.6-18.3,4.3-20c0.3,2.9-0.2,7.1,1.3,8.5
	c0.1-7.4,2.7-18,5.5-13.4c0.4-5.7,1.3-13.5,3.4-18.5c-0.7,5.3,0.3,7.2,2.1,10.7c-1.1-5.2,4.8-15.6,5.9-19.1c1.3,6.3,3,7.4,4.8,12.3
	c-4.5,3.3-8.1,7.6-10.6,12.6c5.4-5.7,9.9-6.6,12-8.5c-12,12.7-14,19.5-15.3,26.2c2.2-3.7,4.9-7.8,6.8-8.5
	c-3.4,5.7-4.6,13.1-4.8,20.3c0.5-1.9,1.7-3.4,3.4-4.4c-2.2,8.9,2,20.5,2.3,22.8c0.2-9.4,1.5-18.8,3.7-27.9c1.3,5.9,3.9,9.9,7,12.3
	c-2.3-5.1-3.8-12.9-4.2-17.4c2.2,4.2,4.9,8.2,8.2,11.6c-1.4-4-3-7.9-3.2-11.8c0.5,0.5,4.3,3.2,5,3.5c-0.4-2.6-1.8-6-1.5-8.9
	c0.8-0.1,3.1,1.1,4.2,3.5c0.2-5.2-0.6-10.4-2.5-15.2c4.3,2.2,8.6,8.1,11.4,11.8c-0.5-4.7-2-9.4-2.5-14.1c1.9,0,4.6,3.5,6.3,4.5
	c-0.2-3-0.9-5.9-1.2-8.9c1.4,1.6,3.8,4.3,4.6,4.5c-1.1-4.3-3.5-15.3-2.1-14.5c3.2,1.6,6.5,5.2,8.3,6.3c-1.9-5.1-2.2-10.6-0.7-13.9
	c3.4,1.3,4.3,4,6.1,8c0.4-4,0.3-9.5,1.6-11.5c1.3,1.2,2.4,2.6,3.1,4.2c0.6-2.1-1.2-7.5,0.4-9c1.4-1.2,7.8-10.9,16.8-18.1
	c0.2,0.4,0.5,0.7,0.8,1c-6.9,13.4-18.7,32.1-24.9,44.6C11.3,174,6.6,181.7,1.3,189c-4.7,6.2-9.6,14.3-16,21.4
	c5.5-2.3,9.1-5.2,14.4-7.1c-2.8,8.4-5.3,11.7-9.1,18.6c5.6-3,10.6-9.9,13.4-14.3c-2.8,9.5-3.1,20.4,0.6,27.2
	c-0.2-10.3,1.1-20.5,3.6-30.4c1,9.8,1.8,16.5,7.3,22.4c-2.3-4.6-2.7-11.3-2.4-15.7c2.3,4.3,5.1,9.2,7.7,14.6c0-6.8-3-14.8-5.7-21
	c2.6,4.3,5,8.2,8,10.9C6.4,307.8,1,443.8,6.7,497.7C7.5,502.9,30.7,495,29,491.7L29,491.7z M102.7,68.7c-2.1,1.3-4.2,2.6-6.3,4
	c-1-0.6-2-1.2-3.1-1.7C96.1,69.5,99.5,67.6,102.7,68.7L102.7,68.7z M92.8,75c-1.1,0.7-2.1,1.4-3.1,2.2c-0.5-0.2-1.1-0.3-1.6-0.3
	C89.5,76.3,91.1,75.6,92.8,75z M85.7,80.1l-1.5,1.1c0-0.5,0.3-0.9,0.7-1.1H85.7z M74.2,122.2l0.5-0.6c2.6,3.3,4.5,7.1,5.7,11.1
	C78.2,128.7,76.1,125.1,74.2,122.2z M22.5,76.2c1.7-0.3,3.2-1,4.6-1.9c0.6,1.2-0.1,2.5-0.3,3.8C25.4,77.4,24,76.8,22.5,76.2z
	 M31.6,80.4c0.3,0.1,0.6,0.2,1,0.4s1.8,0.9,3.7,2.1C34.8,82,33.3,81.2,31.6,80.4L31.6,80.4z M30.5,97l-0.6-0.1l1.1-0.3L30.5,97z
	 M-9.2,93.3H-10l0.9-0.2L-9.2,93.3z M83.5,108.9c0.1-0.1,0.3-0.2,0.4-0.3v0.4L83.5,108.9L83.5,108.9z M87.5,110
	c1.3-2.7,2.5-4.3,3.5-0.7c0.2,0.7,1.5,1.5,2.8,2.6C91.8,111.3,89.7,110.7,87.5,110L87.5,110z M96.5,113c0.1-1.1,0.5-2.2,1.1-3.3
	c1.2,1.5,2.3,3.2,3.3,4.9C99.5,114,98,113.5,96.5,113z M103.1,115.4c0.1-1.2,0.4-2.4,0.8-3.5c0.4,1.4,0.7,2.8,0.9,4.2
	C104.3,115.9,103.7,115.7,103.1,115.4z M106,116.6c0.7-3,1.3-6.9,2-8.9c1.1,3.5,1.9,7.2,2.4,10.8C108.9,117.9,107.5,117.2,106,116.6
	L106,116.6z M111.8,119.2c0.9-3.4,2.4-7.3,5-10c2.1,3,0.7,7,0.2,11c1.1-2.5,2.4-4.8,3.9-7c-1.3,4-0.1,7.2,0.2,11
	C118.3,122.6,115.2,120.9,111.8,119.2L111.8,119.2z M125.2,126.7l0.2-0.3L125.2,126.7L125.2,126.7L125.2,126.7z M128.6,129
	c0.7-1.4,1.4-2.8,2.1-4.1c-0.2,1.7-0.4,3.4-0.6,5.2L128.6,129L128.6,129z M44,65.6c-2.4-3.3-4.8-6.4-7.3-9.4
	C49.6,60.3,47.9,64,44,65.6z M35,54.1c-1.9-2.3-3.7-4.4-5.5-6.4c6.2,0,11.5,0.3,15.5,4.2C41.6,52,38.2,52.7,35,54.1z M28.7,46.8
	c-2.2-2.5-4.3-4.7-6.3-6.5c8.9-0.4,19,0.5,24.2,3.1C42.4,42.7,35.4,44.1,28.7,46.8L28.7,46.8z M33.1,104.8
	c-5.3-0.3-10.6,0.1-15.8,1.2C22.3,104.1,27.8,103.7,33.1,104.8z M8.7,108.2c-1.4,0.5-2.7,1-4,1.5c1.8-1.6,3.5-3.4,5-5.3
	C10,105.4,9.2,106.9,8.7,108.2z M-2.5,113.1c-1.5,0.8-2.9,1.6-4.3,2.4c1.1-1.6,2.1-3.4,2.9-5.2C-3.6,111.3-3,112.3-2.5,113.1z
	 M40.6,144.1c-0.7,2-1.4,4.1-2,6.3c-0.4-3.4-0.3-6.9,0.4-10.3C39.7,141.4,40.3,142.7,40.6,144.1L40.6,144.1z M36.8,156.2
	c-0.3,1.2-0.7,2.4-1,3.6c-0.5-1.9-0.7-3.9-0.9-5.9C35.4,154.3,36.1,155.2,36.8,156.2L36.8,156.2z M31.8,174.9l-0.6,2.3
	c-0.2-1-0.3-2.1-0.3-3.2C31.3,174.3,31.5,174.6,31.8,174.9z M28.8,187.6l-0.2,1.1c-0.3-0.6-0.6-1.3-0.9-1.9
	C28.1,187.1,28.5,187.3,28.8,187.6z M27.6,193.2c-0.2,0.9-0.4,1.8-0.6,2.7c-1.1-2.2-2.5-4.2-4-6.1C24.6,190.9,26.1,192,27.6,193.2
	L27.6,193.2z M25.7,202.4c-0.3,1.4-0.5,2.8-0.8,4.3c-1.8-3-3.2-6.1-4.3-9.4C22.1,198.6,23.9,200.4,25.7,202.4z M24.4,209
	c-0.3,1.4-0.5,2.9-0.8,4.3c-2.3-3.9-4.2-7.9-5.9-12C19.7,204,22,206.6,24.4,209z M106.5,86.4c8-2.3,16.2-3.8,23.5-3.3
	c1,0,1.9,0.1,2.9,0.3c-5.4,0.8-11,3-19.2,2.7C111.3,86,108.9,86.1,106.5,86.4z M15.3,127.7c-1.3,1-2.5,2.1-3.7,3.1
	C12.7,129.6,13.9,128.6,15.3,127.7z M3.8,137.8L1.4,140c0.2-0.8,0.6-1.5,1-2.1C2.8,137.3,3.3,137.4,3.8,137.8L3.8,137.8z M-2.7,144
	l-1,1c0.1-0.7,0.2-1.3,0.4-2L-2.7,144z M-6.4,147.7l-1.5,1.6c0.3-1.4,0.5-2.8,0.7-3.9C-7,146.2-6.7,146.9-6.4,147.7z M-11.1,152.5
	c-2.5,2-7,4.2-11.5,7.6c0.5-6.4,3.8-14.8,7-15.4C-12.9,144.1-11.7,148.4-11.1,152.5L-11.1,152.5z"/>
<path class="st3" d="M3,344.6C8.9,289.9,68.8,205,85.6,182.4c1.7,1.3,3.8,2,5.9,2.1c-1,3.2-2.5,7.3-4.8,9c1,0.3,2.2-0.3,3.8-1.8
	c-1.4,2.2-3.2,6.3-5.4,8c1.4-0.1,2.7-0.7,3.6-1.7c-1.6,2.8-3.6,5.3-6,7.4c0.9,0.1,2.7-0.7,3.8-1.3c-1.1,2.4-2.2,3-3.7,4.6
	c1.1-0.2,2.1-0.6,3-1.2c-1.5,2.4-4.3,5.6-6.6,6.8c1.6,0.4,3.3,0.2,4.8-0.5c-2.6,4.5-6.4,7.9-11.1,8.9c3.3,1.8,7.8-0.1,11-2.8
	c-0.6,2.2-4,6.3-7,8.2c2.9-0.9,5.6-2.6,7.8-4.8c-1.7,3.2-3.5,5.6-6.3,7.6c1.2,0.3,3.9-1.3,5.1-2.2c-1.4,2-3,3.8-4.8,5.4
	c3-0.3,7.1-5.1,9-9.5c0.1,3.9-2.3,8.1-3.4,10.5c2.7-2.5,4.5-5.9,5.1-9.6c0.4,2.4,0.1,7.6-2.2,12.5c9.6-16.4,11.2-33.5,10.6-45.4
	c1.3-0.9,2.3-2,3.2-3.3c0.6,3.2-1,5.6-2.7,8.6c3-1.9,5.6-4.6,6.4-6.7c-0.3,3.7-3.6,9.7-6.4,13.2c3.8-2.3,7-5.5,9.3-9.3
	c0.4,3.8-1.9,9.3-4.1,12.7c3.7-2.5,6.3-6.4,8.7-11c0.1,5-2.8,10.2-5.2,13.3c2.4-1.1,4.3-3.1,5.1-5.6c0.4,2.6-0.8,6.4-2.8,8
	c1.7-0.4,3.3-1.4,4.2-2.9c-0.2,2.2-1.3,7.5-2.5,9.4c1.6-1.1,2.9-2.6,3.6-4.3c-0.8,4.6-2.8,9-5.8,12.6c1.1-1,3.8-2.6,5.2-4.9
	c-0.6,3.5-3.1,6.2-4.8,8.2c5.7-3,9.7-7.6,11.2-11.1c0.3,2.3-1.4,4.2-2.4,6.6c4.9-3.3,6.2-8.3,5.5-16c1.9,3.4,3.1,7.1,3.5,10.9
	c2.3-4.8-1.2-12.3-2.8-16.6c-0.2-0.4-0.3-0.8-0.5-1.3c1.1-1.4,1.9-3.1,2.4-4.8c0.5,1.4,0.5,5.3-0.7,8.4c2.6-3.4,3.7-7.8,2.9-12.1
	c1,2.2,2.6,4.8,3.1,7.9c0.3-3,0.8-6.5-1.3-11.1c1.2,1.4,3.7,3.5,3.6,5.5c2.1-5.3-1.6-8.9-2.8-11.4c2.7,0.4,4.4,2.3,6,4.2
	c-0.2-3-2-5.6-4.8-6.9c1.6-0.1,3.3,0,4.9,0.4c-1.6-1.3-4.6-2-7.3-3.4c1.2-0.6,3-0.6,5-0.6c4.7,4.1,7.1,10.2,4.8,14.4
	c2.3-1.5,3.4-4.2,3-6.9c1.3,0.9,2.1,2.3,2.3,3.8c0.9-0.9,0.1-3.4-1-4.8c4,1.3,5.7,6.4,4.1,9.9c2.7-2.4,3.1-6.4,0.9-9.2
	c2.7,1.5,4.2,4.5,4.8,7.3c0.9-1.3,1-4.5-0.3-6.9c2.4,1.9,4.1,3.5,4.9,5.9c0.1-2.9-1.1-5.7-5.8-9.5c2.1-0.2,6.2,3.5,7.1,5.2
	c-1.1-3.4-3-8.4-12.4-14.1c2.9,0.2,7.4,2.6,10.2,5.4c-2-4.3-6.3-7.3-13.1-10.1c2.4-1.1,6.2,0.4,9.4,1.5c-9.1-5.1-16.5-7-26.3-5.4
	c2.4-1.9,5.3-1.7,8-1.8c-2.7-0.5-7.8-0.2-13.4,0.5c-0.2-1.2-1-2.2-2.1-2.7c-0.9-0.4,4-0.2,5.6,1.5c0.1-1.2-0.6-2.4-1.8-2.8
	c1.9-0.1,2.7,1.1,4,2c-0.5-1.7-1.8-3.1-3.4-3.9c2.8-0.2,4.9,1.9,6.6,3.7c-0.3-2.5-1.6-4-3.1-5.6c2.3,0,4.6,0.9,6.2,2.6
	c-0.9-2.8-2-4.5-4.5-5.4c2.1-0.8,4.1-0.5,5.1,2.1c1.6-1.9,0.4-3.5,0.8-4.8c2.2,2.4,1.5,4.1,1,5.9c2-1.3,4.6-4.7,4.2-8
	c1.3,1.3,1.6,4,0.8,6.1c2.9-2.6,0.6-5.4,2-4.8c2.1,0.9,3.9,2.5,5,4.6c0.6-1.5-1.9-4.8-3.8-5.3c2.5,0,5,0.3,7.5,0.9
	c-1.8-1.1-3.7-2-5.7-2.8c3-0.6,6.4-1.7,10.2-2.1c-3.8-0.5-7.7-0.3-11.4,0.6c1-0.6,2.7-2.4,4.7-3c-2.9-0.7-5.4,0.5-7.4,1
	c1.5-2.3,5-3.1,7.3-4.3c-3.9,0.3-10.5,2.3-16.9,6.9c0.7-0.7,5.2-5.6,8.6-7.3c-7.1,1.6-21.6,11.6-24.9,14.4c-1.9,1.6-6.5,4.8-11,8.1
	c3-4.1,6.5-7.1,7-7.8c0.6-1,3.4-0.3,4.4-0.7c-0.9-0.3-1.6-0.8-2.3-1.4c0.9-0.8,3.7-1,5.6-1.4c-2-0.7-3.4-1.1-4.2-2.8
	c1.5-0.9,4.3-1.1,6.9-0.3c-0.6-0.9-2.5-2.4-3.5-4c-0.4-0.7,5.1,0,7.3,0.4c-0.7-0.8-1.6-1.5-2.5-2.1c1.5,0,3,0.2,4.5,0.2
	c-0.6-0.8-2.4-2.1-2.5-3c2.4,0,4.8,0.6,7.1,0.6c-1.9-1.3-5.1-3.2-6.4-5.3c2.5,0.7,5.1,0.9,7.7,0.5c-0.9-0.3-1.7-1.1-1.9-2
	c1.4-0.3,3.2,0.3,4.5,0.3c-0.2-0.3-1.7-2.2-2-2.4c2,0.1,4.1,0.4,6,1.1c-1.9-1.5-3.9-2.7-6.1-3.6c3,0.1,5.9,0.5,8.8,1.3
	c-1.7-1.7-4-2.8-6.4-3c4.4-1.6,9-2.7,13.7-3.3c-1.2,0-7.1-1.6-11.5-0.1c0.4-0.9,1.1-1.6,2-1.9c-3.5,0.5-7.1,1.4-9.8,3.5
	c0.3-1,2.2-2.6,3.9-3.9c-3.3,1-6.5,2.4-12.4,9.2c0.8-1.2,1.1-3.6,3.7-6.6c-6.2,3.9-7.8,11.3-9.7,13.6c-3.8,4.5-7.3,9.3-10.5,14.3
	c5.8-15.4,5-25.5,3.7-31c-1-4.4-2.2-12.6-7.3-15.4c1.9,3.4,3,7.1,3.2,11c-3.9-6.8-8.2-10.2-14.9-10.2c2.4,1.5,5.3,2.1,6.3,4.2
	c-3.6-2.1-10.2-3.7-17.5-3.1c2.8,0.8,6.8,1.5,9.5,4.2c-2.7-1.2-6.3-1-8-1.2c5,1.2,9.5,3.7,13.2,7.3c-1.9-1.1-4-1.6-6.1-1.6
	c2.4,0.9,6.6,4.7,8.1,6.4c-1.9-0.7-3.9-0.7-5.8-0.1c3.2,0.4,6,2.3,7.6,5.1c-2.4-1.6-5.4-2.3-8.3-1.8c4.2,1.2,10.1,4,13,8.2
	c-5-2.6-9.9-4.4-15-4.4c4.2,1.6,9.7,5,11.7,8.3c-3.7-1.4-7.5-2.3-11.4-2.5c-0.4-0.8-0.7-1.5-1-2.1c-3.9-7.1-3-11.6-7-16.1
	c0.1,2.7,0.5,5.3-0.1,6.8c-2-3.3-3.1-6.8-4.8-8.8c0.6,1.8,0.9,3.7,1,5.6c-1.8-3.3-4.9-5.7-8.5-6.6c2.4,2.2,4.8,4.4,5.6,7.6
	c-3-1.8-7.6-6.7-13.5-5.2c2.3,0.2,5.1,3.3,6.8,5c-3.9-2.3-8.4-3.5-13-3.3c3.6,1,6.8,3.4,9.5,4.9c-2.9-1-9-2-13.6,1.2
	c3.2-0.7,6.6-0.5,9.7,0.6c-3.4,0.5-6,2-6.8,3.4c1.6,0.1,2.9,0.3,3.7,1.3c-1.3,1.6-3.1,2.9-5,3.7c4.1-0.4,8-2.2,11.5-3.7
	c-1.7,2.2-3.7,4.1-5.9,5.7c3.1-0.6,4.4-0.9,6.7-2.5c-1.1,1.6-2.3,3.3-2.5,4.7c3.8-4.2,7.6-1.9,10.5-4.1c-0.7,1.2-1.5,2.3-2.4,3.2
	c1.9-0.9,3.4-2.2,5.7-1.5c-0.9,2.5-3.5,4.3-5.2,5.2c2.8-0.3,5.7-0.5,8.5-0.5c-1.1,1-4.1,2.3-5.2,3.3c1.4-0.3,2.8-0.4,4.2-0.4
	c-0.2,0.5-2.6,1.4-2.7,1.9c2.5-0.1,3.8,0.7,5.6,1.4c-0.4,0.8-2.9,1.6-1.9,1.8c1.6,0.2,3.3,1.9,4,1.9c2.8,0.1,1,1.6-0.5,3.4
	c-7.4-7.6-18-15.4-31.3-17.6c3.7,1.2,6.9,3.5,9.2,6.7c-2.5-2-5.8-2.8-8.9-2c2.2,0.6,6.1,1.3,8.6,4.2c-3.9-1.4-9.2-1-11,1.6
	c2-0.5,4.1-0.7,6.2-0.6c-1.2,0.4-3.7,1.8-4.2,3c2.8-1.2,5.3-1.1,8.3-0.4c-2.8,0.5-5.3,1.8-7.4,3.7c2.8-1.4,7.3-1.6,9.1-0.6
	c-1.3,0.4-2.5,1-3.6,1.7c-1-0.3-2.1-0.4-3.1-0.6c-5.1-0.6-10.3-0.7-15.4-0.5c-6,0.3-11.5,5.1-16.9,5.8c4,0.8,7.8-0.9,11.8-1.8
	c-4.8,3.2-13.1,8.7-18,10.8c7,0.2,14.4-6.2,20.3-8.7c-2.2,3-4.5,5.1-10.3,9.7c4.6-1.6,7.9-4.6,9.8-5.8c-0.6,1.9-1.9,3.5-3.5,4.7
	c4.4-1.1,8.1-5.4,10.4-8.3c-1,4.1-3.3,7.7-6.6,10.3c5.8-2.7,8-8.4,11-9.9c-0.7,2.2-3.8,6.8-6,9.3c2.7-1.7,5.8-3.6,8.4-7
	c-0.6,1.8-1.6,3.4-2.9,4.8c2.1-0.6,6.1-3.3,7.1-5.4c-0.8,2.5-3.6,4.1-5.2,8c2.8-2.8,6.3-4.9,10.2-6c-1.5,1.6-2.8,3.3-4,5.1
	c2.1-1.1,5.7-3.6,6.3-4.6c-0.1,1.2-0.4,2.4-1,3.5c-7.5,1.3-13.9,3.9-18.5,3.7c1.5,0.5,3.1,0.8,4.6,1.1c-8.6,2.1-26,17.6-27.2,31.1
	c1.5-3.6,2.5-7.7,6.2-10.3c-0.7,1.4-0.8,2.9-0.3,4.4c0.5-2.4,4.4-8.1,5.9-8.4c-0.4,1.4-1.5,3.2-1.1,4.1c1.5-3.4,4.8-7.8,5.2-5.1
	c1.3-2.9,3.1-5.5,5.2-7.8c-1.1,1.6-1.5,3.5-1.2,5.3c0.5-2.6,5.3-6.2,6.5-7.6c-0.7,3.1-0.1,4-0.2,6.6c-2.7,0.6-5.3,1.9-7.4,3.7
	c3.6-1.6,5.8-1.1,7.2-1.6c-8,3.6-10.3,6.3-12.2,9.2c1.8-1.3,3.8-2.6,4.8-2.6c-2.7,2-4.7,5.1-6.2,8.4c0.6-0.8,1.5-1.3,2.4-1.4
	c-2.8,3.7-3.1,9.9-3.5,11c2-4.3,4.4-8.3,7.3-12.1c-0.5,2.4-0.3,4.8,0.8,7c0.1-3,0.6-6,1.4-8.8c0.1,2.4,0.6,4.7,1.5,7
	c0-2.1,0.3-4.1,0.9-6.1c0.2,0.3,1.4,2.3,1.6,2.6c0.3-1.3,0.3-3.1,1.1-4.4c0.8,0.6,1.3,1.5,1.2,2.4c1.2-2.3,1.8-4.9,1.9-7.5
	c1.5,1.9,2.3,5.4,2.9,7.7c0.7-2.3,0.9-4.7,1.7-7c0.9,0.4,1.4,2.5,2,3.3c0.5-1.4,0.8-2.9,1.2-4.3c0.3,1,0.7,2.1,1.2,3
	c0.3-2.2,1.4-7.7,1.9-7.1c1.2,1.4,1.9,3.7,2.6,4.5c0.1-2.7,1.1-5.3,2.4-6.5c1.3,1.3,1.2,2.7,1.2,4.9c1-1.7,2-4.3,3-5
	c0.4,0.8,0.6,1.7,0.6,2.6c0.7-0.9,0.9-3.7,2-4.1s5.8-3.5,11.3-5c0,0.2,0.1,0.4,0.2,0.6c-5.9,4.8-15,11-20.3,15.6
	c-3.4,3-7.1,5.6-10.9,7.9c-3.4,1.9-7.2,4.7-11.6,6.7c3,0,5.2-0.6,8-0.4c-3,3.3-4.8,4.3-7.9,6.8c3.2-0.3,6.8-2.5,9-3.9
	c-3.2,3.8-5.5,8.8-5.1,12.6c2-4.7,4.5-9.2,7.7-13.3c-1.5,4.7-2.4,8-1.1,11.8c0-2.7,0.7-5.3,2-7.7c0.2,2.4,0.5,5.2,0.7,8.3
	c1.4-3.1,1.5-7.4,1.6-10.8c0.2,2.3,0.8,4.5,1.7,6.6C29,255.4-0.5,317-8.5,343C-9.2,345.5,3.1,346.5,3,344.6L3,344.6z M120.7,164.5
	c-1.2,0.2-2.5,0.4-3.7,0.6c-0.3-0.5-0.7-0.9-1.1-1.3C117.5,163.6,119.5,163.4,120.7,164.5z M114.9,165.4l-1.9,0.4
	c-0.2-0.2-0.4-0.3-0.7-0.4C113.1,165.4,114,165.4,114.9,165.4z M110.6,166.4l-0.9,0.2c0.1-0.2,0.3-0.4,0.6-0.4L110.6,166.4
	L110.6,166.4z M97,183.5l0.3-0.2c0.5,2,0.7,4.2,0.4,6.2C97.5,187.2,97.3,185.2,97,183.5z M82.3,152c0.8,0.2,1.7,0.2,2.5,0
	c0,0.6-0.5,1.1-0.9,1.7C83.4,153.1,82.9,152.5,82.3,152L82.3,152z M85.7,155.7c0.1,0.1,0.3,0.2,0.4,0.4s0.6,0.8,1.3,1.7
	C86.8,157.1,86.3,156.4,85.7,155.7L85.7,155.7z M81.9,163.2l-0.3-0.2l0.6,0.1L81.9,163.2z M64.3,153.6l-0.3-0.1l0.5,0.1H64.3
	L64.3,153.6z M103.9,179.2c0.1,0,0.2,0,0.3,0l-0.1,0.2L103.9,179.2L103.9,179.2z M105.5,180.5c1.2-1,2-1.5,1.7,0.4
	c-0.1,0.3,0.4,1,0.8,1.8C107.2,181.9,106.4,181.2,105.5,180.5L105.5,180.5z M109.1,183.6c0.3-0.5,0.7-0.9,1.1-1.3
	c0.3,1,0.4,1.9,0.6,2.9C110.3,184.7,109.7,184.2,109.1,183.6z M111.6,186.1c0.3-0.5,0.7-1,1.1-1.4c-0.1,0.7-0.2,1.4-0.4,2.1
	C112.1,186.5,111.9,186.3,111.6,186.1z M112.7,187.2c0.9-1.3,2-2.9,2.7-3.7c-0.2,1.8-0.5,3.7-1,5.4
	C113.9,188.4,113.3,187.8,112.7,187.2L112.7,187.2z M114.9,189.5c1.1-1.5,2.6-2.8,4.3-3.6c0.4,1.8-1.1,3.3-2.1,5.1
	c1-0.9,2-1.7,3.2-2.4c-1.4,1.6-1.5,3.3-2.1,5.1C117.2,192.3,116.1,191,114.9,189.5z M119.6,195.6l0.1-0.1L119.6,195.6L119.6,195.6
	L119.6,195.6z M120.7,197.4c0.6-0.5,1.2-1,1.8-1.5c-0.4,0.7-0.9,1.5-1.3,2.3L120.7,197.4L120.7,197.4z M94.3,151.4
	c-0.4-2-0.9-3.9-1.5-5.8C97.9,150.1,96.4,151.4,94.3,151.4z M92.5,144.3c-0.4-1.4-0.8-2.8-1.3-4c2.8,1.2,5.2,2.4,6.3,5
	C95.9,144.7,94.2,144.3,92.5,144.3L92.5,144.3z M91,139.7c-0.5-1.6-1.1-3-1.6-4.3c4.2,1.6,8.6,4,10.5,6.2
	C98.1,140.6,94.6,139.8,91,139.7L91,139.7z M81.5,167.3c-2.4-1.2-4.9-2-7.5-2.6C76.7,164.9,79.3,165.8,81.5,167.3z M69.6,164.1
	c-0.7,0-1.4-0.1-2.1-0.1c1.1-0.4,2.3-0.9,3.3-1.4C70.7,163,70.1,163.5,69.6,164.1z M63.5,164.1c-0.8,0.1-1.7,0.2-2.5,0.3
	c0.8-0.5,1.6-1.1,2.3-1.8C63.4,163,63.4,163.6,63.5,164.1z M77.2,186.9c-0.7,0.8-1.4,1.6-2.2,2.5c0.5-1.7,1.2-3.2,2.2-4.7
	C77.3,185.4,77.3,186.2,77.2,186.9L77.2,186.9z M73.1,191.7l-1.2,1.4c0.2-1,0.4-1.9,0.8-2.9C72.8,190.7,72.9,191.2,73.1,191.7z
	 M67.1,199.3l-0.7,1c0.1-0.5,0.3-1,0.5-1.5C66.9,199,67,199.2,67.1,199.3L67.1,199.3z M63.2,204.6l-0.3,0.5c0-0.4,0-0.7,0-1.1
	C63,204.2,63.1,204.4,63.2,204.6L63.2,204.6z M61.5,206.9l-0.8,1.1c-0.1-1.2-0.3-2.4-0.7-3.6C60.5,205.3,61,206.1,61.5,206.9
	L61.5,206.9z M58.8,210.7l-1.2,1.8c-0.2-1.7-0.3-3.4-0.1-5.2C57.9,208.3,58.4,209.5,58.8,210.7z M56.9,213.5
	c-0.4,0.6-0.8,1.2-1.2,1.8c-0.3-2.2-0.4-4.5-0.3-6.7C55.8,210.3,56.3,211.9,56.9,213.5z M119,173.4c4,0.4,7.8,1.5,11.5,3.1
	c0.4,0.2,0.9,0.4,1.3,0.7c-2.6-0.7-5.7-0.8-9.4-2.6C121.3,174.1,120.2,173.7,119,173.4L119,173.4z M68.8,174.4l-2.3,0.7
	C67.2,174.7,68,174.5,68.8,174.4z M61.5,176.7l-1.6,0.6c0.2-0.3,0.5-0.6,0.9-0.8C61.2,176.3,61.4,176.5,61.5,176.7z M57.3,178.3
	l-0.7,0.3c0.2-0.3,0.4-0.6,0.6-0.8L57.3,178.3z M54.9,179.3l-1,0.4c0.4-0.6,0.8-1.2,1.1-1.6C55,178.5,54.9,178.9,54.9,179.3
	L54.9,179.3z M51.8,180.6c-1.6,0.4-4.1,0.6-6.8,1.2c1.5-2.8,4.7-6.1,6.3-5.7C52.6,176.3,52.3,178.5,51.8,180.6L51.8,180.6z"/>
<path class="st3" d="M-13.5,357.4C9.8,281.9-20.9,136-30.3,96.8c-3,0.7-6.1,0.5-9-0.5c-0.5,4.8-0.8,11,1.2,14.7
	c-1.5-0.2-2.7-1.7-4.1-4.5c0.6,3.7,0.7,10.1,2.5,13.6c-1.8-0.9-3.2-2.4-3.8-4.3c0.5,4.6,1.8,9,3.7,13.2c-1.3-0.4-3.1-2.5-4.3-3.8
	c0.1,3.8,1.2,5.2,2.3,8.1c-1.3-0.9-2.4-2-3.3-3.3c0.6,4,2.5,9.8,4.8,12.6c-2.3-0.4-4.5-1.6-6-3.4c0.9,7.4,4,14.1,9.6,18
	c-5.4,0.4-10.2-4.4-13-9.9c-0.5,3.3,1.7,10.6,4.5,14.8c-3.3-2.9-5.9-6.6-7.5-10.8c0.5,5.1,1.4,9.4,4,13.5c-1.7-0.3-4.5-3.9-5.4-5.8
	c0.7,3.4,1.8,6.7,3.3,9.9c-3.8-2-6.5-10.7-6.4-17.6c-2.4,5.1-1.6,12-1.5,15.8c-1.6-4.1-3-8.3-1.3-15.5c-1.9,2.9-4.4,10-4.2,17.7
	c-3.4-27.1,4.3-50.5,11.7-65.8c-1.2-1.8-2-3.9-2.3-6.1c-2.6,3.8-1.9,7.9-1.3,12.8c-2.8-4.3-4.8-9.3-4.7-12.5c-1.7,5-0.8,14.8,1,21
	c-3.8-5-6-11.7-7-17.5c-2.6,4.8-2.8,13.3-1.8,19.1c-3.5-5.3-4.7-12-5.2-19.5c-2.9,6.5-2.1,15.1-0.7,20.5c-2.6-2.8-3.9-6.5-3.7-10.3
	c-2,3.2-2.6,8.9-0.8,12.2c-2.4-1.6-3.3-3.6-3.9-6.2c-1,3-2.6,10.6-2,13.8c-1.5-2.3-2.3-5-2.3-7.8c-1.2,4.8-1.9,12.9,0.5,19.9
	c-0.9-2-3.6-5.6-4.1-9.4c-1.3,5,0.6,9.9,1.7,13.5c-5.8-7.3-8.5-15.5-8.4-21c-1.7,2.8-0.5,6.3-0.6,10.1c-4.6-7.1-3.5-14.5,1.8-24.1
	c-4.4,3.3-8.1,7.5-10.8,12.3c-0.2-7.6,8.6-15.6,13.2-20.3c0.4-0.4,0.9-0.9,1.4-1.4c-0.6-2.5-0.7-5.1-0.4-7.6
	c-1.4,1.6-3.6,6.7-3.8,11.6c-1.5-6-0.4-12.4,3.1-17.6c-2.5,2.4-6.2,4.8-8.6,8.7c1.2-4.1,2.6-9,8-14c-2.4,1.1-6.8,2.5-7.8,5.2
	c0.2-8.2,7.2-10.8,10.2-13.4c-3.8-1.1-7.1,0.5-10.3,2.1c2-3.8,5.9-6.2,10.1-6.3c-2.1-1.1-4.4-1.8-6.7-2.3c2.8-0.8,7.2,0,11.5-0.4
	c-1.2-1.4-3.6-2.4-6.2-3.7c-8.5,2.8-15.2,9.4-14.6,16.3c-2.5-3.4-1.7-8.8,0-10.8c-2.4,0.8-4.1,1.8-5.2,3.8c-0.6-1.8,1.8-4.6,4-5.7
	c-5.9-0.6-11.1,5.2-11.1,10.5c-2.2-4.6-0.4-10.1,4-12.7c-4.4,0.5-8.1,3.5-10.5,6.9c-0.4-2.2,1.2-6.5,4.4-9c-4.2,1.1-7.4,2.3-9.8,5
	c1.5-3.8,4.7-6.9,13-9.2c-2.6-1.5-10.1,1.1-12.3,2.8c3.4-3.9,8.7-9.3,24.4-11.6c-3.9-1.3-11.2-0.8-16.5,1.3c5.1-4.5,12.4-6,23.1-5.9
	c-2.5-2.9-8.4-2.9-13.2-3.4c14.9-1.5,25.7,0,37.7,7.8c-2.1-3.8-6-5.3-9.6-7c3.8,0.9,10.5,4.1,17.3,8.2c1-1.4,2.6-2.3,4.4-2.2
	c1.5,0-5.2-2.6-8.2-1.1c0.5-1.7,2.2-2.8,4-2.7c-2.5-1.2-4.2-0.2-6.4,0.3c0.7-1.1,4-3.4,6.7-3.1c-3.7-1.8-7.6-0.3-10.8,1.2
	c1.8-3.1,4.4-4.3,7.2-5.6c-3.1-1.3-6.5-1.3-9.6-0.1c2.7-3.1,5.2-4.8,9-4.6c-2.3-2.2-5.1-2.9-8-0.1c-1.1-3.4,1.5-4.8,1.8-6.8
	c-4.3,1.9-4.3,4.6-4.6,7.2c-1.9-2.9-3.3-8.7-1-13c-2.5,1-4.4,4.4-4.5,7.5c-2.4-5,2.2-7.4,0.1-7.4c-3.3,0-6.6,1.1-9.2,3.1
	c0.1-2.4,5.2-5.3,8-4.9c-3.3-1.4-6.8-2.5-10.4-3.1c3-0.4,6.1-0.6,9.2-0.5c-3.6-2.5-7.4-5.9-12.3-8.5c4.9,1.1,10.7,4.2,14.6,7.3
	c-0.9-1.4-2.3-4.7-4.5-6.6c4.3,0.7,6.8,3.8,9.2,5.5c-0.7-3.9-4.8-7-7.2-9.8c5,2.6,12.5,9,18.3,18.7c-0.5-1.3-3.7-10.3-7.2-14.6
	c8.4,6.2,21.9,27.6,24.6,33.1c1.6,3.2,5.9,10,9.9,16.9c-1.6-7.1-4.6-13.1-4.8-14.3c-0.3-1.6-4.4-2.3-5.5-3.4
	c1.3,0.1,2.6-0.1,3.8-0.6c-0.8-1.6-4.3-3.4-6.6-5c3.1,0.2,5.1,0.5,7.1-1.3c-1.5-2.1-5-3.9-8.9-4.4c1.3-0.9,4.7-1.7,6.9-3.3
	c0.9-0.6-6.8-2.9-9.8-3.7c0.5-0.4,3-1.1,4.5-1.5c-2-0.9-4.1-1.4-6-2.3c1.2-0.7,4.4-1.3,5-2.6c-3.1-1.4-6.6-1.9-9.7-3.3
	c3.3-0.6,8.5-1.4,11.4-3.4c-3.7-0.4-7.2-1.7-10.3-3.7c1.4,0.1,2.8-0.4,3.7-1.5c-1.7-1.3-4.3-1.5-6-2.1C-70,1.6-67,0-66.5-0.2
	C-69-1.1-72-1.4-75-1.9c3.3-0.9,6.7-1.4,10.2-1.3c-4-1.6-8.1-2.7-12.4-3.2c2.6-1.2,6.1-1.5,10.2-0.3c-4.9-4.6-10.3-8.7-16.1-12.1
	c1.6,0.6,10.3,1.9,15.1,6.4c0-1.4-0.6-2.7-1.6-3.7c4.3,2.6,8.6,5.9,11,10.2c0.2-1.6-1.4-4.7-2.9-7.4c3.7,3.2,7.3,6.8,11.1,19.1
	c-0.4-2.1,0.6-5.3-1.1-10.8c6,8.7,3.9,19.3,5,23.4c2.5,8.2,4.4,16.5,5.9,24.9c1.2-23.6,7.9-36.3,12.8-43C-23.9-5.1-17.7-15.2-9.4-16
	c-4.4,3.7-8.2,7.8-10.5,12.7c9-6.7,16.6-8.8,25.4-5c-4,0.6-8.1-0.1-10.7,2c5.9-0.8,15.5,0.9,24.8,5.9C15.5-1,9.7-2.3,4.7-0.4
	c4.3,0,8.9,2.3,11.2,3C8.7,1.4,1.3,2.1-5.6,4.7c3.1-0.4,6.2,0.1,9,1.4C-0.3,5.9-8,8.6-11,9.9c3,0.3,5.3,1,7.7,3.2
	c-4-1.4-9.9-0.1-12.9,2.4c4.3-0.6,7.5-0.1,11.9,2.4c-6.2-0.8-15.6-0.5-21.8,3.4c8.1-0.5,15.6-0.1,22.3,2.7c-6.5-0.3-15.7,1-20.1,4.3
	c5.6,0.2,11.2,1.3,16.5,3.1c0.9-0.9,1.8-1.6,2.5-2.2c9.3-7,10.6-13.4,18.5-17.2c-1.6,3.6-3.7,6.7-3.7,9c4.5-3.2,8-7.2,11.4-8.9
	c-1.6,2.1-3.7,4.7-4.5,6.9c4.2-3.3,10.2-5,15-3.9c-4.4,1.6-8.9,3.1-11.6,6.8c5-0.7,13.9-4.5,20.8,0.8c-3.1-1.1-8.6,1.5-11.8,2.7
	c9.3-1,14.5,1.2,19,3c-5.4-0.7-10.9,0.6-15.3,1.1c4.4,0.3,13,2.5,17.3,9.3C46,35.7,39.7,34,37,34.1c4.2,2.6,6.7,6.1,7.1,8.3
	c-2.1-0.8-4-1.2-5.6-0.4c0.9,4.4,5,8.2,4.5,7.7c-5.2-2.8-9.4-7.4-13.1-11.4c1,3.8,2.5,7.5,4.6,10.9c-3.7-2.5-5.3-3.7-7.4-7.1
	c0.5,2.8,1.1,5.6,0.6,7.7c-2.6-7.7-8.9-6.8-11.5-11.5c0.2,1.9,0.7,3.8,1.4,5.6c-2-2.2-3.3-4.9-6.6-5.2c-0.3,3.8,2.1,7.6,4,9.8
	c-3.5-2.1-7.2-3.9-11-5.5c1,1.9,4.1,5.4,5,7.2c-1.6-1.1-3.4-2.1-5.3-2.9c0,0.8,2.7,3.3,2.5,4C2.9,49.9,0.8,50.2-2,50
	c0,1.3,2.9,3.8,1.5,3.4C-2.8,52.8-6,54-6.8,53.6C-10.6,52-9,55.1-8,58.3c14.1-5.9,32.4-10.1,51.3-5.5c-5.6-0.6-11.1,0.7-15.9,3.6
	c6.5-1.4,9.8,0.4,12.9,2.4c-3.2-0.4-8.8-1.7-13.7,0.6c5.9,0.4,12.7,4,13.6,8.3c-2.3-1.8-5-3.3-7.8-4.3c1.4,1.2,3.9,4.4,3.8,6.4
	c-3-3.2-6.4-4.5-10.7-5.3c3.4,2.2,6,5.4,7.6,9.1c-3-3.4-8.8-6.3-11.6-6c1.4,1.2,2.7,2.7,3.7,4.3c1.5,0.2,3,0.6,4.4,1
	c7.1,2.2,13.9,4.9,20.6,8.2c7.7,3.8,12.3,13.3,19,17.2c-5.7-1.2-9.8-5.5-14.5-9.1c4.6,7,12.3,18.9,17.6,24.5
	c-9.3-3.8-15.4-16.4-21.8-22.9c1.2,5.2,3,9.3,8,18.6c-5.2-4.8-7.8-10.5-9.6-13.2c-0.2,2.9,0.5,5.7,2,8.2c-5.2-3.9-7.6-11.6-9-16.8
	c-0.9,5.9,0,12,2.8,17.3c-6-6.8-5.8-15.6-8.9-19.2c-0.3,3.3,1.2,11.1,2.6,15.6c-2.6-3.8-5.6-8-7.1-13.9c-0.2,2.7,0.2,5.3,1.1,7.8
	c-2.4-1.9-6.1-7.8-6.3-11.1c-0.5,3.7,2.3,7.4,2.3,13.5c-2.1-5.3-5.6-10-10-13.6c1,2.9,1.8,5.9,2.3,9c-2.1-2.6-5.4-8-5.7-9.6
	c-0.6,1.7-0.8,3.5-0.7,5.2c9.2,5.9,16.1,13,22.3,15.4c-2.3-0.3-4.5-0.6-6.7-1.2c10.1,7.6,24.2,37.8,18.1,56.3c0-5.6,1-11.6-2.4-17.1
	c0.1,2.2-0.6,4.3-2,6c0.7-3.5-1.1-13.2-3.1-14.4c-0.2,2.1,0.1,5.1-0.9,6.1c-0.1-5.4-1.9-12.9-4-9.6c-0.3-4.1-0.9-9.7-2.4-13.3
	c0.5,3.8-0.2,5.2-1.5,7.7c0.8-3.7-3.5-11.2-4.2-13.7c-0.9,4.5-2.2,5.3-3.4,8.8c3.2,2.4,5.8,5.4,7.6,9c-3.9-4.1-7.1-4.8-8.6-6.1
	c8.6,9.3,10,14.2,10.9,19c-1.6-2.7-3.5-5.6-4.9-6.1c2.5,4.1,3.3,9.4,3.5,14.6c-0.4-1.3-1.2-2.5-2.4-3.2c1.6,6.4-1.4,14.8-1.6,16.4
	c-0.1-6.7-1-13.5-2.7-20c-1,4.2-2.8,7.1-5,8.8c1.5-4,2.5-8.2,3-12.5c-1.6,3-3.5,5.9-5.9,8.4c1-2.9,2.1-5.7,2.3-8.5
	c-0.4,0.3-3.1,2.3-3.6,2.5c0.3-1.8,1.3-4.3,1-6.4c-1.4,0.3-2.5,1.2-3,2.5c-0.2-3.7,0.4-7.5,1.7-11c-3.1,1.6-6.2,5.8-8.2,8.5
	c0.3-3.4,1.5-6.7,1.8-10.2c-1.4,0-3.3,2.5-4.5,3.2c0.2-2.1,0.7-4.3,0.9-6.4c-1,1.2-2.7,3.1-3.3,3.3c0.8-3.1,2.5-11,1.5-10.5
	c-2.3,1.1-4.6,3.7-6,4.5c1.4-3.7,1.6-7.6,0.5-10c-2.5,0.9-3.1,2.9-4.4,5.7c-0.3-2.8-0.2-6.8-1.2-8.3c-1,0.9-1.7,1.9-2.2,3.1
	c-0.4-1.5,0.9-5.4-0.3-6.5c-1-0.9-5.6-7.8-12.1-13c-0.2,0.3-0.4,0.5-0.6,0.8c5,9.6,13.5,23,17.9,32c2.8,5.8,6.1,11.4,10,16.6
	c3.4,4.5,6.9,10.3,11.5,15.4c-4-1.6-6.5-3.8-10.3-5.1c2,6.1,3.9,8.4,6.5,13.4c-4-2.1-7.6-7.1-9.7-10.3c2,6.8,2.2,14.7-0.4,19.6
	c0.1-7.4-0.8-14.7-2.6-21.9c-0.7,7-1.3,11.9-5.3,16.1c1.7-3.4,1.9-8.1,1.7-11.3c-1.7,3.1-3.7,6.6-5.6,10.5c0-4.9,2.2-10.6,4.1-15.1
	c-1.9,3.1-3.6,5.9-5.7,7.8c12.1,66.2,16,164,11.8,202.8C2.1,365.4-14.6,359.8-13.5,357.4L-13.5,357.4z M-66.5,53.2
	c1.5,0.9,3,1.9,4.5,2.8c0.7-0.4,1.5-0.8,2.2-1.1C-61.7,53.9-64.1,52.5-66.5,53.2z M-59.4,57.8c0.8,0.5,1.5,1,2.3,1.5
	c0.4-0.1,0.8-0.2,1.1-0.2C-57,58.7-58.1,58.2-59.4,57.8z M-54.2,61.4l1.1,0.8c0-0.3-0.2-0.7-0.5-0.8H-54.2z M-46,91.7l-0.3-0.4
	c-1.9,2.4-3.2,5.1-4.1,8C-48.8,96.4-47.3,93.8-46,91.7z M-8.8,58.6c-1.2-0.2-2.3-0.7-3.3-1.4c-0.4,0.8,0,1.8,0.2,2.7
	C-10.9,59.5-9.9,59.1-8.8,58.6z M-15.3,61.6l-0.7,0.3c-0.3,0.1-1.3,0.7-2.6,1.5C-17.6,62.8-16.5,62.2-15.3,61.6L-15.3,61.6z
	 M-14.5,73.6l0.5-0.1l-0.8-0.2L-14.5,73.6L-14.5,73.6z M14,70.9h0.6l-0.7-0.2L14,70.9L14,70.9z M-52.6,82.2
	c-0.1-0.1-0.2-0.1-0.3-0.2v0.3L-52.6,82.2L-52.6,82.2z M-55.5,83c-1-2-1.8-3-2.5-0.5c-0.1,0.5-1.1,1.1-2,1.9
	C-58.5,83.9-57,83.4-55.5,83L-55.5,83z M-62,85.1c-0.1-0.8-0.4-1.6-0.8-2.3c-0.9,1.1-1.7,2.3-2.4,3.5C-64.2,85.8-63.1,85.5-62,85.1z
	 M-66.7,86.8c-0.1-0.9-0.3-1.7-0.6-2.5c-0.3,1-0.5,2-0.6,3C-67.6,87.2-67.1,87-66.7,86.8L-66.7,86.8z M-68.8,87.7
	c-0.5-2.2-0.9-5-1.4-6.4c-0.8,2.5-1.3,5.1-1.7,7.8C-70.9,88.6-69.9,88.2-68.8,87.7z M-73,89.6c-0.6-2.7-1.8-5.1-3.6-7.2
	c-1.5,2.2-0.5,5-0.1,7.9c-0.8-1.8-1.7-3.4-2.8-5c0.9,2.9,0.1,5.2-0.2,7.9C-77.7,92-75.4,90.8-73,89.6L-73,89.6z M-82.6,95l-0.1-0.2
	L-82.6,95L-82.6,95L-82.6,95z M-85,96.6c-0.5-1-1-2-1.5-2.9c0.1,1.2,0.3,2.4,0.4,3.7C-85.7,97.1-85.4,96.9-85,96.6z M-24.2,51
	c1.7-2.3,3.5-4.6,5.2-6.7C-28.2,47.2-27,49.9-24.2,51z M-17.7,42.8c1.4-1.6,2.7-3.2,4-4.6c-4.5,0-8.2,0.2-11.1,3
	C-22.4,41.2-20,41.8-17.7,42.8L-17.7,42.8z M-13.2,37.5c1.6-1.8,3.1-3.3,4.5-4.7c-6.4-0.3-13.6,0.4-17.4,2.2
	C-23,34.6-18,35.6-13.2,37.5z M-16.4,79.2C-12.6,79-8.7,79.3-5,80C-8.6,78.7-12.6,78.4-16.4,79.2L-16.4,79.2z M1.2,81.7
	c1,0.3,1.9,0.7,2.9,1.1c-1.3-1.2-2.5-2.4-3.6-3.8C0.3,79.7,0.8,80.8,1.2,81.7L1.2,81.7z M9.3,85.2c1.1,0.6,2.1,1.2,3.1,1.8
	c-0.8-1.2-1.5-2.4-2.1-3.7C10,83.9,9.6,84.6,9.3,85.2L9.3,85.2z M-21.8,107.5c0.5,1.5,1,3,1.5,4.5c0.3-2.5,0.2-5-0.3-7.4
	C-21,105.5-21.4,106.5-21.8,107.5z M-19,116.2c0.3,0.8,0.5,1.7,0.7,2.6c0.3-1.4,0.5-2.8,0.6-4.2C-18.1,115-18.6,115.6-19,116.2z
	 M-15.4,129.6c0.1,0.6,0.3,1.1,0.4,1.7c0.1-0.8,0.2-1.5,0.2-2.3L-15.4,129.6L-15.4,129.6z M-13.3,138.8l0.2,0.8
	c0.2-0.5,0.4-0.9,0.7-1.4C-12.7,138.4-13,138.5-13.3,138.8L-13.3,138.8z M-12.4,142.8l0.4,1.9c0.8-1.6,1.7-3,2.9-4.4
	C-10.3,141.1-11.4,141.9-12.4,142.8L-12.4,142.8z M-11,149.4c0.2,1,0.4,2,0.6,3.1c1.3-2.1,2.3-4.4,3.1-6.8
	C-8.3,146.7-9.7,147.9-11,149.4z M-10.1,154.1c0.2,1,0.4,2.1,0.6,3.1c1.6-2.8,3-5.7,4.2-8.7C-6.7,150.5-8.3,152.4-10.1,154.1z
	 M-69.1,66c-5.4-1.7-11.1-2.6-16.9-2.4c-0.7,0-1.4,0.1-2,0.2c3.8,0.6,7.9,2.2,13.8,1.9C-72.5,65.6-70.8,65.7-69.1,66L-69.1,66z
	 M-3.6,95.7c0.9,0.7,1.8,1.5,2.7,2.3C-1.7,97.1-2.6,96.3-3.6,95.7z M4.7,102.9l1.7,1.6c-0.1-0.5-0.4-1-0.7-1.5
	C5.4,102.6,5.1,102.6,4.7,102.9L4.7,102.9z M9.3,107.4l0.7,0.7c-0.1-0.5-0.2-1-0.3-1.4C9.8,106.7,9.3,107.4,9.3,107.4z M12,110
	l1.1,1.1c-0.2-1-0.4-2-0.5-2.8C12.4,108.9,12.2,109.4,12,110z M15.4,113.4c1.8,1.4,5,3,8.3,5.4c-0.4-4.6-2.8-10.7-5-11.1
	C16.7,107.5,15.8,110.6,15.4,113.4L15.4,113.4z"/>
<path class="st2" d="M633.1,491.7c-1.7,3.3,21.5,11.1,22.3,6c5.7-53.9,0.4-190-16.5-282.1c3-2.6,5.4-6.5,8-10.9
	c-2.7,6.3-5.7,14.2-5.7,21c2.6-5.4,5.4-10.3,7.7-14.6c0.3,4.4,0,11-2.4,15.7c5.5-5.9,6.3-12.6,7.3-22.4c2.5,9.9,3.7,20.2,3.6,30.4
	c3.7-6.8,3.4-17.7,0.6-27.2c2.9,4.4,7.9,11.3,13.4,14.3c-3.8-6.9-6.3-10.2-9.1-18.6c5.3,1.9,8.9,4.8,14.4,7.1
	c-6.4-7.1-11.3-15.2-16-21.4c-5.3-7.3-9.9-15-13.8-23.1c-6.2-12.5-17.9-31.1-24.9-44.6c0.3-0.3,0.5-0.6,0.8-1
	c9,7.2,15.3,16.9,16.8,18.1c1.7,1.5-0.2,6.9,0.4,9c0.7-1.6,1.8-3.1,3.1-4.2c1.3,2,1.2,7.5,1.6,11.5c1.8-4,2.7-6.7,6.1-8
	c1.5,3.2,1.2,8.8-0.7,13.9c1.9-1.1,5.1-4.7,8.3-6.3c1.4-0.7-1,10.3-2.1,14.5c0.8-0.3,3.2-2.9,4.6-4.5c-0.3,3-1,5.9-1.2,8.9
	c1.7-1,4.4-4.5,6.3-4.5c-0.4,4.8-2,9.4-2.5,14.1c2.8-3.7,7.1-9.6,11.4-11.8c-1.9,4.8-2.7,10-2.5,15.2c1.1-2.4,3.4-3.6,4.2-3.5
	c0.4,2.9-1.1,6.3-1.5,8.9c0.7-0.3,4.5-3,5-3.5c-0.2,3.9-1.8,7.8-3.2,11.8c3.3-3.5,6-7.4,8.2-11.6c-0.5,4.5-2,12.2-4.2,17.4
	c3.1-2.4,5.7-6.4,7-12.3c2.3,9.1,3.5,18.5,3.7,27.9c0.3-2.3,4.5-13.9,2.3-22.8c1.7,1,2.9,2.5,3.4,4.4c-0.3-7.1-1.4-14.5-4.8-20.3
	c1.9,0.8,4.5,4.8,6.8,8.5c-1.3-6.7-3.3-13.5-15.2-26.4c2.1,1.9,6.6,2.8,12,8.5c-2.5-5-6.1-9.3-10.6-12.6c1.8-4.8,3.5-6,4.8-12.3
	c1,3.5,7,13.9,5.9,19.1c1.9-3.5,2.8-5.4,2.1-10.7c2.1,5,3,12.8,3.4,18.5c2.9-4.6,5.5,5.9,5.5,13.4c1.4-1.3,1-5.6,1.3-8.5
	c2.7,1.7,5.3,15.1,4.3,20c2-2.3,3-5.3,2.9-8.3c4.7,7.6,3.3,16,3.3,23.8c8.5-25.8-11.2-67.8-25.2-78.4c3.1,0.7,6.2,1.3,9.3,1.6
	c-8.6-3.4-18.3-13.2-31-21.4c-0.2-2.5,0.1-5,0.9-7.3c0.4,2.3,4.9,9.9,7.9,13.4c-0.6-4.5-1.9-7.9-3.2-12.5
	c7.2,5.5,12.5,14.6,13.9,18.9c0-8.4-3.9-13.5-3.3-18.7c0.2,4.6,5.4,12.8,8.7,15.5c-1.2-3.5-1.7-7.2-1.5-10.9
	c2,8.3,6.2,14.1,9.8,19.4c-2-6.3-4.1-17.2-3.7-21.7c4.2,5.1,3.9,17.3,12.3,26.8c-3.1-5.6-5.5-15.6-3.9-24.1
	c2,7.2,5.3,17.9,12.5,23.4c-2.1-3.4-3.1-7.4-2.8-11.4c2.5,3.7,6.1,11.7,13.3,18.3c-7-13-9.5-18.7-11.1-25.9
	c8.8,9.1,17.3,26.7,30.3,31.9c-7.3-7.8-18.1-24.4-24.5-34.1c6.6,4.9,12.2,10.9,20.1,12.6c-9.3-5.4-15.8-18.6-26.5-23.9
	c-9.2-4.5-18.8-8.3-28.6-11.3c-2-0.6-4.1-1.1-6.2-1.5c-1.4-2.2-3.1-4.3-5.1-6c4-0.4,12,3.7,16.2,8.4c-1.7-3.6-4.7-9-10.5-12.6
	c6,1.2,10.8,2.9,14.9,7.4c0.1-2.7-3.3-7.3-5.3-8.9c3.9,1.4,7.5,3.5,10.8,6c-1.3-6.1-10.7-11-18.9-11.6c6.8-3.3,14.6-1.4,19-0.8
	c-4.4-2.8-9-5.4-18-3.4c3.9-2.8,13.1-6,22.1-5c-26.3-6.5-51.7-0.5-71.3,7.6c-1.4-4.5-3.5-8.7,1.7-6.7c1.2,0.5,5.7-1.2,8.8-0.3
	c1.9,0.6-2.1-2.9-2.1-4.7c3.9,0.4,6.8-0.1,11.4,2c0.3-1.1-3.5-4.4-3.5-5.6c2.6,1.1,5.1,2.4,7.3,4c-1.2-2.5-5.6-7.4-6.9-10
	c5.6,2.1,11.1,5.4,15.2,7.6c-2.5-3-5.9-8.3-5.5-13.6c4.6,0.3,6.4,4.1,9.2,7.2c-1-2.5-1.6-5.1-1.9-7.8c3.6,6.5,12.4,5.3,16,15.9
	c0.6-2.8-0.2-6.8-0.9-10.6c2.8,4.8,5.1,6.3,10.2,9.9c-2.9-4.7-5-9.8-6.4-15.1c5.2,5.6,11,12,18.2,15.9c0.8,0.7-5-4.5-6.2-10.6
	c2.1-1.2,4.8-0.6,7.7,0.6c-0.5-3.1-4-7.9-9.8-11.6c3.7-0.1,12.5,2.2,18.2,6.5c-5.9-9.4-17.9-12.4-24-12.9c6.1-0.6,13.8-2.5,21.3-1.5
	c-6.3-2.5-13.6-5.5-26.5-4.1c4.4-1.6,12.1-5.2,16.4-3.8c-9.7-7.4-22-2.1-28.9-1.1c3.9-5.2,10.1-7.3,16.2-9.5
	c-6.6-1.5-15,0.8-20.8,5.4c1.2-3.1,4.1-6.7,6.3-9.5c-4.7,2.4-9.6,8-15.8,12.4c0-3.2,2.9-7.6,5.2-12.6c-11.1,5.1-12.9,14.1-25.6,24
	c-1,0.8-2.2,1.8-3.5,3c-7.4-2.6-15.2-4.1-23-4.4c6.2-4.6,18.9-6.4,27.9-6c-9.3-4-19.7-4.5-31-3.8c8.6-5.4,21.7-5.8,30.3-4.7
	c-6.1-3.5-10.6-4.2-16.6-3.3c4.1-3.5,12.3-5.4,17.9-3.4c-3.3-3.1-6.6-4-10.7-4.4c4.2-1.9,14.9-5.6,20-5.3c-3-1.6-8.4-2.4-12.4-1.9
	c6.8-2.6,18.6-5.1,29.9-2.9c-3.3-0.9-9.6-4.1-15.6-4.1c7-2.7,15.1-0.9,20.7-0.1c-12.9-6.9-26.2-9.3-34.4-8.2
	c3.6-2.9,9.2-1.9,14.9-2.7c-12.3-5.2-22.9-2.4-35.4,7c3.1-6.9,8.4-12.6,14.6-17.7c-11.5,1.1-20.2,15.1-25.6,22.5
	C606.4,4,597,21.7,595.3,54.6c-2-11.7-4.8-23.3-8.2-34.7c-1.6-5.6,1.3-20.3-7-32.5c2.3,7.7,0.9,12.2,1.5,15.1
	c-5.4-17.1-10.3-22.2-15.5-26.6c2.1,3.8,4.3,8.1,4.1,10.3C567-19.7,561-24.4,555-28c1.4,1.4,2.1,3.2,2.2,5.2c-6.7-6.4-18.8-8.1-21-9
	c8.1,4.8,15.7,10.4,22.5,16.9c-5.7-1.6-10.5-1.2-14.2,0.5c5.9,0.7,11.7,2.3,17.2,4.5c-4.8-0.1-9.5,0.5-14.1,1.8
	c4.1,0.8,8.3,1.1,11.9,2.8c-0.7,0.3-4.9,2.5-5.5,2.9c2.4,0.9,6.1,1.2,8.4,2.9c-0.4,0.8-2.5,2.3-5.1,2.2c4.4,2.8,9.3,4.5,14.4,5.2
	c-4,2.8-11.3,3.9-15.9,4.7c4.3,1.9,9.2,2.6,13.5,4.5c-0.9,1.8-5.3,2.6-7,3.6c2.7,1.2,5.6,2,8.3,3.2c-2.1,0.5-5.6,1.4-6.2,2
	c4.3,1,15,4.2,13.7,5.1c-3,2.2-7.7,3.4-9.5,4.6c5.4,0.7,10.3,3.1,12.4,6.1c-2.9,2.5-5.7,2-9.9,1.8c3.2,2.3,8.1,4.8,9.2,7
	c-1.7,0.6-3.5,0.9-5.3,0.8c1.5,1.5,7.2,2.5,7.6,4.8c0.3,1.7,4.4,10,6.7,19.9c-5.5-9.5-11.5-19-13.7-23.5c-3.9-7.7-22.6-37.4-34.3-46
	c4.9,5.9,9.4,18.4,10.1,20.2c-8.1-13.5-18.5-22.3-25.5-26c3.3,3.9,9,8.2,10,13.6c-3.3-2.4-6.9-6.6-12.8-7.6c3.2,2.7,5,7.3,6.3,9.2
	c-5.5-4.2-13.6-8.6-20.3-10.1C515.7,9.2,521,14,526,17.5c-4.3-0.1-8.5,0.1-12.7,0.7c5,0.9,9.8,2.3,14.4,4.3
	c-3.9-0.6-11,3.5-11.2,6.8c3.7-2.8,8.2-4.4,12.8-4.4c2.8,0-3.5,3.3-0.2,10.3c0.2-4.4,2.9-9.1,6.3-10.5c-3.2,5.9-1.2,14,1.5,18
	c0.4-3.7,0.4-7.4,6.4-10c-0.4,2.7-3.9,4.8-2.4,9.4c4-3.9,7.9-2.8,11.1,0.2c-5.2-0.3-8.7,2-12.4,6.3c4.3-1.8,9.1-1.7,13.4,0.1
	c-3.9,1.7-7.6,3.5-10.1,7.8c4.5-2.1,9.9-4.2,15-1.7c-3.7-0.4-8.3,2.9-9.3,4.4c3-0.7,5.5-2.1,8.8-0.5c-2.5,0.1-4.2,0.8-5.5,3.8
	c4.2-2,13.5,1.6,11.4,1.6c-2.4,0-4.7,1.3-6,3.4c-9.6-5.7-18.8-10.1-24.1-11.4c5,2.3,10.4,4.3,13.3,9.7c-16.6-10.8-31.7-13-52.4-10.9
	c6.6,0.6,14.8,0.7,18.3,4.7c-14.8-0.2-25,2-32.1,8.2c7.4-2.9,17.6-3.6,23-1.7c-21.9,3.1-29.3,10.7-34,16.1c3-2.4,13.5-5.9,17.1-3.9
	c-11.6,3.3-16,7.5-18.1,12.8c3.3-3.7,7.7-5.4,13.6-6.9c-4.4,3.3-6.7,9.4-6.1,12.4c3.3-4.7,8.5-9,14.6-9.7c-5,2.9-9.2,9.8-5.6,17.7
	c-0.1-7.5,7.1-15.6,15.4-14.8c-3,1.6-6.5,5.6-5.6,8c1.5-2.8,3.9-4.1,7.3-5.2c-2.3,2.8-3.4,10.3,0,15c-0.8-9.5,8.4-18.7,20.4-22.7
	c3.6,1.8,6.9,3.1,8.6,5.1c-6,0.6-12.1-0.6-16,0.5c3,0.7,6.7,1.7,9.2,3.2c-5.9,0.2-11.7,3.6-14.1,8.8c4.5-2.2,9-4.4,14.3-2.9
	c-4.2,3.7-13.8,7.3-14.2,18.7c1.3-3.8,7.6-5.8,10.9-7.3c-7.5,6.9-9.4,13.7-11.1,19.4c3.3-5.3,8.4-8.8,11.9-12.1
	c-2.8,4.2-7.2,13.8-4.3,24.4c0.3-6.8,3.3-13.9,5.3-16.1c-0.4,3.6-0.2,7.1,0.6,10.6c-0.7,0.7-1.4,1.4-2,2
	c-6.3,6.5-18.6,17.6-18.3,28.2c4.1-6.7,8.9-12.7,15.1-17.2c-7.4,13.4-8.9,23.7-2.6,33.6c0.1-5.3-1.5-10.1,0.9-14.1
	c-0.1,7.6,3.7,19.2,11.7,29.3c-1.4-4.9-4-11.8-2.3-18.8c0.8,5.4,4.4,10.4,5.7,13.1c-3.3-9.7-2.4-21-0.7-27.6c0,3.7,1.4,8.5,3.3,10.8
	c-0.8-4.5,1.4-15,2.8-19.3c0.9,3.7,2.1,6.4,5.4,8.7c-2.5-4.5-1.7-12.4,1.1-16.9c-0.4,5.2,1.4,10.4,5,14.2c-2-7.5-3.2-19.5,0.9-28.5
	c0.6,10.4,2.3,19.7,7.2,27.1c-1.4-8-1.2-19.9,2.5-26.6c1.4,8.1,4.5,17.5,9.8,24.4c-2.5-8.8-3.8-22.3-1.4-29.3
	c-0.1,4.4,2.5,11.4,6.5,17.4c-0.9-6.9-1.9-12.5,1.7-17.8c0.5,3,1.6,5.9,3.2,8.5c-10.4,21.4-21,53.9-16.3,91.5
	c-0.3-10.7,3.2-20.6,5.9-24.6c-2.4,10.1-0.4,15.8,1.8,21.6c-0.3-5.3-1.4-14.8,2-21.9c-0.1,9.6,3.6,21.7,8.9,24.5
	c-2-4.4-3.5-9-4.5-13.8c1.3,2.6,5.1,7.6,7.5,8.1c-3.6-5.7-4.9-11.6-5.5-18.8c2.2,5.8,5.8,10.9,10.4,14.9c-3.9-5.8-6.9-16-6.3-20.6
	c3.8,7.6,10.5,14.4,18,13.8c-7.8-5.4-12.1-14.7-13.3-25c2.4,2.8,6.3,4.7,8.4,4.8c-3.2-4-5.8-12-6.7-17.6c1.2,1.8,2.8,3.3,4.5,4.5
	c-1.6-4-3.1-6-3.2-11.3c1.8,1.9,4.3,4.8,6.1,5.4c-2.1-3.8-4.6-12.6-5.1-18.3c0.9,2.6,2.8,4.7,5.3,5.9c-2.6-4.9-2.7-13.8-3.5-18.9
	c1.9,3.9,3.7,6,5.7,6.2c-2.8-5.1-2.3-13.7-1.7-20.4c4,1.4,8.3,1.7,12.5,0.7C622.7,183.8,665.4,386.6,633.1,491.7L633.1,491.7z
	 M559.4,68.6c3.2-1,6.7,0.9,9.4,2.4c-1.1,0.5-2.1,1-3.1,1.7C563.6,71.2,561.5,69.9,559.4,68.6L559.4,68.6z M574,76.8
	c-0.5,0-1.1,0.1-1.6,0.3c-1-0.7-2.1-1.4-3.1-2.2C571,75.5,572.6,76.3,574,76.8z M577.2,80c0.4,0.2,0.7,0.6,0.7,1.1l-1.5-1.1H577.2z
	 M581.8,132.7c1.2-4,3.1-7.8,5.7-11.1l0.5,0.6C586,125.1,583.9,128.6,581.8,132.7z M635.3,78c-0.3-1.3-0.9-2.7-0.3-3.8
	c1.4,1,3,1.6,4.6,1.9C638.1,76.7,636.7,77.4,635.3,78z M630.5,80.3c-1.6,0.8-3.2,1.6-4.6,2.4c1.9-1.1,3.3-1.9,3.7-2.1
	S630.2,80.4,630.5,80.3L630.5,80.3z M631.1,96.5l1.1,0.3l-0.6,0.1L631.1,96.5z M671.1,93l0.9,0.2h-0.8L671.1,93z M578.6,108.8
	l-0.5,0.1v-0.4C578.3,108.6,578.4,108.7,578.6,108.8L578.6,108.8z M574.6,109.9c-2.2,0.7-4.3,1.3-6.3,2c1.3-1.1,2.6-1.9,2.8-2.6
	C572.1,105.7,573.2,107.2,574.6,109.9L574.6,109.9z M561.2,114.5c1-1.7,2.1-3.3,3.3-4.9c0.6,1,0.9,2.1,1.1,3.3
	C564.1,113.4,562.6,114,561.2,114.5z M557.3,116.1c0.2-1.4,0.5-2.8,0.9-4.2c0.4,1.1,0.7,2.3,0.9,3.5
	C558.4,115.6,557.8,115.8,557.3,116.1z M556.2,116.5c-1.5,0.7-3,1.3-4.4,2c0.5-3.7,1.3-7.3,2.4-10.8
	C554.8,109.6,555.5,113.6,556.2,116.5L556.2,116.5z M550.4,119.2c-3.4,1.7-6.6,3.3-9.4,5c0.4-3.8,1.5-7,0.2-11
	c1.5,2.2,2.9,4.5,3.9,7c-0.5-4-2-8,0.2-11C547.9,111.9,549.4,115.8,550.4,119.2L550.4,119.2z M536.9,126.7L536.9,126.7l-0.2-0.3
	L536.9,126.7L536.9,126.7z M533.5,128.9L532,130c-0.2-1.8-0.4-3.5-0.6-5.2C532.1,126.1,532.8,127.5,533.5,128.9L533.5,128.9z
	 M625.4,56.2c-2.4,3-4.8,6.1-7.3,9.4C614.2,63.9,612.5,60.3,625.4,56.2z M617.1,51.8c4-3.9,9.3-4.2,15.5-4.2c-1.8,2-3.6,4.1-5.5,6.4
	C623.9,52.7,620.5,51.9,617.1,51.8z M633.5,46.7c-6.8-2.7-13.8-4.1-18-3.5c5.2-2.6,15.3-3.5,24.2-3.1
	C637.8,42.1,635.7,44.3,633.5,46.7L633.5,46.7z M644.8,105.9c-5.2-1-10.5-1.4-15.8-1.2C634.3,103.6,639.8,104,644.8,105.9z
	 M652.4,104.4c1.5,1.9,3.2,3.7,5,5.3c-1.3-0.5-2.6-1-4-1.5C652.9,106.8,652.2,105.4,652.4,104.4z M666.1,110.3
	c0.8,1.8,1.7,3.6,2.9,5.2c-1.4-0.8-2.8-1.7-4.3-2.4C665.1,112.2,665.7,111.2,666.1,110.3z M621.4,144c0.4-1.4,1-2.7,1.7-4
	c0.6,3.4,0.7,6.9,0.4,10.3C622.8,148.2,622.2,146.1,621.4,144L621.4,144z M625.2,156.1c0.8-1,1.5-1.9,1.9-2.3
	c-0.1,2-0.4,3.9-0.9,5.9C625.9,158.5,625.6,157.3,625.2,156.1L625.2,156.1z M631.1,174c0,1.1-0.2,2.2-0.3,3.2l-0.6-2.3
	C630.6,174.6,630.9,174.3,631.1,174z M634.4,186.7c-0.3,0.6-0.6,1.3-0.9,1.9l-0.2-1.1C633.6,187.3,634,187,634.4,186.7z
	 M634.5,193.2c1.4-1.2,2.9-2.4,4.5-3.4c-1.5,1.9-2.9,3.9-4,6.1C634.9,195,634.7,194.1,634.5,193.2L634.5,193.2z M641.5,197.2
	c-1.1,3.3-2.5,6.4-4.3,9.4c-0.3-1.4-0.6-2.8-0.8-4.3C638.2,200.3,640,198.5,641.5,197.2z M644.4,201.2c-1.7,4.1-3.7,8.1-5.9,12
	c-0.3-1.4-0.5-2.9-0.8-4.3C640.1,206.6,642.4,204,644.4,201.2z M548.4,85.9c-8.2,0.3-13.8-1.9-19.2-2.7c1-0.1,1.9-0.3,2.9-0.3
	c7.3-0.4,15.5,1,23.5,3.3C553.2,86,550.8,85.9,548.4,85.9z M650.5,130.8c-1.2-1.1-2.5-2.1-3.7-3.1
	C648.2,128.5,649.4,129.6,650.5,130.8z M658.3,137.7c0.5-0.4,1-0.5,1.4,0.1c0.4,0.7,0.8,1.4,1,2.1L658.3,137.7L658.3,137.7z
	 M665.4,142.9c0.2,0.7,0.3,1.3,0.4,2l-1-1L665.4,142.9z M669.3,145.4c0.2,1.1,0.4,2.4,0.7,3.9l-1.5-1.6
	C668.8,146.9,669.1,146.1,669.3,145.4z M673.2,152.4c0.5-4,1.7-8.4,4.5-7.8c3.2,0.6,6.5,9,7,15.4
	C680.2,156.7,675.7,154.4,673.2,152.4L673.2,152.4z"/>
<path class="st3" d="M659.2,344.6c-0.1,1.9,12.1,0.8,11.5-1.7c-8-26-37.5-87.5-63.5-126.6c0.9-2.1,1.4-4.3,1.7-6.6
	c0,3.4,0.2,7.6,1.6,10.8c0.1-3,0.4-5.8,0.7-8.3c1.3,2.4,2,5,2,7.7c1.4-3.8,0.4-7.1-1.1-11.8c3.1,4.1,5.7,8.5,7.7,13.3
	c0.3-3.9-2-8.8-5.1-12.6c2.2,1.5,5.8,3.6,9,3.9c-3.1-2.4-4.9-3.5-7.9-6.8c2.8-0.2,5,0.4,8,0.4c-4.4-2-8.2-4.7-11.6-6.7
	c-3.9-2.3-7.6-4.9-10.9-7.9c-5.3-4.6-14.4-10.8-20.3-15.6c0.1-0.2,0.1-0.4,0.2-0.6c5.5,1.5,10.3,4.7,11.3,5s1.3,3.2,2,4.1
	c0-0.9,0.2-1.8,0.6-2.6c1,0.7,2,3.3,3,5c0-2.2-0.1-3.6,1.2-4.9c1.4,1.2,2.3,3.8,2.4,6.5c0.6-0.9,1.4-3.2,2.6-4.5
	c0.5-0.6,1.6,4.9,1.9,7.1c0.5-0.9,0.9-2,1.2-3c0.5,1.4,0.7,2.9,1.2,4.3c0.5-0.8,1.1-3,2-3.3c0.7,2.3,0.9,4.7,1.7,7
	c0.5-2.3,1.4-5.8,2.9-7.7c0.1,2.6,0.8,5.2,1.9,7.5c0-1,0.4-1.9,1.2-2.4c0.7,1.3,0.8,3.1,1.1,4.4c0.2-0.3,1.5-2.3,1.6-2.6
	c0.6,2,0.9,4,0.9,6.1c0.8-2.3,1.3-4.6,1.5-7c0.9,2.9,1.3,5.8,1.4,8.8c1.1-2.2,1.3-4.6,0.8-7c2.9,3.7,5.3,7.8,7.3,12.1
	c-0.3-1.1-0.7-7.3-3.5-11c1,0.1,1.8,0.6,2.5,1.4c-1.5-3.2-3.5-6.4-6.2-8.4c1,0,3,1.3,4.8,2.6c-1.9-2.8-4.2-5.6-12.2-9.2
	c1.4,0.4,3.6,0,7.2,1.6c-2.1-1.8-4.7-3.1-7.4-3.7c-0.2-2.6,0.4-3.5-0.2-6.6c1.2,1.4,6,5,6.5,7.6c0.3-1.9-0.1-3.8-1.1-5.3
	c2.1,2.3,3.9,5,5.2,7.8c0.4-2.7,3.7,1.7,5.2,5.1c0.4-0.9-0.7-2.8-1.1-4.1c1.6,0.3,5.4,5.9,5.9,8.4c0.5-1.5,0.3-3-0.3-4.4
	c3.7,2.6,4.7,6.7,6.2,10.3c-1.2-13.6-18.6-29-27.2-31.1c1.6-0.3,3.1-0.6,4.6-1.1c-4.6,0.2-11-2.4-18.5-3.7c-0.6-1.1-0.9-2.3-1-3.5
	c0.6,1,4.2,3.6,6.3,4.6c-1.2-1.8-2.5-3.5-4-5.1c3.9,1.1,7.4,3.2,10.2,6c-1.7-3.9-4.5-5.5-5.2-8c1,2.1,5,4.9,7.1,5.4
	c-1.3-1.4-2.2-3-2.9-4.8c2.6,3.4,5.6,5.3,8.4,7c-2.2-2.5-5.3-7.1-6-9.3c3,1.5,5.2,7.2,11,9.9c-3.2-2.7-5.5-6.3-6.6-10.3
	c2.3,2.9,6,7.2,10.4,8.3c-1.7-1.1-2.9-2.8-3.5-4.7c1.9,1.2,5.1,4.2,9.8,5.8c-5.8-4.6-8.1-6.7-10.3-9.7c5.9,2.4,13.3,8.8,20.3,8.7
	c-4.9-2.1-13.1-7.6-18-10.8c4,1,7.8,2.6,11.8,1.8c-5.4-0.6-10.9-5.4-16.9-5.8c-5.1-0.3-10.3-0.1-15.4,0.5c-1.1,0.1-2.1,0.3-3.1,0.6
	c-1.1-0.8-2.3-1.3-3.6-1.7c1.8-1,6.3-0.7,9.1,0.6c-2-1.9-4.6-3.2-7.4-3.7c3-0.7,5.5-0.8,8.3,0.4c-0.5-1.2-3-2.6-4.2-3
	c2.1-0.1,4.1,0.1,6.2,0.6c-1.8-2.6-7.1-2.9-11-1.6c2.5-2.9,6.4-3.6,8.6-4.2c-3.1-0.8-6.4,0-8.9,2c2.3-3.2,5.5-5.5,9.2-6.7
	c-13.4,2.2-23.9,10-31.3,17.6c-1.5-1.8-3.4-3.3-0.5-3.4c0.7,0,2.4-1.7,4-1.9c1-0.1-1.5-0.9-1.9-1.8c1.9-0.6,3.1-1.4,5.6-1.4
	c-0.1-0.5-2.5-1.4-2.7-1.9c1.4,0,2.8,0.1,4.2,0.4c-1.1-0.9-4-2.3-5.2-3.3c2.8,0,5.7,0.1,8.5,0.5c-1.8-0.9-4.4-2.7-5.2-5.2
	c2.2-0.8,3.8,0.6,5.6,1.5c-1-1-1.8-2-2.4-3.2c2.9,2.3,6.8,0,10.5,4.1c-0.3-1.4-1.4-3.1-2.5-4.7c2.2,1.6,3.6,1.9,6.7,2.5
	c-2.2-1.6-4.2-3.5-5.9-5.7c3.5,1.6,7.5,3.3,11.5,3.7c-1.9-0.8-3.7-2-5-3.7c0.7-1,2.1-1.2,3.7-1.3c-0.8-1.4-3.4-2.8-6.8-3.4
	c3.1-1.1,6.5-1.3,9.7-0.6c-4.6-3.2-10.7-2.2-13.6-1.2c2.7-1.5,5.9-3.9,9.5-4.9c-4.6-0.1-9.1,1.1-13,3.3c1.7-1.7,4.5-4.8,6.8-5
	c-5.9-1.5-10.5,3.4-13.5,5.2c0.7-3.2,3.2-5.4,5.6-7.6c-3.7,0.9-6.7,3.3-8.5,6.6c0.1-1.9,0.4-3.8,1-5.6c-1.7,2.1-2.8,5.6-4.8,8.8
	c-0.6-1.5-0.2-4.1-0.1-6.8c-4,4.6-3.1,9.1-7,16.1c-0.3,0.6-0.6,1.3-1,2.1c-3.9,0.3-7.8,1.1-11.5,2.5c1.9-3.3,7.4-6.7,11.7-8.3
	c-5.1,0-10,1.8-15,4.4c2.9-4.2,8.8-7,13-8.2c-2.9-0.5-5.9,0.2-8.3,1.8c1.6-2.8,4.4-4.7,7.6-5.1c-1.9-0.7-3.9-0.6-5.8,0.1
	c1.6-1.7,5.8-5.5,8.1-6.4c-2.1,0-4.3,0.5-6.1,1.6c3.7-3.5,8.2-6,13.2-7.3c-1.7,0.2-5.3,0-8,1.2c2.7-2.6,6.8-3.4,9.5-4.2
	c-7.3-0.6-13.9,0.9-17.5,3.1c1.1-2.1,3.9-2.7,6.3-4.2c-6.7,0-11,3.4-14.9,10.2c0.2-3.9,1.3-7.6,3.2-11c-5.1,2.8-6.3,11-7.3,15.4
	c-1.3,5.5-2.1,15.6,3.7,31c-3.2-5-6.7-9.7-10.5-14.3c-1.9-2.2-3.4-9.6-9.7-13.6c2.6,3.1,2.8,5.4,3.7,6.6c-5.9-6.8-9.2-8.2-12.4-9.2
	c1.7,1.3,3.6,2.9,3.9,3.9c-2.7-2.1-6.3-3-9.8-3.5c0.9,0.4,1.6,1.1,2,1.9c-4.3-1.6-10.3,0.1-11.5,0.1c4.7,0.6,9.3,1.7,13.7,3.3
	c-2.4,0.2-4.7,1.3-6.4,3c2.9-0.8,5.8-1.3,8.8-1.3c-2.2,0.9-4.3,2.1-6.1,3.6c1.9-0.6,4-1,6-1.1c-0.3,0.2-1.8,2.1-2,2.4
	c1.3-0.1,3.1-0.7,4.5-0.3c-0.3,0.9-1,1.7-1.9,2c2.6,0.4,5.2,0.2,7.7-0.5c-1.3,2.1-4.4,4.1-6.4,5.3c2.4,0,4.7-0.6,7.1-0.6
	c-0.1,0.9-1.9,2.2-2.5,3c1.5,0,3-0.2,4.5-0.2c-0.9,0.6-1.7,1.3-2.5,2.1c2.2-0.4,7.7-1,7.3-0.4c-1,1.6-2.9,3.1-3.5,4
	c2.6-0.8,5.4-0.6,6.9,0.3c-0.8,1.7-2.2,2-4.2,2.8c2,0.4,4.7,0.6,5.6,1.4c-0.6,0.6-1.4,1.1-2.3,1.4c1,0.4,3.8-0.3,4.4,0.7
	c0.5,0.7,4,3.7,7,7.8c-4.5-3.3-9.1-6.5-11-8.1c-3.3-2.8-17.8-12.8-24.9-14.4c3.4,1.7,8,6.6,8.6,7.3c-6.4-4.6-13-6.6-16.9-6.9
	c2.3,1.2,5.8,2,7.3,4.3c-2-0.5-4.5-1.7-7.4-1c2,0.6,3.7,2.4,4.7,3c-3.7-1-7.6-1.2-11.4-0.6c3.8,0.3,7.2,1.5,10.2,2.1
	c-2,0.8-3.9,1.7-5.7,2.8c2.5-0.6,5-0.9,7.5-0.9c-1.9,0.5-4.4,3.8-3.8,5.3c1.1-2,2.9-3.6,5-4.6c1.4-0.6-0.9,2.2,2,4.8
	c-0.8-2.1-0.5-4.8,0.8-6.1c-0.3,3.3,2.2,6.7,4.2,8c-0.5-1.8-1.2-3.5,1-5.9c0.4,1.3-0.9,3,0.8,4.8c1.1-2.6,3.1-2.9,5.1-2.1
	c-2.5,0.9-3.6,2.6-4.5,5.4c1.6-1.7,3.9-2.6,6.2-2.6c-1.4,1.6-2.8,3.1-3.1,5.6c1.7-1.8,3.7-3.9,6.6-3.7c-1.6,0.7-2.9,2.1-3.4,3.9
	c1.3-0.9,2.1-2.1,4-2c-1.2,0.4-1.9,1.6-1.8,2.8c1.6-1.8,6.5-2,5.6-1.5c-1.1,0.5-1.9,1.5-2.1,2.7c-5.5-0.7-10.7-0.9-13.4-0.5
	c2.7,0.1,5.6-0.1,8,1.8c-9.8-1.6-17.2,0.3-26.3,5.4c3.1-1,7-2.6,9.4-1.5c-6.8,2.9-11.1,5.9-13.1,10.1c2.8-2.8,7.4-5.1,10.2-5.4
	c-9.4,5.8-11.4,10.7-12.4,14.1c0.9-1.7,5-5.4,7.1-5.2c-4.7,3.8-5.9,6.6-5.8,9.5c0.8-2.4,2.5-4,4.9-5.9c-1.3,2.4-1.2,5.7-0.3,6.9
	c0.6-2.8,2.1-5.8,4.8-7.3c-2.2,2.8-1.8,6.9,0.9,9.2c-1.5-3.4,0.1-8.6,4.1-9.9c-1.1,1.3-1.9,3.8-1,4.8c0.2-1.5,1-2.9,2.3-3.8
	c-0.4,2.7,0.7,5.4,3,6.9c-2.3-4.2,0.2-10.3,4.8-14.4c2,0.1,3.8,0.1,5,0.6c-2.7,1.4-5.7,2.1-7.3,3.4c1.6-0.3,3.2-0.5,4.9-0.4
	c-2.7,1.2-4.5,3.9-4.8,6.9c1.6-1.9,3.3-3.8,6-4.2c-1.2,2.5-4.9,6.1-2.8,11.4c-0.1-2,2.3-4.1,3.6-5.5c-2.1,4.6-1.6,8.1-1.3,11.1
	c0.5-3.1,2.1-5.7,3.1-7.9c-0.8,4.3,0.3,8.6,2.9,12.1c-1.2-3.2-1.2-7-0.7-8.4c0.5,1.7,1.3,3.3,2.4,4.8c-0.2,0.4-0.4,0.9-0.5,1.3
	c-1.6,4.3-5.1,11.8-2.8,16.6c0.4-3.8,1.6-7.5,3.5-10.9c-0.8,7.7,0.6,12.7,5.5,16c-1-2.4-2.7-4.4-2.4-6.6c1.5,3.5,5.5,8.1,11.2,11.1
	c-1.6-2-4.2-4.6-4.8-8.2c1.4,2.3,4.1,3.9,5.2,4.9c-3-3.6-5-8-5.8-12.6c0.8,1.8,2,3.3,3.6,4.3c-1.3-1.9-2.3-7.2-2.5-9.4
	c0.9,1.5,2.5,2.6,4.2,2.9c-2.1-1.6-3.2-5.4-2.8-8c0.9,2.5,2.7,4.5,5.1,5.6c-2.4-3.1-5.3-8.3-5.2-13.3c2.3,4.6,5,8.5,8.7,11
	c-2.3-3.4-4.5-8.9-4.1-12.7c2.4,3.8,5.5,6.9,9.3,9.3c-2.9-3.5-6.2-9.5-6.4-13.2c0.8,2,3.4,4.7,6.4,6.7c-1.7-3-3.4-5.4-2.7-8.6
	c0.8,1.3,1.9,2.4,3.1,3.3c-0.5,11.9,1,29,10.6,45.4c-2.3-4.9-2.6-10.1-2.2-12.5c0.5,3.7,2.3,7.1,5.1,9.6c-1.2-2.4-3.5-6.5-3.4-10.5
	c1.9,4.4,6,9.3,9,9.5c-1.8-1.6-3.4-3.5-4.8-5.4c1.1,1,3.9,2.5,5,2.2c-2.8-1.9-4.5-4.4-6.3-7.6c2.2,2.2,4.8,3.9,7.8,4.8
	c-3-1.9-6.4-6-7-8.2c3.3,2.7,7.7,4.5,11,2.8c-4.7-1-8.5-4.4-11.1-8.9c1.5,0.7,3.2,0.9,4.8,0.5c-2.3-1.2-5.1-4.4-6.6-6.8
	c0.9,0.6,1.9,1,3,1.2c-1.5-1.6-2.6-2.1-3.7-4.6c1.2,0.5,2.9,1.4,3.9,1.3c-2.4-2.1-4.4-4.6-6-7.4c0.9,1,2.2,1.6,3.6,1.7
	c-2.2-1.7-4-5.8-5.4-8c1.6,1.4,2.8,2,3.8,1.8c-2.3-1.7-3.8-5.8-4.8-9c2.1-0.1,4.2-0.9,5.9-2.1C593.3,204.9,653.2,289.8,659.2,344.6
	L659.2,344.6z M546.2,163.7c-0.4,0.4-0.8,0.9-1.1,1.3c-1.2-0.2-2.5-0.4-3.7-0.6C542.6,163.3,544.6,163.5,546.2,163.7z M549.7,165.3
	c-0.2,0.1-0.5,0.3-0.7,0.4l-1.9-0.4C548.1,165.3,549,165.3,549.7,165.3z M551.5,166.3l0.4-0.1c0.2,0,0.5,0.2,0.5,0.4L551.5,166.3
	L551.5,166.3z M564.4,189.5c-0.3-2.1-0.1-4.2,0.4-6.2l0.3,0.2C564.8,185.1,564.6,187.2,564.4,189.5z M579.8,151.9
	c-0.6,0.6-1.1,1.2-1.6,1.7c-0.4-0.5-0.9-1-0.9-1.7C578.1,152.1,578.9,152.1,579.8,151.9L579.8,151.9z M576.4,155.7
	c-0.6,0.6-1.1,1.3-1.7,2c0.7-0.9,1.2-1.5,1.3-1.7C576.2,155.9,576.3,155.8,576.4,155.7L576.4,155.7z M579.9,163l0.6-0.1l-0.3,0.2
	L579.9,163z M597.7,153.6l-0.1-0.1l0.5-0.1L597.7,153.6L597.7,153.6z M558.2,179.1l-0.2,0.2l-0.1-0.2
	C558,179.1,558.1,179.1,558.2,179.1L558.2,179.1z M556.6,180.4c-0.9,0.7-1.7,1.5-2.5,2.2c0.3-0.8,0.8-1.4,0.8-1.8
	C554.6,179,555.4,179.4,556.6,180.4L556.6,180.4z M551.3,185.2c0.1-1,0.3-1.9,0.6-2.9c0.5,0.3,0.8,0.8,1.1,1.3
	C552.4,184.1,551.8,184.6,551.3,185.2z M549.8,186.7c-0.2-0.7-0.3-1.4-0.4-2.1c0.4,0.4,0.8,0.9,1.1,1.4
	C550.2,186.2,550,186.4,549.8,186.7z M549.3,187.1c-0.6,0.6-1.1,1.2-1.6,1.8c-0.5-1.8-0.8-3.6-1-5.4
	C547.4,184.2,548.5,185.9,549.3,187.1L549.3,187.1z M543.9,193.6c-0.6-1.8-0.7-3.5-2.1-5.1c1.1,0.7,2.2,1.5,3.2,2.4
	c-1-1.7-2.5-3.3-2.1-5.1c1.7,0.8,3.2,2.1,4.3,3.6C546,190.9,544.9,192.3,543.9,193.6z M542.5,195.6L542.5,195.6l-0.1-0.1
	L542.5,195.6L542.5,195.6z M541.4,197.3l-0.5,0.8c-0.4-0.8-0.9-1.5-1.3-2.3C540.2,196.3,540.8,196.8,541.4,197.3L541.4,197.3z
	 M569.3,145.6c-0.5,1.9-1,3.8-1.5,5.8C565.7,151.4,564.2,150,569.3,145.6z M569.6,144.3c-1.7,0-3.4,0.3-5,1c1.1-2.6,3.5-3.8,6.3-5
	C570.5,141.5,570.1,142.9,569.6,144.3L569.6,144.3z M571.2,139.7c-3.7,0.1-7.2,0.9-9,2c1.9-2.2,6.3-4.6,10.5-6.2
	C572.2,136.7,571.6,138.1,571.2,139.7L571.2,139.7z M588.1,164.7c-2.6,0.6-5.1,1.4-7.5,2.6C582.8,165.7,585.4,164.8,588.1,164.7z
	 M591.3,162.5c1.1,0.6,2.2,1.1,3.3,1.4c-0.7,0-1.4,0.1-2.1,0.1C592,163.5,591.4,163,591.3,162.5z M598.7,162.5
	c0.7,0.7,1.5,1.3,2.4,1.8c-0.8-0.1-1.6-0.2-2.5-0.3C598.7,163.5,598.7,163,598.7,162.5z M584.9,186.8c-0.1-0.7-0.1-1.5,0-2.2
	c1,1.4,1.7,3,2.2,4.7C586.3,188.5,585.6,187.6,584.9,186.8L584.9,186.8z M589.5,190.2c0.3,0.9,0.6,1.9,0.8,2.9l-1.2-1.4
	C589.2,191.2,589.3,190.7,589.5,190.2z M595,199.3c0.1-0.2,0.2-0.4,0.2-0.6c0.2,0.5,0.3,1,0.5,1.5L595,199.3L595,199.3z
	 M598.9,204.5c0.1-0.2,0.2-0.4,0.4-0.6c0,0.4,0,0.7,0,1.1L598.9,204.5L598.9,204.5z M600.7,206.9c0.4-0.8,0.9-1.7,1.4-2.4
	c-0.4,1.2-0.6,2.3-0.7,3.6L600.7,206.9L600.7,206.9z M604.6,207.3c0.2,1.7,0.1,3.5-0.1,5.2l-1.2-1.8
	C603.7,209.4,604.2,208.2,604.6,207.3z M606.7,208.6c0.1,2.2-0.1,4.5-0.3,6.7c-0.4-0.6-0.8-1.2-1.2-1.8
	C605.8,211.9,606.3,210.2,606.7,208.6z M543.1,173.3c-1.2,0.3-2.3,0.7-3.4,1.2c-3.7,1.8-6.7,1.9-9.4,2.6c0.4-0.3,0.8-0.5,1.3-0.7
	C535.3,174.8,539.1,173.7,543.1,173.3L543.1,173.3z M595.6,175l-2.3-0.7C594.1,174.5,594.9,174.7,595.6,175z M601.2,176.4
	c0.3,0.2,0.6,0.5,0.9,0.8l-1.5-0.6C600.7,176.4,600.9,176.3,601.2,176.4z M604.8,177.7c0.2,0.3,0.4,0.5,0.6,0.8l-0.7-0.3
	L604.8,177.7z M607.2,179.2c0-0.4-0.1-0.8-0.1-1.2c0.3,0.5,0.7,1.1,1.1,1.6L607.2,179.2L607.2,179.2z M610.4,180.4
	c-0.5-2-0.9-4.2,0.5-4.4c1.6-0.3,4.8,2.9,6.3,5.7C614.4,181.1,611.9,180.9,610.4,180.4L610.4,180.4z"/>
<path class="st3" d="M675.5,357.3c1.3,2.4-15.5,8-16,4.3c-4.2-38.8-0.3-136.6,11.8-202.8c-2.1-1.9-3.8-4.7-5.7-7.8
	c1.9,4.5,4.1,10.2,4.1,15.1c-1.9-3.9-3.9-7.4-5.5-10.5c-0.2,3.1,0,7.9,1.7,11.3c-3.9-4.2-4.5-9.1-5.3-16.1
	c-1.8,7.1-2.7,14.5-2.6,21.9c-2.6-4.9-2.4-12.8-0.4-19.6c-2,3.2-5.7,8.1-9.7,10.3c2.7-5,4.5-7.3,6.5-13.4c-3.8,1.3-6.3,3.4-10.3,5.1
	c4.6-5.1,8.1-10.9,11.5-15.4c3.9-5.2,7.2-10.8,10-16.6c4.4-9,12.9-22.4,17.9-32c-0.2-0.3-0.4-0.5-0.6-0.8
	c-6.4,5.2-11.1,12.1-12.1,13c-1.2,1.1,0.1,4.9-0.3,6.5c-0.5-1.2-1.3-2.2-2.2-3.1c-1,1.4-0.9,5.4-1.2,8.3c-1.3-2.8-1.9-4.8-4.4-5.7
	c-1.1,2.4-0.9,6.3,0.5,10c-1.4-0.8-3.7-3.4-6-4.5c-1-0.5,0.7,7.4,1.5,10.5c-0.6-0.2-2.3-2.1-3.3-3.3c0.2,2.1,0.7,4.3,0.9,6.4
	c-1.2-0.7-3.2-3.2-4.5-3.2c0.3,3.4,1.5,6.8,1.8,10.2c-2-2.7-5.1-6.9-8.2-8.5c1.3,3.5,1.9,7.3,1.7,11c-0.5-1.3-1.6-2.2-3-2.5
	c-0.3,2.1,0.7,4.5,1,6.4c-0.5-0.2-3.2-2.2-3.6-2.5c0.2,2.8,1.3,5.6,2.3,8.5c-2.3-2.5-4.3-5.3-5.9-8.4c0.5,4.3,1.5,8.5,3,12.5
	c-2.2-1.7-4-4.6-5-8.8c-1.6,6.5-2.5,13.3-2.7,20c-0.2-1.6-3.2-10-1.6-16.4c-1.2,0.7-2.1,1.8-2.4,3.2c0.2-5.1,1-10.4,3.5-14.6
	c-1.3,0.6-3.3,3.5-4.9,6.1c0.9-4.8,2.4-9.7,10.9-19c-1.5,1.4-4.8,2-8.6,6.1c1.8-3.6,4.4-6.6,7.6-9c-1.3-3.5-2.5-4.3-3.4-8.8
	c-0.8,2.5-5,10-4.2,13.7c-1.3-2.5-2-3.9-1.5-7.7c-1.5,3.6-2.2,9.2-2.4,13.3c-2.1-3.3-3.9,4.3-4,9.6c-1-1-0.7-4-0.9-6.1
	c-1.9,1.2-3.8,10.9-3.1,14.4c-1.4-1.7-2.1-3.8-2-6c-3.4,5.5-2.4,11.5-2.4,17.1c-6.1-18.5,8-48.7,18.1-56.3c-2.2,0.5-4.5,0.9-6.7,1.2
	c6.2-2.4,13.2-9.5,22.3-15.4c0.2-1.8-0.1-3.6-0.7-5.2c-0.3,1.6-3.6,7.1-5.7,9.6c0.5-3.1,1.3-6.1,2.3-9c-4.4,3.6-7.9,8.3-10,13.6
	c0-6,2.8-9.7,2.3-13.5c-0.1,3.3-3.8,9.2-6.3,11.1c0.9-2.5,1.2-5.2,1.1-7.8c-1.5,5.9-4.5,10.1-7.1,13.9c1.4-4.5,3-12.4,2.6-15.6
	c-3.1,3.6-2.8,12.4-8.9,19.2c2.7-5.3,3.7-11.4,2.8-17.3c-1.4,5.2-3.8,12.9-9,16.8c1.5-2.4,2.2-5.3,2-8.2c-1.8,2.6-4.4,8.4-9.6,13.2
	c5-9.3,6.8-13.4,8-18.6c-6.3,6.6-12.4,19.2-21.8,22.9c5.3-5.6,13-17.5,17.6-24.5c-4.7,3.5-8.8,7.9-14.5,9.1
	c6.7-3.9,11.3-13.4,19-17.2c6.6-3.3,13.5-6,20.5-8.2c1.5-0.4,2.9-0.8,4.4-1c1-1.6,2.3-3.1,3.7-4.3c-2.9-0.3-8.6,2.6-11.6,6
	c1.6-3.7,4.2-6.8,7.6-9.1c-4.3,0.8-7.7,2.1-10.7,5.3c-0.1-1.9,2.4-5.2,3.8-6.4c-2.8,1-5.4,2.5-7.8,4.3c0.9-4.3,7.7-7.9,13.6-8.3
	c-4.9-2.3-10.5-1-13.7-0.6c3.2-2,6.4-3.9,12.9-2.4c-4.8-2.9-10.4-4.1-15.9-3.6c18.9-4.7,37.2-0.4,51.3,5.5c1-3.2,2.6-6.3-1.2-4.7
	c-0.9,0.4-4.1-0.9-6.3-0.2c-1.3,0.4,1.5-2.1,1.5-3.4c-2.8,0.2-4.9-0.1-8.2,1.3c-0.2-0.8,2.5-3.2,2.5-4c-1.9,0.8-3.6,1.7-5.3,2.9
	c0.9-1.8,4-5.3,4.9-7.2c-3.8,1.6-7.4,3.4-11,5.5c1.9-2.2,4.3-6,4-9.8c-3.3,0.2-4.6,3-6.6,5.2c0.7-1.8,1.2-3.7,1.4-5.6
	c-2.6,4.7-8.9,3.8-11.5,11.5c-0.5-2.1,0.1-4.9,0.6-7.7c-2,3.4-3.7,4.5-7.4,7.1c2.1-3.4,3.6-7,4.6-10.9c-3.7,4-7.9,8.6-13.1,11.4
	c-0.5,0.5,3.6-3.3,4.5-7.7c-1.6-0.8-3.5-0.4-5.6,0.4c0.4-2.2,2.9-5.7,7.1-8.3c-2.7-0.1-9,1.6-13.1,4.7c4.3-6.8,12.9-8.9,17.3-9.3
	c-4.4-0.5-9.9-1.8-15.3-1.1c4.5-1.8,9.8-4,19-3c-3.2-1.2-8.7-3.8-11.8-2.7c6.9-5.3,15.8-1.5,20.8-0.8c-2.8-3.8-7.3-5.3-11.6-6.8
	c4.8-1.1,10.8,0.6,15,3.9c-0.8-2.2-2.9-4.8-4.5-6.9c3.4,1.8,6.9,5.8,11.4,8.9c0-2.3-2.1-5.5-3.7-9c8,3.7,9.3,10.2,18.4,17.3
	c0.7,0.6,1.6,1.3,2.5,2.2c5.3-1.9,10.9-2.9,16.5-3.1c-4.4-3.3-13.6-4.6-20.1-4.3c6.7-2.9,14.2-3.3,22.3-2.7
	c-6.2-3.9-15.6-4.1-21.8-3.4c4.4-2.5,7.7-3,11.9-2.4c-3-2.5-8.8-3.9-12.8-2.4c2.4-2.2,4.7-2.9,7.7-3.2c-3-1.4-10.7-4-14.4-3.8
	c2.8-1.3,5.9-1.8,9-1.4c-6.9-2.6-14.3-3.3-21.5-2.1c2.3-0.7,6.9-3,11.2-3c-5-1.9-10.8-0.6-14.9-0.1c9.3-5,18.8-6.7,24.8-5.9
	c-2.6-2.1-6.6-1.4-10.7-1.9c8.8-3.8,16.4-1.7,25.4,5c-2.3-5-6.1-9.1-10.5-12.7c8.2,0.8,14.5,10.9,18.3,16.1
	c4.8,6.7,11.6,19.4,12.8,43c1.5-8.4,3.4-16.7,5.9-24.9c1.1-4-1-14.6,5-23.4c-1.7,5.6-0.7,8.8-1.1,10.8c3.9-12.3,7.4-16,11.1-19.1
	c-1.5,2.7-3.1,5.8-2.9,7.4c2.4-4.3,6.7-7.6,11-10.2c-1,1-1.5,2.3-1.6,3.7c4.8-4.5,13.6-5.8,15.1-6.4c-5.8,3.4-11.2,7.5-16.1,12.1
	c4.1-1.1,7.6-0.9,10.2,0.3c-4.2,0.5-8.4,1.6-12.4,3.3c3.4-0.1,6.9,0.4,10.2,1.3c-3,0.5-6,0.8-8.6,2c0.5,0.2,3.5,1.8,3.9,2.1
	c-1.7,0.6-4.4,0.8-6,2.1c0.9,1.1,2.3,1.7,3.7,1.5c-3.1,2-6.7,3.3-10.3,3.7c2.9,2,8.1,2.8,11.4,3.4c-3.1,1.4-6.6,1.9-9.7,3.3
	c0.6,1.3,3.8,1.9,5,2.6c-1.9,0.9-4,1.4-6,2.3c1.5,0.4,4,1,4.5,1.5c-3.1,0.7-10.8,3-9.8,3.7c2.2,1.6,5.5,2.4,6.9,3.3
	c-3.9,0.5-7.4,2.2-8.9,4.4c2.1,1.8,4.1,1.4,7.1,1.3c-2.3,1.6-5.8,3.4-6.6,5c1.2,0.5,2.5,0.7,3.8,0.6c-1.1,1.1-5.2,1.8-5.5,3.4
	c-0.2,1.2-3.2,7.2-4.8,14.3c4-6.9,8.2-13.7,9.9-16.9c2.8-5.5,16.3-26.9,24.6-33.1c-3.5,4.2-6.8,13.2-7.2,14.5
	c5.8-9.7,13.3-16.1,18.3-18.7c-2.3,2.8-6.4,5.9-7.2,9.8c2.4-1.7,5-4.7,9.2-5.5c-2.3,1.9-3.6,5.2-4.5,6.6c4-3,9.8-6.2,14.6-7.3
	c-4.9,2.6-8.7,6-12.3,8.5c3.1-0.1,6.1,0.1,9.2,0.5c-3.6,0.6-7,1.7-10.4,3.1c2.8-0.4,7.9,2.5,8,4.9c-2.6-2-5.9-3.1-9.2-3.1
	c-2.1,0,2.5,2.4,0.1,7.4c-0.1-3.2-2.1-6.5-4.5-7.5c2.3,4.3,0.9,10.1-1,13c-0.3-2.6-0.3-5.3-4.6-7.2c0.3,2,2.8,3.4,1.8,6.8
	c-2.9-2.8-5.7-2-8,0.1c3.8-0.2,6.3,1.4,9,4.6c-3.1-1.3-6.6-1.2-9.6,0.1c2.8,1.3,5.5,2.5,7.2,5.6c-3.2-1.5-7.1-3-10.8-1.2
	c2.7-0.3,5.9,2,6.7,3.1c-2.2-0.5-3.9-1.5-6.4-0.3c1.8-0.1,3.5,1,4,2.7c-3-1.4-9.7,1.1-8.2,1.1c1.7,0,3.4,0.8,4.4,2.2
	c6.9-4.1,13.5-7.3,17.3-8.2c-3.6,1.7-7.5,3.2-9.6,7c11.9-7.8,22.8-9.3,37.7-7.8c-4.7,0.4-10.6,0.5-13.2,3.4
	c10.6-0.1,18,1.5,23.1,5.9c-5.3-2.1-12.6-2.6-16.5-1.3c15.7,2.3,21,7.7,24.4,11.6c-2.1-1.8-9.7-4.3-12.3-2.8
	c8.3,2.3,11.5,5.4,13,9.2c-2.4-2.7-5.6-3.9-9.8-5c3.2,2.5,4.8,6.8,4.4,9c-2.3-3.4-6.1-6.5-10.5-6.9c4.4,2.5,6.2,8.1,4,12.7
	c0-5.4-5.1-11.2-11-10.5c2.2,1.1,4.6,4,4,5.7c-1.1-2-2.8-2.9-5.2-3.8c1.6,2,2.5,7.4,0,10.8c0.6-6.9-6-13.5-14.6-16.3
	c-2.6,1.3-4.9,2.2-6.2,3.7c4.3,0.4,8.7-0.4,11.5,0.4c-2.3,0.4-4.6,1.2-6.7,2.3c4.3,0.1,8.2,2.5,10.1,6.3c-3.2-1.6-6.5-3.2-10.3-2.1
	c3,2.6,10,5.2,10.2,13.4c-0.9-2.7-5.4-4.1-7.8-5.2c5.4,5,6.8,9.9,8,14c-2.3-3.8-6-6.3-8.6-8.7c3.4,5.2,4.6,11.5,3.1,17.6
	c-0.2-4.9-2.4-10-3.8-11.6c0.3,2.5,0.1,5.1-0.4,7.6c0.5,0.5,1,1,1.4,1.4c4.5,4.7,13.4,12.6,13.2,20.3c-2.7-4.8-6.4-9-10.8-12.3
	c5.3,9.7,6.4,17,1.8,24.1c-0.1-3.8,1.1-7.3-0.6-10.1c0.1,5.5-2.6,13.8-8.4,21c1-3.5,2.9-8.5,1.6-13.5c-0.5,3.9-3.2,7.4-4.1,9.4
	c2.4-7,1.7-15.1,0.5-19.9c0,2.8-0.8,5.4-2.3,7.8c0.6-3.2-1-10.8-2-13.8c-0.6,2.6-1.5,4.6-3.9,6.2c1.8-3.3,1.2-8.9-0.8-12.2
	c0.3,3.8-1.1,7.5-3.7,10.3c1.5-5.4,2.3-14-0.7-20.5c-0.5,7.5-1.7,14.1-5.2,19.5c1-5.8,0.8-14.3-1.8-19.1c-1,5.8-3.2,12.5-7,17.5
	c1.8-6.3,2.7-16,1-21c0.1,3.2-1.9,8.2-4.7,12.5c0.7-5,1.4-9-1.3-12.8c-0.3,2.2-1.1,4.2-2.3,6.1c7.5,15.3,15.1,38.7,11.8,65.8
	c0.2-7.7-2.3-14.8-4.2-17.7c1.7,7.2,0.3,11.4-1.3,15.5c0.2-3.8,1-10.6-1.5-15.8c0.1,6.9-2.6,15.6-6.4,17.6c1.5-3.2,2.6-6.5,3.3-9.9
	c-0.9,1.9-3.7,5.5-5.4,5.8c2.6-4.1,3.5-8.4,4-13.5c-1.6,4.1-4.2,7.8-7.5,10.8c2.8-4.2,5-11.5,4.5-14.8c-2.8,5.4-7.6,10.3-13,9.9
	c5.6-3.9,8.7-10.6,9.6-18c-1.5,1.8-3.7,3-6,3.4c2.3-2.9,4.2-8.6,4.8-12.6c-0.9,1.3-2,2.4-3.3,3.3c1.1-2.9,2.2-4.3,2.3-8.1
	c-1.3,1.4-3.1,3.5-4.4,3.9c1.9-4.2,3.2-8.6,3.7-13.2c-0.7,1.9-2,3.4-3.8,4.3c1.9-3.5,2-9.9,2.5-13.6c-1.3,2.8-2.6,4.3-4.1,4.5
	c2-3.7,1.7-9.8,1.2-14.7c-2.9,1.1-6,1.2-9,0.5C683,135.9,652.3,281.8,675.5,357.3L675.5,357.3z M721.8,54.9c0.8,0.3,1.5,0.7,2.2,1.1
	c1.5-1,3-1.9,4.5-2.8C726.2,52.4,723.8,53.8,721.8,54.9z M718.1,59.1c0.4,0,0.8,0.1,1.1,0.2c0.7-0.5,1.5-1,2.3-1.5
	C720.2,58.1,719.1,58.7,718.1,59.1z M715.7,61.4c-0.3,0.2-0.5,0.5-0.5,0.8l1.1-0.8H715.7z M712.5,99.2c-0.8-2.9-2.2-5.6-4.1-8
	l-0.3,0.4C709.4,93.8,710.9,96.3,712.5,99.2z M674,59.9c0.2-0.9,0.7-1.9,0.2-2.7c-1,0.7-2.1,1.2-3.3,1.4C672,59,673,59.5,674,59.9z
	 M677.4,61.6c1.1,0.6,2.3,1.2,3.3,1.7c-1.4-0.8-2.4-1.4-2.6-1.5L677.4,61.6L677.4,61.6z M676.6,73.5l0.4-0.3l-0.8,0.2L676.6,73.5
	L676.6,73.5z M648.1,70.9l0.1-0.2l-0.7,0.2H648.1L648.1,70.9z M714.7,82.1l0.4,0.1v-0.3C714.9,81.9,714.8,82,714.7,82.1L714.7,82.1z
	 M717.6,82.9c1.5,0.4,3.1,0.9,4.5,1.4c-0.9-0.8-1.9-1.4-2-1.9C719.4,79.9,718.6,80.9,717.6,82.9L717.6,82.9z M727.3,86.2
	c-0.7-1.2-1.5-2.4-2.4-3.5c-0.4,0.7-0.7,1.5-0.8,2.3C725.2,85.4,726.3,85.8,727.3,86.2z M728.8,86.8c0.4,0.2,0.9,0.3,1.3,0.5
	c-0.1-1-0.3-2-0.7-3C729.1,85.1,728.9,85.9,728.8,86.8L728.8,86.8z M734.1,89.1c-0.4-2.6-1-5.2-1.7-7.8c-0.5,1.4-1,4.2-1.4,6.4
	C732,88.1,733.1,88.6,734.1,89.1z M735.1,89.6c2.5,1.2,4.7,2.4,6.7,3.6c-0.3-2.8-1.1-5-0.2-7.9c-1.1,1.6-2.1,3.2-2.8,5
	c0.3-2.9,1.4-5.7-0.1-7.9C736.9,84.4,735.7,86.9,735.1,89.6L735.1,89.6z M744.7,95L744.7,95l0.1-0.3L744.7,95L744.7,95z M748.2,97.3
	c0.1-1.3,0.3-2.5,0.4-3.7c-0.5,0.9-1,1.9-1.5,2.9C747.5,96.8,747.8,97.1,748.2,97.3z M681.1,44.3c1.7,2.1,3.5,4.4,5.2,6.7
	C689.1,49.8,690.3,47.2,681.1,44.3z M679.8,42.7c2.3-1,4.7-1.5,7.2-1.6c-2.9-2.8-6.7-3-11.1-3C677.2,39.5,678.5,41.1,679.8,42.7
	L679.8,42.7z M688.2,34.9c-3.8-1.8-11-2.5-17.4-2.2c1.4,1.4,2.9,2.9,4.5,4.7C680.1,35.5,685.1,34.5,688.2,34.9z M678.5,79.1
	c-3.8-0.8-7.7-0.5-11.4,0.8C670.8,79.2,674.7,79,678.5,79.1L678.5,79.1z M660.9,81.7c0.4-1,0.9-2,0.7-2.7c-1.1,1.3-2.3,2.6-3.6,3.8
	C659,82.3,659.9,82,660.9,81.7L660.9,81.7z M652.8,85.2c-0.4-0.6-0.7-1.3-1-2c-0.6,1.3-1.3,2.6-2.1,3.7
	C650.8,86.3,651.8,85.7,652.8,85.2L652.8,85.2z M682.6,104.5c-0.4,2.4-0.5,4.9-0.3,7.4c0.5-1.5,1-3,1.5-4.5
	C683.5,106.4,683.1,105.5,682.6,104.5z M679.8,114.5c0.1,1.4,0.3,2.8,0.6,4.2c0.3-0.9,0.5-1.7,0.7-2.6
	C680.7,115.5,680.2,115,679.8,114.5z M677.5,129.6l-0.6-0.6c0,0.8,0.1,1.5,0.2,2.3C677.2,130.7,677.4,130.1,677.5,129.6L677.5,129.6
	z M675.4,138.7c-0.3-0.2-0.5-0.4-0.8-0.6c0.2,0.4,0.5,0.9,0.7,1.4L675.4,138.7L675.4,138.7z M674.5,142.7c-1-0.9-2.1-1.7-3.3-2.4
	c1.1,1.3,2.1,2.8,2.8,4.4L674.5,142.7L674.5,142.7z M669.4,145.6c0.8,2.4,1.8,4.6,3.1,6.8c0.2-1.1,0.4-2.1,0.6-3.1
	C671.8,147.9,670.4,146.6,669.4,145.6z M667.4,148.5c1.2,3,2.6,5.9,4.2,8.7c0.2-1,0.4-2.1,0.6-3.1
	C670.4,152.3,668.8,150.5,667.4,148.5z M731.2,65.9c1.7-0.2,3.4-0.3,5.2-0.3c5.9,0.2,9.9-1.3,13.8-1.9c-0.6-0.1-1.3-0.2-2-0.2
	C742.4,63.4,736.7,64.2,731.2,65.9L731.2,65.9z M663,97.9c0.9-0.8,1.8-1.5,2.7-2.3C664.7,96.2,663.8,97,663,97.9z M657.4,102.9
	c-0.4-0.3-0.7-0.4-1,0.1s-0.6,1-0.7,1.5L657.4,102.9L657.4,102.9z M652.3,106.6c-0.1,0.5-0.2,0.9-0.3,1.4l0.7-0.7
	C652.8,107.3,652.3,106.6,652.3,106.6z M649.5,108.3c-0.1,0.8-0.3,1.8-0.5,2.8l1.1-1.1C649.9,109.4,649.7,108.8,649.5,108.3z
	 M646.7,113.4c-0.4-2.9-1.3-6-3.3-5.7c-2.2,0.4-4.6,6.5-5,11.1C641.7,116.4,644.9,114.8,646.7,113.4L646.7,113.4z"/>
<rect id="SVGID_1_" x="0.6" y="66.1" class="st0" width="658.3" height="40.8"/>
<rect x="-2.9" y="107.9" class="st0" width="659.5" height="27.8"/>
<g class="st4">
	<path class="st5" d="M234,81.8c0,1.3-0.9,2.4-2.2,2.4c-1.3,0-2.2-1-2.2-2.4c0-1.4,0.9-2.4,2.3-2.4C233.1,79.5,234,80.4,234,81.8z
		 M229.9,105.5l0.5-18.1h2.6l0.6,18.1H229.9z"/>
	<path class="st5" d="M239,72.7c2-0.3,4.4-0.5,7-0.5c4.7,0,8.1,1.1,10.4,3.2c2.3,2.1,3.6,5.1,3.6,9.2c0,4.2-1.3,7.6-3.7,10
		c-2.4,2.4-6.3,3.7-11.3,3.7c-2.4,0-4.3-0.1-6-0.3V72.7z M242.3,95.4c0.8,0.2,2.1,0.2,3.3,0.2c7.1,0,10.9-4,10.9-10.9
		c0-6-3.4-9.9-10.4-9.9c-1.7,0-3,0.2-3.9,0.3V95.4z"/>
	<path class="st5" d="M266.2,89.4c0.1,4.5,3,6.4,6.3,6.4c2.4,0,3.8-0.4,5.1-0.9l0.6,2.4c-1.2,0.5-3.2,1.1-6.1,1.1
		c-5.7,0-9-3.7-9-9.3s3.3-9.9,8.6-9.9c6,0,7.6,5.3,7.6,8.7c0,0.7-0.1,1.2-0.1,1.6H266.2z M276,87c0-2.1-0.9-5.4-4.6-5.4
		c-3.4,0-4.9,3.1-5.1,5.4H276z"/>
	<path class="st5" d="M282.9,94.6c1,0.6,2.7,1.3,4.4,1.3c2.4,0,3.6-1.2,3.6-2.7c0-1.6-0.9-2.5-3.4-3.4c-3.3-1.2-4.9-3-4.9-5.2
		c0-3,2.4-5.4,6.3-5.4c1.9,0,3.5,0.5,4.5,1.1l-0.8,2.4c-0.7-0.5-2.1-1.1-3.8-1.1c-2,0-3.1,1.1-3.1,2.5c0,1.5,1.1,2.2,3.5,3.1
		c3.2,1.2,4.8,2.8,4.8,5.5c0,3.2-2.5,5.5-6.9,5.5c-2,0-3.9-0.5-5.2-1.3L282.9,94.6z"/>
	<path class="st5" d="M311.5,97.3c-0.9,0.5-2.8,1.1-5.3,1.1c-5.5,0-9.2-3.8-9.2-9.4c0-5.7,3.9-9.8,9.9-9.8c2,0,3.7,0.5,4.6,1
		l-0.8,2.6c-0.8-0.5-2.1-0.9-3.9-0.9c-4.2,0-6.5,3.1-6.5,7c0,4.3,2.7,6.9,6.4,6.9c1.9,0,3.2-0.5,4.1-0.9L311.5,97.3z"/>
	<path class="st5" d="M330.8,93c0,1.9,0,3.6,0.2,5h-3l-0.2-3h-0.1c-0.9,1.5-2.8,3.4-6.1,3.4c-2.9,0-6.3-1.6-6.3-8.1V79.6h3.3v10.2
		c0,3.5,1.1,5.9,4.1,5.9c2.2,0,3.8-1.6,4.4-3c0.2-0.5,0.3-1.1,0.3-1.7V79.6h3.3V93z"/>
	<path class="st5" d="M338.3,89.4c0.1,4.5,3,6.4,6.3,6.4c2.4,0,3.8-0.4,5.1-0.9l0.6,2.4c-1.2,0.5-3.2,1.1-6.1,1.1
		c-5.7,0-9-3.7-9-9.3s3.3-9.9,8.6-9.9c6,0,7.6,5.3,7.6,8.7c0,0.7-0.1,1.2-0.1,1.6H338.3z M348.1,87c0-2.1-0.9-5.4-4.6-5.4
		c-3.4,0-4.9,3.1-5.1,5.4H348.1z"/>
	<path class="st5" d="M355.4,84.6c0-1.9,0-3.5-0.2-5h3l0.2,3h0.1c0.9-1.7,3-3.5,6.1-3.5c2.5,0,6.5,1.5,6.5,7.8v11h-3.3V87.4
		c0-3-1.1-5.4-4.3-5.4c-2.2,0-3.9,1.6-4.5,3.4c-0.2,0.4-0.2,1-0.2,1.6V98h-3.3V84.6z"/>
	<path class="st5" d="M380.4,74.3v5.3h4.8v2.5h-4.8v9.9c0,2.3,0.6,3.6,2.5,3.6c0.9,0,1.5-0.1,1.9-0.2l0.2,2.5
		c-0.6,0.3-1.7,0.5-3,0.5c-1.6,0-2.8-0.5-3.6-1.4c-0.9-1-1.3-2.6-1.3-4.8v-10h-2.8v-2.5h2.8v-4.4L380.4,74.3z"/>
	<path class="st5" d="M405.4,88.7c0,6.8-4.7,9.8-9.2,9.8c-5,0-8.8-3.6-8.8-9.5c0-6.2,4-9.8,9.1-9.8C401.8,79.2,405.4,83,405.4,88.7z
		 M390.8,88.8c0,4,2.3,7.1,5.6,7.1c3.2,0,5.6-3,5.6-7.1c0-3.1-1.6-7.1-5.5-7.1C392.5,81.7,390.8,85.3,390.8,88.8z"/>
	<path class="st5" d="M409.1,94.6c1,0.6,2.7,1.3,4.4,1.3c2.4,0,3.6-1.2,3.6-2.7c0-1.6-0.9-2.5-3.4-3.4c-3.3-1.2-4.9-3-4.9-5.2
		c0-3,2.4-5.4,6.3-5.4c1.9,0,3.5,0.5,4.5,1.1l-0.8,2.4c-0.7-0.5-2.1-1.1-3.8-1.1c-2,0-3.1,1.1-3.1,2.5c0,1.5,1.1,2.2,3.5,3.1
		c3.2,1.2,4.8,2.8,4.8,5.5c0,3.2-2.5,5.5-6.9,5.5c-2,0-3.9-0.5-5.2-1.3L409.1,94.6z"/>
	<path class="st5" d="M424,96.1c0-1.4,0.9-2.4,2.2-2.4c1.4,0,2.2,1,2.2,2.4c0,1.3-0.9,2.4-2.2,2.4C424.9,98.4,424,97.4,424,96.1z
		 M424.9,90.6l-0.5-18.2h3.6l-0.5,18.2H424.9z"/>
</g>
<g class="st4">
	<path class="st5" d="M219.5,123.9c-1.2,0-2.2-0.4-2.9-1.1c-0.7-0.8-1-1.8-1-3.2c0-1.4,0.3-2.4,1-3.3c0.7-0.8,1.6-1.2,2.7-1.2
		c1,0,1.8,0.3,2.4,1s0.9,1.6,0.9,2.8v0.6h-6.1c0,1.2,0.3,2.1,0.8,2.7c0.5,0.6,1.3,0.9,2.3,0.9c0.5,0,0.9,0,1.3-0.1s0.8-0.2,1.4-0.4
		v0.7c-0.5,0.2-0.9,0.4-1.3,0.4S220,123.9,219.5,123.9z M219.2,115.8c-0.8,0-1.5,0.3-2,0.8c-0.5,0.5-0.8,1.3-0.9,2.3h5.3
		c0-1-0.2-1.8-0.6-2.3C220.6,116,220,115.8,219.2,115.8z"/>
	<path class="st5" d="M230.7,123.7v-5.5c0-0.9-0.2-1.5-0.5-1.9s-0.9-0.6-1.7-0.6c-1,0-1.8,0.3-2.2,0.8c-0.5,0.5-0.7,1.3-0.7,2.5v4.7
		h-0.8v-8.5h0.7l0.1,1.2h0c0.6-0.9,1.5-1.3,2.9-1.3c1.9,0,2.9,1,2.9,3.1v5.6H230.7z"/>
	<path class="st5" d="M244.3,123.7v-5.5c0-0.9-0.2-1.5-0.5-1.9s-0.9-0.6-1.7-0.6c-1,0-1.8,0.3-2.2,0.8c-0.5,0.5-0.7,1.3-0.7,2.5v4.7
		h-0.8v-12.2h0.8v3.9l0,1.1h0.1c0.3-0.5,0.7-0.9,1.2-1.1s1.1-0.3,1.8-0.3c1.9,0,2.9,1,2.9,3.1v5.6H244.3z"/>
	<path class="st5" d="M254.9,119.5c0,1.4-0.3,2.5-1,3.2s-1.6,1.2-2.8,1.2c-0.7,0-1.4-0.2-2-0.5c-0.6-0.4-1-0.9-1.3-1.5
		c-0.3-0.7-0.5-1.4-0.5-2.3c0-1.4,0.3-2.5,1-3.2s1.6-1.2,2.8-1.2c1.2,0,2.1,0.4,2.7,1.2S254.9,118.1,254.9,119.5z M248.2,119.5
		c0,1.2,0.3,2.1,0.8,2.7c0.5,0.7,1.2,1,2.2,1s1.7-0.3,2.2-1c0.5-0.7,0.8-1.6,0.8-2.7c0-1.2-0.3-2.1-0.8-2.7c-0.5-0.6-1.2-1-2.2-1
		s-1.7,0.3-2.2,1S248.2,118.3,248.2,119.5z"/>
	<path class="st5" d="M259.5,123.2c0.5,0,0.9,0,1.3-0.1v0.6c-0.4,0.1-0.8,0.2-1.3,0.2c-0.8,0-1.3-0.2-1.7-0.6
		c-0.4-0.4-0.5-1-0.5-1.9v-5.5H256v-0.5l1.3-0.4l0.4-1.9h0.4v2.1h2.5v0.7H258v5.4c0,0.7,0.1,1.1,0.3,1.4
		C258.6,123,259,123.2,259.5,123.2z"/>
	<path class="st5" d="M266,123.9c-1.2,0-2.2-0.4-2.9-1.1c-0.7-0.8-1-1.8-1-3.2c0-1.4,0.3-2.4,1-3.3c0.7-0.8,1.6-1.2,2.7-1.2
		c1,0,1.8,0.3,2.4,1s0.9,1.6,0.9,2.8v0.6h-6.1c0,1.2,0.3,2.1,0.8,2.7c0.5,0.6,1.3,0.9,2.3,0.9c0.5,0,0.9,0,1.3-0.1s0.8-0.2,1.4-0.4
		v0.7c-0.5,0.2-0.9,0.4-1.3,0.4S266.5,123.9,266,123.9z M265.8,115.8c-0.8,0-1.5,0.3-2,0.8c-0.5,0.5-0.8,1.3-0.9,2.3h5.3
		c0-1-0.2-1.8-0.6-2.3C267.1,116,266.5,115.8,265.8,115.8z"/>
	<path class="st5" d="M272.1,123.7h-0.8v-12.2h0.8V123.7z"/>
	<path class="st5" d="M278.4,123.9c-1.2,0-2.2-0.4-2.9-1.1c-0.7-0.8-1-1.8-1-3.2c0-1.4,0.3-2.4,1-3.3c0.7-0.8,1.6-1.2,2.7-1.2
		c1,0,1.8,0.3,2.4,1s0.9,1.6,0.9,2.8v0.6h-6.1c0,1.2,0.3,2.1,0.8,2.7c0.5,0.6,1.3,0.9,2.3,0.9c0.5,0,0.9,0,1.3-0.1s0.8-0.2,1.4-0.4
		v0.7c-0.5,0.2-0.9,0.4-1.3,0.4S278.9,123.9,278.4,123.9z M278.2,115.8c-0.8,0-1.5,0.3-2,0.8c-0.5,0.5-0.8,1.3-0.9,2.3h5.3
		c0-1-0.2-1.8-0.6-2.3C279.5,116,278.9,115.8,278.2,115.8z"/>
	<path class="st5" d="M289,121.5c0,0.8-0.3,1.3-0.9,1.8s-1.4,0.6-2.5,0.6c-1.1,0-2-0.2-2.7-0.5v-0.8c0.9,0.4,1.8,0.6,2.7,0.6
		c0.8,0,1.5-0.1,1.9-0.4c0.4-0.3,0.7-0.6,0.7-1.1c0-0.4-0.2-0.8-0.5-1.1c-0.3-0.3-0.9-0.6-1.7-0.9c-0.8-0.3-1.4-0.6-1.8-0.8
		s-0.6-0.5-0.8-0.8c-0.2-0.3-0.3-0.6-0.3-1c0-0.6,0.3-1.1,0.8-1.5c0.5-0.4,1.3-0.6,2.2-0.6c0.9,0,1.8,0.2,2.6,0.5l-0.3,0.7
		c-0.8-0.3-1.6-0.5-2.3-0.5c-0.7,0-1.2,0.1-1.6,0.3s-0.6,0.5-0.6,1c0,0.4,0.2,0.8,0.5,1.1c0.3,0.3,0.9,0.6,1.8,0.9
		c0.8,0.3,1.3,0.5,1.7,0.7c0.3,0.2,0.6,0.5,0.8,0.8C288.9,120.8,289,121.1,289,121.5z"/>
	<path class="st5" d="M299,123.9c-1.3,0-2.3-0.5-2.9-1.5h-0.1l0,0.7c0,0.4,0,0.8,0,1.3v3.2h-0.8v-12.3h0.7l0.1,1.2h0
		c0.6-0.9,1.5-1.4,2.8-1.4c1.1,0,2,0.4,2.6,1.1s0.9,1.8,0.9,3.3c0,1.4-0.3,2.5-0.9,3.2S300.1,123.9,299,123.9z M299,123.2
		c0.9,0,1.5-0.3,2-1s0.7-1.5,0.7-2.7c0-2.5-0.9-3.7-2.7-3.7c-1,0-1.7,0.3-2.2,0.8c-0.5,0.5-0.7,1.4-0.7,2.7v0.3
		c0,1.3,0.2,2.3,0.7,2.8S298,123.2,299,123.2z"/>
	<path class="st5" d="M310.1,123.7l-0.2-1.3h-0.1c-0.4,0.5-0.9,0.9-1.3,1.2c-0.5,0.2-1,0.3-1.6,0.3c-0.8,0-1.5-0.2-1.9-0.6
		c-0.5-0.4-0.7-1-0.7-1.8c0-0.8,0.3-1.5,1-1.9c0.7-0.5,1.7-0.7,3-0.7l1.6,0v-0.6c0-0.8-0.2-1.4-0.5-1.8s-0.9-0.6-1.6-0.6
		c-0.8,0-1.6,0.2-2.4,0.7l-0.3-0.7c0.9-0.4,1.9-0.7,2.8-0.7c0.9,0,1.6,0.2,2.1,0.7s0.7,1.2,0.7,2.3v5.6H310.1z M306.9,123.2
		c0.9,0,1.6-0.3,2.1-0.8s0.8-1.2,0.8-2.2v-0.8l-1.5,0.1c-1.2,0.1-2,0.2-2.6,0.6s-0.8,0.8-0.8,1.5c0,0.5,0.2,0.9,0.5,1.2
		C305.9,123,306.3,123.2,306.9,123.2z"/>
	<path class="st5" d="M320,115.2v0.5l-1.8,0.1c0.5,0.6,0.7,1.2,0.7,1.9c0,0.8-0.3,1.5-0.8,2c-0.5,0.5-1.3,0.8-2.2,0.8
		c-0.4,0-0.7,0-0.8,0c-0.3,0.2-0.5,0.4-0.7,0.6c-0.2,0.2-0.2,0.5-0.2,0.7c0,0.3,0.1,0.5,0.3,0.6c0.2,0.1,0.6,0.2,1,0.2h1.5
		c0.9,0,1.6,0.2,2.1,0.6c0.5,0.4,0.7,0.9,0.7,1.7c0,0.9-0.4,1.6-1.1,2.1s-1.8,0.7-3.1,0.7c-1.1,0-1.9-0.2-2.5-0.6s-0.9-1-0.9-1.7
		c0-0.6,0.2-1.1,0.5-1.5c0.4-0.4,0.9-0.6,1.5-0.8c-0.3-0.1-0.5-0.3-0.6-0.5c-0.2-0.2-0.2-0.4-0.2-0.7c0-0.6,0.4-1.1,1.1-1.5
		c-0.5-0.2-0.9-0.5-1.2-1c-0.3-0.4-0.4-0.9-0.4-1.5c0-0.8,0.3-1.5,0.8-2s1.3-0.8,2.2-0.8c0.6,0,1,0.1,1.3,0.2H320z M313.1,125.2
		c0,1.2,0.9,1.8,2.6,1.8c2.2,0,3.3-0.7,3.3-2.1c0-0.5-0.2-0.9-0.5-1.1c-0.3-0.2-0.9-0.3-1.7-0.3h-1.4
		C313.9,123.3,313.1,123.9,313.1,125.2z M313.8,117.9c0,0.7,0.2,1.2,0.6,1.5s0.9,0.5,1.6,0.5c0.7,0,1.3-0.2,1.6-0.5
		c0.4-0.4,0.6-0.9,0.6-1.6c0-0.7-0.2-1.3-0.6-1.6c-0.4-0.4-0.9-0.5-1.6-0.5c-0.7,0-1.2,0.2-1.6,0.6
		C314,116.6,313.8,117.2,313.8,117.9z"/>
	<path class="st5" d="M326.9,123.7l-0.2-1.3h-0.1c-0.4,0.5-0.9,0.9-1.3,1.2c-0.5,0.2-1,0.3-1.6,0.3c-0.8,0-1.5-0.2-1.9-0.6
		c-0.5-0.4-0.7-1-0.7-1.8c0-0.8,0.3-1.5,1-1.9c0.7-0.5,1.7-0.7,3-0.7l1.6,0v-0.6c0-0.8-0.2-1.4-0.5-1.8s-0.9-0.6-1.6-0.6
		c-0.8,0-1.6,0.2-2.4,0.7l-0.3-0.7c0.9-0.4,1.9-0.7,2.8-0.7c0.9,0,1.6,0.2,2.1,0.7s0.7,1.2,0.7,2.3v5.6H326.9z M323.8,123.2
		c0.9,0,1.6-0.3,2.1-0.8s0.8-1.2,0.8-2.2v-0.8l-1.5,0.1c-1.2,0.1-2,0.2-2.6,0.6s-0.8,0.8-0.8,1.5c0,0.5,0.2,0.9,0.5,1.2
		C322.7,123,323.2,123.2,323.8,123.2z"/>
	<path class="st5" d="M336.1,123.7v-5.5c0-0.9-0.2-1.5-0.5-1.9s-0.9-0.6-1.7-0.6c-1,0-1.8,0.3-2.2,0.8s-0.7,1.3-0.7,2.5v4.7h-0.8
		v-8.5h0.7l0.1,1.2h0c0.6-0.9,1.5-1.3,2.9-1.3c1.9,0,2.9,1,2.9,3.1v5.6H336.1z"/>
	<path class="st5" d="M342.8,115.1c0.6,0,1.1,0.1,1.6,0.3s0.8,0.6,1.2,1.1h0c0-0.7,0-1.3,0-1.9v-3.1h0.8v12.2h-0.5l-0.2-1.3h-0.1
		c-0.6,1-1.6,1.5-2.8,1.5c-1.2,0-2.1-0.4-2.7-1.1s-0.9-1.8-0.9-3.2c0-1.5,0.3-2.6,0.9-3.4S341.6,115.1,342.8,115.1z M342.8,115.8
		c-0.9,0-1.6,0.3-2.1,1s-0.7,1.6-0.7,2.8c0,2.4,0.9,3.6,2.8,3.6c1,0,1.7-0.3,2.1-0.8s0.7-1.5,0.7-2.8v-0.1c0-1.3-0.2-2.3-0.7-2.8
		S343.7,115.8,342.8,115.8z"/>
	<path class="st5" d="M356.2,119.5c0,1.4-0.3,2.5-1,3.2s-1.6,1.2-2.8,1.2c-0.7,0-1.4-0.2-2-0.5s-1-0.9-1.3-1.5s-0.5-1.4-0.5-2.3
		c0-1.4,0.3-2.5,1-3.2s1.6-1.2,2.8-1.2c1.2,0,2.1,0.4,2.7,1.2S356.2,118.1,356.2,119.5z M349.5,119.5c0,1.2,0.3,2.1,0.8,2.7
		s1.2,1,2.2,1s1.7-0.3,2.2-1s0.8-1.6,0.8-2.7c0-1.2-0.3-2.1-0.8-2.7s-1.2-1-2.2-1s-1.7,0.3-2.2,1S349.5,118.3,349.5,119.5z"/>
	<path class="st5" d="M366.1,123.9c-1.2,0-2.2-0.4-2.9-1.1s-1-1.8-1-3.2c0-1.4,0.3-2.4,1-3.3s1.6-1.2,2.7-1.2c1,0,1.8,0.3,2.4,1
		s0.9,1.6,0.9,2.8v0.6H363c0,1.2,0.3,2.1,0.8,2.7s1.3,0.9,2.3,0.9c0.5,0,0.9,0,1.3-0.1s0.8-0.2,1.4-0.4v0.7
		c-0.5,0.2-0.9,0.4-1.3,0.4S366.6,123.9,366.1,123.9z M365.9,115.8c-0.8,0-1.5,0.3-2,0.8s-0.8,1.3-0.9,2.3h5.3c0-1-0.2-1.8-0.6-2.3
		S366.7,115.8,365.9,115.8z"/>
	<path class="st5" d="M377.4,123.7v-5.5c0-0.9-0.2-1.5-0.5-1.9s-0.9-0.6-1.7-0.6c-1,0-1.8,0.3-2.2,0.8s-0.7,1.3-0.7,2.5v4.7h-0.8
		v-8.5h0.7l0.1,1.2h0c0.6-0.9,1.5-1.3,2.9-1.3c1.9,0,2.9,1,2.9,3.1v5.6H377.4z"/>
	<path class="st5" d="M388.5,123.9c-1.2,0-2.2-0.4-2.9-1.1s-1-1.8-1-3.2c0-1.4,0.3-2.4,1-3.3s1.6-1.2,2.7-1.2c1,0,1.8,0.3,2.4,1
		s0.9,1.6,0.9,2.8v0.6h-6.1c0,1.2,0.3,2.1,0.8,2.7s1.3,0.9,2.3,0.9c0.5,0,0.9,0,1.3-0.1s0.8-0.2,1.4-0.4v0.7
		c-0.5,0.2-0.9,0.4-1.3,0.4S389,123.9,388.5,123.9z M388.3,115.8c-0.8,0-1.5,0.3-2,0.8s-0.8,1.3-0.9,2.3h5.3c0-1-0.2-1.8-0.6-2.3
		S389,115.8,388.3,115.8z"/>
	<path class="st5" d="M397,115.9h-2v7.8h-0.8v-7.8h-1.6v-0.5l1.6-0.3v-0.7c0-1,0.2-1.8,0.6-2.3s1-0.7,1.9-0.7c0.5,0,0.9,0.1,1.4,0.2
		l-0.2,0.7c-0.4-0.1-0.8-0.2-1.2-0.2c-0.6,0-1,0.2-1.3,0.5s-0.4,0.9-0.4,1.7v0.8h2V115.9z"/>
	<path class="st5" d="M402.1,123.9c-1.2,0-2.2-0.4-2.9-1.1s-1-1.8-1-3.2c0-1.4,0.3-2.4,1-3.3s1.6-1.2,2.7-1.2c1,0,1.8,0.3,2.4,1
		s0.9,1.6,0.9,2.8v0.6H399c0,1.2,0.3,2.1,0.8,2.7s1.3,0.9,2.3,0.9c0.5,0,0.9,0,1.3-0.1s0.8-0.2,1.4-0.4v0.7
		c-0.5,0.2-0.9,0.4-1.3,0.4S402.6,123.9,402.1,123.9z M401.9,115.8c-0.8,0-1.5,0.3-2,0.8s-0.8,1.3-0.9,2.3h5.3c0-1-0.2-1.8-0.6-2.3
		S402.6,115.8,401.9,115.8z"/>
	<path class="st5" d="M410.8,123.9c-1.2,0-2.2-0.4-2.9-1.1s-1-1.8-1-3.2c0-1.4,0.4-2.5,1.1-3.3s1.7-1.2,2.9-1.2
		c0.7,0,1.4,0.1,2.1,0.4l-0.2,0.7c-0.7-0.2-1.4-0.4-1.9-0.4c-1,0-1.8,0.3-2.4,1s-0.8,1.6-0.8,2.8c0,1.1,0.3,2,0.8,2.7s1.3,1,2.3,1
		c0.8,0,1.5-0.1,2.1-0.4v0.7C412.4,123.7,411.7,123.9,410.8,123.9z"/>
	<path class="st5" d="M417.3,123.2c0.5,0,0.9,0,1.3-0.1v0.6c-0.4,0.1-0.8,0.2-1.3,0.2c-0.8,0-1.3-0.2-1.7-0.6s-0.5-1-0.5-1.9v-5.5
		h-1.3v-0.5l1.3-0.4l0.4-1.9h0.4v2.1h2.5v0.7h-2.5v5.4c0,0.7,0.1,1.1,0.3,1.4S416.8,123.2,417.3,123.2z"/>
	<path class="st5" d="M420.3,112.9c0-0.5,0.2-0.8,0.5-0.8c0.2,0,0.3,0.1,0.4,0.2s0.1,0.3,0.1,0.6c0,0.2,0,0.4-0.1,0.6
		s-0.2,0.2-0.4,0.2C420.5,113.6,420.3,113.4,420.3,112.9z M421.2,123.7h-0.8v-8.5h0.8V123.7z"/>
	<path class="st5" d="M425.9,123.7l-3.3-8.5h0.8l2.2,5.8c0.3,0.7,0.5,1.4,0.7,1.9h0c0.2-0.7,0.4-1.4,0.7-2l2.2-5.8h0.8l-3.3,8.5
		H425.9z"/>
	<path class="st5" d="M438.4,119.5c0,1.4-0.3,2.5-1,3.2s-1.6,1.2-2.8,1.2c-0.7,0-1.4-0.2-2-0.5s-1-0.9-1.3-1.5s-0.5-1.4-0.5-2.3
		c0-1.4,0.3-2.5,1-3.2s1.6-1.2,2.8-1.2c1.2,0,2.1,0.4,2.7,1.2S438.4,118.1,438.4,119.5z M431.7,119.5c0,1.2,0.3,2.1,0.8,2.7
		s1.2,1,2.2,1s1.7-0.3,2.2-1s0.8-1.6,0.8-2.7c0-1.2-0.3-2.1-0.8-2.7s-1.2-1-2.2-1s-1.7,0.3-2.2,1S431.7,118.3,431.7,119.5z"/>
</g>
</svg>
