<?xml version="1.0" encoding="utf-8"?>
<!-- Generator: Adobe Illustrator 24.0.2, SVG Export Plug-In . SVG Version: 6.00 Build 0)  -->
<svg version="1.1" id="Layer_1" xmlns="http://www.w3.org/2000/svg" xmlns:xlink="http://www.w3.org/1999/xlink" x="0px" y="0px"
	 viewBox="0 0 658.3 192.9" style="enable-background:new 0 0 658.3 192.9;" xml:space="preserve">
<style type="text/css">
	.st0{fill-rule:evenodd;clip-rule:evenodd;fill:#00D1BF;}
	.st1{fill:#7AEFE1;}
	.st2{fill:none;}
</style>
<title>bgBanner1</title>
<rect y="0.4" class="st0" width="658.3" height="192.9"/>
<g>
	<path class="st1" d="M-32.3,328.2c19.1-48.2,94.7-110,115.6-126.1c1.3,1.6,3,2.8,4.8,3.4c-1.7,2.7-4.1,5.9-6.6,7
		c0.8,0.5,2.1,0.3,3.9-0.6c-1.8,1.7-4.5,4.9-6.9,5.9c0.7,0.1,2.2,0.3,3.7-0.6c-1.8,1.9-5.4,4.4-7.3,5.2c0.8,0.3,2.6,0,3.8-0.2
		c-1.6,1.9-2.7,2.2-4.5,3.2c1,0.1,2.3-0.1,3-0.3c-2,1.8-5.3,4-7.6,4.5c0.8,0.6,2.8,1.1,4.5,0.7c-3.5,3.4-7.8,5.5-12.3,5.2
		c2.6,2.4,7,1.9,10.7,0.3c-1.1,1.9-5.2,4.7-8.4,5.7c1.9-0.1,5-0.5,8.2-2.4c-2.3,2.4-4.6,4.2-7.6,5.3c1,0.5,3.9-0.2,5.1-0.7
		c-1.2,1-3.4,2.6-5.7,3.7c2.8,0.5,7.7-2.8,10.5-6.4c-0.9,3.6-4.1,6.8-5.7,8.6c2.5-1.5,4.9-3,7-7.4c-0.2,2.2-1.8,6.9-5.1,10.7
		c12.8-12.4,18.5-27.5,21-38.4c1.4-0.5,2.6-1.1,3.7-2.2c-0.2,3-2.3,4.8-4.6,7.1c3.2-1,6.3-2.8,7.5-4.4c-1.2,3.3-5.7,7.9-9.2,10.3
		c4-1,7.9-3.5,10.8-6.1c-0.6,3.5-4,7.9-6.9,10.5c4-1.3,7.3-4.2,10.6-7.8c-1.2,4.5-5.1,8.6-8.1,10.7c2.9-0.6,4.4-1.7,6-3.7
		c-0.3,2.5-2.3,5.6-4.6,6.5c1.9,0.1,3.1-0.5,4.5-1.6c-0.8,2-3,6.5-4.7,7.9c1.4-0.3,3.3-1.6,4.4-3c-1.3,3-4.3,7.4-8.4,9.9
		c1.3-0.6,4.1-1.4,6-3.1c-1.4,3.1-4.4,4.8-6.4,6.2c5.9-1.3,10.7-4.5,12.9-7.3c-0.3,2.1-2.3,3.4-3.8,5.4c5.2-1.8,7.7-6,9-13.1
		c1,3.5,0.9,7.1,0.5,10.7c3.2-3.8,2-11.5,1.6-15.7c0-0.4-0.1-0.8-0.1-1.3c1.1-0.8,2.3-2.1,3.4-3.7c0.1,1.4-0.9,4.9-2.8,7.5
		c4.2-3.1,5.5-7.9,5.6-10.2c0.3,2.2,1.2,5,0.8,7.9c1.1-2.6,2.4-5.7,1.7-10.4c0.8,1.5,2.4,4.1,1.8,5.9c3.2-4.3,0.8-8.5,0.3-11
		c2.4,1,3.4,3.2,4.4,5.3c0.6-2.6-0.5-5.6-2.6-7.4c1.4,0.2,3,1,4.3,1.5c-1.1-1.6-3.7-2.9-5.7-4.9c1.2-0.2,2.8,0.3,4.7,0.7
		c3.2,4.9,3.9,11,0.8,14.3c2.6-0.7,4.4-3.8,4.4-5.5c0.9,1.4,1.4,2.6,1.1,4.1c1-0.6,1-3.1,0.3-4.6c3.3,2.1,3.5,7.2,1.3,10
		c3.6-1.8,4.1-5.6,3.1-8.1c2,2,2.7,5.1,2.5,7.8c1.1-0.9,2.1-3.8,1.4-6.4c1.7,2.3,2.8,4.2,2.9,6.5c0.8-2.6,0.4-5.4-2.9-10
		c1.9,0.3,4.7,4.7,5.1,6.5c-0.1-3.4-0.6-8.3-7.7-15.9c2.5,0.9,6.1,4.2,7.9,7.4c-0.8-4.4-3.9-8.2-9.3-12.5c2.5-0.4,5.5,2,8.1,3.7
		c-7-6.9-13.1-10.5-22.4-11.5c2.7-1.1,5.3-0.2,7.7,0.4c-2.3-1.1-7-2.2-12.2-2.9c0.1-1-0.2-2.2-1.2-3c-0.7-0.6,3.7,0.8,4.7,2.8
		c0.4-1.5,0-2.2-0.9-3c1.7,0.4,2.2,1.6,3.1,2.8c0.1-0.9-0.6-3.4-2.1-4.3c2.6,0.6,4,3,5,5c0.4-2.3-0.5-4-1.4-5.8
		c2,0.6,3.7,1.8,4.9,3.9c-0.1-2.7-0.7-4.6-2.7-6c2.1-0.2,3.8,0.6,4.1,3.2c1.9-1.3,1.2-3.1,1.9-4.2c1.4,2.7,0.3,4.1-0.6,5.6
		c2.2-0.7,5.3-3.1,5.9-6.2c0.9,1.5,0.4,4-0.8,5.7c3.3-1.6,1.9-4.7,3-3.8c1.6,1.4,2.7,2.9,3.4,5.4c0.9-1.3-0.5-4.9-2.1-5.8
		c2.3,0.6,4.5,1.5,6.6,2.7c-1.4-1.4-2.9-2.9-4.5-4c2.9,0.2,6.2,0,9.8,0.7c-2.9-1.5-7.2-2.2-10.4-2.3c1-0.3,3.1-1.5,5-1.5
		c-2.5-1.4-5-0.9-7-1c2-1.7,5.3-1.6,7.7-2.1c-3.6-0.7-10.1-0.5-17,2c0.8-0.5,6.1-3.7,9.7-4.5c-6.8-0.3-22.5,5.1-26.2,6.8
		c-2.2,1-7.1,2.7-12,4.6c3.8-3,7.7-4.8,8.3-5.3c0.8-0.7,3.2,0.6,4.2,0.5c-0.8-0.5-1.6-1.5-1.7-1.8c1-0.5,3.6,0,5.4,0.1
		c-1.6-1.2-2.8-1.8-3.1-3.6c1.6-0.5,4.2,0.1,6.3,1.4c-0.3-1-1.7-2.8-2.1-4.5c-0.2-0.7,4.7,1.3,6.5,2.2c0-0.4-1.1-1.8-1.7-2.6
		c1.4,0.4,2.7,0.9,4,1.3c-0.3-0.9-1.7-2.5-1.5-3.4c2.2,0.6,4.2,1.7,6.3,2.3c-1.5-1.6-3.8-4.2-4.4-6.4c1.9,1.2,4.6,2.1,6.8,2.4
		c-1-0.7-1.4-1.9-1.2-2.3c1.4,0,2.8,1,4,1.4c-0.1-0.3-1-2.4-1.2-2.7c1.8,0.4,3.4,1.5,5.2,2.5c-1.1-1.6-2.6-3.3-4.6-4.8
		c2,0.6,5.5,1.9,7.6,3.4c-0.8-1.7-2.5-3.2-5.1-4.4c4.6-0.4,9.5-0.2,13.2,0.4c-1-0.3-6-3.3-10.4-2.9c0.3-0.4,1-1.1,2.3-1.3
		c-3.3-0.5-6.8-0.5-9.8,0.7c0.5-0.9,2.6-1.8,4.5-2.6c-3.2,0.1-6.5,0.5-13.6,5.2c1.1-0.9,1.9-2.9,5-5.1c-6.6,2-9.9,8.3-12.2,9.8
		c-4.2,2.9-8.9,6.4-13.2,10.3c9.1-12.5,10.9-21.8,11.1-27.2c0.2-4.3,1.1-12-2.7-15.8c0.8,3.7,1,7.3,0.1,10.8
		c-1.8-7.1-4.9-11.3-10.9-13c1.8,2,4.2,3.2,4.7,5.4c-2.7-2.8-8.3-5.9-15.1-7.2c2.3,1.4,5.8,3.1,7.6,6.2c-2.2-1.7-5.5-2.5-6.9-3.1
		c4.8,2.5,8.4,6.9,10.1,9.9c-1.3-1.4-3.6-2.7-5.1-3c1.9,1.4,4.8,5.9,5.8,7.9c-1.6-1.1-3.1-1.7-5.2-1.5c2.6,0.9,5.1,4,5.6,6.5
		c-1.9-2.1-3.8-3.2-7.1-3.7c3.5,2.1,8.2,6.2,9.8,10.7c-3.9-3.6-7.9-6.5-12.5-7.7c3.4,2.5,7.6,6.9,8.5,10.4c-2.7-2-6.1-4-9.7-5.2
		c-0.1-0.8-0.3-1.5-0.4-2.1c-1.8-7.4,0.2-11.2-2.3-16.4c-0.6,2.5-0.9,5-1.8,6.2c-1-3.4-1.1-6.9-2.1-9.2c0,1.7,0,3.9-0.5,5.4
		c-0.8-3.4-3.2-6.7-6-8.1c1.6,2.6,3.3,5.2,3.1,8.3c-2.3-2.4-5.2-8-11-8.1c2,0.7,3.8,4.3,4.9,6.2c-4.3-4.3-7.9-5.3-10.9-6.3
		c3,1.8,5.3,4.8,7.4,6.8c-2.4-1.6-7.7-4.1-12.6-2.4c3.4,0.1,7.3,1.9,8.6,3c-3.2-0.4-5.9,0.4-7,1.3c1.4,0.4,2.6,1,3,2.1
		c-2.3,1.9-5.9,2.1-5.4,2.1c3.8,0.7,7.8,0.1,11.4-0.5c-1.8,1.4-4.4,2.8-6.8,3.7c2.9,0.2,4.2,0.3,6.7-0.6c-1.4,1.2-2.9,2.4-3.5,3.6
		c4.5-2.8,7.3,0.2,10.6-1.1c-0.7,0.8-2,1.7-3,2.3c1.9-0.3,3.7-1.2,5.5,0.1c-1.4,2.1-4.2,3-6,3.4c2.1,0.4,5.2,0.8,7.8,1.7
		c-1.2,0.6-4.3,1.1-5.5,1.6c0.7,0,3.2,0.4,3.9,0.7c-0.3,0.4-2.7,0.6-2.9,1c2.3,0.6,3.2,1.6,4.8,2.6c-0.5,0.7-3,0.8-2.2,1.1
		c1.4,0.6,2.6,2.5,3.1,2.7c2.6,0.8,0.5,1.7-1.3,2.9c-4.8-8.8-12.4-18.5-23.9-23.9c3.6,2.3,6,6.2,6.7,8.4c-2.7-3.4-5.1-3.8-7.6-4.1
		c1.8,1.1,5.2,2.7,6.7,5.9c-3.2-2.2-8.1-3.2-10.4-1.4c2.2,0,4.4,0.5,5.7,1c-1.2,0-3.8,0.7-4.6,1.7c2.8-0.4,5.1,0.3,7.6,1.7
		c-3.2-0.4-5.9,0.7-7.6,1.5c2.9-0.5,7.1,0.4,8.4,1.7c-1.2,0-2.5,0.3-3.7,0.7c-0.9-0.5-1.8-0.9-2.7-1.3c-4.6-1.8-8.9-3.2-13.8-4.3
		c-5.5-1.2-11.8,1.8-16.8,1c3.4,1.7,7.2,1.2,11.1,1.3c-5.2,1.7-14.1,4.6-19,5.3c6.3,1.9,14.6-2,20.5-2.7c-2.7,2.2-5.4,3.5-11.7,6.2
		c4.6-0.3,8.3-2.2,10.3-2.8c-1,1.6-2.7,2.8-4.4,3.3c4.3,0.1,8.7-2.8,11.5-4.9c-1.9,3.6-5.8,6.6-8.6,7.7c5.9-1,9.4-5.6,12.4-6.2
		c-1.2,1.8-5.2,5.2-7.8,6.9c2.9-0.9,6.1-1.8,9.3-4.2c-1.2,1.7-2.2,2.5-3.8,3.6c2,0,6.4-1.5,7.8-3.1c-1.3,2.1-4.2,2.8-6.7,5.9
		c1.8-1.2,6.5-3,10.7-2.8c-1.9,1.3-3.3,2.1-4.9,3.6c2.1-0.4,6-1.9,6.9-2.6c-0.1,0.5-0.8,2-1.8,2.9c-7.1-0.7-13.6,0-17.7-1.3
		c0.5,0.4,3.2,1.8,3.9,2.2c-8.3-0.2-27.9,9.4-32.4,21.3c2.3-2.9,4.3-6.4,8.2-7.8c-0.9,1.1-1.5,2.3-1.4,3.9c1.1-2.1,6-6.2,7.5-6.1
		c-0.7,1.1-2.2,2.6-2,3.5c2.2-2.7,6.3-5.8,6-3.3c1.8-2,4.4-4.6,6.7-5.8c-1.8,1.7-2,2.7-2.4,4.5c1.1-2.2,6.4-4.3,7.8-5.3
		c-1.4,2.7-1.1,3.6-1.9,5.9c-2.4-0.1-5,0.2-7.6,1.5c3.7-0.5,5.6,0.5,6.9,0.4c-8.2,1.2-10.9,3.1-13.4,5.2c1.9-0.7,4.1-1.4,5-1.1
		c-2.9,1.1-5.6,3.5-7.8,6c1.1-0.8,2.1-0.7,2.5-0.6c-3.4,2.6-5.3,8.1-5.9,9c2.4-2.9,5.9-6.4,9.6-9.1c-1.2,2.5-1.5,4.8-1.1,6.6
		c0.7-2.5,2.4-5.8,3.6-7.6c-0.6,2.5-0.6,4.8-0.4,6.7c0.7-1.9,1.2-3.8,2.3-5.3c0.1,0.3,0.7,2.4,0.8,2.7c0.6-1,1.1-2.7,2.1-3.7
		c0.3,0.2,0.8,1.3,0.5,2.5c1.5-1.6,3-4.2,3.6-6.3c0.9,2.1,0.8,5.5,0.7,7.7c1.2-1.9,2-4,3.3-5.9c0.7,0.5,0.7,2.7,1,3.5
		c0.8-1.2,1.4-2.5,2.2-3.6c0.1,1,0.1,2.7,0.4,3c0.9-1.9,3.2-6.6,3.5-6c0.7,1.5,0.8,3.8,1.2,4.8c0.8-2.4,2.3-4.5,3.8-5.3
		c0.9,1.5,0.4,2.8-0.1,4.7c1.3-1.3,2.9-3.4,4-3.7c0.1,0.3,0.2,1.5-0.1,2.5c0.8-0.6,1.8-3.1,2.8-3.2c0.9,0,6.1-1.7,11.5-1.7
		c0,0.2,0,0.4,0,0.6c-6.5,2.9-16.3,6.2-22.3,9c-4,1.8-7.8,3.4-11.9,4.4c-3.6,0.9-7.7,2.4-12.2,3.1c2.7,0.8,4.9,0.8,7.4,1.6
		c-3.5,2.3-5.4,2.7-8.8,4.2c2.9,0.6,6.8-0.5,9.2-1.3c-3.8,2.7-7.2,6.6-7.8,10.2c2.9-3.7,6.5-7.3,10.3-10.1
		c-2.5,3.9-4.2,6.6-3.9,10.4c0.5-2.4,2.4-4.9,3.8-6.5c-0.4,2.3-0.8,4.9-1.5,7.6c2-2.5,3.3-6.3,4.1-9.4c-0.3,2.4-0.6,4.5-0.3,6.3
		c-33.4,28.8-75.5,77.2-89.3,98.7C-43.5,325.9-32.7,329.9-32.3,328.2L-32.3,328.2z M119.7,194.7c-1.1-0.2-2.3-0.3-3.5-0.4
		c-0.2-0.7-0.6-1.2-0.7-1.5C117,193,118.8,193.3,119.7,194.7L119.7,194.7z M114.2,194.1c-0.6,0-1.2-0.1-1.8-0.1
		c-0.2-0.2-0.3-0.4-0.5-0.6C112.6,193.6,113.4,193.8,114.2,194.1L114.2,194.1z M110.1,193.8c-0.3,0-0.6,0-0.9,0
		c0.2-0.2,0.4-0.3,0.6-0.2C109.9,193.6,110,193.7,110.1,193.8L110.1,193.8z M93.4,205.9c0.1,0,0.2,0,0.3-0.1c0,1.6-0.3,3.5-1.2,5.8
		C93,209.4,93.2,207.5,93.4,205.9L93.4,205.9z M88,173.7c0.6,0.4,1.5,0.6,2.3,0.7c-0.1,0.6-0.8,0.9-1.2,1.3
		C88.7,175,88.4,174.4,88,173.7L88,173.7z M90.1,177.9c0.1,0.1,0.2,0.3,0.2,0.4c0.1,0.2,0.4,0.9,0.7,1.8
		C90.8,179.5,90.5,178.7,90.1,177.9L90.1,177.9z M84.8,183.7l-0.2-0.2c0.2,0.1,0.3,0.2,0.5,0.2C85,183.7,84.9,183.7,84.8,183.7
		L84.8,183.7z M71.4,170.6l-0.3-0.2C71.2,170.5,71.4,170.5,71.4,170.6L71.4,170.6L71.4,170.6z M100.8,203.7c0.1,0,0.2,0,0.2,0
		l-0.1,0.2L100.8,203.7L100.8,203.7z M101.9,205.3c1.3-0.6,2.2-0.8,1.5,0.8c-0.1,0.3,0.1,1,0.3,1.8
		C103.1,207.1,102.5,206.2,101.9,205.3L101.9,205.3z M104.3,209.1c0.4-0.4,1-0.8,1.4-0.9c-0.1,1,0,1.8-0.2,2.8
		C105.1,210.3,104.7,209.7,104.3,209.1L104.3,209.1z M106,211.9c0.5-0.5,1.1-1,1.3-1c-0.1,0.3-0.5,1.1-0.9,1.8
		C106.3,212.4,106.2,212.2,106,211.9L106,211.9z M106.7,213.2c1.1-0.9,2.5-2.2,3.4-2.7c-0.6,1.6-1.5,3.2-2.3,4.7
		C107.4,214.6,107.1,213.9,106.7,213.2L106.7,213.2z M108.1,215.9c1.3-1,3.1-2,4.8-2.2c-0.1,1.8-1.8,2.8-3.2,4.1
		c1.1-0.6,2.5-1.2,3.5-1.4c-1.6,1.1-2.2,2.6-3.2,4.1C109.5,219,108.8,217.5,108.1,215.9L108.1,215.9z M110.8,222.6l0.1-0.1
		L110.8,222.6L110.8,222.6L110.8,222.6z M111.4,224.4c0.7-0.3,1.3-0.6,2-0.9c-0.6,0.6-1.2,1.1-1.7,1.7
		C111.5,225,111.4,224.7,111.4,224.4L111.4,224.4z M99,176.2c0.1-1.9,0.1-3.8,0.1-5.6C102.6,175.9,101,176.7,99,176.2L99,176.2z
		 M99.1,169.3c0-1.4-0.1-2.7-0.1-4c2.3,1.8,4.1,3.5,4.5,6.1C102.2,170.4,100.8,169.8,99.1,169.3L99.1,169.3z M99,164.7
		c-0.1-1.6-0.2-3-0.4-4.2c3.4,2.5,6.8,5.8,8,8.3C105.2,167.3,102.2,165.7,99,164.7L99,164.7z M83.5,187.3c-2-1.8-4.1-3.2-6.1-4.2
		C80.4,184.2,82.1,185.8,83.5,187.3L83.5,187.3z M73.5,181.4c-0.6-0.2-1.3-0.4-1.9-0.6c1.1,0,2.2-0.2,3.4-0.5
		C74.8,180.7,74.1,181.1,73.5,181.4L73.5,181.4z M67.9,179.9c-0.8-0.1-1.5-0.3-2.3-0.4c1-0.3,1.9-0.7,2.6-1
		C68.1,178.9,68,179.4,67.9,179.9L67.9,179.9z M74.6,204c-0.9,0.5-1.7,1.1-2.6,1.7c0.8-1.3,1.9-2.5,3.2-3.7
		C75.1,202.5,74.9,203.3,74.6,204L74.6,204z M69.7,207.3c-0.5,0.3-0.9,0.7-1.4,1c0.4-0.9,0.9-1.7,1.4-2.4
		C69.7,206.2,69.7,206.7,69.7,207.3L69.7,207.3z M62.3,212.7c-0.3,0.2-0.6,0.5-0.9,0.7c0.2-0.4,0.5-0.8,0.8-1.3
		C62.2,212.3,62.3,212.5,62.3,212.7L62.3,212.7z M57.4,216.5l-0.4,0.3c0.1-0.3,0.2-0.6,0.2-1C57.3,216.1,57.4,216.3,57.4,216.5
		L57.4,216.5z M55.3,218.2c-0.3,0.3-0.7,0.5-1,0.8c0.2-1.2,0.4-2.4,0.3-3.4C54.9,216.4,55.2,217.3,55.3,218.2L55.3,218.2z M51.9,221
		c-0.5,0.4-1,0.9-1.6,1.3c0.2-1.6,0.7-3.4,1.2-4.7C51.7,218.5,51.9,219.7,51.9,221L51.9,221z M49.5,223c-0.5,0.4-1,0.9-1.6,1.3
		c0.3-2.2,0.9-4.6,1.4-6.2C49.3,219.8,49.3,221.6,49.5,223L49.5,223z M115.8,202.3c3.6,1.5,7,3.4,9.6,5.7c0.3,0.3,0.7,0.6,1,0.9
		c-2.2-1.3-4.9-2.1-7.8-4.7C117.9,203.7,117,203,115.8,202.3L115.8,202.3z M70.2,190.5c-0.8,0-1.5,0-2.3,0
		C68.7,190.4,69.5,190.4,70.2,190.5L70.2,190.5z M63,190.8c-0.5,0-1,0.1-1.5,0.1c0.3-0.2,0.6-0.4,1-0.5
		C62.7,190.3,62.9,190.5,63,190.8L63,190.8z M58.8,191.2l-0.7,0.1c0.2-0.2,0.5-0.4,0.7-0.6V191.2L58.8,191.2z M56.3,191.4l-1,0.1
		c0.5-0.4,1-0.9,1.4-1.2C56.6,190.7,56.4,191,56.3,191.4L56.3,191.4z M53.2,191.8c-1.5,0-3.8-0.5-6.5-0.6c2.1-2.2,5.8-4.3,7.1-3.6
		C55,188.2,54.1,190.1,53.2,191.8z"/>
	<path class="st1" d="M-50.4,335.6C-10.3,273-1.4,133.2-0.1,95.4c-3-0.1-5.7-1.1-8-2.7c-1.6,4.2-3.5,9.7-2.6,13.6
		c-1.3-0.5-2.1-2.2-2.6-5.1c-0.4,3.5-1.9,9.3-1.1,13c-0.7-0.6-2.2-2.3-2.4-4.8c-0.7,3.8-0.7,9.9,0,12.8c-1-0.7-2.2-3-3-4.6
		c-0.9,3.5-0.3,5,0,7.9c-0.9-1.1-1.8-2.7-2.1-3.8c-0.5,3.8-0.2,9.5,1.2,12.7c-1.4-0.5-3.6-2.4-4.6-4.6c-1.1,7,0.1,13.7,4.2,18.7
		c-5-1-8.1-6.6-9.3-12.2c-1.2,2.9-1.1,10.1,0.4,14.5c-1.5-2.3-3.6-6.2-4.1-11.6c-0.9,4.8-1.1,8.9,0.2,13.2c-1.5-0.7-3.1-4.7-3.4-6.6
		c-0.2,2.3-0.1,6.2,0.5,9.8c-2.9-2.8-3.2-11.3-1.4-17.5c-3.5,4-4.5,10.4-5.3,13.9c-0.4-4.1-0.6-8.3,2.8-14.4
		c-2.5,2.1-6.5,7.9-8.3,14.9c3.8-25.4,16.6-44.6,27.2-56.6c-0.6-2.1-0.8-3.9-0.5-6.1c-3.4,2.8-3.7,6.6-4.4,11.3
		c-1.5-4.6-2-9.6-1.1-12.5c-2.8,4.1-4.4,13.2-4.4,19.3c-2.2-5.5-2.5-12.1-1.9-17.6c-3.6,3.7-5.9,11.4-6.4,16.9
		c-1.8-5.7-1.2-12.1,0.2-18.9c-4.3,5.1-5.7,13.1-5.8,18.4c-1.8-3.8-1.8-6.6-0.7-10.2c-2.7,2.4-4.6,7.4-3.8,10.8
		c-1.7-2.1-2-4.1-1.9-6.6c-1.6,2.5-5,9-5.3,12c-0.8-1.8-0.8-5.2-0.2-7.6c-2.3,4-5,11.2-4.6,18.1c-0.3-2-1.8-6-1.3-9.6
		c-2.4,4.2-2,9.2-1.9,12.6c-3.4-8-3.8-16.2-2.3-21.2c-2.3,2.1-2.1,5.6-3.1,9c-2.3-7.6,0.5-14,7.7-21.4c-4.8,1.8-9.1,4.9-12.9,8.5
		c1.7-7,11.7-11.9,17-15c0.5-0.3,1.1-0.6,1.6-0.9c0.1-2,0.5-4.5,1.5-7c-1.7,1.1-5,5.1-6.4,9.5c0-7.5,4.6-12.9,7.2-15.1
		c-2.9,1.5-6.8,2.8-9.9,5.7c2.1-3.4,4.6-7.5,10.7-10.6c-2.4,0.4-6.8,0.6-8.4,2.8c2.3-7.4,9.3-8,12.6-9.6c-3.2-1.9-6.5-1.3-9.8-0.7
		c2.5-2.9,6.9-4.1,10.8-3.2c-1.4-1.5-3.6-2.7-5.4-3.8c2.8,0,6.5,1.8,10.5,2.6c-0.8-1.6-2.7-3.1-4.7-4.9c-8.4,0.4-16.1,4.7-17.3,11.1
		c-1.4-3.7,0.7-8.4,2.7-9.8c-2.4,0.1-4.2,0.6-5.7,2.1c-0.1-1.8,2.8-3.7,5.1-4.2c-5.2-2-11.4,1.9-12.7,6.9c-0.9-5.7,3.1-9.5,6.9-10.5
		c-4.1-0.7-8.3,1.1-11.2,3.6c0.1-2.1,2.7-5.6,6.2-7c-4.1-0.1-7.3,0.2-10.1,2.1c2.3-3.1,5.9-5,14.1-5.1c-2-2-9.5-1.6-11.8-0.5
		c4-2.7,10.3-6.2,25-4.3c-3.2-2.2-9.9-3.6-15.3-3c5.7-2.7,12.8-2.3,22.4,0.4c-1.6-3.2-6.9-4.8-11.1-6.4c13.9,2.3,23.3,6.5,32.1,16.5
		c-0.9-4-4.1-6.3-6.9-8.7c3.3,1.8,8.4,6.4,13.6,11.8c1.1-1,2.7-1.6,4.5-1.1c1.4,0.3-4.1-3.6-7.2-3.1c1.4-1.7,2.6-1.8,4.3-1.4
		c-1.9-1.6-3.8-1.2-5.8-1.2c0.9-0.8,4.5-2.1,6.8-1.2c-2.8-2.6-6.8-2.2-10.1-1.6c2.4-2.4,5.1-2.8,8-3.3c-2.4-1.8-5.1-2.8-8.7-2.5
		c3.2-2.2,5.9-3,9.2-1.9c-1.5-2.6-3.9-3.9-7.2-2.1c-0.1-3.3,2.5-4,3.3-5.7c-4.4,0.6-5.1,3-6,5.3c-1-3.1-0.8-8.8,2.3-12
		c-2.5,0.3-5.1,2.9-6,5.7c-0.9-5.1,3.8-6.2,2-6.6c-2.9-0.7-5.7-0.8-9.1,0.5c0.7-2.1,6.1-3.5,8.5-2.4c-2.7-2.1-5.6-4-8.6-5.4
		c2.8,0.5,5.8,1,8.4,1.9c-2.7-3.2-5.2-7.2-9-10.8c4.1,2.2,8.6,6.5,11.4,10.3c-0.5-1.5-0.9-4.8-2.4-7.1c3.7,1.7,5.2,5.1,7,7.3
		c0.3-3.7-2.6-7.5-4-10.7c3.9,3.6,9.1,11.3,11.9,21.6c-0.1-1.3-0.8-10.3-2.9-15c6,7.7,12.9,30.5,14,36.2c0.6,3.3,2.8,10.6,4.7,17.8
		c0.3-6.9-0.9-13-0.8-14.2c0.1-1.5-3.4-3.2-4.1-4.5c1.3,0.5,3.1,0.5,3.6,0.4c-0.3-1.6-3-4.1-4.7-6.2c2.7,0.9,4.5,1.8,6.8,0.7
		c-0.8-2.3-3.6-4.8-7-6.2c1.4-0.4,4.7-0.4,7.1-1.3c1-0.4-5.4-4.4-8-5.8c0.5-0.3,2.9-0.2,4.4-0.2c-1.6-1.3-3.3-2.3-4.8-3.6
		C-10,15.8-7,16-6.1,15c-2.5-2-5.5-3.4-8-5.4c3.2,0.4,8.1,1,11.3-0.2c-3-1.1-6.4-3.6-8.5-6C-9.6,4.1-8,3.4-7.6,3
		c-1.2-1.5-3.6-2.4-5-3.4c0.5-0.2,3.6-0.8,4.1-0.9c-2-1.7-4.7-2.7-7.2-4c2.8,0,6,0.3,9.5,1.4C-8.6-5.8-13-8.7-16.5-10
		c2.7-0.4,5.9,0.2,9.3,2.3c-3.4-5.7-7.7-11.2-11.6-15c1.2,1,8.9,4.3,12.1,9.6c0.2-0.7,0.4-2-0.5-3.8c3.3,3.5,6.3,7.6,7.4,12
		C0.7-6.3,0-9.5-0.7-12.4c2.6,3.8,4.8,8,5.3,20.1c0.1-2,1.9-4.6,1.8-10.1C9.6,7,5,16.1,5.1,20C5.2,27.2,5,35.7,4.2,44
		c7-21.1,16.3-30.9,22.4-35.7c4.8-3.8,13-11.4,20.7-10c-4.9,2.2-9.4,4.9-12.7,8.9c9.8-3.8,17.3-3.8,24.3,1.9C55,8.7,51.5,7,48.6,8.2
		c5.6,0.8,13.8,4.8,21,11.6c-3.5-1.5-8.5-4.2-13.5-3.7c3.9,1.1,7.4,4.3,9.4,5.5c-6.9-3.4-15.1-4-20-3.5c2.7,0.4,6.1,1.9,7.7,3.5
		c-3.2-1.1-10.9-0.6-14-0.1c2.6,1,4.6,2.2,6.2,4.8c-3.3-2.3-9-2.5-12.2-1c4,0.5,6.8,1.8,10.2,5.1C38,28.1,29.4,26,22.8,28
		c7.5,1.5,14.1,3.8,19.5,8.1c-5.8-1.9-14.4-3-19.3-1.1c4.6,1.5,9.8,3.8,14.2,7c1.1-0.5,2-1,2.8-1.3c10.1-4.1,12.9-9.6,21-11
		c-2.4,2.8-5.1,5.2-5.7,7.3c4.8-1.7,9-4.5,12.6-5.2c-2,1.4-4.5,3.3-5.8,5.1c4.6-2,10.5-1.9,14.5,0.2c-4.4,0.3-8.8,0.6-12.3,3.3
		c4.7,0.7,13.7-0.6,18.6,6c-2.5-1.8-8.2-0.8-11.4-0.5c8.6,1.4,12.8,4.7,16.5,7.5c-4.7-2-10.1-2.2-14.1-2.9
		c3.9,1.4,11.2,5.5,13.3,12.8c-3-3.9-8.2-6.9-10.7-7.5c3.1,3.4,4.6,7.2,4.3,9.3c-1.7-1.3-3.3-2.1-4.9-1.8c-0.3,4.2,2.5,8.7,2.1,8.1
		c-4-3.8-6.6-9.1-9-13.6c-0.2,3.3,0.4,7.4,1.4,11c-2.7-3.2-3.9-4.7-4.9-8.3c-0.2,2.6-0.4,5.4-1.3,7.1c-0.4-7.6-6.4-8.4-7.5-13.3
		c-0.3,1.5-0.3,3.7-0.2,5.4c-1.3-2.5-1.7-5.3-4.7-6.3c-1.2,3.4,0,7.4,1.1,9.9c-2.3-2.2-5.3-5.3-8.5-7.7c0.4,1.9,2.4,5.9,2.7,7.8
		C46.5,62.6,44,60,43,59.5c-0.2,0.7,1.6,3.6,1.3,4.3c-2.6-2.2-4.6-2.4-7-3.3c-0.3,1.2,1.6,4.2,0.5,3.5c-1.9-1.1-5.1-0.8-5.8-1.4
		c-3-2.4-2.4,0.8-2.3,4C44,64.3,61.7,65,77.6,74c-5.7-2.3-12.3-1.8-15.3-0.8c6.2,0.3,8.7,2.8,11.1,5.4c-2.8-1.2-7.5-3.8-12.6-2.9
		C66,77.5,71.3,82.5,71,86.6c-1.9-2.6-4.3-4.7-5.9-5.8c1,1.4,2.4,5,1.9,6.7c-1.9-3.6-4.7-5.7-8.3-7.5c3.1,3.4,4.1,7.5,4.6,10.1
		c-1.8-3.8-6.3-7.9-9-8.4c1,1.4,1.8,3.1,2.3,4.8c1.4,0.6,2.6,1.3,3.7,2.1c6,3.9,11.2,7.6,16.6,12.5c6,5.4,7.8,15.2,12.9,20.4
		c-4.9-2.5-7.4-7.5-10.8-11.9c2.4,7.5,6.4,20.2,9.8,26.6c-7.5-5.7-9.9-18.7-14-26.2c-0.3,5,0.4,9.2,2.6,18.9
		c-3.5-5.6-4.4-11.5-5.3-14.3c-1,2.5-1,5.5-0.2,7.9c-3.7-4.9-3.9-12.4-3.9-17.5c-2.6,5.3-2.8,12.2-1.8,16.4
		c-3.8-7.7-1.4-15.6-3.2-19.7c-1.1,2.9-1.7,10.4-1.5,14.8c-1.4-4.1-3.1-8.6-2.9-14.4c-1,2.8-1,4.6-1,7.4c-1.7-2.3-3.6-8.6-2.9-11.7
		c-1.4,3.3,0.3,7.3-1.3,12.8c-0.1-3.1-2-10-5.7-14.9c0.1,3.2,0.3,5.7-0.2,8.7c-1.3-2.9-2.9-8.6-2.7-10.2C44.2,95,43,97.1,42.7,99
		c6.8,7.7,11.3,15.8,16.3,19.6c-1-0.3-4.8-2.2-5.8-2.7c7.2,9.5,12.4,40.4,2.2,55.6c1.5-5.1,3.9-10.3,2.2-16.1
		c-0.5,1.9-1.5,3.6-3.4,4.9c1.5-3,2.3-12.2,0.9-13.8c-0.7,1.8-1.2,4.7-2.4,5.3c1.3-4.9,1.5-12.2-1.2-9.7c0.8-3.8,1.6-9,1.1-12.7
		c-0.5,3.6-1.5,4.6-3.3,6.6c1.7-3.2-0.3-11-0.4-13.5c-2,3.9-3.3,4.3-5.3,7.1c2,2.7,3.9,6,4.6,10.1c-2.5-4.7-5.2-6.1-6.3-7.7
		c5.4,10.6,5.5,15.3,5.1,20c-0.8-2.8-1.8-5.9-2.9-6.8c1.2,4.3,0.6,9.4-0.5,14.1c-0.1-1.9-0.9-3-1.4-3.5c-0.2,6.2-5,13-5.6,14.4
		c1.4-5.3,2.5-12.2,2.6-18.8c-1.9,3.6-4.3,5.7-6.8,6.7c2.4-2.9,4.8-7.7,5.9-10.5c-2.5,2.7-5.1,4.6-7.4,6.1c1.6-2.4,3.4-4.6,4.2-7.1
		c-0.4,0.2-3.4,1.3-3.9,1.4c0.7-1.6,2.3-3.6,2.6-5.5c-0.5-0.2-2.2,0.1-3.4,1.5c0.7-3.1,2.3-7,4.3-9.5c-3.2,0.7-7.1,3.7-9.5,5.6
		c1.1-3,3-5.7,4.2-8.7c-1.2-0.4-3.7,1.4-4.9,1.8c0.7-1.9,1.7-3.7,2.4-5.6c-1.2,0.8-3.3,2.1-3.8,2.1c1.5-2.6,5-9.3,4-9.1
		c-2.4,0.4-5.1,2.2-6.6,2.6c2.2-3,3.4-6.5,3-8.9c-2.5,0.2-3.6,1.9-5.4,4.1c0.4-2.7,1.5-6.2,1-7.8c-0.4,0.1-1.9,1.1-2.8,2.2
		c0-1.5,2.2-4.7,1.4-5.9c-0.7-1.1-3.1-8.5-7.7-14.8c-0.2,0.2-0.5,0.4-0.7,0.5c2.1,10,6.4,24.3,8.1,33.5c1.2,6.1,2.6,11.9,4.8,17.5
		c2,4.9,3.7,11,6.6,16.8c-3.2-2.5-5-5.1-8.1-7.2c0.3,6,1.4,8.6,2.5,13.8c-3.1-3-5.1-8.4-6.2-11.8c0.1,6.7-1.7,13.9-5.3,17.6
		c1.8-6.5,3.1-13.7,3.2-20.5c-2.4,6.2-4.2,10.4-8.8,13.3c2.3-2.6,3.8-6.9,4.4-9.8c-2.3,2.3-5,5.1-7.7,8.1c1.2-4.5,4.6-9.1,7.5-12.6
		c-2.5,2.3-4.8,4.4-7.2,5.6c-5.7,63-26.8,152.6-40.3,186.6C-38.4,346.8-52.1,337.5-50.4,335.6L-50.4,335.6z M-21.8,46.8
		c1.1,1.2,2.3,2.5,3.4,3.7c1-0.3,2-0.3,2.3-0.5C-17.7,48.6-19.5,46.7-21.8,46.8L-21.8,46.8z M-16.5,52.7c0.6,0.7,1.1,1.3,1.6,2
		c0.4,0,0.8,0,1.1,0.1C-14.6,54.2-15.5,53.4-16.5,52.7L-16.5,52.7z M-12.8,57.3c0.3,0.3,0.5,0.7,0.8,1c0.1-0.3,0-0.6-0.3-0.9
		C-12.4,57.4-12.6,57.4-12.8,57.3L-12.8,57.3z M-12.9,86.8c-0.1-0.1-0.1-0.3-0.2-0.4c-1.9,1.4-3.9,3.3-5.7,6.2
		C-16.7,90.3-14.7,88.4-12.9,86.8L-12.9,86.8z M29,66.2c-1-0.4-1.9-1.3-2.7-2.1c-0.6,0.6-0.4,1.7-0.5,2.5C26.9,66.5,28,66.3,29,66.2
		L29,66.2z M22.4,67.3c-0.2,0-0.4,0-0.7,0.1c-0.3,0-1.3,0.3-2.8,0.7C20,67.8,21.2,67.5,22.4,67.3L22.4,67.3z M20.1,78.3h0.4
		c-0.2-0.1-0.5-0.3-0.7-0.4C19.9,78.1,20,78.2,20.1,78.3L20.1,78.3z M46.6,83.1l0.5,0.1c-0.2-0.1-0.4-0.2-0.6-0.3L46.6,83.1
		L46.6,83.1z M-16.6,76.5c-0.1-0.1-0.1-0.2-0.2-0.3l-0.1,0.3H-16.6L-16.6,76.5z M-19.4,76.5c-0.4-2-0.8-3.2-2.1-1
		c-0.2,0.4-1.3,0.7-2.3,1.2C-22.4,76.6-20.9,76.5-19.4,76.5L-19.4,76.5z M-25.8,76.7c0.1-0.8,0.1-1.8-0.1-2.3
		c-1.1,0.9-2.1,1.5-3,2.6C-27.9,76.9-26.9,76.8-25.8,76.7L-25.8,76.7z M-30.5,77.2c0.1-1,0.2-2.1,0.1-2.4c-0.3,0.4-0.9,1.5-1.4,2.6
		C-31.4,77.3-30.9,77.2-30.5,77.2L-30.5,77.2z M-32.6,77.4c0.1-2.1,0.4-4.7,0.3-6.1c-1.4,2-2.5,4.5-3.5,6.6
		C-34.8,77.7-33.7,77.6-32.6,77.4L-32.6,77.4z M-36.9,78.1c0-2.4-0.3-5.2-1.5-7.4c-2,1.6-1.7,4.4-2.1,7.1c-0.2-1.7-0.7-3.9-1.3-5.3
		c0.1,2.8-1.2,4.7-2.1,7.1C-41.7,79-39.4,78.5-36.9,78.1L-36.9,78.1z M-47,80.5l-0.1-0.2L-47,80.5L-47,80.5L-47,80.5z M-49.6,81.4
		c-0.2-1.1-0.4-2.1-0.6-3c-0.2,1.1-0.4,2.3-0.6,3.5C-50.4,81.7-50,81.5-49.6,81.4L-49.6,81.4z M16.9,55.4c2.1-1.7,4.3-3.3,6.4-4.8
		C14.3,51,14.7,53.7,16.9,55.4L16.9,55.4z M24.9,49.6c1.6-1.1,3.2-2.2,4.7-3.2c-4-1.1-7.5-1.9-10.8-0.1C21.1,47,23,48.1,24.9,49.6
		L24.9,49.6z M30.4,45.9c1.9-1.2,3.7-2.3,5.3-3.1c-5.7-1.9-12.4-3.1-16.3-2.4C22.2,40.8,26.5,43,30.4,45.9L30.4,45.9z M17,82.9
		c3.7,0.9,7.1,2.1,10.1,3.6C23.3,83.9,19.9,83.2,17,82.9L17,82.9z M32.2,89.6c0.8,0.5,1.6,1.1,2.3,1.7c-0.9-1.3-1.6-2.8-2.3-4.3
		C31.9,87.5,32.1,88.6,32.2,89.6L32.2,89.6z M38.7,94.8c0.8,0.8,1.6,1.6,2.4,2.4c-0.6-1.4-0.7-2.7-0.9-3.9
		C39.7,93.8,39.1,94.3,38.7,94.8L38.7,94.8z M4.9,107.2c0.1,1.5,0.1,2.9,0.2,4.4c0.8-2.1,1.4-4.3,1.6-6.8
		C6.2,105.3,5.6,106.2,4.9,107.2L4.9,107.2z M5.2,115.7c0,0.8,0,1.7,0,2.5c0.6-1.2,1.2-2.5,1.6-3.7C6.5,114.7,5.9,115.2,5.2,115.7
		L5.2,115.7z M5.1,128.8c0,0.5,0,1.1,0,1.6c0.3-0.6,0.6-1.3,0.8-2C5.6,128.5,5.4,128.7,5.1,128.8L5.1,128.8z M4.8,137.6v0.8
		c0.3-0.4,0.6-0.7,0.9-1.1C5.4,137.4,5.1,137.5,4.8,137.6L4.8,137.6z M4.6,141.5c0,0.6-0.1,1.2-0.1,1.9c1.2-1.3,2.5-2.5,3.7-3.2
		C6.9,140.5,5.7,140.9,4.6,141.5L4.6,141.5z M4.1,147.8c-0.1,1-0.1,1.9-0.2,2.9c1.7-1.6,3.3-3.6,4.5-5.3
		C7.2,146,5.7,146.8,4.1,147.8L4.1,147.8z M3.8,152.3c-0.1,1-0.2,2-0.3,2.9c2.3-2.2,4.6-4.9,6-6.8C7.7,149.8,5.6,151.4,3.8,152.3
		L3.8,152.3z M-27.5,57.6c-4.8-3-9.8-5.4-14.7-6.4c-0.6-0.1-1.3-0.3-1.9-0.3c3.3,1.5,6.6,3.9,12,5.2C-30.9,56.4-29.3,56.9-27.5,57.6
		L-27.5,57.6z M24.4,101c0.6,0.9,1.3,1.8,1.9,2.7C25.7,102.6,25,101.8,24.4,101L24.4,101z M30.1,109.7c0.4,0.6,0.8,1.3,1.2,1.9
		c0-0.5-0.1-1.1-0.3-1.6C30.8,109.6,30.5,109.5,30.1,109.7L30.1,109.7z M33.2,114.9l0.5,0.8c0.1-0.5,0.1-0.9,0.1-1.4L33.2,114.9
		L33.2,114.9z M34.9,118l0.7,1.3c0.1-1,0.2-1.9,0.3-2.6C35.6,117.1,35.3,117.5,34.9,118L34.9,118z M37.1,121.9c1.3,1.8,3.8,4,6.1,7
		c0.8-4.3,0.2-10.3-1.8-11.3C39.8,116.8,38.2,119.4,37.1,121.9z"/>
</g>
<g>
	<path class="st1" d="M480.7-175.6c23.7,46,20.8,143.6,19.3,170c-2.1-0.1-4,0.4-5.7,1.4c-0.9-3.1-1.8-7-0.9-9.6
		c-0.9,0.3-1.6,1.4-2.1,3.4c-0.1-2.5-0.7-6.6,0.1-9.1c-0.5,0.4-1.7,1.4-2,3.2c-0.3-2.7,0.2-6.9,0.8-8.9c-0.8,0.4-1.7,2-2.4,3
		c-0.4-2.5,0.1-3.5,0.5-5.5c-0.7,0.7-1.5,1.8-1.7,2.5c-0.1-2.7,0.5-6.6,1.6-8.7c-1,0.2-2.6,1.4-3.5,2.9c-0.3-4.9,0.9-9.5,4.1-12.7
		c-3.5,0.3-6.1,4.1-7.2,7.9c-0.7-2.1-0.1-7.1,1.2-10.1c-1.2,1.5-2.9,4.1-3.6,7.8c-0.3-3.4-0.2-6.2,1-9.2c-1.1,0.4-2.4,3-2.8,4.4
		c0-1.6,0.3-4.3,1-6.8c-2.2,1.7-2.9,7.6-2.1,12.1c-2.2-3-2.4-7.5-2.8-10c-0.5,2.8-1,5.7,1,10.2c-1.6-1.6-4-5.9-4.8-10.9
		c1,17.9,8.6,32,15.2,41.1c-0.5,1.4-0.8,2.7-0.8,4.2c-2.1-2.2-2.1-4.9-2.3-8.1c-1.3,3.1-2,6.6-1.6,8.6c-1.7-3-2.2-9.4-1.8-13.7
		c-1.9,3.7-2.5,8.3-2.5,12.1c-2.2-2.8-3.3-8.3-3.4-12.1c-1.5,3.7-1.5,8.2-1,13c-2.6-3.9-3.1-9.5-2.8-13.1c-1.5,2.5-1.7,4.4-1.1,7
		c-1.7-1.8-2.7-5.4-1.9-7.7c-1.3,1.3-1.7,2.7-1.8,4.5c-1-1.9-2.9-6.5-2.9-8.7c-0.7,1.2-0.9,3.5-0.6,5.3c-1.3-3-2.7-8.1-2-12.9
		c-0.4,1.4-1.6,4-1.5,6.6c-1.4-3.1-0.8-6.5-0.5-8.9c-2.9,5.3-3.7,11-3,14.5c-1.4-1.6-1.1-4-1.6-6.5c-2.1,5.1-0.6,9.7,4,15.4
		c-3.2-1.5-6-4-8.4-6.7c0.7,4.9,7.3,9,10.8,11.5c0.3,0.2,0.7,0.5,1.1,0.7c-0.1,1.4,0.1,3.2,0.6,5c-1.1-0.9-3.1-3.9-3.8-7
		c-0.5,5.2,2.3,9.3,4,11c-1.9-1.2-4.6-2.4-6.5-4.6c1.3,2.5,2.7,5.5,6.7,8.1c-1.7-0.4-4.7-0.8-5.6-2.5c1.1,5.3,5.9,6.1,8.1,7.5
		c-2.3,1.1-4.6,0.5-6.9-0.2c1.6,2.2,4.5,3.3,7.3,2.9c-1,0.9-2.7,1.7-4,2.3c1.9,0.2,4.6-0.9,7.5-1.1c-0.6,1.1-2.1,2-3.6,3.1
		c-5.8-0.8-10.9-4.3-11.3-8.8c-1.2,2.4,0,5.8,1.3,7c-1.7-0.2-2.9-0.7-3.8-1.8c-0.2,1.2,1.7,2.8,3.2,3.2c-3.8,1.1-7.8-2.1-8.4-5.6
		c-1,3.9,1.5,6.8,4.1,7.7c-2.9,0.2-5.7-1.3-7.6-3.3c0,1.5,1.5,4.1,3.9,5.3c-2.8-0.2-5-0.6-6.9-2.1c1.4,2.3,3.8,3.9,9.5,4.4
		c-1.5,1.2-6.7,0.5-8.3-0.4c2.6,2.1,6.7,5,17.1,4.6c-2.4,1.3-7.1,1.8-10.8,1.1c3.8,2.3,8.7,2.4,15.6,1.2c-1.3,2.1-5.1,2.9-8.1,3.7
		c9.8-0.7,16.6-3,23.4-9.4c-0.9,2.7-3.3,4.1-5.4,5.6c2.4-1,6.3-3.9,10.2-7.3c0.7,0.7,1.8,1.3,3,1.1c1-0.2-3.1,2.3-5.2,1.7
		c0.8,1.3,1.7,1.4,2.9,1.3c-1.4,1-2.7,0.6-4.1,0.5c0.6,0.6,3,1.7,4.7,1.3c-2.1,1.6-4.8,1.1-7.1,0.5c1.5,1.8,3.4,2.3,5.3,2.8
		c-1.8,1.1-3.8,1.6-6.2,1.2c2.1,1.7,3.9,2.5,6.3,1.9c-1.2,1.7-3,2.5-5.1,1c-0.3,2.3,1.5,2.9,1.9,4.2c-3-0.7-3.3-2.4-3.8-4.1
		c-0.9,2.1-1.1,6,0.8,8.5c-1.7-0.3-3.3-2.3-3.8-4.3c-0.9,3.5,2.3,4.5,0.9,4.7c-2.1,0.3-4,0.2-6.3-1c0.4,1.5,4,2.8,5.8,2.2
		c-2,1.3-4.1,2.4-6.3,3.2c2-0.1,4.1-0.3,6-0.8c-2.1,2-4.1,4.7-7,6.9c3-1.2,6.4-4,8.6-6.4c-0.4,1-0.9,3.3-2.2,4.8
		c2.7-1,4-3.2,5.3-4.6c0,2.6-2.3,5.1-3.5,7.1c2.9-2.3,7-7.3,9.7-14.2c-0.2,0.9-1.2,7.1-3,10.2c4.7-4.9,10.9-20.3,12.1-24.2
		c0.7-2.3,2.6-7.2,4.4-12.1c-0.2,4.8-1.4,9-1.4,9.8c0,1.1-2.5,2-3.1,2.8c1-0.3,2.2-0.2,2.5-0.1c-0.3,1.1-2.4,2.7-3.7,4
		c2-0.5,3.2-0.9,4.8,0c-0.7,1.5-2.8,3.1-5.2,3.8c1,0.4,3.2,0.6,4.8,1.3c0.7,0.3-4,2.7-5.9,3.5c0.3,0.2,2,0.3,3,0.4
		c-1.2,0.8-2.5,1.4-3.6,2.2c0.9,0.3,3,0.3,3.5,1.1c-1.9,1.3-4,2-5.9,3.2c2.2,0,5.7-0.1,7.8,0.9c-2.1,0.6-4.6,2.1-6.3,3.6
		c1.2-0.3,2.3,0.2,2.6,0.6c-0.9,1-2.6,1.4-3.7,2.1c0.3,0.2,2.4,0.8,2.8,0.9c-1.5,1.1-3.4,1.6-5.3,2.3c1.9,0.2,4.2,0.2,6.7-0.3
		c-1.8,1.1-5,2.8-7.6,3.5c1.8,0.5,4.1,0.3,6.6-1c-2.7,3.7-6.1,7.2-9,9.7c0.9-0.6,6.4-2.4,9-5.9c0.1,0.5,0.2,1.4-0.6,2.6
		c2.5-2.2,4.9-4.8,5.9-7.9c0.3,1-0.4,3.2-1,5.1c2-2.5,3.9-5.3,5-13.6c0,1.4,1,3.3,0.6,7.1c2.8-6.3,0.2-12.9,0.5-15.6
		c0.6-5,1-10.9,0.9-16.7c3.5,15.1,9.3,22.5,13.2,26.2c3.1,3,8.3,8.7,13.7,8.3c-3.3-1.8-6.2-4-8.2-7c6.6,3.3,11.7,3.7,17,0.3
		c-2.7,0.1-5.2,1.1-7.1,0c3.9-0.2,9.9-2.4,15.3-6.7c-2.6,0.8-6.2,2.3-9.6,1.7c2.7-0.5,5.5-2.5,6.9-3.2c-5,1.9-10.7,1.8-14.1,1.1
		c1.9-0.1,4.4-0.9,5.6-1.9c-2.3,0.6-7.6-0.3-9.7-0.8c1.9-0.6,3.3-1.2,4.6-2.9c-2.4,1.4-6.4,1.2-8.6-0.1c2.8-0.1,4.9-0.8,7.4-2.9
		c-3.9,1.2-10,2.1-14.5,0.4c5.3-0.6,10.1-1.7,14-4.3c-4.2,0.9-10.2,1.1-13.4-0.5c3.3-0.7,7-2,10.3-3.9c0.7,0.4,1.3,0.8,1.9,1.1
		c6.7,3.5,8.3,7.5,13.9,9c-1.5-2.1-3.2-3.9-3.5-5.4c3.2,1.5,6,3.7,8.4,4.4c-1.3-1.1-2.9-2.6-3.7-3.9c3.1,1.7,7.2,2,10.1,0.8
		c-3-0.5-6.1-1-8.3-3.1c3.3-0.1,9.5,1.3,13.3-2.9c-1.9,1.1-5.7,0-7.9-0.4c6.1-0.4,9.2-2.5,11.9-4.1c-3.4,1.1-7.1,0.9-10,1.1
		c2.8-0.7,8.1-3.1,10.1-8c-2.3,2.5-6.2,4.3-7.9,4.5c2.4-2.2,3.6-4.7,3.6-6.2c-1.2,0.8-2.5,1.3-3.5,0.9c0.1-2.9,2.3-5.8,2-5.5
		c-3,2.4-5.2,5.9-7.1,8.9c0.1-2.3,0.8-5.1,1.7-7.5c-2.1,2.1-3,3-3.9,5.4c0-1.8,0.1-3.7-0.5-5c-0.8,5.2-5,5.4-6.1,8.7
		c-0.1-1.1,0-2.6,0.2-3.8c-1,1.6-1.5,3.6-3.7,4.1c-0.6-2.4,0.5-5.1,1.4-6.8c-1.7,1.3-4,3.4-6.4,4.8c0.4-1.3,2-3.9,2.4-5.2
		c-0.5,0.5-2.4,2.1-3.1,2.5c-0.1-0.5,1.4-2.4,1.1-2.9c-1.9,1.3-3.3,1.4-5.1,1.9c-0.1-0.8,1.4-2.8,0.6-2.4c-1.4,0.7-3.6,0.3-4.1,0.6
		c-2.3,1.4-1.6-0.7-1.3-2.9c9.8,2.2,22.1,2.8,33.7-2.4c-4.1,1.2-8.6,0.5-10.7-0.5c4.4,0.2,6.2-1.4,8.1-3.1c-2,0.6-5.5,2.1-8.9,1.2
		c3.8-0.9,7.7-4,7.8-6.9c-1.5,1.7-3.3,3-4.5,3.7c0.8-0.9,2-3.3,1.7-4.5c-1.5,2.4-3.6,3.6-6.3,4.7c2.4-2.2,3.4-4.9,3.8-6.7
		c-1.5,2.5-4.9,5.1-6.8,5.2c0.8-0.9,1.4-2,1.9-3.2c1-0.4,1.9-0.8,2.7-1.2c4.4-2.3,8.3-4.6,12.3-7.6c4.5-3.4,6.4-10,10.3-13.3
		c-3.5,1.4-5.6,4.7-8.3,7.5c2.2-5,5.8-13.6,8.5-17.8c-5.6,3.5-8.1,12.3-11.4,17.3c0.1-3.5,0.9-6.3,3-12.9c-2.8,3.7-3.8,7.7-4.6,9.6
		c-0.5-1.8-0.3-3.9,0.4-5.5c-2.9,3.1-3.6,8.4-3.9,11.9c-1.5-3.8-1.2-8.7-0.2-11.5c-3.1,5.1-2,10.7-3.5,13.4
		c-0.6-2.1-0.5-7.3-0.1-10.4c-1.2,2.7-2.7,5.8-2.9,9.8c-0.5-2-0.4-3.3-0.2-5.2c-1.3,1.5-3.1,5.8-2.8,7.9c-0.7-2.4,0.7-5.1,0-9
		c-0.3,2.1-2,6.8-4.9,9.9c0.3-2.2,0.6-3.9,0.5-6.1c-1.1,1.9-2.6,5.8-2.5,6.9c-0.3-0.4-1-1.9-1-3.3c5.2-4.9,8.9-10.2,12.6-12.5
		c-0.7,0.1-3.5,1.2-4.2,1.5c5.6-6.1,11.3-27.2,5.2-38.5c0.7,3.6,2,7.4,0.5,11.3c-0.3-1.4-0.8-2.6-2-3.6c0.9,2.2,0.8,8.6-0.3,9.6
		c-0.4-1.3-0.5-3.3-1.3-3.8c0.6,3.5,0.3,8.6-1.5,6.7c0.3,2.7,0.5,6.4,0,8.9c-0.1-2.5-0.7-3.3-1.9-4.8c1,2.3-0.9,7.6-1.1,9.4
		c-1.1-2.8-2-3.2-3.2-5.3c1.6-1.8,3.1-3.9,3.9-6.7c-2,3.1-4,3.9-4.9,5c4.4-7,4.8-10.3,4.8-13.5c-0.7,1.9-1.6,4-2.4,4.5
		c1.1-2.9,1-6.5,0.6-9.8c-0.2,1.3-0.8,2-1.2,2.3c0.3-4.3-2.6-9.4-3-10.4c0.6,3.7,0.9,8.6,0.6,13.2c-1.1-2.6-2.6-4.3-4.3-5.1
		c1.5,2.2,2.8,5.7,3.4,7.7c-1.5-2.1-3.2-3.5-4.8-4.7c1,1.8,2,3.4,2.5,5.2c-0.3-0.2-2.3-1.1-2.6-1.2c0.4,1.2,1.3,2.6,1.4,4
		c-0.4,0.1-1.5-0.2-2.2-1.3c0.3,2.2,1.2,5,2.4,6.9c-2.2-0.7-4.7-3.1-6.3-4.5c0.6,2.2,1.7,4.2,2.3,6.3c-0.9,0.2-2.4-1.2-3.3-1.6
		c0.4,1.4,0.9,2.7,1.3,4c-0.8-0.6-2.1-1.7-2.5-1.7c0.9,1.9,2.9,6.8,2.2,6.6c-1.6-0.5-3.4-1.9-4.4-2.2c1.3,2.2,1.9,4.7,1.5,6.4
		c-1.7-0.3-2.4-1.5-3.5-3.2c0.1,1.9,0.7,4.4,0.2,5.5c-0.3-0.1-1.3-0.9-1.8-1.7c-0.1,1,1.2,3.4,0.6,4.2c-0.6,0.7-2.7,5.7-6.3,9.8
		c-0.1-0.1-0.3-0.3-0.4-0.4c2.1-6.8,6-16.4,7.8-22.7c1.2-4.2,2.6-8.1,4.5-11.8c1.7-3.3,3.3-7.4,5.6-11.3c-2.4,1.5-3.8,3.2-6.1,4.5
		c0.6-4.1,1.5-5.9,2.7-9.4c-2.3,1.9-4.1,5.5-5,7.8c0.5-4.6-0.3-9.7-2.5-12.6c0.9,4.6,1.3,9.7,0.9,14.4c-1.3-4.5-2.2-7.5-5.2-9.8
		c1.5,2,2.2,5,2.4,7.1c-1.4-1.8-3.1-3.8-4.8-6.1c0.6,3.2,2.6,6.6,4.4,9.3c-1.6-1.8-3-3.4-4.6-4.4c0.1-44.1-8.7-107.6-15.8-132.2
		C489.7-182.6,479.6-177,480.7-175.6L480.7-175.6z M481.7,26.7c0.9-0.8,1.7-1.6,2.6-2.4c0.7,0.3,1.3,0.4,1.6,0.5
		C484.7,25.7,483.2,26.9,481.7,26.7L481.7,26.7z M485.7,22.9c0.4-0.4,0.9-0.8,1.3-1.3c0.3,0,0.5,0,0.8,0
		C487.2,22,486.5,22.5,485.7,22.9L485.7,22.9z M488.6,20c0.2-0.2,0.4-0.4,0.6-0.6c0,0.2,0,0.4-0.2,0.6C488.9,19.9,488.8,20,488.6,20
		L488.6,20z M490.4-0.5c-0.1,0.1-0.1,0.2-0.2,0.3c-1.2-1.1-2.5-2.6-3.6-4.7C488.1-3.2,489.3-1.7,490.4-0.5L490.4-0.5z M518.2,16.5
		c-0.7,0.2-1.4,0.8-2,1.3c-0.4-0.5-0.2-1.2-0.2-1.8C516.8,16.2,517.5,16.4,518.2,16.5L518.2,16.5z M513.7,15.4c-0.2,0-0.3,0-0.5-0.1
		c-0.2,0-0.9-0.3-1.9-0.6C512.1,14.9,512.9,15.1,513.7,15.4L513.7,15.4z M512.8,7.5h0.3c-0.2,0.1-0.3,0.2-0.5,0.2
		C512.7,7.7,512.8,7.6,512.8,7.5L512.8,7.5z M531.5,6l0.4-0.1C531.8,6,531.6,6,531.5,6L531.5,6L531.5,6z M487.2,6.4
		c-0.1,0.1-0.1,0.1-0.2,0.2V6.4H487.2L487.2,6.4z M485.3,6.2c-0.4,1.4-0.8,2.2-1.6,0.6c-0.1-0.3-0.8-0.6-1.5-1
		C483.2,6,484.2,6.1,485.3,6.2L485.3,6.2z M480.9,5.6c0,0.6,0,1.3-0.2,1.6c-0.7-0.7-1.3-1.2-1.9-2C479.4,5.4,480.1,5.5,480.9,5.6
		L480.9,5.6z M477.6,5c0,0.7,0,1.5-0.1,1.7c-0.2-0.3-0.5-1.1-0.8-1.9C477,4.9,477.3,5,477.6,5L477.6,5z M476.2,4.7
		c-0.1,1.4,0,3.3-0.2,4.3c-0.8-1.5-1.5-3.3-2-4.8C474.7,4.4,475.4,4.5,476.2,4.7L476.2,4.7z M473.3,4c-0.1,1.6-0.5,3.6-1.5,5.1
		c-1.2-1.2-0.9-3.2-1-5.1c-0.3,1.2-0.8,2.6-1.2,3.6c0.3-2-0.5-3.3-1-5.1C470,3,471.5,3.5,473.3,4L473.3,4z M466.4,1.6l-0.1,0.1
		L466.4,1.6L466.4,1.6L466.4,1.6z M464.7,0.9c-0.2,0.7-0.4,1.4-0.6,2.1c0-0.8-0.1-1.6-0.2-2.4C464.1,0.6,464.4,0.7,464.7,0.9
		L464.7,0.9z M509.1,23.2c1.4,1.3,2.8,2.6,4.1,3.7C507,26.1,507.5,24.3,509.1,23.2L509.1,23.2z M514.3,27.8c1.1,0.9,2.1,1.7,3.1,2.5
		c-2.9,0.5-5.3,0.8-7.5-0.6C511.5,29.4,512.8,28.7,514.3,27.8L514.3,27.8z M517.8,30.7c1.2,1,2.4,1.8,3.4,2.5
		c-4.1,0.9-8.8,1.3-11.5,0.6C511.8,33.7,514.9,32.5,517.8,30.7L517.8,30.7z M511,4.1c2.6-0.3,5-1,7.2-1.8C515.4,3.9,513,4.1,511,4.1
		L511,4.1z M522,0.5c0.6-0.3,1.2-0.7,1.7-1c-0.7,0.9-1.3,1.8-1.9,2.9C521.6,1.9,521.9,1.2,522,0.5L522,0.5z M526.8-2.7
		c0.6-0.5,1.2-1,1.8-1.5c-0.5,1-0.7,1.9-0.9,2.6C527.4-1.9,527.1-2.3,526.8-2.7L526.8-2.7z M504.2-13.5c0.1-1,0.3-2,0.4-3.1
		c0.4,1.5,0.7,3.1,0.7,4.8C505-12.1,504.6-12.8,504.2-13.5L504.2-13.5z M504.9-19.4c0.1-0.6,0.1-1.2,0.2-1.7
		c0.4,0.9,0.7,1.8,0.9,2.7C505.8-18.6,505.4-19,504.9-19.4L504.9-19.4z M505.7-28.5c0-0.4,0-0.7,0.1-1.1c0.2,0.5,0.3,0.9,0.4,1.5
		C506.1-28.3,505.9-28.4,505.7-28.5L505.7-28.5z M506.1-34.6v-0.5c0.2,0.3,0.4,0.5,0.6,0.8C506.4-34.4,506.2-34.5,506.1-34.6
		L506.1-34.6z M506.2-37.3c0-0.4,0-0.9,0-1.3c0.8,1,1.6,1.9,2.3,2.5C507.7-36.5,506.9-36.8,506.2-37.3L506.2-37.3z M506.3-41.7
		c0-0.7,0-1.4,0-2c1.1,1.2,2.1,2.7,2.8,4C508.3-40.3,507.3-40.9,506.3-41.7L506.3-41.7z M506.3-44.9c0-0.7,0-1.4,0-2.1
		c1.5,1.7,2.8,3.7,3.7,5.1C508.9-42.9,507.6-44.1,506.3-44.9L506.3-44.9z M478.5,18.8c-3.5,1.7-7.2,3.1-10.6,3.5
		c-0.4,0.1-0.9,0.1-1.3,0.1c2.4-0.8,4.8-2.3,8.7-2.8C476,19.4,477.1,19.2,478.5,18.8L478.5,18.8z M517.3-8c0.5-0.6,1-1.2,1.5-1.8
		C518.3-9,517.8-8.4,517.3-8L517.3-8z M521.8-13.6c0.3-0.4,0.6-0.8,0.9-1.2c0,0.4-0.1,0.7-0.3,1.1C522.3-13.4,522.1-13.4,521.8-13.6
		L521.8-13.6z M524.3-17l0.4-0.5c0,0.3,0,0.7,0,1L524.3-17L524.3-17z M525.7-19l0.6-0.8c0,0.7,0,1.3,0,1.8
		C526.1-18.3,525.9-18.7,525.7-19L525.7-19z M527.5-21.6c1-1.1,2.9-2.5,4.7-4.5c0.3,3-0.6,7.2-2,7.7C529-17.9,528.1-19.8,527.5-21.6
		z"/>
	<path class="st1" d="M486.9-194.2C507.8-122.9,607.5-24.4,635.2,1.5c2-2.2,4.6-3.6,7.3-4.2c-2.1-4-5.1-9-8.5-10.9
		c1.2-0.6,3-0.1,5.5,1.4c-2.4-2.6-5.8-7.6-9-9.4c1-0.1,3.2-0.2,5.2,1.4c-2.4-3-7.1-7-9.7-8.4c1.2-0.3,3.7,0.3,5.4,0.8
		c-2-2.9-3.6-3.5-6-5.2c1.4,0,3.3,0.4,4.2,0.9c-2.6-2.8-7-6.4-10.3-7.4c1.2-0.7,4.1-1.1,6.5-0.4c-4.6-5.4-10.4-9-16.8-9.1
		c4-3.1,10.3-1.8,15.3,1c-1.3-2.8-6.9-7.4-11.2-9.2c2.7,0.4,7.1,1.4,11.5,4.5c-3-3.8-5.9-6.7-10.1-8.5c1.5-0.6,5.5,0.7,7.2,1.8
		c-1.6-1.6-4.6-4.2-7.7-6.1c4-0.4,10.6,5,14.1,10.5c-0.8-5.3-4.9-10.2-7-13.1c3.4,2.4,6.6,5,9,11.5c0-3.2-1.7-10.1-5.8-16
		c16.7,19.5,22.8,41.8,24.9,57.7c1.9,0.9,3.5,2,5,3.6c0.1-4.4-2.6-7.2-5.7-10.7c4.4,1.9,8.6,4.8,10.1,7.3c-1.2-4.8-7-12-11.7-16
		c5.6,1.9,10.8,6.1,14.6,10.1c-0.4-5.1-4.7-11.9-8.5-15.9c5.5,2.4,9.9,7,14.1,12.6C666-30.7,660.9-37,657-40.5c4,1.2,6.1,3,8.1,6.2
		c-0.1-3.6-2.5-8.3-5.6-10c2.7,0.1,4.4,1.1,6.3,2.9c-0.8-2.9-3.5-9.7-5.6-11.9c1.9,0.6,4.5,2.8,5.8,4.9c-1.5-4.4-5.2-11.1-10.7-15.3
		c1.7,1.1,5.7,2.5,8.1,5.3c-1.6-4.5-5.6-7.5-8.3-9.7c8.3,2.7,14.7,7.8,17.5,12.1c-0.1-3.1-2.9-5.2-4.8-8.2
		c7.3,3.2,10.2,9.5,11.1,19.9c1.8-4.8,2.3-10,2.1-15.3c4.1,5.8,1.3,16.7,0.2,22.7c-0.1,0.6-0.2,1.2-0.4,1.8c1.5,1.4,3.1,3.4,4.3,5.8
		c0.3-2-0.6-7.1-3-11c5.6,4.9,6.7,12,6.7,15.4c0.8-3.2,2.4-7,2.2-11.2c1.2,3.9,2.7,8.4,1,15.1c1.3-2.1,4-5.5,3.4-8.1
		c4.1,6.5-0.1,12.2-1,15.8c3.5-1.1,5.3-4.1,7-7c0.6,3.8-1.4,7.9-4.7,10.2c2-0.1,4.5-1,6.4-1.6c-1.8,2.1-5.6,3.7-8.8,6.2
		c1.7,0.5,4.1,0,6.7-0.3c5.2-6.6,7-15.2,3-20.3c3.7,1.4,5.8,6,5.6,8.5c1.5-1.9,2.3-3.5,2.2-5.6c1.4,1.1,0.9,4.6-0.2,6.6
		c5-2.6,6-9.9,3.2-14.1c4.9,3.1,5.1,8.5,3.4,12c3.2-2.6,4.6-7,4.6-10.9c1.5,1.5,2.4,5.8,1.2,9.3c2.7-3,4.6-5.7,5.1-9
		c0.8,3.8-0.1,7.8-5.4,14c2.8-0.2,7.4-6.1,8.2-8.6c-0.6,4.8-2,11.8-13.2,21.7c3.8-1,9.2-5.2,12.3-9.5c-1.7,6.1-6.6,11.2-15,16.6
		c3.5,0.9,8.1-2.1,12.1-4.2c-10.9,8.9-20.2,13.3-33.6,13.4c3.6,1.9,7.5,1,11.1,0.5c-3.5,1.3-10.3,2.2-17.8,2.6
		c0,1.4-0.6,3.1-2.1,4.1c-1.2,0.8,5.4-0.7,7-3.4c0.4,2.2-0.4,3.2-1.7,4.2c2.5-0.4,3.4-2.1,4.8-3.6c0,1.2-1.4,4.8-3.6,5.9
		c3.8-0.5,6.1-3.7,7.8-6.5c0.2,3.3-1.2,5.7-2.8,8.1c3-0.6,5.5-2,7.6-4.9c-0.5,3.8-1.6,6.5-4.7,8.2c2.9,0.5,5.5-0.4,6.3-4
		c2.6,2.1,1.3,4.5,2.1,6.2c2.4-3.7,1-5.8-0.1-8c3,1.3,7.1,5.1,7.5,9.6c1.4-2,1.2-5.7-0.4-8.2c4.5,2.7,2.1,6.9,3.7,5.8
		c2.5-1.7,4.3-3.8,5.6-7.2c1.1,1.9-1.4,6.9-3.8,8c3.4-0.6,6.6-1.6,9.7-2.9c-2.2,1.8-4.5,3.7-6.9,5.1c4.1,0.1,8.9,0.8,14.1,0.3
		c-4.4,1.7-10.5,2.2-15.2,1.9c1.4,0.6,4.2,2.5,7,2.8c-3.7,1.7-7.3,0.6-10.1,0.5c2.6,2.7,7.4,3,10.7,4c-5.3,0.5-14.5-0.6-24.1-5.2
		c1.1,0.8,8.3,6.2,13.2,7.7c-9.7-0.5-31.4-10.3-36.5-13.2c-2.9-1.7-9.8-4.8-16.5-8.2c5,4.7,10.4,7.9,11.2,8.7
		c1.1,1.1,4.6-0.4,6.1-0.2c-1.3,0.7-2.4,2-2.7,2.4c1.4,0.8,5.1,0.4,7.8,0.5c-2.5,1.5-4.3,2.2-5,4.7c2.3,0.9,6,0.4,9.2-1.2
		c-0.6,1.4-2.8,3.8-3.7,6.2c-0.4,1,6.8-1.2,9.6-2.2c-0.1,0.6-1.8,2.4-2.7,3.4c2-0.3,3.9-1,5.9-1.3c-0.6,1.2-2.8,3.3-2.6,4.6
		c3.2-0.5,6.2-1.9,9.3-2.5c-2.3,2.1-6,5.5-7.2,8.6c2.8-1.5,6.9-2.5,10.1-2.5c-1.6,0.9-2.2,2.6-2.1,3.1c1.9,0.1,4.2-1.1,5.8-1.5
		c-0.2,0.5-1.7,3.3-2,3.7c2.6-0.4,5.1-1.7,7.7-2.8c-1.8,2.1-4.2,4.3-7.3,6.3c3-0.6,8-2,11.4-3.9c-1.4,2.3-4,4.3-7.8,5.5
		c6.5,1.2,13.5,1.5,18.9,1.1c-1.5,0.3-9.1,3.9-15.2,2.8c0.4,0.6,1.3,1.7,3.2,2.1c-4.8,0.2-9.8-0.2-13.9-2.3c0.7,1.3,3.5,2.9,6.1,4.3
		c-4.6-0.6-9.2-1.6-18.7-9.2c1.4,1.4,2.3,4.5,6.5,8c-9.2-3.8-13-13.2-16.1-15.7c-5.5-4.6-11.8-10.3-17.5-16.5
		C682,57.6,683.3,71.1,683,78.8c-0.3,6.1,0,17.3-6,22.2c1.6-5.1,2.4-10.3,1.6-15.4c-3.6,9.9-8.5,15.5-17.3,17.1
		c2.9-2.5,6.5-4.1,7.4-7.1c-4.2,3.7-12.6,7.3-22.5,8.2c3.5-1.7,8.7-3.7,11.6-7.8c-3.4,2.2-8.1,2.8-10.3,3.5
		c7.2-3,12.9-8.8,15.7-12.8c-2.1,1.8-5.5,3.4-7.7,3.5c3-1.7,7.6-7.8,9.3-10.4c-2.5,1.3-4.7,2-7.7,1.5c3.9-1,7.8-5.1,8.8-8.6
		c-3,2.7-5.8,4-10.6,4.3c5.2-2.6,12.5-7.7,15.4-13.9c-6.1,4.6-12.1,8.2-18.9,9.4c5.2-3.2,11.7-8.9,13.5-13.8
		c-4.1,2.5-9.3,4.9-14.6,6.1c-0.3,1.2-0.6,2.2-0.9,3c-3.5,10.3-1.2,16.1-5.5,23.1c-0.6-3.6-0.6-7.2-1.8-9c-1.9,4.8-2.5,9.8-4.3,12.9
		c0.2-2.5,0.5-5.6,0-7.7c-1.6,4.8-5.4,9.2-9.7,10.8c2.6-3.5,5.4-7,5.6-11.4c-3.6,3.1-8.5,10.7-16.7,10.1c3-0.8,6-5.7,7.9-8.2
		c-6.7,5.6-12,6.6-16.5,7.5c4.6-2.2,8.3-6.2,11.4-8.8c-3.6,2-11.5,4.8-18.4,1.7c4.9,0.3,10.6-1.7,12.7-3.1c-4.6,0.1-8.4-1.3-9.9-2.8
		c2-0.4,3.8-1.1,4.6-2.6c-3-3-8.2-3.8-7.5-3.7c5.5-0.5,11.2,1,16.2,2.2c-2.4-2.3-5.9-4.5-9.2-6.2c4.2,0.1,6.1,0.1,9.4,1.8
		c-1.8-1.9-3.8-3.8-4.5-5.7c6,4.6,10.5,0.7,15,3c-0.9-1.2-2.6-2.7-4-3.7c2.7,0.7,5.1,2.2,7.8,0.6c-1.7-3.1-5.6-4.9-8.2-5.6
		c3.1-0.3,7.5-0.5,11.4-1.4c-1.7-1-6-2.1-7.6-3.1c1,0.1,4.6-0.1,5.6-0.5c-0.4-0.6-3.8-1.2-4-1.8c3.4-0.5,4.8-1.9,7.1-3.1
		c-0.7-1-4.2-1.5-3-1.9c2.1-0.7,4-3.3,4.8-3.5c3.8-0.8,1-2.3-1.5-4.3c-8,11.9-20.1,24.7-37.3,30.9c5.5-2.8,9.4-8.1,10.6-11
		c-4.4,4.5-7.9,4.8-11.4,4.8c2.7-1.3,7.8-3.2,10.4-7.6c-4.8,2.7-12,3.5-15,0.5c3.2,0.3,6.4-0.2,8.3-0.7c-1.7-0.2-5.3-1.5-6.3-3
		c4,1,7.3,0.2,11.1-1.4c-4.6,0.1-8.4-1.8-10.6-3.2c4.1,1.1,10.1,0.4,12.2-1.3c-1.7-0.2-3.5-0.7-5.1-1.5c-1.4,0.6-2.7,1.1-4,1.5
		c-6.8,1.9-13.1,3.4-20.3,4.3c-8,1-16.6-4.1-23.8-3.6c5.1-2,10.5-0.7,16.1-0.4c-7.2-3.1-19.5-8.4-26.5-10.1c9.2-1.9,20.6,4.8,29,6.7
		c-3.6-3.5-7.2-5.7-15.9-10.5c6.5,1,11.6,4.2,14.3,5.4c-1.3-2.4-3.5-4.3-5.8-5.4c6.1,0.4,12,5.2,15.8,8.5
		c-2.2-5.4-7.4-10.1-11.2-12.2c8.3,2.2,12.7,9.2,16.9,10.5c-1.4-2.7-6.7-8.1-10.2-10.9c4,1.6,8.5,3.3,12.8,7.3
		c-1.5-2.6-2.8-3.8-4.9-5.6c2.9,0.2,8.9,3,10.7,5.5c-1.6-3.2-5.7-4.6-8.8-9.3c2.4,1.9,8.8,5.1,14.9,5.5c-2.5-2.1-4.5-3.5-6.5-5.8
		c3,0.9,8.4,3.5,9.4,4.6c-0.1-0.7-0.9-3-2.2-4.5c-10.3,0.1-19.4-1.8-25.5-0.5c0.8-0.5,4.8-2.2,5.9-2.6
		c-11.9-0.8-38.6-17.1-43.4-34.8c2.9,4.4,5.2,9.7,10.7,12.2c-1.1-1.7-1.8-3.5-1.5-5.7c1.2,3.1,7.7,9.7,9.9,9.7
		c-0.9-1.7-2.8-4-2.4-5.2c2.8,4.2,8.2,9.2,8.1,5.5c2.3,3.1,5.7,7.1,8.8,9.2c-2.4-2.7-2.5-4.2-2.8-6.8c1.3,3.4,8.6,7,10.4,8.6
		c-1.6-4-1.1-5.3-1.9-8.7c-3.4-0.2-7.1-1-10.7-3.1c5.2,1.2,8,0.1,10,0.3c-11.5-2.9-15.2-5.9-18.4-9.2c2.6,1.3,5.6,2.6,7,2.3
		c-4.1-1.9-7.5-5.7-10.3-9.6c1.5,1.2,2.9,1.3,3.5,1.2c-4.6-4.2-6.5-12.3-7.2-13.7c3.1,4.5,7.6,9.9,12.5,14.3c-1.4-3.8-1.5-7-0.6-9.5
		c0.6,3.7,2.7,8.7,4.1,11.4c-0.5-3.7-0.2-6.9,0.3-9.6c0.7,2.8,1.3,5.6,2.6,7.9c0.1-0.5,1.3-3.4,1.5-3.8c0.7,1.6,1.2,4.1,2.5,5.5
		c0.5-0.3,1.3-1.7,1.1-3.5c1.9,2.6,3.7,6.3,4.3,9.5c1.6-2.9,1.8-7.8,2-10.9c1.5,2.8,2.3,6,3.9,8.9c1.1-0.7,1.3-3.7,1.9-4.9
		c1,1.8,1.7,3.7,2.6,5.5c0.2-1.4,0.6-3.8,0.9-4.3c1,2.8,3.7,9.9,4.2,9c1.2-2.1,1.7-5.3,2.4-6.6c0.8,3.6,2.7,6.8,4.8,8.1
		c1.5-2,0.9-3.9,0.5-6.8c1.7,2.1,3.7,5.2,5.2,5.9c0.2-0.4,0.5-2.2,0.1-3.6c1.1,1,2.1,4.7,3.6,4.9c1.3,0.2,8.5,3.2,16.2,4
		c0-0.3,0-0.6,0-0.9C621.6,6,608-0.1,599.9-4.8c-5.4-3.1-10.6-5.8-16.4-7.9c-5-1.8-10.7-4.5-17-6.1c4-0.8,7.1-0.4,10.7-1.4
		c-4.7-3.7-7.4-4.6-12.1-7.1c4.3-0.4,9.7,1.6,12.9,3.1c-5.1-4.3-9.3-10.4-9.8-15.6c3.7,5.6,8.3,11.3,13.4,15.8
		c-3.1-5.9-5.1-10-4.2-15.3c0.4,3.5,2.7,7.4,4.5,9.7c-0.3-3.3-0.5-7.1-1.1-11.1c2.6,3.8,3.8,9.4,4.6,13.9c-0.1-3.4-0.2-6.5,0.4-9.1
		C542.7-82,488.9-156.7,472.1-189.2C470.6-192.4,486.6-196.7,486.9-194.2L486.9-194.2z M686.1,16.9c-1.7,0.1-3.3,0.1-5,0.1
		c-0.4,0.9-1,1.7-1.2,2C682,18.9,684.7,18.7,686.1,16.9L686.1,16.9z M678.2,17c-0.9,0-1.7,0-2.6-0.1c-0.2,0.3-0.5,0.6-0.8,0.8
		C675.8,17.5,677,17.4,678.2,17L678.2,17z M672.2,16.9c-0.4,0-0.8-0.1-1.3-0.1c0.2,0.3,0.5,0.4,0.8,0.4
		C671.9,17,672.1,16.9,672.2,16.9L672.2,16.9z M650.1-2.6c0.2,0,0.3,0.1,0.5,0.1c0.2-2.3,0-5.1-0.9-8.4C649.9-7.7,650-5,650.1-2.6
		L650.1-2.6z M638.1,42.6c1-0.5,2.2-0.6,3.3-0.6c-0.1-0.9-1-1.4-1.6-2C639.3,40.8,638.7,41.7,638.1,42.6L638.1,42.6z M641.7,36.8
		c0.1-0.2,0.3-0.4,0.4-0.6c0.1-0.2,0.7-1.2,1.3-2.5C642.8,34.7,642.3,35.8,641.7,36.8L641.7,36.8z M634.8,27.9l-0.3,0.3
		c0.3-0.1,0.5-0.2,0.7-0.3C635.1,27.9,635,27.9,634.8,27.9L634.8,27.9z M613.8,44.7l-0.4,0.3c0.2-0.1,0.4-0.1,0.6-0.2L613.8,44.7
		L613.8,44.7z M660.3,1.4c0.1,0,0.2,0,0.4,0l-0.1-0.3L660.3,1.4L660.3,1.4z M662.1-0.7c1.8,1,3,1.5,2.2-0.9
		c-0.1-0.4,0.3-1.4,0.6-2.5C664-3,663.1-1.9,662.1-0.7L662.1-0.7z M666.1-5.7c0.6,0.6,1.3,1.3,1.8,1.4c0-1.4,0.2-2.6,0.1-4
		C667.4-7.4,666.8-6.6,666.1-5.7L666.1-5.7z M668.9-9.6c0.7,0.7,1.4,1.5,1.8,1.6c-0.1-0.5-0.6-1.7-1.1-2.7
		C669.4-10.3,669.1-9.9,668.9-9.6L668.9-9.6z M670.1-11.3c1.5,1.4,3.3,3.4,4.4,4.2c-0.6-2.4-1.7-4.8-2.7-7
		C671.3-13.2,670.7-12.2,670.1-11.3L670.1-11.3z M672.4-15c1.8,1.6,4.1,3.2,6.6,3.8c0.1-2.5-2.2-4.2-4-6.3c1.4,0.9,3.4,2,4.8,2.5
		c-2.2-1.8-2.7-4-4-6.3C674.8-19.3,673.7-17.2,672.4-15L672.4-15z M677.2-24.2l0.2,0.1L677.2-24.2L677.2-24.2L677.2-24.2z
		 M678.2-26.7c0.9,0.6,1.8,1.1,2.7,1.5c-0.7-0.9-1.5-1.8-2.2-2.7C678.5-27.5,678.4-27.1,678.2-26.7L678.2-26.7z M654.2,40.5
		c-0.1,2.7-0.3,5.4-0.6,8C659.2,41.4,656.9,40,654.2,40.5L654.2,40.5z M653.4,50.4c-0.2,2-0.5,3.9-0.7,5.6c3.5-2.3,6.3-4.4,7.2-8.1
		C657.8,49.2,655.8,49.9,653.4,50.4L653.4,50.4z M652.5,56.9c-0.3,2.2-0.7,4.2-1.1,6c5.2-3.1,10.5-7.3,12.5-10.8
		C661.8,54,657.3,55.9,652.5,56.9L652.5,56.9z M633.4,22.5c-3.1,2.2-6.2,4-9.3,5.2C628.5,26.6,631.3,24.5,633.4,22.5L633.4,22.5z
		 M618.3,29.6c-0.9,0.2-1.9,0.5-2.8,0.6c1.6,0.2,3.1,0.6,4.8,1.1C620.1,30.8,619.1,30.2,618.3,29.6L618.3,29.6z M610.2,31.1
		c-1.1,0.1-2.2,0.2-3.3,0.2c1.4,0.5,2.6,1.2,3.6,1.8C610.3,32.5,610.2,31.7,610.2,31.1L610.2,31.1z M623-2.5
		c-1.1-0.9-2.3-1.8-3.5-2.8c1,2,2.3,3.8,4,5.7C623.5-0.3,623.3-1.4,623-2.5L623-2.5z M616.3-7.9c-0.6-0.5-1.3-1.1-1.9-1.6
		c0.5,1.3,1,2.5,1.7,3.6C616.2-6.3,616.3-7,616.3-7.9L616.3-7.9z M606.5-16.6c-0.4-0.4-0.8-0.7-1.2-1.1c0.3,0.6,0.6,1.3,1,1.9
		C606.4-16,606.5-16.3,606.5-16.6L606.5-16.6z M600.1-22.6l-0.5-0.5c0.1,0.5,0.2,0.9,0.2,1.4C599.9-22,600-22.3,600.1-22.6
		L600.1-22.6z M597.3-25.3c-0.4-0.4-0.9-0.9-1.3-1.3c0.2,1.8,0.2,3.5,0,4.9C596.5-22.9,597-24,597.3-25.3L597.3-25.3z M592.9-29.8
		c-0.7-0.7-1.4-1.4-2.1-2.1c0.1,2.4,0.5,4.9,1.1,6.9C592.2-26.3,592.6-27.9,592.9-29.8L592.9-29.8z M589.7-33
		c-0.7-0.7-1.4-1.4-2.1-2.1c0.1,3.2,0.7,6.6,1.2,9C589-28.4,589.1-31,589.7-33L589.7-33z M681.6,5.5c5.4-1.7,10.5-3.9,14.5-6.9
		c0.5-0.4,1-0.8,1.5-1.2c-3.3,1.5-7.3,2.4-11.8,5.6C684.8,3.8,683.4,4.6,681.6,5.5L681.6,5.5z M614.8,16.2c-1.1-0.1-2.2-0.2-3.3-0.4
		C612.8,16.2,613.9,16.2,614.8,16.2L614.8,16.2z M604.6,14.8c-0.7-0.1-1.5-0.2-2.2-0.4c0.4,0.3,0.8,0.6,1.4,0.8
		C604.2,15.5,604.4,15.2,604.6,14.8L604.6,14.8z M598.6,13.7l-0.9-0.2c0.3,0.4,0.6,0.7,1,1L598.6,13.7L598.6,13.7z M595.2,13
		l-1.4-0.3c0.7,0.7,1.3,1.4,1.8,1.9C595.4,14.1,595.3,13.6,595.2,13L595.2,13z M590.7,12.1c-2.2-0.2-5.5,0.2-9.3,0
		c2.7,3.4,7.7,6.9,9.7,6.1C592.8,17.5,591.9,14.6,590.7,12.1z"/>
</g>
<rect id="SVGID_3_" x="2" y="1.4" class="st2" width="658.3" height="192.9"/>
</svg>
